<svg data-name="vuesax/outline/arrow-down" xmlns="http://www.w3.org/2000/svg" width="24" height="24" viewBox="0 0 24 24">
    <path d="M8.635 8.681a2.7 2.7 0 0 1-1.923-.808L.217 1.29a.769.769 0 0 1 0-1.07.745.745 0 0 1 1.056 0L7.769 6.8a1.215 1.215 0 0 0 1.731 0L16 .22a.745.745 0 0 1 1.056 0 .769.769 0 0 1 0 1.07l-6.5 6.583a2.7 2.7 0 0 1-1.921.808z" transform="translate(3.365 8.158)" style="fill:#00d1bc;stroke:#00d1bc;stroke-width:.5px"/>
    <path data-name="Vector" d="M0 0h24v24H0z" style="fill:none"/>
</svg>
