<svg xmlns="http://www.w3.org/2000/svg" width="255.883" height="262" viewBox="0 0 255.883 262">
    <defs>
        <clipPath id="9u4fsc0nwa">
            <path data-name="Rectangle 724" transform="translate(.559 .5)" style="fill:#fff" d="M0 0h255.883v262H0z"/>
        </clipPath>
    </defs>
    <g transform="translate(-.559 -.5)" style="clip-path:url(#9u4fsc0nwa)">
        <path data-name="Path 5550" d="M133.189 253.835h-1.835V251.8a111.769 111.769 0 0 0 19.37-1.326l.306 2.039a128.864 128.864 0 0 1-17.841 1.322zm-58.516-15.292a124.834 124.834 0 0 1-16.413-11.01l1.325-1.631a114.731 114.731 0 0 0 16.107 10.908zm130.49-8.971-1.223-1.632a116.156 116.156 0 0 0 14.476-12.947l1.529 1.428a112.8 112.8 0 0 1-14.782 13.151zM22.884 180.74a118.667 118.667 0 0 1-6.117-18.758l1.937-.51a130 130 0 0 0 6.015 18.452zm225.708-15.5-1.937-.51a120.62 120.62 0 0 0 3.466-19.064v-.2l2.039.2v.2a124.639 124.639 0 0 1-3.568 19.378zm1.733-39.24a110.179 110.179 0 0 0-2.957-19.166l1.937-.51a115.3 115.3 0 0 1 2.957 19.472zM19.52 103.771l-1.937-.51a129.422 129.422 0 0 1 6.627-18.554l1.835.816a114.291 114.291 0 0 0-6.525 18.248zm201.139-48.118A124.569 124.569 0 0 0 206.59 42.3l1.223-1.631a120.372 120.372 0 0 1 14.375 13.559zM62.133 40.463l-1.223-1.631a113.119 113.119 0 0 1 16.719-10.6l.918 1.835a120.293 120.293 0 0 0-16.414 10.396zm91.853-22.02c-3.16-.51-6.32-1.019-9.481-1.325-3.262-.306-6.626-.51-9.888-.51v-2.04a83.786 83.786 0 0 1 10.092.612c3.262.306 6.423.714 9.583 1.325z" style="stroke:#fff;fill:#fff"/>
        <path data-name="Path 5551" d="M249.611 91.13h-20.287v-21.2h20.287zm-18.962-8.87h17.739V71.148h-17.739z" style="fill:#fff"/>
        <path data-name="Path 5552" d="M204.306 28.127A15.088 15.088 0 1 0 186.2 39.411a15.088 15.088 0 0 0 18.106-11.284z" style="stroke-width:1.8px;fill:none;stroke-miterlimit:10;stroke:#fff"/>
        <path data-name="Path 5553" d="m195.706 23.54-6.525 3.16-6.422-2.753 3.058-5.709 3.059-5.709 3.364 5.5z" style="stroke-width:1.4px;fill:none;stroke-miterlimit:10;stroke:#fff"/>
        <path data-name="Path 5554" d="m182.759 26.19 6.524 2.956 6.423-3.262-3.16 5.709-3.059 5.707-3.364-5.6z" style="stroke-width:1.4px;fill:none;stroke-miterlimit:10;stroke:#fff"/>
        <path data-name="Path 5555" d="M195.274 238.951a14.452 14.452 0 1 1-10.5-17.535 14.446 14.446 0 0 1 10.5 17.535z" style="stroke-width:1.8px;fill:none;stroke-miterlimit:10;stroke:#fff"/>
        <path data-name="Path 5556" d="M187.628 233.446c.306-1.937-1.223-2.957-3.16-3.671l.612-2.65-1.631-.408-.612 2.549-1.223-.306.611-2.549-1.631-.411-.612 2.651a3.61 3.61 0 0 0-1.019-.2l-2.141-.51-.408 1.734s1.224.305 1.122.305a.905.905 0 0 1 .713.918l-.713 2.956-1.02 4.18a.613.613 0 0 1-.713.408l-1.122-.306-.815 1.835 2.039.51c.407.1.713.2 1.121.306l-.612 2.65 1.631.408.612-2.651 1.224.306-.612 2.549 1.631.408.612-2.651c2.65.51 4.689.306 5.607-2.141a2.815 2.815 0 0 0-1.428-3.874 2.533 2.533 0 0 0 1.937-2.345zm-3.568 5.1c-.509 1.937-3.772.917-4.893.611l.917-3.466c1.016.201 4.486.709 3.976 2.852zm.51-5.2c-.408 1.835-3.16.917-4.078.611l.816-3.16c.815.303 3.67.712 3.262 2.547z" style="stroke-width:1.4px;fill:none;stroke-miterlimit:10;stroke:#fff"/>
        <path data-name="Path 5557" d="M111.577 125.893 123 114.475l2.446-2.345 5.607-5.709 19.472 19.472 11.316-11.418-30.793-30.686-30.787 30.686z" style="fill:#fff"/>
        <path data-name="Path 5558" d="M131.121 122.675 119.8 133.993l11.318 11.317 11.317-11.317z" style="fill:#fff"/>
        <path data-name="Path 5559" d="m150.52 142.1-19.472 19.472-6.83-6.83-1.218-1.324-11.423-11.318-11.316 11.316 30.787 30.788 30.788-30.788z" style="fill:#fff"/>
        <path data-name="Path 5560" d="m92.164 122.705-11.317 11.317 11.317 11.318 11.318-11.318z" style="fill:#fff"/>
        <path data-name="Path 5561" d="m169.947 122.692-11.318 11.317 11.318 11.318 11.317-11.318z" style="fill:#fff"/>
        <path data-name="Path 5562" d="m232.178 190.526 2.651-2.65.611-.51 1.326-1.325 4.485 4.485 2.549-2.65-7.034-7.034-7.137 7.034z" style="stroke-width:1.4px;fill:none;stroke-miterlimit:10;stroke:#fff"/>
        <path data-name="Path 5563" d="m236.731 189.75-2.6 2.6 2.6 2.6 2.6-2.6z" style="stroke-width:1.4px;fill:none;stroke-miterlimit:10;stroke:#fff"/>
        <path data-name="Path 5564" d="m241.251 194.3-4.485 4.486-1.632-1.631-.305-.306-2.651-2.549-2.549 2.549 7.137 7.136 7.034-7.136z" style="stroke-width:1.4px;fill:none;stroke-miterlimit:10;stroke:#fff"/>
        <path data-name="Path 5565" d="m227.678 189.813-2.6 2.6 2.6 2.6 2.6-2.6z" style="stroke-width:1.4px;fill:none;stroke-miterlimit:10;stroke:#fff"/>
        <path data-name="Path 5566" d="m245.7 189.757-2.6 2.6 2.6 2.6 2.6-2.6z" style="stroke-width:1.4px;fill:none;stroke-miterlimit:10;stroke:#fff"/>
        <path data-name="Path 5567" d="m39.808 190.949-8.65 8.65 2.523 2.523 8.65-8.65z" style="fill:#fff"/>
        <path data-name="Path 5568" d="M30.153 200.585 27.2 203.54l2.523 2.523 2.955-2.955z" style="fill:#fff"/>
        <path data-name="Path 5569" d="m44.363 195.432-12.687 12.687 2.523 2.523 12.687-12.687z" style="fill:#fff"/>
        <path data-name="Path 5570" d="m48.672 199.648-12.688 12.687 2.523 2.523 12.687-12.687z" style="fill:#fff"/>
        <path data-name="Path 5571" d="M106.887 1.112a14.68 14.68 0 1 0 14.68 14.68 14.619 14.619 0 0 0-14.68-14.68zm1.122 24.263h-2.651c-2.854-.51-4.18-2.549-4.486-5.4v-.1c0-.51.2-.816.612-.816h1.427c.2 0 .51.2.612.714.2 1.733 1.019 2.956 3.262 2.956a2.843 2.843 0 0 0 2.855-3.058c0-1.835-.816-2.447-3.161-3.058a9.013 9.013 0 0 1-2.65-.816 4.181 4.181 0 0 1-2.141-2.243 7.123 7.123 0 0 1-.408-2.752c0-2.854 1.631-5.1 4.18-5.505l2.651.1c1.936.2 3.466 2.141 3.873 4.588v.1c0 .408-.2.816-.611.816h-1.326a.753.753 0 0 1-.611-.51 2.6 2.6 0 0 0-2.855-2.345 2.308 2.308 0 0 0-2.548 2.549c0 1.529.509 2.447 3.058 2.956 2.141.306 3.67 1.019 4.486 2.243a6.186 6.186 0 0 1 .815 3.568c-.204 3.056-1.835 5.401-4.383 6.013z" style="stroke-width:1.8px;fill:none;stroke-miterlimit:10;stroke:#fff"/>
        <path data-name="Path 5572" d="M112.188 19.36c0 3.058-1.733 5.4-4.281 6.015h-2.651c-2.854-.51-4.18-2.549-4.485-5.4v-.1c0-.51.2-.816.611-.816h1.427c.2 0 .51.2.612.714.2 1.733 1.02 2.956 3.262 2.956a2.843 2.843 0 0 0 2.855-3.058c0-1.835-.816-2.447-3.16-3.058a9.02 9.02 0 0 1-2.651-.816 4.181 4.181 0 0 1-2.141-2.243 7.123 7.123 0 0 1-.408-2.752c0-2.854 1.631-5.1 4.18-5.505l2.651.1c1.937.2 3.466 2.141 3.874 4.588v.1c0 .408-.2.816-.612.816h-1.325a.753.753 0 0 1-.612-.51 2.6 2.6 0 0 0-2.855-2.345 2.308 2.308 0 0 0-2.548 2.549c0 1.529.51 2.447 3.058 2.956 2.141.306 3.67 1.019 4.486 2.243a6.914 6.914 0 0 1 .713 3.566z" style="stroke-width:1.019px;fill:none;stroke-miterlimit:10;stroke:#fff"/>
        <path data-name="Path 5573" d="M41.744 36.079a14.68 14.68 0 1 0 14.68 14.68 14.619 14.619 0 0 0-14.68-14.68z" style="stroke-width:1.8px;fill:none;stroke-miterlimit:10;stroke:#fff"/>
        <path data-name="Path 5574" d="M8.612 123.039h16.311s-7.34 18.044-7.646 17.942-8.665-17.942-8.665-17.942z" style="stroke-width:1.4px;fill:none;stroke-miterlimit:10;stroke:#fff"/>
        <path data-name="Path 5575" d="m21.559 130.99-12.335-7.544" style="stroke-width:1.4px;fill:none;stroke-miterlimit:10;stroke:#fff"/>
        <path data-name="Path 5576" d="m12.384 132.01 12.233-8.87" style="stroke-width:1.4px;fill:none;stroke-miterlimit:10;stroke:#fff"/>
        <path data-name="Path 5577" d="M238.091 73.595h-4.078v-1.427h9.787v1.427h-4.078v7.136h-1.631z" style="fill:#fff"/>
        <path data-name="Path 5578" d="M230.783 84.491v-.525h3.667v.525h-1.538v4.363h-.592v-4.363zm7.789-.525h.592V87.2a1.7 1.7 0 0 1-.237.9 1.654 1.654 0 0 1-.661.618 2.351 2.351 0 0 1-2.005 0 1.675 1.675 0 0 1-.664-.618 1.718 1.718 0 0 1-.234-.9v-3.235h.592v3.189a1.275 1.275 0 0 0 .158.637 1.124 1.124 0 0 0 .449.437 1.64 1.64 0 0 0 1.4 0 1.106 1.106 0 0 0 .449-.437 1.275 1.275 0 0 0 .158-.637zm4.447 1.222a.749.749 0 0 0-.348-.563 1.339 1.339 0 0 0-.75-.2 1.425 1.425 0 0 0-.568.105.907.907 0 0 0-.377.289.693.693 0 0 0-.134.418.6.6 0 0 0 .093.337.829.829 0 0 0 .244.232 1.732 1.732 0 0 0 .31.15c.108.038.208.069.3.093l.5.134a4.354 4.354 0 0 1 .425.139 1.966 1.966 0 0 1 .451.241 1.226 1.226 0 0 1 .358.387 1.114 1.114 0 0 1 .141.58 1.283 1.283 0 0 1-.208.716 1.414 1.414 0 0 1-.6.508 2.205 2.205 0 0 1-.957.189 2.239 2.239 0 0 1-.91-.17 1.442 1.442 0 0 1-.6-.473 1.346 1.346 0 0 1-.246-.7h.611a.767.767 0 0 0 .186.458 1.009 1.009 0 0 0 .415.267 1.683 1.683 0 0 0 .545.086 1.6 1.6 0 0 0 .608-.11 1.046 1.046 0 0 0 .428-.31.735.735 0 0 0 .157-.468.572.572 0 0 0-.136-.4 1 1 0 0 0-.358-.248 3.744 3.744 0 0 0-.48-.167l-.6-.172a2.234 2.234 0 0 1-.907-.47 1.033 1.033 0 0 1-.335-.8 1.186 1.186 0 0 1 .222-.716 1.474 1.474 0 0 1 .6-.477 2.029 2.029 0 0 1 .847-.172 1.992 1.992 0 0 1 .841.17 1.45 1.45 0 0 1 .582.458 1.14 1.14 0 0 1 .229.661zm3.122 3.666h-1.509v-4.889h1.576a2.385 2.385 0 0 1 1.217.294 1.921 1.921 0 0 1 .776.838 2.905 2.905 0 0 1 .27 1.3 2.949 2.949 0 0 1-.272 1.315 1.943 1.943 0 0 1-.793.845 2.539 2.539 0 0 1-1.265.297zm-.917-.525h.879a1.963 1.963 0 0 0 1.005-.234 1.443 1.443 0 0 0 .594-.666 2.786 2.786 0 0 0 0-2.048 1.421 1.421 0 0 0-.577-.659 1.825 1.825 0 0 0-.957-.231h-.946z" style="fill:#edb70b"/>
        <path data-name="Path 5579" d="M116.878 13.447h-9.991" style="stroke-width:1.4px;fill:none;stroke-miterlimit:10;stroke:#fff"/>
        <path data-name="Path 5580" d="M101.484 13.447h-5.3" style="stroke-width:1.4px;fill:none;stroke-miterlimit:10;stroke:#fff"/>
        <path data-name="Path 5581" d="M116.878 15.792h-5.5" style="stroke-width:1.4px;fill:none;stroke-miterlimit:10;stroke:#fff"/>
        <path data-name="Path 5582" d="M103.625 15.792h-7.442" style="stroke-width:1.4px;fill:none;stroke-miterlimit:10;stroke:#fff"/>
        <path data-name="Path 5583" d="M41.336 50.759a4.2 4.2 0 0 1-4.18 4.18 4.134 4.134 0 0 1-4.18-4.18 4.2 4.2 0 0 1 4.18-4.18" style="stroke-width:1.4px;fill:none;stroke-miterlimit:10;stroke:#fff"/>
        <path data-name="Path 5584" d="M41.744 50.759a4.18 4.18 0 1 1 4.18 4.18" style="stroke-width:1.4px;fill:none;stroke-miterlimit:10;stroke:#fff"/>
        <path data-name="Path 5585" d="M37.768 50.759H44.8" style="stroke-width:1.4px;fill:none;stroke-miterlimit:10;stroke:#fff"/>
        <path data-name="Path 5586" d="m48.166 56.57-3.058-1.733 2.243-2.345" style="stroke-width:1.4px;fill:none;stroke-miterlimit:10;stroke:#fff"/>
        <path data-name="Path 5587" d="m34.914 44.541 3.058 1.733-2.243 2.446" style="stroke-width:1.4px;fill:none;stroke-miterlimit:10;stroke:#fff"/>
        <path data-name="Path 5588" d="M112.087 248.839v2.855a1.236 1.236 0 0 1-.714 1.223l-1.529.918c-.51.3-1.121.611-1.631.917s-1.121.612-1.631.918a.764.764 0 0 1-.51.1h-.612a.373.373 0 0 1-.305-.1 2.134 2.134 0 0 1-.612-.408c-.408-.2-.714-.408-1.121-.612-.306-.2-.612-.306-.918-.51s-.714-.407-1.019-.611-.612-.306-.918-.51a2.229 2.229 0 0 1-.51-.306 1.24 1.24 0 0 1-.611-1.019v-2.141c0-.1 0-.1.1-.1.611-.306 1.223-.714 1.835-1.019.1-.1.2-.1.407-.2h.1v1.937a1.309 1.309 0 0 0 .408 1.019 1.018 1.018 0 0 0 .51.408l1.529.917a4.134 4.134 0 0 0 .918.51 1.441 1.441 0 0 0 .611.2 1.294 1.294 0 0 0 .612-.1.773.773 0 0 0 .408-.2l1.529-.917c.306-.2.51-.306.815-.51a1.474 1.474 0 0 0 .714-1.02v-3.16a1.72 1.72 0 0 0-.306-1.019 1.018 1.018 0 0 0-.51-.408l-1.529-.918a4.123 4.123 0 0 0-.917-.509 1.45 1.45 0 0 0-.612-.2 1.294 1.294 0 0 0-.612.1.771.771 0 0 0-.407.2c-.306.2-.714.407-1.02.611a5.678 5.678 0 0 0-.815.51c-.306.2-.714.408-1.02.612s-.612.306-.917.509-.714.408-1.02.612-.509.306-.815.51-.714.408-1.019.611a5.687 5.687 0 0 0-.816.51c-.306.2-.714.408-1.019.612a1.448 1.448 0 0 1-.612.2 1.185 1.185 0 0 1-1.02-.2c-.306-.2-.714-.408-1.019-.612s-.51-.306-.816-.51-.714-.407-1.019-.611-.612-.306-.917-.51-.714-.408-1.02-.612a1.576 1.576 0 0 1-.816-1.121v-5.913a1.308 1.308 0 0 1 .408-1.019 1.408 1.408 0 0 1 .408-.306c.408-.306.917-.51 1.325-.816.612-.306 1.223-.713 1.835-1.019.51-.306.917-.51 1.427-.816l.612-.306h.816a.374.374 0 0 1 .306.1c.2.1.51.306.714.408.408.2.816.51 1.223.714s.815.51 1.223.713a14.323 14.323 0 0 1 1.632 1.02 2.7 2.7 0 0 1 .611.51 1.441 1.441 0 0 1 .2.611v2.034c0 .1 0 .1-.1.1l-1.529.918-.612.3h-.1v-1.835a1.47 1.47 0 0 0-.816-1.325c-.612-.306-1.121-.713-1.733-1.019-.306-.2-.51-.306-.815-.51a1.448 1.448 0 0 0-.612-.2 1.734 1.734 0 0 0-.714.1c-.2.1-.306.2-.51.306-.306.2-.714.408-1.019.612a4.166 4.166 0 0 1-.917.509c-.2.1-.306.2-.51.306a1.374 1.374 0 0 0-.51.918v3.262a1.422 1.422 0 0 0 .306.917 1.018 1.018 0 0 0 .51.408 14.274 14.274 0 0 1 1.631 1.02 4.128 4.128 0 0 0 .917.509 1.634 1.634 0 0 0 1.529-.1c.612-.305 1.121-.713 1.733-1.019l1.529-.918.611-.305a5.694 5.694 0 0 0 .816-.51l.611-.306a3.578 3.578 0 0 0 .816-.51c.408-.2.816-.509 1.223-.713s.816-.51 1.224-.714c.2-.1.305-.2.509-.306a1.706 1.706 0 0 1 1.224-.1c.1.1.306.1.407.2.408.2.714.408 1.122.612.306.2.714.408 1.019.612s.714.407 1.02.611.611.306.917.51a2.23 2.23 0 0 1 .51.306 1.382 1.382 0 0 1 .714 1.121v.2a10.128 10.128 0 0 0-.403 3.272z" style="stroke-width:1.4px;fill:none;stroke-miterlimit:10;stroke:#fff"/>
        <path data-name="Path 5589" d="M100.159 261.379a15.394 15.394 0 1 0-15.393-15.394 15.394 15.394 0 0 0 15.393 15.394z" style="stroke-width:1.8px;fill:none;stroke-miterlimit:10;stroke:#fff"/>
        <path data-name="Path 5590" d="M38.992 218.46A15.394 15.394 0 1 0 23.6 203.066a15.394 15.394 0 0 0 15.392 15.394z" style="stroke-width:1.8px;fill:none;stroke-miterlimit:10;stroke:#fff"/>
        <path data-name="Path 5591" d="M16.768 146.384A15.394 15.394 0 1 0 1.374 130.99a15.394 15.394 0 0 0 15.394 15.394z" style="stroke-width:1.8px;fill:none;stroke-miterlimit:10;stroke:#fff"/>
        <path data-name="Path 5592" d="M236.767 207.959a15.19 15.19 0 1 0-15.19-15.19 15.189 15.189 0 0 0 15.19 15.19z" style="stroke-width:1.8px;fill:none;stroke-miterlimit:10;stroke:#fff"/>
        <path data-name="Path 5593" d="M239.315 96.839a16.005 16.005 0 1 0-16.005-16.006 16 16 0 0 0 16.005 16.006z" style="stroke-width:1.8px;fill:none;stroke-miterlimit:10;stroke:#fff"/>
    </g>
</svg>
