<svg width="36" height="36" viewBox="0 0 36 36" fill="none" xmlns="http://www.w3.org/2000/svg">
<path d="M24.0003 35.58C23.5953 35.58 23.2203 35.355 23.0253 35.01C22.8303 34.665 22.8303 34.23 23.0403 33.885L24.6153 31.26C24.9303 30.72 25.6203 30.555 26.1603 30.87C26.7003 31.185 26.8653 31.875 26.5503 32.415L26.1453 33.09C30.2853 32.115 33.3903 28.395 33.3903 23.955C33.3903 23.34 33.9003 22.83 34.5153 22.83C35.1303 22.83 35.6403 23.34 35.6403 23.955C35.6253 30.36 30.4053 35.58 24.0003 35.58Z" fill="#573BD1"/>
<path d="M1.5 13.08C0.885 13.08 0.375 12.57 0.375 11.955C0.375 5.54996 5.595 0.329956 12 0.329956C12.405 0.329956 12.78 0.554963 12.975 0.899963C13.17 1.24496 13.17 1.67996 12.96 2.02496L11.385 4.64996C11.07 5.18996 10.38 5.35498 9.84 5.03998C9.3 4.72498 9.135 4.03503 9.45 3.49503L9.855 2.82001C5.715 3.79501 2.61 7.51496 2.61 11.955C2.625 12.57 2.115 13.08 1.5 13.08Z" fill="#573BD1"/>
<path d="M14.1452 24.1199H9.93018C9.31518 24.1199 8.80518 23.6099 8.80518 22.9949V19.6199C8.80518 19.0049 9.31518 18.4949 9.93018 18.4949H14.1452C15.6452 18.4949 16.9652 19.8149 16.9652 21.3149C16.9652 22.8449 15.6902 24.1199 14.1452 24.1199ZM11.0552 21.8699H14.1452C14.4602 21.8699 14.7152 21.6149 14.7152 21.2999C14.7152 21.0749 14.4602 20.7299 14.1452 20.7299H11.0552V21.8699Z" fill="#573BD1"/>
<path d="M14.7448 27.4949H9.9148C9.29979 27.4949 8.78979 26.9849 8.78979 26.3699V22.9949C8.78979 22.3799 9.29979 21.8699 9.9148 21.8699H14.7448C16.4248 21.8699 17.8048 23.1299 17.8048 24.6899C17.8048 26.2499 16.4398 27.4949 14.7448 27.4949ZM11.0548 25.2449H14.7598C15.2398 25.2449 15.5698 24.9449 15.5698 24.6749C15.5698 24.4049 15.2398 24.1049 14.7598 24.1049H11.0548V25.2449Z" fill="#573BD1"/>
<path d="M12.6299 29.1749C12.0149 29.1749 11.5049 28.6649 11.5049 28.0499V26.3549C11.5049 25.7399 12.0149 25.2299 12.6299 25.2299C13.2449 25.2299 13.7549 25.7399 13.7549 26.3549V28.0499C13.7549 28.6799 13.2449 29.1749 12.6299 29.1749Z" fill="#573BD1"/>
<path d="M12.6299 20.7299C12.0149 20.7299 11.5049 20.2199 11.5049 19.6049V17.9099C11.5049 17.2949 12.0149 16.7849 12.6299 16.7849C13.2449 16.7849 13.7549 17.2949 13.7549 17.9099V19.6049C13.7549 20.2349 13.2449 20.7299 12.6299 20.7299Z" fill="#573BD1"/>
<path d="M13.005 33.3749C7.275 33.3749 2.625 28.7099 2.625 22.9949C2.625 17.2799 7.29 12.6149 13.005 12.6149C13.275 12.6149 13.515 12.6299 13.785 12.6449C18.87 13.0349 22.98 17.1449 23.355 22.1999C23.37 22.5299 23.385 22.7549 23.385 22.9949C23.4 28.7099 18.735 33.3749 13.005 33.3749ZM13.005 14.8499C8.52 14.8499 4.875 18.4949 4.875 22.9799C4.875 27.4649 8.52 31.1099 13.005 31.1099C17.49 31.1099 21.15 27.4649 21.15 22.9799C21.15 22.7849 21.135 22.5899 21.12 22.3949C20.82 18.3749 17.595 15.1649 13.635 14.8649C13.44 14.8649 13.23 14.8499 13.005 14.8499Z" fill="#573BD1"/>
<path d="M22.9952 23.4H22.2602C21.6752 23.4 21.1802 22.95 21.1352 22.365C20.8352 18.39 17.6252 15.18 13.6502 14.88C13.0652 14.835 12.6152 14.34 12.6152 13.755V13.02C12.6152 7.28999 17.2802 2.64001 23.0102 2.64001C28.7402 2.64001 33.3902 7.30499 33.3902 13.02C33.3902 18.735 28.7102 23.4 22.9952 23.4ZM14.8502 12.765C19.0802 13.53 22.4702 16.905 23.2352 21.15C27.6152 21.015 31.1252 17.415 31.1252 13.02C31.1252 8.53499 27.4802 4.89001 22.9952 4.89001C18.5852 4.87501 14.9852 8.38502 14.8502 12.765Z" fill="#573BD1"/>
</svg>
