<svg xmlns="http://www.w3.org/2000/svg" width="140.667" height="47.725" viewBox="0 0 140.667 47.725">
    <path data-name="drow right 1" d="M3 37.708c20.425 1.269 37.965-3.038 49.63-21.084C56.558 10.549 58.147.411 47.116 4.13 36.869 7.584 31.39 22.958 35.37 32.8c5.973 14.768 23.43 15.5 36.892 11.936C93.1 39.224 113.483 31.9 132.039 20.863c3.78-2.249-23.466-7.063-14.393-4.239 6.4 1.993 12.237 2.008 18.86 2.008 4.769 0 1.718 1.617-1.048 4.016-4.5 3.9-8.916 10.192-10.367 16.064" transform="translate(-.615 -1.083)" style="fill:none;stroke:#00d1bc;stroke-linecap:round;stroke-width:4.5px"/>
</svg>
