<svg xmlns="http://www.w3.org/2000/svg" width="136" height="25" viewBox="0 0 136 25">
    <path data-name="drow righ2" d="M122.655 17.945c-9.591 1.17-18.525 2.211-27.459 3.381-.657.13-1.182.91-2.628 2.081 4.2.52 7.489 1.17 10.773 1.3 8.671.26 17.211.26 25.883.26a12.825 12.825 0 0 0 3.153-.13c3.416-.65 4.6-2.861 2.759-5.852a22.87 22.87 0 0 0-3.153-3.9c-4.467-4.421-9.065-8.713-13.664-13-.788-.785-1.97-1.175-3.547-2.085-.263 6.632 6.438 8.453 7.883 13.654-1.182-.26-2.234-.39-3.153-.65-35.474-9.623-70.816-8.583-106.026.78A104.832 104.832 0 0 0 2.7 17.425c-1.839.65-3.416 2.081-2.365 4.291.92 2.211 2.759 2.211 4.861 1.3C28.716 12.614 53.679 11.443 78.9 11.834a176.358 176.358 0 0 1 38.758 4.551c1.581.39 3.158.915 4.997 1.56z" style="fill:#00d1bc"/>
</svg>
