<svg xmlns="http://www.w3.org/2000/svg" width="55.201" height="62.5" viewBox="0 0 55.201 62.5">
  <g id="icon_bito-05" transform="translate(-16.35 -3.25)">
    <g id="Group_2367" data-name="Group 2367" transform="translate(17.1 4)">
      <path id="Path_5181" data-name="Path 5181" d="M17.1,20.7V48.3a2.831,2.831,0,0,0,1.463,2.509L42.5,64.619a2.937,2.937,0,0,0,2.893,0L69.339,50.806A2.934,2.934,0,0,0,70.8,48.3V20.7a2.831,2.831,0,0,0-1.463-2.509L45.4,4.381a2.937,2.937,0,0,0-2.893,0L18.563,18.162A2.918,2.918,0,0,0,17.1,20.7Z" transform="translate(-17.1 -4)" fill="#fff"/>
      <path id="Path_5181_-_Outline" data-name="Path 5181 - Outline" d="M43.951,3.25a3.674,3.674,0,0,1,1.818.48L69.707,17.541A3.559,3.559,0,0,1,71.551,20.7V48.3a3.7,3.7,0,0,1-1.841,3.16L45.772,65.269a3.686,3.686,0,0,1-3.64,0L18.194,51.459A3.559,3.559,0,0,1,16.35,48.3V20.7a3.662,3.662,0,0,1,1.834-3.188l0,0L42.13,3.731A3.676,3.676,0,0,1,43.951,3.25Zm0,61a2.171,2.171,0,0,0,1.075-.282L68.964,50.156A2.176,2.176,0,0,0,70.051,48.3V20.7a2.078,2.078,0,0,0-1.075-1.852l-.013-.007L45.023,5.031a2.187,2.187,0,0,0-2.147,0L18.939,18.811A2.176,2.176,0,0,0,17.85,20.7V48.3a2.078,2.078,0,0,0,1.075,1.852l.013.007L42.879,63.969A2.168,2.168,0,0,0,43.951,64.25Z" transform="translate(-17.1 -4)" fill="#573bd1"/>
      <g id="payouts" transform="translate(-148.5 -658)">
        <g id="Frame_14" data-name="Frame 14" transform="translate(159 672)">
          <path id="Path_1" data-name="Path 1" d="M13.508,11.27a1.115,1.115,0,0,0-1.045,1.165,1.244,1.244,0,0,0,.17.788,1.185,1.185,0,0,0,.561.321l4.5,1.569a3.344,3.344,0,0,1,1.576,1.056,3.406,3.406,0,0,1,.646,2.164,3.342,3.342,0,0,1-3.285,3.4H13.822A3.673,3.673,0,0,1,10.208,18a1.12,1.12,0,1,1,2.24,0A1.436,1.436,0,0,0,13.822,19.5h2.807a1.105,1.105,0,0,0,1.045-1.165,1.239,1.239,0,0,0-.171-.785,1.173,1.173,0,0,0-.559-.324l-4.5-1.569a3.349,3.349,0,0,1-1.575-1.048,3.4,3.4,0,0,1-.648-2.172,3.352,3.352,0,0,1,3.285-3.4h2.807a3.673,3.673,0,0,1,3.613,3.733,1.12,1.12,0,0,1-2.24,0,1.436,1.436,0,0,0-1.374-1.493Z" transform="translate(0.939 0.61)" fill="#00d1bc" fill-rule="evenodd"/>
          <path id="Path_2" data-name="Path 2" d="M14.245,7.875a1.12,1.12,0,0,1,1.12,1.12V22.432a1.12,1.12,0,1,1-2.24,0V8.995A1.12,1.12,0,0,1,14.245,7.875Z" transform="translate(1.755 0.287)" fill="#00d1bc" fill-rule="evenodd"/>
          <path id="Path_3" data-name="Path 3" d="M17.458,3.691A13.767,13.767,0,1,0,31.226,17.458a1.116,1.116,0,1,1,2.233,0,16,16,0,1,1-16-16,1.116,1.116,0,1,1,0,2.233Z" transform="translate(-1.458 -1.458)" fill="#00d1bc" fill-rule="evenodd"/>
          <path id="Path_3_-_Outline" data-name="Path 3 - Outline" d="M17.458,1.458a16,16,0,1,0,16,16,1.116,1.116,0,1,0-2.233,0A13.767,13.767,0,1,1,17.458,3.691a1.116,1.116,0,0,0,0-2.233m0-.2a1.316,1.316,0,0,1,0,2.633A13.567,13.567,0,1,0,31.026,17.458a1.316,1.316,0,1,1,2.633,0A16.2,16.2,0,0,1,6,28.912,16.2,16.2,0,0,1,17.458,1.258Z" transform="translate(-1.458 -1.458)" fill="#00d1bc"/>
          <path id="Path_4" data-name="Path 4" d="M20.125,2.578a1.12,1.12,0,0,1,1.12-1.12h5.972a1.12,1.12,0,0,1,1.12,1.12V8.55a1.12,1.12,0,1,1-2.24,0V3.7H21.245A1.12,1.12,0,0,1,20.125,2.578Z" transform="translate(3.663 -1.458)" fill="#00d1bc" fill-rule="evenodd"/>
          <path id="Path_5" data-name="Path 5" d="M28.335,1.786a1.12,1.12,0,0,1,0,1.584L20.87,10.835a1.12,1.12,0,1,1-1.584-1.584l7.465-7.465A1.12,1.12,0,0,1,28.335,1.786Z" transform="translate(3.337 -1.458)" fill="#00d1bc" fill-rule="evenodd"/>
        </g>
      </g>
    </g>
  </g>
</svg>
