<svg width="280" height="331" viewBox="0 0 280 331" fill="none" xmlns="http://www.w3.org/2000/svg">
<g clip-path="url(#clip0_1_683)">
<path d="M64.8921 229.41C77.7965 228.717 100.132 228.237 104.544 227.83C106.814 217.463 110.469 201.047 111.918 193.344C111.894 193.328 111.869 193.312 111.847 193.295C102.892 187.533 94.8625 171.761 107.716 149.535C124.845 149.679 140.558 153.509 155.035 162.377C154.671 165.637 154.374 168.402 154.209 170.213C195.348 188.756 203.278 194.217 204.798 203.403C206.563 214.132 197.181 229.45 169.739 274.591C159.304 277.017 143.41 271.073 139.736 261.618C143.934 253.166 158.501 223.919 163.097 215.751C150.709 211.245 136.315 205.656 124.44 199.962C129.296 204.617 138.946 214.411 142.445 218.55C137.356 234.025 131.409 251.996 124.965 254.967C117.44 258.433 113.972 259.445 64.9252 259.445C59.2956 254.414 60.5565 236.698 64.8921 229.41Z" fill="#00D1BC"/>
<path d="M219.866 40.411C221.221 42.8805 222.444 45.2842 223.567 47.5561C232.456 65.8305 234.207 77.9146 234.176 86.9365C234.143 91.3816 233.713 95.0694 233.48 98.4279V98.4608C232.852 98.823 232.263 99.1852 231.53 99.6133C230.209 97.5337 229.118 97.934 225.88 99.5145C221.419 101.688 220.99 101.885 220.663 105.013C220.63 105.408 220.597 105.771 220.53 106.133C217.424 104.388 213.889 102.643 209.857 100.067C202.224 95.1612 193.038 87.1271 182.564 69.7089C181.242 67.5028 179.887 65.2031 178.532 62.6955L219.866 40.411ZM206.517 76.4658L208.631 86.4755L213.217 77.3219L223.395 78.4743L216.09 71.2634L220.32 61.9451L211.2 66.6242L203.633 59.7754L205.285 69.8839L196.364 74.9217L206.517 76.4658Z" fill="#F1C40F"/>
<path d="M49.0313 26.8454C49.0644 28.4917 49.0644 30.0722 49.0313 31.4551C46.8174 30.7966 45.793 30.0064 45.6278 29.2161C45.3252 27.7951 48.0991 26.66 49.0313 26.8454Z" fill="#E9E9E9"/>
<path d="M60.3653 232.11C61.4122 232.084 62.4574 232.138 63.4957 232.275C60.5878 239.453 60.4226 250.582 62.8 256.377C58.9739 261.481 47.6696 269.186 38.8766 271.524C39.5148 257.76 54.2853 237.708 60.3653 232.11Z" fill="#E9E9E9"/>
<path d="M68.4608 27.5691C69.026 27.5535 71.2434 27.992 71.2434 29.5118C71.2434 30.335 70.2191 31.2569 67.7078 31.8825C67.4365 30.4013 67.7043 28.8723 68.4608 27.5691Z" fill="#E9E9E9"/>
<path d="M106.164 119.402C105.701 126.218 104.974 134.351 104.974 139.981C102.463 131.19 99.3896 120.554 97.6053 114.66L106.164 119.402Z" fill="#E9E9E9"/>
<path d="M119.282 53.5487C119.282 51.3097 122.19 50.5524 123.743 52.9889C123.875 50.8816 127.311 50.3895 128.997 53.2523C129.36 50.9804 133.226 51.4743 134.581 54.0426C134.978 52.0341 138.282 53.1536 138.844 56.1499C139.438 59.3109 139.967 62.1755 140.331 64.7438C136.061 63.4929 131.63 62.8716 127.179 62.8999C128.104 66.3901 127.701 71.0986 126.188 67.9047C124.701 64.7108 120.901 67.1145 123.579 71.2962C124.011 72.1618 124.188 73.1319 124.089 74.0937C123.988 75.0554 123.618 75.9692 123.018 76.7291C122.621 69.8474 117.268 60.9243 115.616 57.3023C113.367 52.3963 116.771 51.0792 119.282 53.5487Z" fill="#011627"/>
<path d="M145.584 209.095C144.593 212.025 143.536 215.219 142.454 218.545C138.555 213.935 127.287 203.036 123.223 199.381C130.318 202.839 138.087 206.164 145.584 209.095Z" fill="#E9E9E9"/>
<path d="M133.217 82.9852C133.243 84.4866 133.388 85.9839 133.647 87.4632C131.36 85.8572 129.583 83.6323 128.525 81.0511C130.036 81.8164 131.605 82.463 133.217 82.9852Z" fill="#E9E9E9"/>
<path d="M141.289 264.543C139.715 265.76 138.275 267.139 136.993 268.659C144.659 286.769 161.082 302.014 167.558 306.064C166.912 295.43 164.707 284.947 161.016 274.948C153.581 273.96 145.217 270.207 141.289 264.543Z" fill="#E9E9E9"/>
<path d="M158.769 130.667C162.172 134.75 171.623 144.858 180.478 150.686C172.627 148.159 164.955 145.111 157.513 141.562C157.976 137.677 158.405 133.923 158.769 130.667Z" fill="#E9E9E9"/>
<path d="M216.033 109.722C216.76 109.294 218.016 109.82 218.941 111.17C218.18 112.532 216.95 113.573 215.478 114.101C214.943 111.533 215.304 110.15 216.033 109.722Z" fill="#E9E9E9"/>
<path d="M224.063 130.762C225.583 132.474 226.741 132.972 227.499 132.738C228.558 132.412 228.689 130.433 228.061 128.358C226.706 129.149 225.351 129.939 224.063 130.762Z" fill="#E9E9E9"/>
<path d="M249.077 253.183C243.583 253.183 239.13 248.745 239.13 243.272C239.13 237.798 243.583 233.362 249.077 233.362C254.57 233.362 259.023 237.798 259.023 243.272C259.023 248.745 254.57 253.183 249.077 253.183Z" fill="#E3E3E3"/>
<path d="M233.48 125.23C233.414 122.234 231.993 119.04 229.654 114.693C230.14 113.087 230.264 111.392 230.015 109.732C229.766 108.073 229.152 106.488 228.216 105.093C228.809 106.006 229.499 106.853 230.275 107.618C229.284 109.626 230.903 112.688 233.777 111.24L233.381 111.865C229.878 113.841 232.191 118.319 235.925 116.544L235.23 117.17C231.793 118.981 233.941 123.36 237.642 121.747C239.261 121.022 240.583 120.496 241.673 120.035C244.515 122.306 248.051 122.833 253.932 122.01L228.423 135.774C232.059 131.651 233.579 128.556 233.48 125.23Z" fill="#E0E0E0"/>
<path d="M254.786 121.561L260.998 129.661L230.962 145.893L227.525 136.279L254.786 121.561Z" fill="#E0E0E0"/>
<path d="M224.063 130.762C227.193 128.721 230.803 126.91 233.513 125.164" stroke="black" stroke-width="1.30435" stroke-linecap="round" stroke-linejoin="round"/>
<path d="M140.463 65.7978L146.675 0.866364L194.72 120.917" stroke="black" stroke-width="1.30435" stroke-linecap="round" stroke-linejoin="round"/>
<path d="M137.522 96.8145L138.844 82.689" stroke="black" stroke-width="1.30435" stroke-linecap="round" stroke-linejoin="round"/>
<path d="M68.0314 229.246L22.861 116.373L102.198 130.334" stroke="black" stroke-width="1.30435" stroke-linecap="round" stroke-linejoin="round"/>
<path d="M115.284 257.958L108.377 330.133L80.0591 259.374" stroke="black" stroke-width="1.30435" stroke-linecap="round" stroke-linejoin="round"/>
<path d="M204.765 146.007L232.224 214.626L204.732 209.786" stroke="black" stroke-width="1.30435" stroke-linecap="round" stroke-linejoin="round"/>
<path d="M223.534 47.6221L240.717 38.3697C254.456 63.6574 241.906 82.8208 234.141 87.0025" stroke="black" stroke-width="1.30435" stroke-linecap="round" stroke-linejoin="round"/>
<path d="M213.191 77.3549L223.369 78.4744L216.099 71.2964L220.329 61.9782L211.209 66.6537L203.642 59.7721L205.294 69.8476L196.372 74.9183L206.517 76.4659L208.565 86.4756L213.191 77.3549Z" stroke="black" stroke-width="1.30435" stroke-linecap="round" stroke-linejoin="round"/>
<path d="M182.445 69.7523L165.377 79.0011C179.13 104.289 202.087 104.289 209.821 100.107" stroke="black" stroke-width="1.30435" stroke-linecap="round" stroke-linejoin="round"/>
<path d="M235.419 280.979C224.653 280.979 215.925 272.283 215.925 261.554C215.925 250.825 224.653 242.129 235.419 242.129C246.185 242.129 254.913 250.825 254.913 261.554C254.913 272.283 246.185 280.979 235.419 280.979Z" stroke="#F1C40F" stroke-width="1.30435" stroke-linecap="round" stroke-linejoin="round"/>
<path d="M22.7949 68.6622C19.4731 68.6622 16.7809 65.9792 16.7809 62.6696C16.7809 59.3599 19.4731 56.6769 22.7949 56.6769C26.1166 56.6769 28.8088 59.3599 28.8088 62.6696C28.8088 65.9792 26.1166 68.6622 22.7949 68.6622Z" stroke="#F1C40F" stroke-width="1.30435" stroke-linecap="round" stroke-linejoin="round"/>
<path d="M256.346 168.463C254.649 168.463 253.273 167.092 253.273 165.401C253.273 163.71 254.649 162.339 256.346 162.339C258.043 162.339 259.419 163.71 259.419 165.401C259.419 167.092 258.043 168.463 256.346 168.463Z" stroke="#F1C40F" stroke-width="1.30435" stroke-linecap="round" stroke-linejoin="round"/>
<path d="M99.1912 18.054L102.264 30.3027L92.946 28.6564L96.0191 40.9051" stroke="#573BD1" stroke-width="1.73913" stroke-linecap="round" stroke-linejoin="round"/>
<path d="M235.958 116.505C232.219 118.272 229.915 113.81 233.414 111.826C236.023 110.347 237.908 109.42 240.023 108.335C240.653 107.973 241.399 107.866 242.106 108.038C242.812 108.21 243.426 108.647 243.817 109.258C244.209 109.869 244.349 110.607 244.209 111.318C244.068 112.03 243.658 112.659 243.063 113.077C241.379 114.136 239.39 114.883 235.958 116.505Z" stroke="black" stroke-width="1.30435" stroke-linecap="round" stroke-linejoin="round"/>
<path d="M231.497 99.6462C232.819 98.856 233.774 98.3222 235.066 97.5667C235.676 97.1698 236.417 97.0251 237.132 97.1632C237.846 97.3012 238.479 97.7112 238.896 98.3063C239.313 98.9014 239.481 99.6346 239.364 100.351C239.247 101.067 238.856 101.71 238.271 102.143C236.858 103.083 235.378 103.92 233.844 104.646" stroke="black" stroke-width="1.30435" stroke-linecap="round" stroke-linejoin="round"/>
<path d="M237.611 121.74C233.943 123.353 231.797 118.979 235.231 117.163C237.777 115.817 239.664 114.967 241.708 114.002C242.324 113.657 243.051 113.564 243.736 113.742C244.42 113.92 245.008 114.356 245.376 114.957C245.745 115.559 245.864 116.28 245.71 116.968C245.556 117.655 245.14 118.257 244.55 118.645C242.897 119.598 240.981 120.258 237.611 121.74Z" stroke="black" stroke-width="1.30435" stroke-linecap="round" stroke-linejoin="round"/>
<path d="M233.913 104.783C235.268 104.058 236.464 103.513 237.779 102.807C238.41 102.417 239.169 102.286 239.895 102.443C240.62 102.6 241.256 103.032 241.668 103.648C242.08 104.264 242.236 105.015 242.102 105.743C241.968 106.471 241.556 107.118 240.951 107.549C239.235 108.672 237.277 109.477 233.821 111.204C230.941 112.64 229.327 109.59 230.318 107.582" stroke="black" stroke-width="1.30435" stroke-linecap="round" stroke-linejoin="round"/>
<path d="M218.974 111.171C218.016 109.821 216.767 109.306 216.033 109.722C214.724 110.467 214.614 114.266 218.677 122.267C223.007 130.795 226.047 133.206 227.532 132.738C228.558 132.414 228.722 130.4 228.094 128.358" stroke="black" stroke-width="1.30435" stroke-linecap="round" stroke-linejoin="round"/>
<path d="M215.478 114.101C217.725 113.179 220 111.535 220.633 105.013C220.941 101.894 221.391 101.684 225.85 99.5147C231.068 96.9758 230.774 97.4349 234.706 106.66C235.673 108.928 232.129 111.269 228.031 104.684C231.237 109.722 230.64 114.735 227.701 117.921" stroke="black" stroke-width="1.30435" stroke-linecap="round" stroke-linejoin="round"/>
<path d="M55.4783 14.2675C55.8053 18.3833 60.8157 18.515 60.7984 14.5309C60.7862 11.5675 60.6592 9.46012 60.534 7.0894C60.3253 3.1382 55.0366 3.17113 54.9166 6.43087C54.8401 8.40647 55.174 10.4809 55.4783 14.2675Z" stroke="black" stroke-width="1.30435" stroke-linecap="round" stroke-linejoin="round"/>
<path d="M72.2939 11.2415C72.3269 9.79275 72.3043 8.73555 72.3269 7.35263C72.3878 3.59898 67.0209 3.42915 66.7756 6.56238C66.6626 8.16286 66.6626 9.76918 66.7756 11.3698" stroke="black" stroke-width="1.30435" stroke-linecap="round" stroke-linejoin="round"/>
<path d="M49.7913 15.2222C50.2052 19.241 55.0626 19.2392 54.913 15.3539C54.8017 12.4892 54.6208 10.4478 54.4504 8.17585C54.1634 4.36329 49.0313 4.52099 49.0313 7.65596C49.0313 9.55877 49.4139 11.569 49.7913 15.2222Z" stroke="black" stroke-width="1.30435" stroke-linecap="round" stroke-linejoin="round"/>
<path d="M66.6435 11.3371C66.6105 9.78954 66.48 8.47239 66.4452 6.99068C66.3513 2.97363 60.9687 2.90777 60.7617 6.20044C60.6348 8.20897 60.927 10.3164 61.1252 14.1723C61.1131 14.7473 61.2852 15.3112 61.6191 15.7803C61.9548 16.2494 62.4313 16.5986 62.9809 16.7761C63.5287 16.9535 64.1218 16.9497 64.6678 16.7655C65.2157 16.5811 65.687 16.2258 66.0157 15.7527" stroke="black" stroke-width="1.30435" stroke-linecap="round" stroke-linejoin="round"/>
<path d="M68.494 27.5698C70.1462 27.8333 71.2036 28.6235 71.2036 29.4467C71.2036 30.9284 67.9983 32.7012 59.0435 32.5418C49.527 32.3685 45.9218 30.6979 45.5948 29.1833C45.3601 28.0967 46.7514 27.1037 48.8331 26.7796" stroke="black" stroke-width="1.30435" stroke-linecap="round" stroke-linejoin="round"/>
<path d="M67.6679 31.85C67.3705 29.4463 67.6801 26.7307 72.9879 23.3219C75.5375 21.6843 75.501 21.1817 75.1688 16.2756C74.7757 10.4805 74.5392 10.9692 64.5949 11.4683C62.1496 11.5914 61.8853 15.7817 69.6175 16.572C63.6696 15.9134 59.6053 18.6134 58.3131 22.5976" stroke="black" stroke-width="1.30435" stroke-linecap="round" stroke-linejoin="round"/>
<path d="M48.9983 31.4222C49.1966 24.6393 48.4766 13.7076 48.9983 8.43936" stroke="black" stroke-width="1.30435" stroke-linecap="round" stroke-linejoin="round"/>
<path d="M71.2036 29.4795C71.1375 37.7112 71.2036 58.7843 71.7654 68.6294C74.3741 70.3416 94.9602 80.587 103.784 84.6647C111.772 88.3577 118.525 87.5934 121.671 82.5747C126.019 75.6428 118.595 63.985 115.584 57.3026C113.371 52.3965 116.741 51.0794 119.252 53.5489C119.252 51.3429 122.16 50.5526 123.713 52.9892C123.878 50.8819 127.315 50.3897 128.967 53.2526C129.364 51.0136 133.197 51.5075 134.551 54.0428C134.948 52.0672 138.23 53.1764 138.814 56.1502C144.061 82.7705 140.901 87.1706 128.471 81.0427C129.529 83.6237 131.306 85.8488 133.593 87.4548" stroke="black" stroke-width="1.30435" stroke-linecap="round" stroke-linejoin="round"/>
<path d="M45.5948 29.2159C45.5948 75.6096 45.0887 77.8867 47.5443 82.4584C50.8017 88.5238 57.2261 92.3034 106.163 119.402C105.668 126.218 104.974 134.351 104.974 139.981" stroke="black" stroke-width="1.30435" stroke-linecap="round" stroke-linejoin="round"/>
<path d="M216.033 109.722C205.129 116.241 190.325 122.958 188.475 123.814C180.214 120.456 152.89 108.169 141.692 100.832C135.151 96.5476 133.266 87.6938 133.233 82.9523" stroke="black" stroke-width="1.30435" stroke-linecap="round" stroke-linejoin="round"/>
<path d="M141.685 100.859C137.356 105.403 120.603 102.246 116.275 86.6022" stroke="black" stroke-width="1.30435" stroke-linecap="round" stroke-linejoin="round"/>
<path d="M140.331 64.7439C136.059 63.4994 131.63 62.8783 127.179 62.9C128.104 66.4231 127.701 71.1646 126.188 67.9048C124.675 64.6451 120.885 67.1579 123.579 71.2963C124.017 72.1603 124.198 73.1317 124.097 74.0947C123.998 75.0579 123.623 75.9722 123.017 76.7292" stroke="black" stroke-width="1.30435" stroke-linecap="round" stroke-linejoin="round"/>
<path d="M168.153 217.557C153.217 212.223 128.758 203.211 112.541 193.751C103.351 188.391 94.4991 172.348 107.683 149.53C105.205 140.865 100.116 122.991 97.5965 114.661" stroke="black" stroke-width="1.30435" stroke-linecap="round" stroke-linejoin="round"/>
<path d="M137.984 162.931C193.365 187.495 203.068 193.094 204.798 203.398C206.275 212.191 202.518 221.014 169.739 274.624C160.619 277.093 143.503 271.595 139.736 261.627C149.583 241.697 159.826 221.595 163.097 215.76" stroke="black" stroke-width="1.30435" stroke-linecap="round" stroke-linejoin="round"/>
<path d="M145.551 209.095C139.868 225.624 132.764 251.339 124.932 254.961C117.101 258.583 114.061 259.308 64.9323 259.439C60.0088 255.686 59.8436 237.477 64.9323 229.377C77.9757 228.653 99.8592 228.225 104.518 227.797C106.798 217.26 110.431 200.762 111.823 193.257" stroke="black" stroke-width="1.30435" stroke-linecap="round" stroke-linejoin="round"/>
<path d="M141.289 264.543C138.95 266.476 136.823 268.651 134.944 271.03C138.91 282.06 154.597 302.936 167.492 310.871C168.252 302.343 165.08 285.09 161.049 274.948" stroke="black" stroke-width="1.30435" stroke-linecap="round" stroke-linejoin="round"/>
<path d="M75.1687 228.949C70.8069 233.823 68.6591 250.451 75.8295 259.407" stroke="black" stroke-width="1.30435" stroke-linecap="round" stroke-linejoin="round"/>
<path d="M175.687 264.873C165.642 267.079 149.774 263.062 144.692 251.636" stroke="black" stroke-width="1.30435" stroke-linecap="round" stroke-linejoin="round"/>
<path d="M167.624 306.064C161.214 302.047 144.692 286.769 137.026 268.631" stroke="black" stroke-width="1.30435" stroke-linecap="round" stroke-linejoin="round"/>
<path d="M63.5044 232.242C61.5183 232.012 59.5096 232.012 57.5235 232.242C51.9392 236.748 36.3427 255.39 36.1444 272.083C45.1322 270.87 58.5148 262.041 62.8105 256.344" stroke="black" stroke-width="1.30435" stroke-linecap="round" stroke-linejoin="round"/>
<path d="M60.3652 232.11C54.2783 237.708 39.5478 257.759 38.887 271.524" stroke="black" stroke-width="1.30435" stroke-linecap="round" stroke-linejoin="round"/>
<path d="M159.463 123.814C158.604 134.055 154.941 161.812 154.245 170.175" stroke="black" stroke-width="1.30435" stroke-linecap="round" stroke-linejoin="round"/>
<path d="M107.683 149.53C126.386 149.662 141.784 154.272 155.035 162.372" stroke="black" stroke-width="1.30435" stroke-linecap="round" stroke-linejoin="round"/>
<path d="M155.729 262.271C162.932 248.343 177.868 216.569 181.073 209.918C166.137 202.41 128.17 186.671 121.628 182.621C115.085 178.571 112.508 173.369 119.447 150.255" stroke="black" stroke-width="1.30435" stroke-linecap="round" stroke-linejoin="round"/>
<path d="M227.499 132.746C196.207 151.605 191.183 153.65 183.353 151.506C174.488 148.88 165.848 145.555 157.513 141.562" stroke="black" stroke-width="1.30435" stroke-linecap="round" stroke-linejoin="round"/>
<path d="M180.478 150.683C171.652 144.855 162.172 134.713 158.769 130.667" stroke="black" stroke-width="1.30435" stroke-linecap="round" stroke-linejoin="round"/>
<path d="M142.412 218.545C138.513 213.935 127.245 203.069 123.181 199.381" stroke="black" stroke-width="1.30435" stroke-linecap="round" stroke-linejoin="round"/>
<path d="M268.11 73.8975L266.964 80.3529" stroke="#573BD1" stroke-width="1.73913" stroke-linecap="round" stroke-linejoin="round"/>
<path d="M253.275 84.2384L259.753 85.3804" stroke="#573BD1" stroke-width="1.73913" stroke-linecap="round" stroke-linejoin="round"/>
<path d="M263.652 99.0207L264.798 92.5653" stroke="#573BD1" stroke-width="1.73913" stroke-linecap="round" stroke-linejoin="round"/>
<path d="M278.487 88.6799L272.005 87.5379" stroke="#573BD1" stroke-width="1.73913" stroke-linecap="round" stroke-linejoin="round"/>
<path d="M259.753 85.3802C260.557 85.5222 261.382 85.5047 262.18 85.3286C262.977 85.1527 263.732 84.8219 264.401 84.3548C265.07 83.888 265.64 83.2941 266.079 82.6075C266.517 81.9207 266.816 81.1547 266.957 80.3528C266.813 81.1549 266.83 81.977 267.005 82.7726C267.181 83.568 267.513 84.321 267.982 84.9886C268.45 85.6561 269.046 86.2249 269.736 86.6623C270.425 87.0997 271.195 87.3973 272 87.5378C271.196 87.395 270.371 87.4118 269.573 87.5872C268.775 87.7626 268.019 88.0932 267.35 88.5601C266.68 89.0269 266.11 89.621 265.671 90.308C265.232 90.9949 264.934 91.7614 264.793 92.5634C264.936 91.7619 264.919 90.9403 264.744 90.1452C264.568 89.3503 264.236 88.5977 263.768 87.9305C263.3 87.2633 262.704 86.6945 262.015 86.2569C261.327 85.8194 260.558 85.5215 259.753 85.3802Z" stroke="#573BD1" stroke-width="1.73913" stroke-linecap="round" stroke-linejoin="round"/>
<path opacity="0.89" d="M22.8278 171.624L21.186 180.881" stroke="#573BD1" stroke-width="1.73913" stroke-linecap="round" stroke-linejoin="round"/>
<path opacity="0.89" d="M1.55662 186.453L10.847 188.089" stroke="#573BD1" stroke-width="1.73913" stroke-linecap="round" stroke-linejoin="round"/>
<path opacity="0.89" d="M16.4365 207.649L18.08 198.392" stroke="#573BD1" stroke-width="1.73913" stroke-linecap="round" stroke-linejoin="round"/>
<path opacity="0.89" d="M37.7095 192.82L28.4138 191.184" stroke="#573BD1" stroke-width="1.73913" stroke-linecap="round" stroke-linejoin="round"/>
<path opacity="0.89" d="M10.847 188.089C12.0018 188.294 13.1844 188.269 14.3287 188.018C15.4731 187.767 16.5566 187.292 17.5166 186.623C18.4783 185.954 19.2957 185.101 19.9253 184.117C20.5548 183.131 20.9844 182.032 21.1861 180.882C20.9809 182.031 21.0035 183.209 21.2557 184.351C21.5079 185.491 21.9826 186.571 22.6539 187.528C23.3253 188.484 24.1809 189.3 25.1687 189.928C26.1566 190.555 27.2592 190.981 28.4139 191.184C27.2609 190.98 26.0766 191.004 24.934 191.255C23.7896 191.507 22.7061 191.981 21.7461 192.65C20.7861 193.319 19.967 194.172 19.3392 195.156C18.7096 196.142 18.2818 197.241 18.08 198.392C18.2852 197.241 18.2609 196.063 18.0087 194.922C17.7565 193.782 17.28 192.702 16.6087 191.746C15.9374 190.787 15.0818 189.973 14.094 189.345C13.1044 188.718 12.0018 188.29 10.847 188.089Z" stroke="#573BD1" stroke-width="1.73913" stroke-linecap="round" stroke-linejoin="round"/>
<path d="M219.866 40.411C221.221 42.8805 222.444 45.2842 223.567 47.5561C232.456 65.8305 234.207 77.9146 234.176 86.9365C234.143 91.3816 233.713 95.0694 233.48 98.4279V98.4608C232.852 98.823 232.263 99.1852 231.53 99.6133C230.209 97.5337 229.118 97.934 225.88 99.5145C221.419 101.688 220.99 101.885 220.663 105.013C220.63 105.408 220.597 105.771 220.53 106.133C217.424 104.388 213.889 102.643 209.857 100.067C202.224 95.1612 193.038 87.1271 182.564 69.7089C181.242 67.5028 179.887 65.2031 178.532 62.6955L219.866 40.411ZM206.517 76.4658L208.631 86.4755L213.217 77.3219L223.395 78.4743L216.09 71.2634L220.32 61.9451L211.2 66.6242L203.633 59.7754L205.285 69.8839L196.364 74.9217L206.517 76.4658Z" stroke="black" stroke-width="1.30435" stroke-linejoin="round"/>
<path d="M233.48 125.23C233.414 122.234 231.993 119.04 229.654 114.694C230.14 113.087 230.264 111.393 230.015 109.733C229.766 108.073 229.152 106.488 228.216 105.093C228.809 106.006 229.499 106.853 230.275 107.618C229.283 109.627 230.903 112.689 233.777 111.24L233.381 111.866C229.878 113.841 232.191 118.319 235.925 116.545L235.23 117.17C231.793 118.981 233.941 123.36 237.642 121.747C239.261 121.023 240.583 120.496 241.673 120.035C244.515 122.307 248.05 122.834 253.932 122.01L228.423 135.774C232.059 131.651 233.579 128.556 233.48 125.23Z" stroke="black" stroke-width="1.30435" stroke-linejoin="round"/>
<path d="M254.76 121.561L260.972 129.661L230.936 145.894L227.499 136.279L254.76 121.561Z" stroke="black" stroke-width="1.30435" stroke-linejoin="round"/>
</g>
<defs>
<clipPath id="clip0_1_683">
<rect width="280" height="331" fill="white" transform="matrix(-1 0 0 1 280 0)"/>
</clipPath>
</defs>
</svg>
