<svg width="210" height="200" viewBox="0 0 210 200" fill="none" xmlns="http://www.w3.org/2000/svg">
<path d="M95.7113 57.8086C95.3657 57.8086 95.1995 57.3747 95.4604 57.1416L116.525 38.5748L91.1565 40.3631C90.8996 40.3782 90.7102 40.1471 90.7585 39.9089L94.8257 19.6054L72.6614 30.9939C72.483 31.0837 72.2654 31.0222 72.1637 30.8516L59.265 9.41278L48.2897 30.3935C48.197 30.5721 47.9814 30.6447 47.799 30.564L24.1245 19.9758L32.285 40.0967C32.3837 40.3429 32.2114 40.6144 31.9294 40.6194L5.61727 40.2652L23.6671 55.8226C24.0479 56.1526 23.5543 56.7268 23.1714 56.3998L4.32973 40.1602C4.05166 39.92 4.24913 39.4689 4.58361 39.4932L31.3682 39.8514L23.0677 19.3864C22.9377 19.0736 23.2641 18.7557 23.5724 18.897L47.7839 29.7244L58.9084 8.46113C59.0464 8.20076 59.4141 8.18462 59.5703 8.43994L72.6352 30.1543L95.1833 18.569C95.4654 18.4257 95.7918 18.6679 95.7284 18.9827L91.6048 39.5689L117.597 37.7372C117.953 37.711 118.149 38.159 117.874 38.4023C95.811 57.9025 95.941 57.8076 95.7143 57.8076L95.7113 57.8086Z" fill="black" stroke="black" stroke-width="0.844492"/>
<path d="M74.1762 36.555H48.3999V62.3748H74.1762V36.555Z" fill="white"/>
<path fill-rule="evenodd" clip-rule="evenodd" d="M74.1753 36.0091H48.4001C48.2555 36.0091 48.1168 36.0666 48.0145 36.1691C47.9122 36.2715 47.8548 36.4105 47.8548 36.5554V62.3752C47.8548 62.52 47.9122 62.659 48.0145 62.7614C48.1168 62.8639 48.2555 62.9214 48.4001 62.9214H74.1753C74.32 62.9214 74.4587 62.8639 74.5609 62.7614C74.6632 62.659 74.7207 62.52 74.7207 62.3752V36.5554C74.7207 36.4105 74.6632 36.2715 74.5609 36.1691C74.4587 36.0666 74.32 36.0091 74.1753 36.0091ZM73.63 61.8289H51.02V37.1016H73.63V61.8289Z" fill="black"/>
<path d="M71.5622 49.693C70.0647 48.819 69.9152 48.6923 69.7353 48.7174L61.3239 48.8212C60.9225 46.2078 59.3868 44.3079 57.4912 44.3079C55.2793 44.3079 53.5472 46.8808 53.5472 50.165C53.5472 53.4491 55.2793 56.022 57.4912 56.022C59.2995 56.022 60.7709 54.2871 61.2519 51.8617H63.0951C63.0559 54.1757 62.9861 54.321 63.2151 54.5515C63.4442 54.782 63.4583 54.7165 65.6005 54.6946C65.686 54.6934 65.7702 54.6719 65.8459 54.6321C65.9217 54.5922 65.9871 54.535 66.0367 54.4652C66.2549 54.7678 66.3519 54.6903 68.5802 54.6542C68.7233 54.6519 68.8598 54.5933 68.9602 54.4911C69.0606 54.3889 69.1169 54.2513 69.1168 54.1079V51.8661C70.1334 51.8661 69.6785 52.0463 71.6112 50.6042C71.6839 50.5504 71.7421 50.4795 71.7806 50.3976C71.8191 50.3158 71.8367 50.2257 71.8318 50.1354C71.8269 50.045 71.7998 49.9573 71.7527 49.8801C71.7056 49.8029 71.6402 49.7386 71.5622 49.693ZM57.4923 54.9295C55.9457 54.9295 54.639 52.7445 54.639 50.165C54.639 47.5855 55.9479 45.4005 57.4923 45.4005C59.0367 45.4005 60.3433 47.5855 60.3433 50.165C60.3433 52.7445 59.0367 54.9295 57.4912 54.9295H57.4923ZM64.1575 53.6119L64.1869 51.8639H65.475C65.3827 52.4417 65.3563 53.0281 65.3965 53.6119H64.1575ZM68.0294 53.5704L66.7206 53.5868C66.7429 53.0106 66.7063 52.4337 66.6115 51.865H68.0294V53.5704ZM69.5564 50.7713H61.3893C61.4035 50.5703 61.4297 50.3726 61.4297 50.165C61.4297 50.0787 61.4155 49.9978 61.4122 49.9126L69.5924 49.8121L70.2937 50.2207L69.5564 50.7713Z" fill="#011627"/>
<path d="M115.57 99.3116H5.7171V193.012H115.57V99.3116Z" fill="white"/>
<path d="M142.651 103.454V88.8497H125.135C121.108 88.8487 117.845 92.1174 117.845 96.151C117.845 100.185 121.108 103.453 125.135 103.453H130.945V124.924H129.721V157.73C129.721 159.062 130.802 160.146 132.133 160.146H133.805C135.135 160.146 136.217 159.063 136.217 157.73V124.924H134.993V103.453L142.651 103.454Z" fill="#573BD1"/>
<path d="M125.454 179.288H125.179C123.915 179.288 122.886 178.256 122.886 176.991V173.632C122.886 172.366 123.916 171.336 125.179 171.336H125.454C126.718 171.336 127.747 172.367 127.747 173.632V176.991C127.747 178.257 126.717 179.288 125.454 179.288ZM125.179 172.237C124.41 172.237 123.787 172.861 123.787 173.631V176.99C123.787 177.76 124.41 178.385 125.179 178.385H125.454C126.223 178.385 126.846 177.76 126.846 176.99V173.631C126.846 172.861 126.223 172.237 125.454 172.237H125.179Z" fill="black"/>
<path d="M132.924 175.214H132.637C131.321 175.214 130.251 174.142 130.251 172.824V169.296C130.251 167.978 131.321 166.906 132.637 166.906H132.924C134.241 166.906 135.31 167.978 135.31 169.296V172.824C135.31 174.142 134.24 175.214 132.924 175.214ZM132.637 167.809C131.819 167.809 131.152 168.476 131.152 169.297V172.825C131.152 173.644 131.819 174.312 132.637 174.312H132.924C133.742 174.312 134.409 173.645 134.409 172.825V169.297C134.409 168.477 133.742 167.809 132.924 167.809H132.637Z" fill="black"/>
<path d="M125.454 166.778H125.179C123.915 166.778 122.886 165.746 122.886 164.481V161.122C122.886 159.856 123.916 158.826 125.179 158.826H125.454C126.718 158.826 127.747 159.857 127.747 161.122V164.481C127.747 165.747 126.717 166.778 125.454 166.778ZM125.179 159.727C124.41 159.727 123.787 160.351 123.787 161.121V164.48C123.787 165.25 124.41 165.875 125.179 165.875H125.454C126.223 165.875 126.846 165.25 126.846 164.48V161.121C126.846 160.351 126.223 159.727 125.454 159.727H125.179Z" fill="black"/>
<path d="M126.049 150.035L123.237 147.752C122.397 147.073 121.254 146.901 120.255 147.31C119.701 147.539 120.049 148.373 120.597 148.147C121.292 147.864 122.086 147.983 122.669 148.455L125.475 150.736C126.066 151.231 126.144 152.112 125.653 152.701L125.478 152.913C124.988 153.504 124.107 153.583 123.52 153.092L120.945 150.939C120.48 150.555 119.911 151.255 120.366 151.632L122.941 153.785C123.371 154.143 123.89 154.317 124.409 154.317C125.446 154.317 125.989 153.707 126.347 153.276C127.158 152.302 127.025 150.851 126.05 150.036L126.049 150.035Z" fill="black"/>
<path d="M125.317 173.021C124.534 173.021 123.897 172.382 123.897 171.598V166.488C123.897 165.704 124.534 165.065 125.317 165.065C126.1 165.065 126.738 165.704 126.738 166.488V171.598C126.738 172.382 126.1 173.021 125.317 173.021ZM125.317 165.969C125.03 165.969 124.798 166.203 124.798 166.49V171.6C124.798 171.887 125.031 172.119 125.317 172.119C125.603 172.119 125.836 171.886 125.836 171.6V166.49C125.836 166.203 125.603 165.969 125.317 165.969Z" fill="black"/>
<path d="M132.697 195.78C131.888 195.78 131.229 195.12 131.229 194.31V188.943C131.229 188.133 131.889 187.473 132.697 187.473C133.505 187.473 134.165 188.133 134.165 188.943V194.31C134.165 195.12 133.506 195.78 132.697 195.78ZM132.697 188.373C132.383 188.373 132.129 188.627 132.129 188.941V194.308C132.129 194.622 132.383 194.876 132.697 194.876C133.01 194.876 133.264 194.622 133.264 194.308V188.941C133.264 188.627 133.01 188.373 132.697 188.373Z" fill="black"/>
<path d="M125.454 191.804H125.179C123.915 191.804 122.886 190.773 122.886 189.507V186.149C122.886 184.882 123.916 183.852 125.179 183.852H125.454C126.718 183.852 127.747 184.883 127.747 186.149V189.507C127.747 190.774 126.717 191.804 125.454 191.804ZM125.179 184.753C124.41 184.753 123.787 185.378 123.787 186.148V189.506C123.787 190.276 124.41 190.901 125.179 190.901H125.454C126.223 190.901 126.846 190.276 126.846 189.506V186.148C126.846 185.378 126.223 184.753 125.454 184.753H125.179Z" fill="black"/>
<path d="M132.842 188.973H132.555C131.239 188.973 130.169 187.901 130.169 186.583V183.055C130.169 181.737 131.239 180.665 132.555 180.665H132.842C134.159 180.665 135.228 181.737 135.228 183.055V186.583C135.228 187.901 134.158 188.973 132.842 188.973ZM132.555 181.568C131.737 181.568 131.07 182.235 131.07 183.056V186.584C131.07 187.403 131.737 188.071 132.555 188.071H132.842C133.66 188.071 134.327 187.404 134.327 186.584V183.056C134.327 182.236 133.661 181.568 132.842 181.568H132.555Z" fill="black"/>
<path d="M129.052 200C128.232 200 127.422 199.56 127.008 198.75L126.882 198.506C126.306 197.382 126.743 195.995 127.875 195.413L130.858 193.881C131.985 193.304 133.367 193.751 133.946 194.876L134.072 195.12C134.648 196.249 134.203 197.634 133.079 198.213C130.214 199.687 129.818 200 129.052 200ZM131.905 194.534C131.414 194.534 131.415 194.621 128.288 196.218C127.616 196.561 127.327 197.395 127.684 198.095C127.887 198.495 128.061 198.851 128.621 199.031C128.974 199.145 129.351 199.114 129.683 198.945L132.667 197.413C133.35 197.062 133.62 196.22 133.271 195.536L133.145 195.292C132.898 194.813 132.41 194.534 131.905 194.534Z" fill="black"/>
<path d="M125.317 185.537C124.534 185.537 123.897 184.899 123.897 184.114V179.005C123.897 178.221 124.534 177.582 125.317 177.582C126.1 177.582 126.738 178.221 126.738 179.005V184.114C126.738 184.899 126.1 185.537 125.317 185.537ZM125.317 178.486C125.03 178.486 124.798 178.719 124.798 179.007V184.116C124.798 184.404 125.031 184.636 125.317 184.636C125.603 184.636 125.836 184.403 125.836 184.116V179.007C125.836 178.719 125.603 178.486 125.317 178.486Z" fill="black"/>
<path d="M132.697 182.278C131.888 182.278 131.229 181.618 131.229 180.807V175.441C131.229 174.63 131.889 173.97 132.697 173.97C133.505 173.97 134.165 174.63 134.165 175.441V180.807C134.165 181.618 133.506 182.278 132.697 182.278ZM132.697 174.873C132.383 174.873 132.129 175.128 132.129 175.442V180.808C132.129 181.122 132.383 181.377 132.697 181.377C133.01 181.377 133.264 181.122 133.264 180.808V175.442C133.264 175.128 133.01 174.873 132.697 174.873Z" fill="black"/>
<path d="M132.697 168.243C131.888 168.243 131.229 167.583 131.229 166.773V161.406C131.229 160.596 131.889 159.936 132.697 159.936C133.505 159.936 134.165 160.596 134.165 161.406V166.773C134.165 167.583 133.506 168.243 132.697 168.243ZM132.697 160.839C132.383 160.839 132.129 161.093 132.129 161.407V166.774C132.129 167.088 132.383 167.342 132.697 167.342C133.01 167.342 133.264 167.088 133.264 166.774V161.407C133.264 161.093 133.01 160.839 132.697 160.839Z" fill="black"/>
<path d="M125.317 152.579C124.534 152.579 123.897 153.218 123.897 154.002V159.111C123.897 159.895 124.534 160.534 125.317 160.534C126.1 160.534 126.738 159.895 126.738 159.111V154.002C126.738 153.218 126.1 152.579 125.317 152.579ZM125.837 159.114C125.837 159.402 125.604 159.634 125.317 159.634C125.03 159.634 124.798 159.401 124.798 159.114V154.005C124.798 153.717 125.031 153.484 125.317 153.484C125.603 153.484 125.837 153.717 125.837 154.005V159.114Z" fill="black"/>
<path d="M127.139 197.976C126.508 197.976 125.932 197.551 125.765 196.909L124.49 191.963C124.295 191.208 124.745 190.426 125.509 190.229C126.266 190.034 127.044 190.49 127.238 191.25L128.515 196.196C128.744 197.087 128.077 197.976 127.14 197.976H127.139ZM125.415 191.345C125.264 191.601 125.264 191.342 126.636 196.686C126.751 197.133 127.348 197.217 127.585 196.819C127.736 196.564 127.738 196.844 126.364 191.478C126.252 191.04 125.657 190.94 125.415 191.345Z" fill="black"/>
<path d="M142.65 88.8484C146.676 88.8484 149.94 92.1192 149.94 96.1518C149.94 100.184 146.676 103.453 142.65 103.453C138.624 103.453 135.36 100.185 135.36 96.1518C135.36 92.1182 138.624 88.8484 142.65 88.8484Z" fill="#F0F0F0"/>
<path d="M142.65 88.3985H125.135C120.866 88.3985 117.394 91.8761 117.394 96.152C117.394 100.428 120.866 103.905 125.135 103.905H130.494V124.47H129.722C129.473 124.47 129.271 124.672 129.271 124.921V157.728C129.271 159.31 130.555 160.595 132.134 160.595H133.806C135.386 160.595 136.668 159.31 136.668 157.728V124.921C136.668 124.672 136.467 124.47 136.218 124.47H135.445V103.905H142.653C146.921 103.905 150.393 100.428 150.393 96.152C150.393 91.8761 146.921 88.3985 142.653 88.3985H142.65ZM135.766 125.374V157.729C135.766 158.811 134.887 159.693 133.805 159.693H132.134C131.052 159.693 130.172 158.812 130.172 157.729V125.374H135.766ZM131.396 105.404L134.543 104.66V124.471H131.396V105.404ZM125.136 103.003C121.365 103.003 118.296 99.9293 118.296 96.152C118.296 92.3746 121.365 89.3007 125.136 89.3007H139.03C133.545 92.2212 133.545 100.082 139.03 103.003H125.136ZM142.651 103.001C138.881 103.001 135.812 99.9273 135.812 96.15C135.812 92.3726 138.863 89.3017 142.651 89.3017C146.44 89.3017 149.491 92.3716 149.491 96.15C149.491 99.9283 146.422 103.001 142.651 103.001Z" fill="black"/>
<path d="M139.449 111.99H121.29V66.7529C121.29 66.5037 121.089 66.3018 120.84 66.3018H0.450278C0.201433 66.3018 -6.10352e-05 66.5037 -6.10352e-05 66.7529V198.289C-6.10352e-05 198.539 0.201433 198.741 0.450278 198.741H120.839C121.088 198.741 121.289 198.539 121.289 198.289V117.701H139.448C139.697 117.701 139.898 117.499 139.898 117.25V112.442C139.898 112.193 139.697 111.991 139.448 111.991L139.449 111.99ZM114.311 99.7629L104.842 107.569H16.4429L6.97264 99.7629H114.311ZM104.551 108.472V178.394H16.738L16.735 108.472H104.551ZM6.16968 100.269L15.8333 108.235V178.698L6.16968 191.655V100.269ZM6.62002 192.559L16.5124 179.297H104.776L114.668 192.559H6.62002ZM115.12 191.658L105.45 178.692V108.235L115.12 100.262V191.658Z" fill="black"/>
<path d="M10.6652 175.147L10.2471 165.169L42.5244 121.555L52.5961 129.033L53.0131 139.01L20.7368 182.625L10.6652 175.147Z" fill="#00D1BC"/>
<path d="M52.9777 129.019C52.9646 128.763 52.9898 128.86 50.3049 126.859L42.7519 121.25C42.6229 121.154 42.489 121.154 42.3781 121.203L9.94063 164.944C9.81772 165.114 9.84794 164.949 10.2832 175.125C10.2701 175.258 10.3335 175.374 10.4373 175.453C20.6732 183.095 20.6037 183.008 20.7377 183.008C21.0409 183.008 21.1034 183.278 53.3203 139.238C53.4442 139.068 53.5056 139.229 52.9767 129.018L52.9777 129.019ZM52.6039 138.29L50.8832 137.013C50.9094 136.38 50.8348 134.441 50.5003 127.952L52.2231 129.233L52.6039 138.29ZM18.1394 180.226L16.2323 178.809C17.6387 177.174 23.2423 169.719 48.0865 135.77L49.9906 137.187L18.1394 180.226ZM47.5666 134.55L45.8499 133.276C45.8771 132.645 45.8035 130.708 45.467 124.215L47.1868 125.494L47.5666 134.55ZM45.0499 132.682L43.3131 131.392L42.9342 122.334L44.6701 123.624L45.0499 132.681V132.682ZM43.0521 132.027L44.9583 133.443L13.1041 176.486L11.1949 175.067C36.7776 140.846 41.9953 133.647 43.0521 132.027ZM45.5708 133.899L47.4739 135.314L15.6207 178.356L13.7146 176.94C15.121 175.307 20.7276 167.857 45.5708 133.898V133.899ZM48.3645 135.144C48.3897 134.511 48.3162 132.57 47.9817 126.083L49.7044 127.364L50.0843 136.421L48.3645 135.144ZM42.1887 122.646L42.5564 131.417L10.9985 174.06L10.6307 165.29L42.1887 122.646ZM20.6571 182.096L18.752 180.68C20.1634 179.048 25.7791 171.599 50.6021 137.642C51.6166 138.396 52.1858 138.816 52.5123 139.05L20.6571 182.096Z" fill="black"/>
<path d="M20.8927 161.326L20.4736 151.349L31.7502 136.115L32.1673 146.092L42.239 153.57L30.9624 168.805L20.8927 161.326Z" fill="#FFD997"/>
<path d="M30.9576 169.187C30.7722 169.187 30.8971 169.243 20.6653 161.632C20.4376 161.463 20.5857 161.636 20.094 151.365C20.084 151.156 20.0991 151.361 31.4422 135.888C31.6517 135.602 32.1091 135.739 32.1252 136.097L32.5353 145.894L42.4599 153.265C42.6281 153.391 42.6634 153.629 42.5385 153.797L31.2639 169.032C31.1903 169.131 31.0765 169.187 30.9576 169.187ZM21.2647 161.127L30.884 168.273L41.7073 153.649C31.7021 146.219 31.8049 146.393 31.7867 146.106L31.414 137.202L20.8587 151.465L21.2647 161.127Z" fill="black"/>
<path d="M31.169 162.375C34.079 162.375 36.438 160.012 36.438 157.097C36.438 154.183 34.079 151.819 31.169 151.819C28.259 151.819 25.8999 154.183 25.8999 157.097C25.8999 160.012 28.259 162.375 31.169 162.375Z" fill="white"/>
<path d="M36.7848 156.261C36.3214 153.153 33.4481 151.007 30.331 151.47C27.233 151.934 25.0871 154.834 25.5485 157.935C25.9606 160.702 28.3715 162.789 31.1551 162.789C34.643 162.789 37.2956 159.69 36.7848 156.26V156.261ZM35.0731 159.993C32.5041 163.461 27.0013 162.084 26.3666 157.812C25.9253 154.848 28.2294 152.233 31.1763 152.233C35.057 152.233 37.4951 156.721 35.0731 159.993Z" fill="black"/>
<path d="M33.832 159.248C33.7011 159.425 33.5449 159.236 33.1661 158.953C32.1173 160.142 30.8066 159.539 31.0484 159.217C31.2771 158.913 31.2972 158.856 31.3799 158.846C31.5108 158.83 32.1657 159.265 32.8528 158.338C33.2205 157.841 33.4079 157.257 32.884 156.867C31.8715 156.114 30.6253 158.92 29.0657 157.765C28.5227 157.364 28.2829 156.604 28.8118 155.725C28.1902 155.264 28.2214 155.351 28.5126 154.958C28.6426 154.782 28.8048 154.967 29.1765 155.245C30.1014 154.277 31.406 154.759 31.1643 155.084C30.9225 155.41 30.9275 155.422 30.8509 155.457C30.6897 155.532 30.5709 155.265 30.0943 155.41C29.6148 155.556 29.2078 156.166 29.1816 156.607C29.1554 157.039 29.5876 157.351 29.91 157.338C30.6686 157.31 31.6529 155.94 32.6201 156.008C33.3555 156.061 34.4295 157.003 33.5328 158.481C34.1444 158.937 34.1272 158.848 33.832 159.248Z" fill="black"/>
<path d="M28.9301 171.747L37.7897 164.571H99.7441V178.925L90.8814 186.101H28.9301V171.747Z" fill="#00D1BC"/>
<path d="M100.11 164.461C100.06 164.28 99.8966 164.189 99.7455 164.189C37.5584 164.189 37.7196 164.137 37.5534 164.274L28.727 171.421C28.596 171.497 28.5416 171.639 28.5517 171.769V186.1C28.5517 186.309 28.7219 186.48 28.9305 186.48C91.1175 186.48 90.9543 186.531 91.1216 186.395C100.186 178.998 100.123 179.205 100.123 178.924C100.123 164.466 100.138 164.562 100.11 164.461ZM99.3647 175.151L91.2132 181.754V179.143C96.2032 175.072 98.3985 173.328 99.3647 172.535V175.151ZM99.3647 167.975L91.2132 174.578V171.971C91.7724 171.579 93.47 170.2 99.3647 165.374V167.975ZM29.3093 175.714C78.6541 175.714 88.5001 175.747 90.5493 175.69V178.543H29.3093V175.714ZM90.5493 174.955H29.3093V172.128H90.5493V174.955ZM29.3093 179.304C78.6541 179.304 88.5001 179.336 90.5493 179.28V182.131H29.3093V179.304ZM99.3647 171.565L91.2132 178.168V175.554C96.2032 171.479 98.3985 169.736 99.3647 168.943V171.565ZM37.9251 164.952H98.6725L90.7488 171.368H30.0024L37.9251 164.952ZM29.3093 185.721V182.892C78.6541 182.892 88.5001 182.924 90.5493 182.867V185.72L29.3093 185.721ZM91.2132 185.345V182.731C96.2032 178.656 98.3985 176.913 99.3647 176.121V178.743L91.2132 185.346V185.345Z" fill="black"/>
<path d="M48.5621 171.747L57.4218 164.571H79.0622L70.2025 171.747V186.101H48.5621V171.747Z" fill="#FFD997"/>
<path d="M70.2045 186.483L48.562 186.481C48.3535 186.481 48.1822 186.311 48.1822 186.101C48.1822 171.469 48.1046 171.63 48.3222 171.454C57.3673 164.12 57.2162 164.192 57.4237 164.192H79.0642C79.4138 164.192 79.585 164.636 79.304 164.869L70.5843 171.931V186.104C70.5843 186.313 70.414 186.483 70.2045 186.483ZM48.9408 185.723L69.8227 185.721V171.748C69.8227 171.467 69.735 171.638 77.9902 164.952H57.5567L48.9408 171.931V185.723Z" fill="black"/>
<path d="M59.4353 184.353C62.7609 184.353 65.4569 181.652 65.4569 178.321C65.4569 174.99 62.7609 172.289 59.4353 172.289C56.1096 172.289 53.4136 174.99 53.4136 178.321C53.4136 181.652 56.1096 184.353 59.4353 184.353Z" fill="white"/>
<path d="M59.4325 171.876C55.8852 171.876 52.9988 174.767 52.9988 178.321C52.9988 181.876 55.8852 184.766 59.4325 184.766C62.9798 184.766 65.8662 181.875 65.8662 178.321C65.8662 174.768 62.9798 171.876 59.4325 171.876ZM65.0411 178.318C65.0411 181.417 62.5255 183.936 59.4325 183.936C56.3396 183.936 53.824 181.417 53.824 178.318C53.824 175.22 56.3396 172.7 59.4325 172.7C62.5255 172.7 65.0411 175.22 65.0411 178.318Z" fill="black"/>
<path d="M59.2763 182.231C59.0254 182.231 59.0889 181.964 59.0889 181.42C57.8578 181.313 57.2422 180.556 57.2271 179.831C57.2251 179.743 57.3057 179.648 57.4074 179.648C57.8416 179.648 57.9081 179.631 57.9746 179.701C58.0794 179.81 58.1268 180.708 59.4425 180.708C60.1467 180.708 60.8137 180.482 60.8137 179.736C60.8137 178.292 57.3913 179.057 57.3913 176.836C57.3913 176.064 57.9222 175.325 59.0889 175.213C59.0889 174.327 59.0295 174.415 59.5896 174.415C59.8385 174.415 59.779 174.69 59.779 175.222C61.2963 175.415 61.7426 176.942 61.2801 176.942C60.8177 176.942 60.8086 176.953 60.725 176.906C60.5477 176.805 60.7109 176.517 60.2535 176.177C59.7911 175.834 58.9579 175.875 58.5338 176.15C58.1187 176.421 58.1278 177.029 58.3585 177.319C58.9005 177.999 60.8268 177.97 61.4222 178.908C61.8745 179.621 61.7426 181.251 59.776 181.431C59.776 182.305 59.8445 182.23 59.2753 182.23L59.2763 182.231Z" fill="black"/>
<path d="M47.9291 147.861C51.9731 145.962 57.0023 148.164 59.1624 152.779C61.3224 157.394 59.795 162.675 55.7511 164.574C51.7071 166.473 46.6778 164.271 44.5178 159.656C42.3578 155.041 43.8851 149.76 47.9291 147.861Z" fill="#F1C40F"/>
<path d="M46.3776 158.827C43.6876 153.178 47.8173 147.485 53.1125 149.358C58.9498 151.422 60.2887 160.292 55.1023 162.782C51.9308 164.304 48.0681 162.376 46.3776 158.827ZM46.7645 158.644C48.326 161.925 51.9328 163.831 54.9199 162.397C59.7699 160.07 58.4511 151.694 52.9755 149.764C47.9523 147.994 44.276 153.415 46.7645 158.644Z" fill="black"/>
<path d="M59.4182 152.57C58.2415 150.1 56.1863 148.193 53.7764 147.342C48.6705 145.536 43.8166 149.201 42.6187 153.556C40.5483 161.078 47.9532 168.582 55.8901 164.847C59.9129 162.953 61.7928 157.556 59.4182 152.57ZM55.6805 164.257C51.7887 166.126 46.9347 163.993 44.8311 159.575C41.5628 152.712 46.8621 145.551 53.5729 147.925C60.742 150.46 62.1706 161.141 55.6815 164.256L55.6805 164.257Z" fill="black"/>
<path d="M43.4455 153.732L42.8766 154.036C42.8524 154.048 42.8272 154.029 42.8343 154.002C42.8695 153.865 42.9027 153.727 42.941 153.588L42.9551 153.569L43.4999 153.279C43.524 153.267 43.5492 153.287 43.5422 153.313C43.517 153.414 43.4757 153.626 43.4616 153.71C43.4616 153.71 43.4546 153.726 43.4445 153.731L43.4455 153.732Z" fill="white"/>
<path d="M42.7447 154.482L43.3448 154.163C43.366 154.151 43.3922 154.17 43.3871 154.195C43.371 154.321 43.3589 154.446 43.3469 154.572C43.3469 154.572 43.3398 154.591 43.3307 154.596L42.7145 154.924C42.6933 154.937 42.6672 154.917 42.6692 154.893C42.6722 154.863 42.7185 154.495 42.7447 154.482Z" fill="white"/>
<path d="M42.6396 155.344L43.275 155.004C43.3485 154.963 43.3133 155.13 43.3133 155.392C43.3133 155.404 43.3062 155.413 43.2971 155.418L42.6457 155.765C42.6245 155.777 42.6003 155.76 42.6003 155.737C42.6003 155.703 42.6094 155.361 42.6406 155.345L42.6396 155.344Z" fill="white"/>
<path d="M42.6016 156.164L43.2742 155.807C43.2934 155.798 43.3165 155.81 43.3165 155.834C43.3185 155.948 43.3286 156.064 43.3357 156.178C43.3357 156.19 43.3306 156.201 43.3195 156.206L42.6388 156.568C42.6197 156.577 42.5966 156.566 42.5935 156.541C42.5885 156.425 42.5855 156.306 42.5845 156.19C42.5845 156.178 42.5925 156.169 42.6016 156.164Z" fill="white"/>
<path d="M42.64 156.946L43.3377 156.577C43.3951 156.548 43.377 156.619 43.4234 156.932C43.4234 156.944 43.4183 156.958 43.4072 156.963L42.7045 157.337C42.6853 157.346 42.6642 157.337 42.6591 157.313C42.645 157.201 42.6329 157.087 42.6238 156.976C42.6238 156.964 42.6289 156.953 42.64 156.948V156.946Z" fill="white"/>
<path d="M42.7446 157.697L43.4544 157.319C43.5108 157.287 43.5038 157.394 43.5633 157.659C43.5653 157.674 43.5612 157.686 43.5491 157.693L42.8323 158.073C42.8162 158.082 42.792 158.073 42.79 158.052C42.7688 157.945 42.7476 157.836 42.7285 157.729C42.7285 157.717 42.7335 157.703 42.7446 157.698V157.697Z" fill="white"/>
<path d="M46.6795 163.069L46.131 163.519C46.131 163.519 46.1048 163.528 46.0927 163.519C46.009 163.452 45.9293 163.382 45.8477 163.312C45.8336 163.3 45.8336 163.278 45.8477 163.266L46.4083 162.808C46.4083 162.808 46.4365 162.799 46.4486 162.808C46.5242 162.882 46.5988 162.954 46.6785 163.024C46.6926 163.036 46.6936 163.057 46.6795 163.069Z" fill="white"/>
<path d="M47.2275 163.533L46.7123 163.956C46.7123 163.956 46.6861 163.965 46.677 163.956C46.5863 163.894 46.4996 163.83 46.4109 163.766C46.3947 163.754 46.3937 163.731 46.4109 163.719L46.9402 163.283C46.9402 163.283 46.9664 163.274 46.9785 163.283C47.0622 163.351 47.1448 163.418 47.2275 163.485C47.2416 163.497 47.2436 163.521 47.2275 163.533Z" fill="white"/>
<path d="M47.8218 163.961L47.3449 164.352C47.3449 164.352 47.3207 164.361 47.3116 164.354C47.2148 164.3 47.1191 164.242 47.0243 164.184C47.0082 164.172 47.0051 164.148 47.0223 164.134L47.5163 163.729C47.5163 163.729 47.5425 163.719 47.5516 163.729C47.7764 163.893 47.8762 163.922 47.8218 163.962V163.961Z" fill="white"/>
<path d="M48.4696 164.356L48.0311 164.71C48.0311 164.71 48.0099 164.719 47.9998 164.715C47.5511 164.496 47.5401 164.634 48.1399 164.142C48.1399 164.142 48.1631 164.133 48.1732 164.14C48.27 164.197 48.3648 164.253 48.4656 164.307C48.4848 164.317 48.4868 164.342 48.4706 164.357L48.4696 164.356Z" fill="white"/>
<path d="M49.1982 164.659L48.7757 165.011C48.7757 165.011 48.7566 165.02 48.7475 165.016C48.6336 164.975 48.5186 164.935 48.4057 164.888C48.3845 164.878 48.3795 164.852 48.3987 164.835L48.807 164.499C48.807 164.499 48.8281 164.49 48.8402 164.494C48.9592 164.551 49.0772 164.608 49.1982 164.659Z" fill="white"/>
<path d="M49.9224 164.992L49.5972 165.256L49.571 165.263C49.4451 165.232 49.3193 165.199 49.1964 165.163C49.1733 165.156 49.1682 165.125 49.1874 165.111L49.5408 164.82C49.5408 164.82 49.5599 164.811 49.569 164.815C49.6828 164.858 49.7966 164.9 49.9124 164.939C49.9335 164.946 49.9406 164.974 49.9214 164.991L49.9224 164.992Z" fill="white"/>
<path d="M54.0845 161.127C53.7974 161.257 53.7168 160.882 53.4034 160.183C51.9356 160.682 50.7941 160.02 50.3538 159.095C50.2994 158.982 50.3377 158.82 50.4536 158.767C50.9492 158.544 51.0157 158.487 51.1296 158.541C51.3119 158.629 51.8862 159.762 53.3924 159.08C54.1963 158.717 54.827 158.082 54.3928 157.118C53.5556 155.256 50.0929 158.009 48.8033 155.146C48.355 154.151 48.5333 152.923 49.7997 152.174C49.2849 151.032 49.2688 151.174 49.9065 150.887C50.1906 150.758 50.2813 151.143 50.5896 151.83C52.4343 151.293 53.8296 153.033 53.3027 153.272C52.7718 153.514 52.7718 153.532 52.6509 153.515C52.3899 153.477 52.4091 153.019 51.6877 152.818C50.9623 152.616 50.0324 153.099 49.7101 153.673C49.3947 154.236 49.7574 155.017 50.1866 155.269C51.2001 155.865 53.3833 154.833 54.6074 155.735C55.5373 156.421 56.3311 158.588 54.1923 159.837C54.7001 160.963 54.7323 160.831 54.0855 161.125L54.0845 161.127Z" fill="black"/>
<path d="M60.8025 124.394C63.7302 121.015 69.2189 120.985 73.0614 124.326C76.9039 127.668 77.6464 133.115 74.7187 136.493C71.791 139.872 66.3023 139.902 62.4598 136.56C58.6173 133.219 57.8748 127.773 60.8025 124.394Z" fill="#F1C40F"/>
<path d="M63.8238 135.049C59.0776 130.978 60.5475 124.097 66.147 123.657C72.3188 123.173 77.1335 130.738 73.3998 135.119C71.1168 137.799 66.8049 137.606 63.8238 135.048V135.049ZM64.1028 134.725C66.8583 137.09 70.9264 137.367 73.0774 134.843C76.5693 130.746 71.9722 123.625 66.1853 124.085C60.8769 124.507 59.7113 130.956 64.1028 134.725Z" fill="black"/>
<path d="M73.2123 124.032C71.137 122.252 68.4863 121.344 65.9384 121.544C60.5394 121.968 57.5875 127.289 58.2544 131.757C59.407 139.474 69.2137 143.324 74.9563 136.687C77.8679 133.322 77.4004 127.625 73.2123 124.032ZM74.5271 136.234C71.7253 139.523 66.426 139.545 62.7145 136.361C56.9488 131.416 58.8942 122.718 65.9888 122.162C73.568 121.567 79.1987 130.75 74.5271 136.234Z" fill="black"/>
<path d="M59.0816 131.582L58.6848 132.091C58.6677 132.112 58.6365 132.104 58.6325 132.078C58.6093 131.939 58.5841 131.799 58.563 131.657L58.568 131.634L58.9487 131.147C58.9658 131.127 58.997 131.134 59.001 131.161C59.0181 131.263 59.0675 131.474 59.0876 131.556C59.0876 131.556 59.0876 131.573 59.0816 131.582Z" fill="white"/>
<path d="M58.7444 132.554L59.1643 132.018C59.1784 131.999 59.2107 132.005 59.2157 132.03C59.2509 132.152 59.2912 132.271 59.3315 132.391C59.3315 132.391 59.3325 132.411 59.3265 132.419L58.8955 132.969C58.8804 132.989 58.8492 132.983 58.8421 132.959C58.8331 132.931 58.7263 132.576 58.7455 132.553L58.7444 132.554Z" fill="white"/>
<path d="M58.9982 133.384L59.4412 132.814C59.4916 132.747 59.5268 132.914 59.6326 133.153C59.6376 133.164 59.6346 133.175 59.6275 133.183L59.1724 133.765C59.1573 133.785 59.1291 133.78 59.12 133.757C59.1069 133.726 58.976 133.41 58.9982 133.384Z" fill="white"/>
<path d="M59.2953 134.148L59.7665 133.548C59.7796 133.532 59.8058 133.533 59.8159 133.554C59.8642 133.657 59.9196 133.76 59.973 133.861C59.978 133.872 59.978 133.884 59.9689 133.893L59.4937 134.5C59.4806 134.516 59.4534 134.515 59.4423 134.495C59.3909 134.39 59.3396 134.283 59.2913 134.177C59.2862 134.166 59.2892 134.155 59.2963 134.147L59.2953 134.148Z" fill="white"/>
<path d="M59.6462 134.847L60.1346 134.227C60.1759 134.178 60.188 134.249 60.3561 134.516C60.3611 134.527 60.362 134.542 60.353 134.551L59.8626 135.177C59.8495 135.193 59.8254 135.193 59.8124 135.174C59.754 135.077 59.6976 134.978 59.6432 134.881C59.6382 134.869 59.6381 134.857 59.6471 134.848L59.6462 134.847Z" fill="white"/>
<path d="M60.0458 135.491L60.5412 134.857C60.5795 134.806 60.6168 134.906 60.7779 135.124C60.7859 135.136 60.7859 135.149 60.7779 135.16L60.2774 135.798C60.2663 135.813 60.2402 135.814 60.2301 135.796C60.1677 135.707 60.1032 135.615 60.0428 135.525C60.0378 135.514 60.0368 135.501 60.0458 135.491Z" fill="white"/>
<path d="M65.8166 138.805L65.4974 139.438C65.4974 139.438 65.4772 139.457 65.4631 139.453C65.3604 139.426 65.2597 139.395 65.156 139.363C65.1379 139.358 65.1298 139.339 65.1379 139.322L65.4641 138.675C65.4641 138.675 65.4863 138.655 65.5014 138.659C65.6001 138.695 65.6978 138.731 65.7995 138.763C65.8166 138.768 65.8256 138.787 65.8176 138.804L65.8166 138.805Z" fill="white"/>
<path d="M66.5055 139.006L66.2064 139.601C66.2064 139.601 66.1863 139.621 66.1742 139.615C66.0665 139.595 65.9607 139.572 65.855 139.55C65.8349 139.546 65.8258 139.524 65.8359 139.506L66.143 138.894C66.143 138.894 66.1631 138.875 66.1772 138.879C66.4128 138.942 66.5377 138.95 66.5055 139.006Z" fill="white"/>
<path d="M67.2229 139.154L66.9459 139.706C66.9459 139.706 66.9278 139.724 66.9167 139.722C66.806 139.712 66.6962 139.698 66.5855 139.683C66.5653 139.679 66.5532 139.658 66.5633 139.639L66.8493 139.067C66.8493 139.067 66.8694 139.048 66.8815 139.053C67.1534 139.113 67.2561 139.099 67.2229 139.156V139.154Z" fill="white"/>
<path d="M67.9744 139.252L67.7166 139.754C67.7166 139.754 67.7005 139.772 67.6904 139.772C67.192 139.753 67.2383 139.883 67.5867 139.19C67.5867 139.19 67.6048 139.172 67.6159 139.175C67.7277 139.187 67.8364 139.201 67.9502 139.209C67.9713 139.21 67.9844 139.233 67.9744 139.252Z" fill="white"/>
<path d="M68.7625 139.234L68.5188 139.727C68.5188 139.727 68.5057 139.743 68.4946 139.743C68.3738 139.752 68.2529 139.763 68.1311 139.765C68.1079 139.765 68.0928 139.742 68.1029 139.72L68.3405 139.247C68.3405 139.247 68.3556 139.23 68.3687 139.229C68.4996 139.233 68.6305 139.236 68.7625 139.234Z" fill="white"/>
<path d="M69.5602 139.243L69.37 139.617L69.3487 139.634C69.2219 139.657 69.0931 139.679 68.9662 139.695C68.942 139.698 68.9249 139.671 68.936 139.65L69.1413 139.241C69.1413 139.241 69.1554 139.225 69.1655 139.225C69.2873 139.218 69.4082 139.21 69.53 139.198C69.5521 139.196 69.5703 139.221 69.5602 139.243Z" fill="white"/>
<path d="M71.8004 134.019C71.5908 134.255 71.3651 133.945 70.7969 133.434C69.6575 134.487 68.3457 134.344 67.569 133.678C67.4743 133.597 67.442 133.433 67.5277 133.338C67.8904 132.933 67.9276 132.854 68.0546 132.858C68.2571 132.864 69.2404 133.666 70.3405 132.432C70.9279 131.773 71.2483 130.937 70.4614 130.232C68.9422 128.87 66.892 132.793 64.5536 130.7C63.7406 129.973 63.4061 128.778 64.2605 127.579C63.3275 126.743 63.3699 126.881 63.8373 126.359C64.0459 126.126 64.2836 126.441 64.8438 126.943C66.3127 125.703 68.2923 126.727 67.9075 127.159C67.5196 127.595 67.5267 127.612 67.4098 127.646C67.1559 127.718 66.9877 127.29 66.2482 127.4C65.5037 127.511 64.8488 128.329 64.7864 128.986C64.7259 129.629 65.3737 130.195 65.8684 130.251C67.036 130.383 68.6137 128.553 70.0977 128.882C71.2251 129.131 72.829 130.789 71.3792 132.8C72.2991 133.624 72.2759 133.49 71.8024 134.02L71.8004 134.019Z" fill="black"/>
<path d="M77.4801 119.387C81.4082 117.259 86.5553 119.167 88.9773 123.65C91.3993 128.133 90.1772 133.492 86.2491 135.622C82.3209 137.75 77.1738 135.842 74.7518 131.359C72.3299 126.876 73.5519 121.517 77.4801 119.387Z" fill="#F1C40F"/>
<path d="M76.5606 130.425C73.5513 124.94 77.3464 119.019 82.7414 120.583C88.6875 122.308 90.5342 131.087 85.4978 133.871C82.419 135.573 78.4516 133.871 76.5606 130.425ZM76.9364 130.22C78.6833 133.406 82.3938 135.1 85.2943 133.498C90.0033 130.895 88.2059 122.609 82.6276 120.997C77.5116 119.519 74.1527 125.143 76.9364 130.22Z" fill="black"/>
<path d="M89.2211 123.427C87.9054 121.028 85.7433 119.244 83.2881 118.532C78.0866 117.023 73.4522 120.962 72.5052 125.378C70.8701 133.007 78.6931 140.071 86.4022 135.885C90.3102 133.764 91.8768 128.267 89.2201 123.426L89.2211 123.427ZM86.1604 135.31C82.3824 137.399 77.4146 135.55 75.0601 131.26C71.403 124.598 76.2822 117.144 83.1189 119.127C90.421 121.245 92.4612 131.827 86.1604 135.31Z" fill="black"/>
<path d="M73.341 125.507L72.7902 125.843C72.767 125.856 72.7408 125.839 72.7459 125.812C72.7731 125.673 72.7982 125.533 72.8284 125.393L72.8415 125.373L73.3692 125.052C73.3923 125.039 73.4185 125.056 73.4135 125.082C73.3943 125.184 73.3661 125.398 73.3561 125.483C73.3561 125.483 73.35 125.5 73.341 125.505V125.507Z" fill="white"/>
<path d="M72.6837 126.296L73.2647 125.944C73.2848 125.931 73.312 125.948 73.309 125.972C73.2999 126.099 73.2949 126.226 73.2909 126.352C73.2909 126.352 73.2848 126.371 73.2758 126.376L72.6797 126.739C72.6585 126.752 72.6313 126.734 72.6333 126.71C72.6354 126.68 72.6595 126.31 72.6857 126.295L72.6837 126.296Z" fill="white"/>
<path d="M72.629 127.163L73.2442 126.788C73.3157 126.742 73.2895 126.911 73.3047 127.172C73.3047 127.184 73.2986 127.194 73.2896 127.2L72.6582 127.583C72.6381 127.596 72.6129 127.581 72.6119 127.557C72.6109 127.523 72.5988 127.18 72.629 127.163Z" fill="white"/>
<path d="M72.6383 127.984L73.2898 127.589C73.308 127.579 73.3321 127.589 73.3341 127.612C73.3432 127.726 73.3593 127.841 73.3724 127.955C73.3724 127.967 73.3694 127.98 73.3573 127.985L72.6988 128.384C72.6806 128.394 72.6565 128.384 72.6524 128.361C72.6414 128.245 72.6303 128.127 72.6232 128.011C72.6232 127.999 72.6293 127.99 72.6383 127.984Z" fill="white"/>
<path d="M72.7208 128.762L73.3963 128.354C73.4517 128.322 73.4386 128.393 73.5021 128.702C73.5021 128.714 73.4991 128.729 73.487 128.734L72.8075 129.147C72.7893 129.157 72.7671 129.149 72.7611 129.125C72.7399 129.014 72.7218 128.901 72.7056 128.79C72.7056 128.778 72.7087 128.767 72.7208 128.762Z" fill="white"/>
<path d="M72.8688 129.506L73.5554 129.088C73.6099 129.052 73.6089 129.159 73.6845 129.421C73.6875 129.435 73.6845 129.447 73.6724 129.455L72.9787 129.876C72.9626 129.886 72.9384 129.878 72.9354 129.857C72.9081 129.752 72.8799 129.644 72.8557 129.538C72.8557 129.526 72.8587 129.512 72.8708 129.507L72.8688 129.506Z" fill="white"/>
<path d="M77.1048 134.643L76.5836 135.123C76.5836 135.123 76.5584 135.134 76.5453 135.125C76.4586 135.063 76.3749 134.998 76.2892 134.932C76.2741 134.921 76.2731 134.9 76.2862 134.887L76.8195 134.397C76.8195 134.397 76.8477 134.386 76.8598 134.395C76.9395 134.464 77.0181 134.532 77.1018 134.598C77.1169 134.609 77.1179 134.63 77.1048 134.643Z" fill="white"/>
<path d="M77.6791 135.074L77.1891 135.526C77.1891 135.526 77.1639 135.538 77.1538 135.529C77.06 135.472 76.9693 135.412 76.8775 135.354C76.8604 135.343 76.8584 135.32 76.8745 135.306L77.3776 134.842C77.3776 134.842 77.4028 134.831 77.4159 134.84C77.5036 134.904 77.5903 134.965 77.676 135.028C77.6912 135.039 77.6952 135.061 77.6791 135.074Z" fill="white"/>
<path d="M78.2974 135.467L77.8437 135.885C77.8437 135.885 77.8205 135.897 77.8104 135.889C77.7106 135.84 77.6118 135.789 77.514 135.735C77.4969 135.724 77.4928 135.701 77.509 135.686L77.9788 135.252C77.9788 135.252 78.004 135.24 78.0141 135.249C78.248 135.401 78.3498 135.424 78.2974 135.467Z" fill="white"/>
<path d="M78.9663 135.823L78.5479 136.202C78.5479 136.202 78.5268 136.212 78.5177 136.208C78.0569 136.015 78.0549 136.153 78.6246 135.628C78.6246 135.628 78.6477 135.617 78.6578 135.624C78.7586 135.676 78.8554 135.726 78.9593 135.774C78.9784 135.783 78.9825 135.808 78.9663 135.823Z" fill="white"/>
<path d="M79.7111 136.085L79.3098 136.461C79.3098 136.461 79.2917 136.472 79.2816 136.467C79.1656 136.434 79.0487 136.4 78.9328 136.359C78.9106 136.351 78.9045 136.325 78.9227 136.308L79.3108 135.949C79.3108 135.949 79.332 135.938 79.3441 135.942C79.4661 135.992 79.5871 136.04 79.7111 136.085Z" fill="white"/>
<path d="M80.454 136.375L80.1448 136.657L80.1196 136.666C79.9928 136.643 79.8649 136.618 79.74 136.588C79.7159 136.582 79.7098 136.552 79.7279 136.537L80.0643 136.227C80.0643 136.227 80.0824 136.216 80.0925 136.22C80.2083 136.257 80.3251 136.292 80.4429 136.325C80.465 136.331 80.4731 136.359 80.455 136.376L80.454 136.375Z" fill="white"/>
<path d="M84.3873 132.277C84.1082 132.423 84.0065 132.054 83.6539 131.375C82.2172 131.957 81.0395 131.361 80.5468 130.464C80.4864 130.354 80.5146 130.19 80.6274 130.131C81.109 129.88 81.1725 129.819 81.2893 129.867C81.4767 129.944 82.1145 131.041 83.5793 130.275C84.3611 129.865 84.9545 129.196 84.4659 128.258C83.5229 126.448 80.2244 129.396 78.7727 126.611C78.2679 125.643 78.3747 124.407 79.5968 123.587C79.0175 122.476 79.0094 122.619 79.629 122.295C79.9061 122.151 80.0179 122.529 80.3645 123.197C82.1759 122.555 83.668 124.211 83.1562 124.481C82.6404 124.751 82.6404 124.77 82.5195 124.76C82.2565 124.738 82.2495 124.279 81.518 124.121C80.7816 123.961 79.8809 124.496 79.5928 125.088C79.3097 125.669 79.7177 126.428 80.16 126.655C81.2057 127.19 83.3264 126.034 84.5999 126.865C85.5671 127.496 86.4849 129.614 84.4206 130.984C84.9918 132.079 85.017 131.946 84.3883 132.276L84.3873 132.277Z" fill="black"/>
<path d="M88.483 132.659C92.4111 130.531 97.5582 132.438 99.9802 136.922C102.402 141.406 101.18 146.764 97.252 148.894C93.3239 151.023 88.1767 149.115 85.7547 144.631C83.3338 140.148 84.5548 134.788 88.483 132.659Z" fill="#F1C40F"/>
<path d="M87.564 143.697C84.5547 138.212 88.3498 132.291 93.7448 133.855C99.6909 135.58 101.537 144.359 96.5013 147.143C93.4224 148.845 89.455 147.143 87.564 143.697ZM87.9398 143.492C89.6867 146.678 93.3973 148.372 96.2978 146.77C101.007 144.167 99.2094 135.881 93.632 134.269C88.5161 132.791 85.1551 138.415 87.9398 143.492Z" fill="black"/>
<path d="M100.224 136.698C98.9081 134.299 96.746 132.515 94.2908 131.802C89.0893 130.294 84.4549 134.233 83.5079 138.649C81.8728 146.278 89.6958 153.342 97.4049 149.156C101.313 147.035 102.88 141.538 100.223 136.697L100.224 136.698ZM97.1631 148.581C93.3841 150.67 88.4173 148.821 86.0628 144.531C82.4057 137.869 87.2859 130.414 94.1216 132.398C101.424 134.516 103.464 145.097 97.1631 148.581Z" fill="black"/>
<path d="M84.3449 138.778L83.7941 139.114C83.7709 139.127 83.7447 139.11 83.7498 139.084C83.777 138.945 83.8021 138.804 83.8323 138.665L83.8454 138.645L84.3731 138.324C84.3962 138.311 84.4224 138.328 84.4174 138.355C84.3972 138.457 84.369 138.671 84.36 138.756C84.36 138.756 84.3539 138.773 84.3449 138.778Z" fill="white"/>
<path d="M83.6869 139.568L84.2679 139.216C84.288 139.203 84.3152 139.22 84.3122 139.244C84.3031 139.37 84.2981 139.497 84.2941 139.624C84.2941 139.624 84.288 139.643 84.279 139.648L83.6828 140.01C83.6617 140.023 83.6345 140.006 83.6365 139.982C83.6385 139.952 83.6627 139.582 83.6889 139.567L83.6869 139.568Z" fill="white"/>
<path d="M83.6329 140.435L84.2481 140.059C84.3196 140.014 84.2935 140.183 84.3086 140.444C84.3086 140.456 84.3025 140.465 84.2935 140.471L83.6621 140.855C83.642 140.868 83.6168 140.853 83.6158 140.829C83.6148 140.794 83.6027 140.452 83.6329 140.435Z" fill="white"/>
<path d="M83.642 141.256L84.2935 140.861C84.3116 140.851 84.3358 140.861 84.3378 140.884C84.3469 140.998 84.363 141.113 84.3761 141.227C84.3761 141.239 84.373 141.252 84.361 141.257L83.7024 141.656C83.6843 141.666 83.6601 141.656 83.6561 141.633C83.645 141.517 83.6339 141.399 83.6269 141.283C83.6269 141.271 83.6329 141.261 83.642 141.256Z" fill="white"/>
<path d="M83.7247 142.034L84.4002 141.626C84.4566 141.593 84.4425 141.665 84.506 141.974C84.506 141.986 84.503 142 84.4909 142.005L83.8114 142.418C83.7932 142.428 83.771 142.42 83.765 142.397C83.7438 142.286 83.7257 142.173 83.7095 142.062C83.7095 142.05 83.7126 142.039 83.7247 142.034Z" fill="white"/>
<path d="M83.8718 142.776L84.5584 142.358C84.6129 142.323 84.6118 142.43 84.6865 142.692C84.6895 142.706 84.6865 142.718 84.6744 142.726L83.9807 143.147C83.9646 143.157 83.9404 143.149 83.9363 143.128C83.9091 143.022 83.8809 142.915 83.8567 142.809C83.8567 142.797 83.8597 142.782 83.8718 142.776Z" fill="white"/>
<path d="M88.109 147.915L87.5877 148.395C87.5877 148.395 87.5625 148.406 87.5494 148.397C87.4627 148.335 87.379 148.269 87.2933 148.205C87.2782 148.194 87.2772 148.172 87.2903 148.159L87.8237 147.67C87.8237 147.67 87.8519 147.659 87.864 147.668C87.9436 147.737 88.0223 147.805 88.106 147.871C88.1211 147.882 88.1221 147.903 88.109 147.916V147.915Z" fill="white"/>
<path d="M88.6822 148.346L88.1922 148.798C88.1922 148.798 88.167 148.809 88.1569 148.8C88.0632 148.744 87.9725 148.684 87.8807 148.626C87.8636 148.615 87.8615 148.591 87.8777 148.578L88.3808 148.114C88.3808 148.114 88.406 148.103 88.4191 148.112C88.5068 148.175 88.5935 148.236 88.6792 148.299C88.6943 148.31 88.6984 148.333 88.6822 148.346Z" fill="white"/>
<path d="M89.3003 148.738L88.8466 149.157C88.8466 149.157 88.8234 149.169 88.8134 149.161C88.7135 149.112 88.6147 149.061 88.5169 149.007C88.4998 148.996 88.4958 148.973 88.5119 148.958L88.9817 148.523C88.9817 148.523 89.0069 148.512 89.017 148.521C89.2509 148.673 89.3517 148.696 89.3003 148.738Z" fill="white"/>
<path d="M89.9693 149.095L89.5509 149.474C89.5509 149.474 89.5297 149.484 89.5206 149.48C89.0599 149.287 89.0578 149.424 89.6275 148.9C89.6275 148.9 89.6507 148.889 89.6608 148.896C89.7616 148.947 89.8584 148.998 89.9622 149.045C89.9814 149.054 89.9844 149.08 89.9693 149.095Z" fill="white"/>
<path d="M90.714 149.356L90.3127 149.732C90.3127 149.732 90.2945 149.743 90.2845 149.738C90.1685 149.705 90.0516 149.671 89.9356 149.63C89.9134 149.622 89.9074 149.596 89.9255 149.579L90.3137 149.22C90.3137 149.22 90.3349 149.209 90.347 149.213C90.469 149.263 90.59 149.311 90.714 149.356Z" fill="white"/>
<path d="M91.4566 149.647L91.1475 149.929L91.1223 149.937C90.9955 149.914 90.8676 149.888 90.7427 149.859C90.7185 149.853 90.7125 149.823 90.7306 149.808L91.067 149.497C91.067 149.497 91.0851 149.487 91.0951 149.491C91.2109 149.528 91.3277 149.563 91.4456 149.595C91.4677 149.601 91.4748 149.63 91.4566 149.647Z" fill="white"/>
<path d="M95.3902 145.548C95.1112 145.695 95.0094 145.325 94.6568 144.646C93.2202 145.229 92.0424 144.633 91.5498 143.736C91.4893 143.626 91.5175 143.461 91.6304 143.403C92.1119 143.152 92.1754 143.091 92.2923 143.139C92.4797 143.215 93.1174 144.313 94.5822 143.546C95.364 143.137 95.9574 142.467 95.4688 141.53C94.5258 139.719 91.2274 142.667 89.7756 139.883C89.2709 138.915 89.3777 137.679 90.5997 136.858C90.0204 135.747 90.0124 135.891 90.632 135.567C90.909 135.422 91.0208 135.801 91.3674 136.469C93.1788 135.827 94.6709 137.483 94.1591 137.753C93.6433 138.023 93.6433 138.042 93.5214 138.032C93.2584 138.01 93.2514 137.551 92.52 137.392C91.7835 137.233 90.8828 137.768 90.5947 138.36C90.3116 138.94 90.7196 139.699 91.1619 139.926C92.2076 140.462 94.3284 139.306 95.6018 140.136C96.57 140.768 97.4868 142.885 95.4235 144.256C95.9947 145.351 96.0199 145.217 95.3912 145.547L95.3902 145.548Z" fill="black"/>
<path d="M92.3998 148.315C96.7601 147.348 101.187 150.598 102.288 155.574C103.389 160.551 100.746 165.369 96.3853 166.337C92.025 167.305 87.5972 164.054 86.497 159.078C85.3968 154.102 88.0394 149.283 92.3998 148.315Z" fill="#F1C40F"/>
<path d="M88.4917 158.676C87.1003 152.575 92.3724 147.925 97.1307 150.912C102.376 154.205 101.747 163.154 96.1414 164.447C92.715 165.237 89.3661 162.51 88.4917 158.676ZM88.9087 158.583C89.7157 162.126 92.8197 164.776 96.0477 164.031C101.289 162.822 101.831 154.36 96.9081 151.278C92.3936 148.45 87.6222 152.935 88.9087 158.583Z" fill="black"/>
<path d="M102.583 155.427C101.975 152.759 100.385 150.449 98.219 149.089C93.63 146.209 88.0949 148.722 85.9742 152.709C82.311 159.596 87.8995 168.539 96.46 166.634C100.799 165.668 103.811 160.813 102.583 155.427ZM96.3844 166.013C92.1782 166.984 87.9086 163.84 86.8195 159.068C85.1279 151.656 91.8619 145.829 97.8926 149.615C104.334 153.66 103.397 164.394 96.3844 166.013Z" fill="black"/>
<path d="M86.7447 153.063L86.1226 153.235C86.0974 153.241 86.0762 153.217 86.0883 153.194C86.1529 153.067 86.2154 152.939 86.2829 152.813L86.3011 152.797L86.8969 152.634C86.9231 152.628 86.9433 152.651 86.9312 152.675C86.8838 152.768 86.7981 152.966 86.7659 153.045C86.7659 153.045 86.7548 153.061 86.7447 153.063Z" fill="white"/>
<path d="M85.8957 153.641L86.551 153.461C86.5742 153.454 86.5954 153.478 86.5863 153.5C86.543 153.62 86.5036 153.74 86.4643 153.86C86.4643 153.86 86.4532 153.877 86.4431 153.879L85.7696 154.064C85.7465 154.072 85.7243 154.047 85.7323 154.024C85.7424 153.996 85.8664 153.646 85.8967 153.639L85.8957 153.641Z" fill="white"/>
<path d="M85.6054 154.459L86.3001 154.267C86.3818 154.243 86.3102 154.399 86.2527 154.655C86.2497 154.666 86.2406 154.674 86.2305 154.676L85.5177 154.872C85.4945 154.879 85.4744 154.858 85.4794 154.834C85.4875 154.801 85.5712 154.469 85.6044 154.46L85.6054 154.459Z" fill="white"/>
<path d="M85.3902 155.252L86.1262 155.051C86.1463 155.046 86.1665 155.064 86.1625 155.087C86.1403 155.199 86.1242 155.314 86.106 155.427C86.103 155.44 86.0959 155.45 86.0838 155.452L85.3398 155.655C85.3196 155.66 85.2984 155.643 85.3014 155.62C85.3226 155.504 85.3448 155.388 85.369 155.274C85.371 155.262 85.3791 155.255 85.3902 155.252Z" fill="white"/>
<path d="M85.2556 156.023L86.0168 155.815C86.0793 155.8 86.0471 155.865 86.0229 156.18C86.0199 156.191 86.0128 156.204 85.9997 156.206L85.2324 156.417C85.2123 156.422 85.1931 156.408 85.1941 156.383C85.2042 156.271 85.2183 156.157 85.2334 156.046C85.2365 156.035 85.2435 156.025 85.2556 156.023Z" fill="white"/>
<path d="M85.1933 156.777L85.9686 156.564C86.0301 156.545 85.9998 156.648 86.0008 156.92C86.0008 156.934 85.9928 156.945 85.9797 156.949L85.1973 157.163C85.1791 157.17 85.158 157.154 85.16 157.133C85.163 157.024 85.166 156.913 85.1701 156.804C85.1731 156.792 85.1802 156.779 85.1933 156.777Z" fill="white"/>
<path d="M87.8608 162.883L87.2276 163.201C87.2276 163.201 87.2004 163.204 87.1903 163.193C87.1238 163.11 87.0613 163.024 86.9967 162.937C86.9856 162.922 86.9907 162.902 87.0068 162.893L87.6531 162.568C87.6531 162.568 87.6833 162.565 87.6924 162.577C87.7499 162.666 87.8073 162.753 87.8698 162.838C87.8809 162.853 87.8769 162.874 87.8608 162.883Z" fill="white"/>
<path d="M88.2941 163.455L87.6992 163.755C87.6992 163.755 87.672 163.758 87.6649 163.747C87.5903 163.667 87.5188 163.585 87.4472 163.504C87.4341 163.489 87.4391 163.465 87.4573 163.457L88.0682 163.148C88.0682 163.148 88.0955 163.144 88.1055 163.156C88.1721 163.241 88.2386 163.324 88.3042 163.408C88.3153 163.422 88.3122 163.446 88.2941 163.454V163.455Z" fill="white"/>
<path d="M88.7815 164.002L88.23 164.281C88.23 164.281 88.2048 164.285 88.1967 164.276C88.114 164.202 88.0334 164.125 87.9537 164.046C87.9406 164.031 87.9426 164.006 87.9618 163.996L88.5325 163.707C88.5325 163.707 88.5597 163.703 88.5667 163.715C88.7502 163.926 88.841 163.976 88.7795 164.002H88.7815Z" fill="white"/>
<path d="M89.3265 164.529L88.8203 164.779C88.8203 164.779 88.7971 164.783 88.7891 164.777C88.3989 164.464 88.3586 164.596 89.0512 164.248C89.0512 164.248 89.0764 164.244 89.0845 164.253C89.1672 164.33 89.2458 164.406 89.3325 164.479C89.3486 164.494 89.3456 164.519 89.3265 164.529Z" fill="white"/>
<path d="M89.9715 164.985L89.4825 165.236C89.4825 165.236 89.4623 165.241 89.4533 165.234C89.3504 165.169 89.2476 165.104 89.1478 165.034C89.1286 165.02 89.1306 164.993 89.1518 164.981L89.6237 164.744C89.6237 164.744 89.6468 164.738 89.6569 164.746C89.7608 164.827 89.8646 164.906 89.9705 164.984L89.9715 164.985Z" fill="white"/>
<path d="M90.606 165.469L90.2314 165.655H90.2042C90.0884 165.598 89.9726 165.538 89.8608 165.476C89.8397 165.464 89.8417 165.432 89.8628 165.422L90.2707 165.216C90.2707 165.216 90.2908 165.211 90.2999 165.218C90.4016 165.285 90.5033 165.351 90.608 165.414C90.6271 165.425 90.6281 165.456 90.606 165.469Z" fill="white"/>
<path d="M95.511 162.608C95.2027 162.672 95.2057 162.289 95.0526 161.538C93.5111 161.704 92.5419 160.807 92.3143 159.809C92.2861 159.687 92.3586 159.536 92.4825 159.511C93.0145 159.402 93.092 159.361 93.1908 159.439C93.3499 159.565 93.6623 160.796 95.2813 160.461C96.1447 160.282 96.8993 159.802 96.6867 158.765C96.2756 156.765 92.2961 158.693 91.6624 155.617C91.4418 154.547 91.8841 153.387 93.2835 152.935C93.0306 151.707 92.9832 151.843 93.6683 151.702C93.9736 151.64 93.9776 152.034 94.1287 152.772C96.0459 152.652 97.0272 154.655 96.461 154.773C95.8908 154.892 95.8857 154.91 95.7719 154.867C95.5251 154.774 95.6439 154.33 94.9841 153.977C94.3201 153.622 93.3076 153.888 92.8674 154.378C92.4362 154.859 92.6205 155.7 92.9842 156.041C93.8426 156.844 96.1991 156.314 97.1965 157.463C97.9541 158.336 98.2563 160.625 95.8958 161.376C96.1457 162.586 96.2061 162.465 95.511 162.609V162.608Z" fill="black"/>
<path d="M55.9516 136.519C59.7044 134.093 64.9835 135.598 67.743 139.879C70.5025 144.161 69.6985 149.6 65.9457 152.027C62.1928 154.454 56.9137 152.948 54.1542 148.666C51.3948 144.384 52.1998 138.946 55.9516 136.519Z" fill="#F1C40F"/>
<path d="M55.8851 147.595C52.4617 142.359 55.7894 136.162 61.2891 137.305C67.3501 138.565 69.8677 147.174 65.0621 150.34C62.1243 152.275 58.036 150.884 55.8851 147.595ZM56.2437 147.361C58.2315 150.402 62.0609 151.806 64.8294 149.983C69.3237 147.024 66.8927 138.902 61.2075 137.727C55.9929 136.649 53.0773 142.515 56.2437 147.362V147.361Z" fill="black"/>
<path d="M67.9688 139.638C66.4717 137.349 64.1787 135.737 61.6762 135.217C56.3738 134.115 52.0568 138.4 51.4534 142.877C50.4106 150.609 58.7555 157.048 66.1191 152.278C69.8518 149.861 70.9902 144.259 67.9688 139.638ZM65.833 151.723C62.2272 154.099 57.1315 152.638 54.4536 148.544C50.2938 142.184 54.5846 134.375 61.5532 135.824C68.9974 137.371 71.8455 147.762 65.833 151.723Z" fill="black"/>
<path d="M52.2975 142.94L51.7748 143.318C51.7526 143.333 51.7244 143.318 51.7285 143.291C51.7446 143.15 51.7598 143.008 51.7789 142.867L51.7899 142.846L52.2914 142.486C52.3135 142.471 52.3417 142.486 52.3377 142.513C52.3256 142.616 52.3146 142.832 52.3116 142.917C52.3116 142.917 52.3066 142.934 52.2975 142.94Z" fill="white"/>
<path d="M51.7022 143.778L52.254 143.381C52.2732 143.367 52.3024 143.381 52.3003 143.406C52.3003 143.534 52.3064 143.66 52.3114 143.786C52.3114 143.786 52.3064 143.806 52.2983 143.812L51.7314 144.22C51.7123 144.234 51.6831 144.22 51.6831 144.196C51.6831 144.166 51.677 143.795 51.7022 143.778Z" fill="white"/>
<path d="M51.7142 144.647L52.2983 144.225C52.3657 144.175 52.3526 144.345 52.3879 144.604C52.3899 144.616 52.3839 144.626 52.3748 144.632L51.7757 145.064C51.7565 145.079 51.7304 145.065 51.7273 145.042C51.7233 145.007 51.686 144.667 51.7152 144.648L51.7142 144.647Z" fill="white"/>
<path d="M51.7865 145.464L52.4058 145.02C52.4229 145.008 52.4481 145.017 52.4521 145.041C52.4692 145.154 52.4944 145.268 52.5176 145.38C52.5196 145.392 52.5155 145.404 52.5045 145.41L51.8792 145.859C51.862 145.871 51.8369 145.862 51.8308 145.839C51.8107 145.724 51.7916 145.607 51.7744 145.492C51.7724 145.48 51.7785 145.47 51.7875 145.463L51.7865 145.464Z" fill="white"/>
<path d="M51.9299 146.234L52.5713 145.774C52.6247 145.738 52.6167 145.81 52.7033 146.114C52.7053 146.126 52.7022 146.14 52.6912 146.146L52.0457 146.61C52.0286 146.622 52.0054 146.615 51.9974 146.593C51.9682 146.484 51.941 146.373 51.9168 146.263C51.9148 146.251 51.9188 146.239 51.9299 146.233V146.234Z" fill="white"/>
<path d="M52.1332 146.963L52.7855 146.494C52.8369 146.454 52.844 146.561 52.9398 146.816C52.9438 146.83 52.9408 146.842 52.9297 146.851L52.2703 147.324C52.2552 147.337 52.23 147.329 52.2249 147.309C52.1897 147.206 52.1534 147.101 52.1201 146.997C52.1181 146.985 52.1211 146.971 52.1322 146.964L52.1332 146.963Z" fill="white"/>
<path d="M56.7542 151.759L56.2713 152.277C56.2713 152.277 56.2471 152.291 56.234 152.283C56.1422 152.228 56.0545 152.169 55.9638 152.111C55.9487 152.101 55.9456 152.08 55.9577 152.067L56.4507 151.537C56.4507 151.537 56.478 151.523 56.4911 151.531C56.5758 151.594 56.6594 151.657 56.7482 151.715C56.7633 151.725 56.7663 151.746 56.7542 151.759Z" fill="white"/>
<path d="M57.3587 152.144L56.905 152.633C56.905 152.633 56.8808 152.646 56.8697 152.638C56.7719 152.588 56.6771 152.537 56.5803 152.485C56.5622 152.475 56.5591 152.452 56.5743 152.438L57.0401 151.936C57.0401 151.936 57.0643 151.923 57.0774 151.931C57.2861 152.058 57.404 152.101 57.3576 152.145L57.3587 152.144Z" fill="white"/>
<path d="M58.0044 152.487L57.5845 152.939C57.5845 152.939 57.5623 152.951 57.5523 152.946C57.4486 152.905 57.3468 152.862 57.2451 152.815C57.227 152.805 57.222 152.782 57.2361 152.766L57.6701 152.296C57.6701 152.296 57.6942 152.283 57.7053 152.291C57.95 152.425 58.0527 152.44 58.0044 152.486V152.487Z" fill="white"/>
<path d="M58.6994 152.791L58.3128 153.202C58.3128 153.202 58.2926 153.214 58.2826 153.211C57.8093 153.054 57.8174 153.191 58.344 152.623C58.344 152.623 58.3661 152.611 58.3762 152.616C58.4799 152.66 58.5806 152.703 58.6874 152.742C58.7075 152.749 58.7135 152.774 58.6984 152.79L58.6994 152.791Z" fill="white"/>
<path d="M59.4612 152.994L59.0906 153.399C59.0906 153.399 59.0735 153.411 59.0634 153.407C58.9456 153.383 58.8258 153.358 58.708 153.326C58.6858 153.32 58.6778 153.295 58.6939 153.276L59.0534 152.889C59.0534 152.889 59.0735 152.877 59.0856 152.88C59.2105 152.92 59.3343 152.959 59.4612 152.994Z" fill="white"/>
<path d="M60.2251 153.226L59.9391 153.531L59.9139 153.541C59.785 153.528 59.6561 153.512 59.5293 153.493C59.5051 153.489 59.496 153.458 59.5132 153.442L59.8243 153.107C59.8243 153.107 59.8414 153.094 59.8515 153.099C59.9703 153.126 60.0881 153.152 60.209 153.174C60.2311 153.178 60.2422 153.206 60.2251 153.225V153.226Z" fill="white"/>
<path d="M63.8311 148.836C63.5642 149.003 63.4342 148.643 63.0302 147.993C61.6429 148.686 60.4229 148.182 59.8617 147.326C59.7932 147.221 59.8083 147.056 59.9161 146.988C60.3775 146.701 60.435 146.635 60.5558 146.673C60.7483 146.736 61.4686 147.781 62.87 146.903C63.6175 146.435 64.1575 145.722 63.5984 144.824C62.5184 143.092 59.4567 146.286 57.7954 143.624C57.2171 142.698 57.2292 141.457 58.3837 140.545C57.7208 139.482 57.7228 139.625 58.3162 139.255C58.5812 139.089 58.7223 139.459 59.1192 140.097C60.8752 139.317 62.4912 140.853 62.0006 141.161C61.5069 141.471 61.5089 141.49 61.387 141.489C61.123 141.488 61.0807 141.03 60.3392 140.929C59.5927 140.827 58.7364 141.43 58.4936 142.042C58.2568 142.643 58.7212 143.368 59.1796 143.56C60.2637 144.013 62.2887 142.696 63.6226 143.427C64.6361 143.982 65.7141 146.021 63.7616 147.548C64.4155 148.596 64.4306 148.461 63.8281 148.838L63.8311 148.836Z" fill="black"/>
<path d="M63.6761 149.474C67.7201 147.574 72.7494 149.776 74.9094 154.391C77.0694 159.006 75.5421 164.287 71.4981 166.186C67.4542 168.086 62.4249 165.884 60.2649 161.269C58.1048 156.654 59.6322 151.373 63.6761 149.474Z" fill="#F1C40F"/>
<path d="M62.1248 160.44C59.4348 154.79 63.5634 149.097 68.8597 150.97C74.697 153.034 76.0359 161.905 70.8495 164.395C67.6779 165.916 63.8153 163.989 62.1248 160.44ZM62.5116 160.257C64.0732 163.538 67.68 165.444 70.6671 164.01C75.5171 161.683 74.1983 153.307 68.7227 151.377C63.6994 149.607 60.0232 155.027 62.5116 160.257Z" fill="black"/>
<path d="M75.1662 154.183C73.9894 151.712 71.9342 149.806 69.5243 148.954C64.4175 147.149 59.5645 150.814 58.3666 155.169C56.2962 162.691 63.7012 170.194 71.638 166.459C75.6608 164.566 77.5398 159.169 75.1662 154.183ZM71.4284 165.87C67.5366 167.738 62.6826 165.606 60.579 161.187C57.3108 154.325 62.6101 147.164 69.3208 149.537C76.49 152.072 77.9186 162.753 71.4295 165.869L71.4284 165.87Z" fill="black"/>
<path d="M59.1935 155.344L58.6246 155.648C58.6014 155.66 58.5752 155.641 58.5823 155.615C58.6175 155.477 58.6508 155.339 58.689 155.201L58.7031 155.182L59.2479 154.892C59.272 154.88 59.2972 154.899 59.2902 154.925C59.265 155.026 59.2247 155.238 59.2096 155.322C59.2096 155.322 59.2026 155.338 59.1935 155.343V155.344Z" fill="white"/>
<path d="M58.4916 156.095L59.0917 155.777C59.1128 155.765 59.139 155.784 59.134 155.809C59.1179 155.935 59.1058 156.061 59.0937 156.186C59.0937 156.186 59.0867 156.205 59.0766 156.21L58.4603 156.538C58.4392 156.55 58.413 156.531 58.415 156.507C58.418 156.477 58.4644 156.109 58.4905 156.096L58.4916 156.095Z" fill="white"/>
<path d="M58.387 156.958L59.0224 156.618C59.0959 156.576 59.0607 156.744 59.0607 157.005C59.0607 157.017 59.0536 157.026 59.0435 157.032L58.3921 157.379C58.3709 157.391 58.3467 157.374 58.3467 157.351C58.3467 157.316 58.3558 156.974 58.387 156.959V156.958Z" fill="white"/>
<path d="M58.3496 157.778L59.0223 157.421C59.0414 157.412 59.0646 157.423 59.0646 157.447C59.0666 157.562 59.0767 157.678 59.0837 157.792C59.0837 157.804 59.0787 157.815 59.0676 157.82L58.3869 158.181C58.3678 158.19 58.3446 158.179 58.3416 158.155C58.3366 158.039 58.3335 157.92 58.3325 157.804C58.3325 157.792 58.3406 157.783 58.3496 157.778Z" fill="white"/>
<path d="M58.387 158.558L59.0847 158.19C59.1422 158.161 59.1241 158.231 59.1704 158.544C59.1704 158.556 59.1654 158.571 59.1543 158.576L58.4516 158.949C58.4324 158.958 58.4112 158.949 58.4062 158.926C58.3921 158.814 58.38 158.7 58.3709 158.589C58.3709 158.577 58.376 158.565 58.387 158.56V158.558Z" fill="white"/>
<path d="M58.4919 159.309L59.2017 158.932C59.2581 158.899 59.2511 159.006 59.3106 159.272C59.3126 159.286 59.3086 159.298 59.2965 159.305L58.5796 159.686C58.5625 159.695 58.5393 159.686 58.5373 159.665C58.5161 159.558 58.4949 159.449 58.4758 159.342C58.4758 159.329 58.4808 159.314 58.4919 159.309Z" fill="white"/>
<path d="M62.4266 164.683L61.8781 165.133C61.8781 165.133 61.8519 165.142 61.8398 165.133C61.7561 165.066 61.6765 164.996 61.5948 164.926C61.5807 164.913 61.5807 164.892 61.5948 164.88L62.1554 164.422C62.1554 164.422 62.1836 164.413 62.1957 164.422C62.2713 164.496 62.3459 164.568 62.4256 164.638C62.4397 164.65 62.4407 164.671 62.4266 164.683Z" fill="white"/>
<path d="M62.9742 165.147L62.459 165.569C62.459 165.569 62.4328 165.579 62.4237 165.569C62.333 165.508 62.2463 165.443 62.1575 165.38C62.1414 165.368 62.1414 165.344 62.1575 165.332L62.6869 164.897C62.6869 164.897 62.7131 164.888 62.7252 164.897C62.8089 164.965 62.8925 165.031 62.9742 165.099C62.9883 165.111 62.9903 165.134 62.9742 165.147Z" fill="white"/>
<path d="M63.5702 165.573L63.0933 165.965C63.0933 165.965 63.0691 165.974 63.06 165.967C62.9633 165.912 62.8675 165.855 62.7727 165.796C62.7556 165.784 62.7535 165.761 62.7707 165.747L63.2647 165.341C63.2647 165.341 63.2909 165.332 63.3 165.341C63.5248 165.506 63.6246 165.534 63.5702 165.573Z" fill="white"/>
<path d="M64.2167 165.968L63.7781 166.323C63.7781 166.323 63.757 166.332 63.7469 166.328C63.2982 166.109 63.2871 166.246 63.887 165.755C63.887 165.755 63.9112 165.746 63.9203 165.753C64.0171 165.809 64.1118 165.866 64.2127 165.92C64.2318 165.93 64.2338 165.955 64.2177 165.969L64.2167 165.968Z" fill="white"/>
<path d="M64.945 166.272L64.5226 166.623C64.5226 166.623 64.5034 166.633 64.4943 166.629C64.3804 166.588 64.2655 166.548 64.1525 166.5C64.1314 166.491 64.1263 166.465 64.1455 166.448L64.5538 166.112C64.5538 166.112 64.575 166.102 64.5871 166.107C64.706 166.164 64.824 166.219 64.945 166.271V166.272Z" fill="white"/>
<path d="M65.6693 166.605L65.344 166.869L65.3178 166.876C65.192 166.844 65.0661 166.812 64.9432 166.776C64.9201 166.768 64.9151 166.737 64.9342 166.723L65.2876 166.433C65.2876 166.433 65.3068 166.424 65.3158 166.428C65.4296 166.47 65.5434 166.513 65.6592 166.551C65.6803 166.558 65.6874 166.587 65.6683 166.604L65.6693 166.605Z" fill="white"/>
<path d="M69.8325 162.739C69.5454 162.87 69.4648 162.495 69.1515 161.797C67.6836 162.295 66.5421 161.633 66.1019 160.709C66.0475 160.596 66.0858 160.433 66.2016 160.381C66.6973 160.158 66.7638 160.1 66.8776 160.155C67.06 160.243 67.6342 161.376 69.1404 160.694C69.9444 160.331 70.575 159.696 70.1408 158.732C69.3036 156.87 65.8409 159.623 64.5514 156.76C64.1031 155.765 64.2814 154.537 65.5478 153.788C65.033 152.646 65.0168 152.788 65.6546 152.5C65.9387 152.372 66.0293 152.757 66.3376 153.443C68.1823 152.906 69.5776 154.646 69.0507 154.885C68.5198 155.126 68.5198 155.144 68.3989 155.127C68.138 155.09 68.1571 154.632 67.4358 154.431C66.7104 154.229 65.7805 154.711 65.4581 155.286C65.1428 155.849 65.5055 156.63 65.9346 156.882C66.9481 157.478 69.1313 156.445 70.3554 157.347C71.2853 158.034 72.0792 160.2 69.9403 161.45C70.4481 162.576 70.4803 162.444 69.8335 162.737L69.8325 162.739Z" fill="black"/>
<path d="M69.4027 142.81C70.249 138.417 74.9841 135.639 79.9812 136.604C84.9772 137.569 88.3421 141.913 87.4969 146.306C86.6506 150.699 81.9155 153.477 76.9184 152.512C71.9224 151.548 68.5565 147.203 69.4027 142.81Z" fill="#F1C40F"/>
<path d="M77.3423 150.517C71.1988 149.373 69.0327 142.679 73.661 139.491C78.7608 135.977 86.7098 140.111 85.6691 145.777C85.0323 149.242 81.2029 151.237 77.3433 150.517H77.3423ZM77.4219 150.097C80.9893 150.763 84.6495 148.961 85.2499 145.699C86.2242 140.4 78.6873 136.541 73.9078 139.841C69.5233 142.869 71.7367 149.035 77.4219 150.097Z" fill="black"/>
<path d="M79.9639 136.273C77.277 135.772 74.5296 136.316 72.424 137.767C67.9619 140.84 68.0657 146.928 70.8765 150.461C75.7305 156.563 86.1447 154.979 87.799 146.354C88.6372 141.981 85.3861 137.283 79.9639 136.273ZM87.2006 146.176C86.4188 150.428 81.8428 153.105 77.0382 152.21C69.5759 150.82 66.9121 142.315 72.7766 138.276C79.0411 133.961 88.5032 139.087 87.2006 146.176Z" fill="black"/>
<path d="M71.5049 149.895L71.4153 150.535C71.4113 150.561 71.3811 150.57 71.3629 150.55C71.2733 150.441 71.1807 150.332 71.0921 150.22L71.085 150.198L71.1716 149.585C71.1756 149.559 71.2059 149.548 71.224 149.57C71.2904 149.649 71.4375 149.807 71.4969 149.868C71.4969 149.868 71.5069 149.884 71.5049 149.895Z" fill="white"/>
<path d="M71.6977 150.905L71.7934 150.232C71.7964 150.208 71.8266 150.197 71.8437 150.216C71.9353 150.303 72.03 150.387 72.1247 150.47C72.1247 150.47 72.1357 150.487 72.1337 150.497L72.036 151.19C72.033 151.214 72.0018 151.224 71.9847 151.208C71.9625 151.188 71.6927 150.934 71.6977 150.905Z" fill="white"/>
<path d="M72.3323 151.497L72.432 150.782C72.4421 150.698 72.5559 150.825 72.7663 150.979C72.7754 150.986 72.7794 150.997 72.7774 151.008L72.6737 151.741C72.6707 151.765 72.6435 151.775 72.6243 151.761C72.5971 151.74 72.3263 151.532 72.3313 151.498L72.3323 151.497Z" fill="white"/>
<path d="M72.9722 152.009L73.0809 151.254C73.0839 151.233 73.1081 151.222 73.1272 151.235C73.2209 151.3 73.3196 151.361 73.4162 151.421C73.4263 151.429 73.4323 151.44 73.4293 151.452L73.3206 152.216C73.3176 152.237 73.2934 152.249 73.2732 152.237C73.1766 152.173 73.0789 152.106 72.9843 152.038C72.9742 152.031 72.9702 152.02 72.9722 152.009Z" fill="white"/>
<path d="M73.6247 152.439L73.7375 151.658C73.7485 151.594 73.7938 151.65 74.0728 151.797C74.0828 151.804 74.0909 151.816 74.0879 151.828L73.9761 152.617C73.9731 152.638 73.9529 152.649 73.9308 152.639C73.8321 152.584 73.7334 152.527 73.6378 152.469C73.6277 152.462 73.6217 152.451 73.6247 152.439Z" fill="white"/>
<path d="M74.2929 152.795L74.4047 151.999C74.4117 151.934 74.4943 152.003 74.743 152.11C74.7561 152.116 74.7632 152.127 74.7611 152.141L74.6464 152.945C74.6443 152.964 74.6232 152.977 74.6041 152.967C74.5054 152.921 74.4047 152.874 74.307 152.827C74.2969 152.819 74.2899 152.807 74.2929 152.795Z" fill="white"/>
<path d="M80.9448 152.77L80.9851 153.477C80.9851 153.477 80.9771 153.504 80.963 153.508C80.8602 153.536 80.7575 153.559 80.6528 153.584C80.6347 153.588 80.6176 153.576 80.6166 153.558L80.5763 152.834C80.5763 152.834 80.5854 152.806 80.5994 152.802C80.7032 152.784 80.8059 152.767 80.9096 152.743C80.9277 152.739 80.9448 152.751 80.9458 152.769L80.9448 152.77Z" fill="white"/>
<path d="M81.6413 152.598L81.6796 153.264C81.6796 153.264 81.6715 153.291 81.6584 153.293C81.5557 153.329 81.452 153.362 81.3493 153.396C81.3302 153.402 81.311 153.388 81.311 153.367L81.2708 152.683C81.2708 152.683 81.2778 152.657 81.2929 152.653C81.5285 152.59 81.6413 152.533 81.6403 152.597L81.6413 152.598Z" fill="white"/>
<path d="M82.3362 152.368L82.3724 152.985C82.3724 152.985 82.3664 153.01 82.3553 153.013C82.2536 153.06 82.1519 153.103 82.0482 153.145C82.0291 153.151 82.0079 153.139 82.0069 153.118L81.9697 152.479C81.9697 152.479 81.9777 152.453 81.9908 152.451C82.2556 152.365 82.3382 152.302 82.3372 152.369L82.3362 152.368Z" fill="white"/>
<path d="M83.0353 152.076L83.0625 152.639C83.0625 152.639 83.0574 152.662 83.0484 152.666C82.6083 152.9 82.7121 152.99 82.6688 152.216C82.6688 152.216 82.6748 152.192 82.6859 152.188C82.7896 152.142 82.8903 152.1 82.992 152.049C83.0111 152.04 83.0333 152.053 83.0353 152.075V152.076Z" fill="white"/>
<path d="M83.7097 151.665L83.745 152.214C83.745 152.214 83.7409 152.235 83.7319 152.24C83.6322 152.309 83.5325 152.378 83.4278 152.441C83.4076 152.453 83.3835 152.441 83.3815 152.416L83.3513 151.888C83.3513 151.888 83.3563 151.865 83.3664 151.859C83.4822 151.796 83.5959 151.732 83.7097 151.665Z" fill="white"/>
<path d="M84.4046 151.272L84.4268 151.69L84.4167 151.715C84.318 151.799 84.2173 151.882 84.1156 151.96C84.0955 151.976 84.0683 151.96 84.0683 151.937L84.0421 151.48C84.0421 151.48 84.0461 151.459 84.0552 151.454C84.1569 151.387 84.2576 151.319 84.3573 151.248C84.3754 151.235 84.4026 151.247 84.4046 151.272Z" fill="white"/>
<path d="M83.7341 145.628C83.6706 145.937 83.32 145.781 82.5725 145.625C82.1121 147.107 80.9051 147.642 79.8997 147.455C79.7767 147.432 79.6679 147.307 79.6931 147.182C79.805 146.649 79.7979 146.561 79.9087 146.502C80.087 146.406 81.3393 146.607 81.6748 144.986C81.8541 144.121 81.7131 143.237 80.6794 143.021C78.6836 142.604 78.869 147.029 75.7993 146.389C74.7323 146.167 73.8448 145.3 73.9858 143.833C72.7607 143.578 72.8665 143.675 73.0096 142.99C73.073 142.684 73.4367 142.837 74.1732 142.992C74.825 141.181 77.0505 141.075 76.9337 141.643C76.8158 142.214 76.8309 142.226 76.7453 142.314C76.5619 142.503 76.2022 142.218 75.6169 142.684C75.0275 143.153 74.8694 144.19 75.1434 144.789C75.4124 145.375 76.2566 145.541 76.713 145.342C77.79 144.872 78.2404 142.495 79.6891 142.035C80.7903 141.686 83.0067 142.317 82.7568 144.785C83.9648 145.036 83.8771 144.932 83.7331 145.629L83.7341 145.628Z" fill="black"/>
<path d="M75.3913 164.594C71.9236 161.776 71.711 156.282 74.9168 152.324C78.1225 148.366 83.5337 147.442 87.0014 150.261C90.4691 153.08 90.6817 158.574 87.4759 162.532C84.2701 166.489 78.859 167.413 75.3913 164.594Z" fill="#F1C40F"/>
<path d="M85.9224 161.216C82.0174 166.102 75.1032 164.859 74.4796 159.268C73.7914 153.106 81.1792 148.034 85.6766 151.626C88.426 153.822 88.3766 158.146 85.9224 161.217V161.216ZM85.5899 160.947C87.8577 158.11 87.9998 154.027 85.4106 151.959C81.2064 148.599 74.2539 153.436 74.9057 159.214C75.5031 164.515 81.9741 165.468 85.5899 160.947Z" fill="black"/>
<path d="M74.6188 152.183C72.9111 154.319 72.0941 157.003 72.3782 159.548C72.9796 164.939 78.3877 167.718 82.8226 166.901C90.4844 165.492 94.0005 155.546 87.188 150.017C83.7344 147.215 78.0654 147.87 74.6188 152.183ZM86.7497 150.462C90.1238 153.158 90.3222 158.463 87.2686 162.284C82.5264 168.22 73.7826 166.562 72.9917 159.477C72.1475 151.909 81.123 145.967 86.7497 150.462Z" fill="black"/>
<path d="M82.6202 166.079L83.1414 166.46C83.1626 166.476 83.1565 166.507 83.1303 166.512C82.9912 166.541 82.8531 166.57 82.7119 166.596L82.6887 166.592L82.1907 166.226C82.1695 166.21 82.1755 166.179 82.2017 166.174C82.3036 166.153 82.5113 166.097 82.5939 166.074C82.5939 166.074 82.6121 166.074 82.6202 166.08V166.079Z" fill="white"/>
<path d="M83.6004 166.386L83.053 165.982C83.0328 165.968 83.0389 165.937 83.0621 165.931C83.182 165.891 83.301 165.847 83.419 165.802C83.419 165.802 83.4391 165.8 83.4472 165.806L84.0108 166.22C84.031 166.234 84.0249 166.266 84.0027 166.273C83.9745 166.283 83.6236 166.403 83.6004 166.385V166.386Z" fill="white"/>
<path d="M84.4207 166.103L83.838 165.678C83.7684 165.63 83.9348 165.59 84.1697 165.476C84.1808 165.47 84.1919 165.472 84.1999 165.48L84.7958 165.917C84.816 165.931 84.8109 165.96 84.7898 165.969C84.7585 165.983 84.448 166.125 84.4207 166.103Z" fill="white"/>
<path d="M85.1742 165.78L84.5602 165.328C84.5431 165.315 84.5441 165.289 84.5653 165.279C84.6671 165.227 84.7669 165.168 84.8667 165.111C84.8778 165.106 84.8899 165.105 84.9 165.113L85.5211 165.569C85.5382 165.583 85.5372 165.609 85.517 165.621C85.4142 165.676 85.3093 165.731 85.2055 165.782C85.1944 165.788 85.1833 165.785 85.1742 165.779V165.78Z" fill="white"/>
<path d="M85.8595 165.406L85.2244 164.938C85.1729 164.898 85.2445 164.884 85.5057 164.706C85.5167 164.701 85.5309 164.699 85.5409 164.707L86.1822 165.178C86.1993 165.191 86.1993 165.214 86.1802 165.229C86.0864 165.291 85.9886 165.351 85.8928 165.408C85.8817 165.413 85.8696 165.414 85.8595 165.406Z" fill="white"/>
<path d="M86.4891 164.984L85.8398 164.51C85.7864 164.474 85.8852 164.433 86.0979 164.264C86.11 164.256 86.1221 164.255 86.1342 164.262L86.7886 164.742C86.8047 164.753 86.8057 164.778 86.7886 164.79C86.7019 164.855 86.6131 164.922 86.5244 164.985C86.5133 164.99 86.4992 164.992 86.4891 164.984Z" fill="white"/>
<path d="M89.6034 159.097L90.2457 159.395C90.2457 159.395 90.2659 159.415 90.2618 159.43C90.2386 159.534 90.2104 159.636 90.1822 159.74C90.1771 159.758 90.158 159.767 90.1418 159.759L89.4855 159.454C89.4855 159.454 89.4643 159.433 89.4683 159.418C89.5016 159.317 89.5349 159.218 89.5621 159.116C89.5672 159.098 89.5873 159.088 89.6034 159.097Z" fill="white"/>
<path d="M89.7807 158.4L90.3849 158.68C90.3849 158.68 90.405 158.699 90.4 158.712C90.3839 158.82 90.3637 158.927 90.3446 159.034C90.3406 159.054 90.3194 159.065 90.3023 159.055L89.681 158.768C89.681 158.768 89.6609 158.749 89.6649 158.733C89.7213 158.495 89.7243 158.37 89.7807 158.4Z" fill="white"/>
<path d="M89.9061 157.678L90.466 157.937C90.466 157.937 90.4851 157.954 90.4831 157.966C90.4761 158.077 90.466 158.188 90.4539 158.299C90.4509 158.32 90.4297 158.332 90.4106 158.324L89.8306 158.056C89.8306 158.056 89.8105 158.037 89.8155 158.024C89.8648 157.749 89.8487 157.647 89.9071 157.679L89.9061 157.678Z" fill="white"/>
<path d="M89.9785 156.922L90.487 157.163C90.487 157.163 90.5051 157.178 90.5041 157.188C90.5031 157.688 90.63 157.637 89.9292 157.311C89.9292 157.311 89.91 157.294 89.913 157.282C89.9221 157.17 89.9322 157.06 89.9352 156.947C89.9352 156.926 89.9584 156.913 89.9775 156.921L89.9785 156.922Z" fill="white"/>
<path d="M89.9343 156.134L90.4337 156.361C90.4337 156.361 90.4508 156.374 90.4508 156.384C90.4639 156.504 90.478 156.625 90.4841 156.747C90.4851 156.771 90.4629 156.787 90.4408 156.777L89.9625 156.555C89.9625 156.555 89.9443 156.539 89.9433 156.526C89.9433 156.394 89.9403 156.264 89.9353 156.132L89.9343 156.134Z" fill="white"/>
<path d="M89.9169 155.334L90.2955 155.512L90.3137 155.532C90.3408 155.66 90.366 155.787 90.3872 155.915C90.3912 155.939 90.365 155.957 90.3449 155.946L89.931 155.753C89.931 155.753 89.9139 155.74 89.9149 155.73C89.9038 155.608 89.8917 155.487 89.8756 155.366C89.8726 155.343 89.8948 155.324 89.9169 155.334Z" fill="white"/>
<path d="M84.6309 153.264C84.8727 153.466 84.5714 153.702 84.0798 154.289C85.1679 155.395 85.0691 156.713 84.4304 157.512C84.3518 157.61 84.1896 157.647 84.0929 157.565C83.6768 157.216 83.5962 157.181 83.5952 157.055C83.5952 156.852 84.3629 155.841 83.0945 154.78C82.4175 154.214 81.5732 153.921 80.8952 154.733C79.5865 156.299 83.569 158.221 81.5581 160.631C80.8589 161.469 79.6782 161.843 78.4541 161.028C77.6511 161.99 77.7871 161.942 77.2502 161.492C77.0114 161.291 77.3176 161.043 77.8002 160.466C76.5137 159.036 77.4698 157.021 77.9141 157.392C78.3614 157.765 78.3785 157.758 78.4158 157.874C78.4964 158.126 78.0753 158.308 78.2103 159.046C78.3453 159.788 79.1835 160.416 79.8404 160.457C80.4841 160.496 81.0272 159.828 81.0675 159.332C81.1612 158.159 79.2822 156.639 79.5603 155.142C79.7718 154.005 81.3727 152.345 83.428 153.73C84.2188 152.782 84.0858 152.809 84.6319 153.265L84.6309 153.264Z" fill="black"/>
<g clip-path="url(#clip0_1_2109)">
<path d="M175.437 73.3799C174.295 73.3761 173.159 73.2296 172.054 72.944L171.836 72.884L171.634 72.7832C164.33 69.1358 158.168 64.318 153.32 58.4638C149.306 53.5892 146.177 48.0547 144.073 42.109C141.556 34.9906 140.346 27.4796 140.499 19.9344C140.502 19.776 140.505 19.6538 140.505 19.5695C140.505 15.9017 142.549 12.6836 145.712 11.3707C148.133 10.366 170.115 1.37294 171.703 0.723173C174.694 -0.769613 177.885 0.476351 178.396 0.694237C179.541 1.16068 199.862 9.43921 204.254 11.522C208.779 13.6685 209.987 17.5247 209.987 19.4648C209.987 28.2483 208.46 36.4572 205.448 43.8635C203.015 49.8583 199.567 55.3927 195.254 60.2256C186.933 69.5524 178.61 72.8588 178.53 72.888C177.535 73.2289 176.489 73.3953 175.437 73.3799ZM173.479 68.5507C174.201 68.7118 175.862 68.9535 176.945 68.5601C178.321 68.0604 185.287 64.4623 191.797 57.1655C200.791 47.0839 205.355 34.4105 205.362 19.4972C205.346 19.1951 205.13 17.0401 202.265 15.6813C197.959 13.6388 176.837 5.03641 176.624 4.9497L176.566 4.92506C176.123 4.74031 174.714 4.35116 173.743 4.85799L173.549 4.94828C173.314 5.04459 149.979 14.5904 147.491 15.6231C145.75 16.3456 145.13 18.1354 145.13 19.5695C145.13 19.6743 145.127 19.8268 145.123 20.0238C144.924 30.228 147.295 55.3374 173.479 68.5507Z" fill="black"/>
<path d="M172.671 2.81753C172.671 2.81753 149.124 12.4499 146.601 13.4969C144.079 14.5439 142.817 17.0567 142.817 19.5695C142.817 22.0823 140.925 54.8708 172.671 70.724C172.671 70.724 175.552 71.518 177.738 70.724C179.924 69.9299 207.675 56.5284 207.675 19.4648C207.675 19.4648 207.675 15.6956 203.26 13.6016C198.845 11.5076 177.499 2.81753 177.499 2.81753C177.499 2.81753 174.878 1.66583 172.671 2.81753Z" fill="#7962DA"/>
<path opacity="0.2" d="M175.193 10.3559V61.7411C175.193 61.7411 151.437 50.3512 151.647 20.4071L175.193 10.3559Z" fill="black"/>
<path d="M175.503 47.2872L167.936 37.5955L172.336 34.1863L175.92 38.7751L188.025 26.0475L192.072 29.8674L175.503 47.2872Z" fill="white"/>
</g>
<defs>
<clipPath id="clip0_1_2109">
<rect width="69.6943" height="73.3945" fill="white" transform="translate(140.306)"/>
</clipPath>
</defs>
</svg>
