<svg width="27" height="24" viewBox="0 0 27 24" fill="none" xmlns="http://www.w3.org/2000/svg">
<path d="M11.3511 1.26472C11.3511 0.567599 8.81173 0 5.67672 0C2.53904 0 0.000335693 0.569429 0.000335693 1.26472V13.4875C0.000335693 14.1846 2.53971 24 5.67672 24V14.7522C8.8124 14.7522 11.3511 14.1846 11.3511 13.4875V1.26472Z" fill="white"/>
<path d="M26.4003 1.26472C26.4003 0.567599 23.8609 0 20.7259 0C17.5882 0 15.0495 0.569429 15.0495 1.26472V13.4875C15.0495 14.1846 17.5889 24 20.7259 24V14.7522C23.8616 14.7522 26.4003 14.1846 26.4003 13.4875V1.26472Z" fill="white"/>
</svg>
