<svg width="392" height="227" viewBox="0 0 392 227" fill="none" xmlns="http://www.w3.org/2000/svg">
<path d="M173.666 137.77C164.617 132.513 145.979 118.374 145.979 118.374C143.166 121.643 129.036 144.12 129.036 144.12C132.836 148.214 142.543 153.805 147.634 156.989C151.428 159.362 161.902 164.968 178.733 178.773C182.638 181.975 185.882 185.253 192.284 188.446C193.423 179.492 201.897 170.058 205.237 159.631C195.598 153.554 185.3 144.528 173.666 137.77Z" fill="#81F8F8"/>
<path d="M205.236 159.631C202.707 168.075 194.011 179.052 192.316 188.393C185.914 185.199 182.639 181.977 178.733 178.773C161.903 164.967 151.427 159.362 147.634 156.989C142.544 153.805 132.834 148.215 129.036 144.12C129.036 144.12 143.166 121.643 145.979 118.374C145.979 118.374 164.617 132.514 173.666 137.77C185.3 144.527 195.598 153.554 205.236 159.631ZM201.96 160.698C183.133 148.327 182.842 145.929 172.414 139.994C164.795 135.657 151.722 125.852 146.715 122.035C144.119 125.91 136.953 136.685 132.897 143.551C136.711 147.196 144.151 151.659 151.287 155.873C157.27 159.405 165.895 164.491 180.457 176.371C184.588 179.74 186.519 181.661 190.52 184.042C192.716 176.737 197.708 170.794 201.96 160.699L201.96 160.698Z" fill="white"/>
<path d="M205.435 159.696C205.462 159.606 205.427 159.508 205.346 159.457C195.645 153.341 185.466 144.385 173.77 137.591C164.834 132.402 146.289 118.351 146.103 118.21C146.015 118.143 145.89 118.156 145.819 118.24C143.027 121.485 129.434 143.094 128.857 144.012C128.806 144.092 128.817 144.197 128.881 144.267C132.075 147.707 139.363 152.167 144.684 155.423C155.57 162.066 163.639 166.663 178.601 178.936C182.456 182.09 185.783 185.37 192.224 188.581C192.35 188.643 192.495 188.571 192.521 188.433C194.21 179.131 202.891 168.187 205.436 159.695L205.435 159.696ZM192.161 188.081C187.027 185.485 183.882 182.828 180.839 180.26C165.741 167.54 155.947 161.817 144.904 155.063C139.665 151.857 132.51 147.481 129.299 144.097C130.475 142.23 143.093 122.213 146.01 118.664C147.847 120.053 165.046 133.01 173.56 137.955C185.165 144.693 195.338 153.618 204.988 159.725C202.421 168.082 193.973 178.793 192.161 188.081Z" fill="black"/>
<path d="M172.516 139.811C165.238 135.553 152.537 126.21 146.837 121.865C146.742 121.792 146.605 121.813 146.536 121.914C143.718 126.122 136.728 136.645 132.714 143.44C132.664 143.525 132.68 143.633 132.75 143.7C136.467 147.251 143.588 151.568 151.179 156.05C156.98 159.477 165.748 164.653 180.323 176.53C184.54 179.975 186.427 181.849 190.413 184.221C190.517 184.281 190.674 184.249 190.721 184.101C192.899 176.849 197.907 170.857 202.151 160.778C202.291 160.449 202.138 160.796 190.171 152.319C183.2 147.385 181.058 144.539 172.516 139.81L172.516 139.811ZM190.397 183.72C183.144 179.347 174.438 169.295 151.391 155.688C143.904 151.268 136.877 147.011 133.159 143.511C137.124 136.821 143.89 126.623 146.762 122.334C152.551 126.741 165.086 135.949 172.309 140.175C182.799 145.983 181.919 147.759 201.696 160.775C197.525 170.619 192.628 176.543 190.397 183.72Z" fill="black"/>
<path d="M146.451 147.05C145.375 147.388 144.793 146.875 144.576 145.747C144.358 144.616 144.292 144.669 143.155 144.747C142.029 144.824 142.013 142.904 141.239 142.699C141.078 142.657 140.892 142.697 140.695 142.739C140.472 142.786 140.22 142.84 139.967 142.776C139.111 142.56 138.99 141.246 138.369 141.049C138.209 140.998 137.964 141.075 137.447 141.23C137.182 141.31 137.063 140.909 137.327 140.825C137.706 140.705 138.163 140.54 138.498 140.648C139.338 140.92 139.438 142.209 140.068 142.369C140.397 142.452 140.884 142.17 141.345 142.292C142.346 142.557 142.404 144.376 143.125 144.326C144.356 144.241 144.712 144.227 144.988 145.666C145.156 146.543 145.492 146.912 146.326 146.65C146.588 146.568 146.717 146.968 146.451 147.052V147.05Z" fill="black"/>
<path d="M144.442 134.216C144.061 134.444 143.773 134.234 143.499 133.883C143.262 133.58 143.04 133.48 143.212 133.115C143.385 132.75 146.89 128.747 146.757 128.689C146.648 128.64 146.005 128.95 145.518 129.228C145.125 129.453 145.027 129.27 144.905 129.117C144.646 128.79 144.356 128.184 144.701 127.934C145.498 127.357 147.272 126.572 147.553 126.446C147.835 126.32 148.031 126.248 148.314 126.387C149.1 126.77 149.46 127.187 149.548 127.388C149.591 127.485 149.484 127.656 149.321 127.866C149.149 128.088 144.825 133.987 144.442 134.216Z" fill="white"/>
<path d="M149.736 127.304C149.621 127.038 149.203 126.59 148.404 126.198C148.042 126.021 147.775 126.112 147.466 126.254C146.705 126.602 145.322 127.226 144.579 127.764C144.299 127.967 144.141 128.467 144.765 129.278C145.183 129.822 145.548 129.417 146.222 129.095C143.061 133.064 142.509 133.081 143.201 133.857C143.439 134.121 143.778 134.67 144.35 134.49C144.65 134.394 144.698 134.46 149.097 128.517C149.534 127.924 149.864 127.595 149.736 127.304ZM144.331 134.038C143.987 134.241 143.797 133.898 143.511 133.575C143.348 133.395 143.324 133.368 143.4 133.206C143.478 133.051 144.347 132.014 145.044 131.18C147.008 128.834 147.001 128.806 146.965 128.646C146.859 128.199 145.823 128.811 145.416 129.043C145.207 129.163 145.189 129.141 145.096 129.019C144.721 128.53 144.695 128.197 144.824 128.105C145.531 127.595 146.915 126.968 147.639 126.639C147.906 126.518 148.026 126.482 148.222 126.578C148.93 126.924 149.256 127.285 149.342 127.449C149.289 127.597 144.717 133.752 144.331 134.038Z" fill="black"/>
<path d="M150.879 129.289C151.665 129.017 152.694 129.402 152.985 130.276C153.327 131.301 152.463 132.583 151.912 133.366C151.304 134.232 150.643 135.053 149.936 135.82C149.604 136.179 149.246 136.538 148.804 136.697C148.103 136.949 147.279 136.586 146.945 135.896C146.701 135.391 146.709 134.769 146.868 134.211C147.329 132.585 149.296 129.838 150.878 129.289H150.879ZM149.447 134.359C150.073 133.634 151.223 132.17 151.613 131.294C151.785 130.909 151.703 130.685 151.528 130.596C151.171 130.416 150.782 130.765 150.479 131.035C149.243 132.142 147.604 134.751 148.202 135.203C148.559 135.472 149.112 134.747 149.447 134.359Z" fill="white"/>
<path d="M150.812 129.09C149.1 129.685 147.118 132.572 146.668 134.154C146.119 136.075 147.515 137.347 148.82 136.915C149.349 136.74 149.696 136.394 150.092 135.962C150.803 135.189 151.473 134.358 152.086 133.486C152.569 132.801 153.573 131.371 153.187 130.208C152.866 129.247 151.736 128.77 150.812 129.09ZM151.742 133.244C151.243 133.953 149.588 136.193 148.734 136.499C148.144 136.708 147.424 136.402 147.135 135.804C146.935 135.389 146.911 134.829 147.07 134.27C147.499 132.765 149.407 130.024 150.947 129.488C151.659 129.25 152.539 129.603 152.786 130.342C153.106 131.303 152.185 132.613 151.742 133.244Z" fill="black"/>
<path d="M151.622 130.407C151.137 130.165 150.658 130.593 150.34 130.877C149.631 131.51 148.616 132.794 148.129 133.924C147.984 134.26 147.646 135.046 148.076 135.37C148.581 135.752 149.194 134.978 149.607 134.495C150.248 133.743 151.404 132.282 151.807 131.376C152.103 130.709 151.74 130.465 151.622 130.407ZM149.286 134.219C149.097 134.44 148.511 135.168 148.326 135.034C148.299 135.013 148.176 134.869 148.512 134.09C148.976 133.015 149.943 131.794 150.618 131.193C150.828 131.005 151.191 130.662 151.432 130.784C151.906 131.023 149.677 133.765 149.286 134.219Z" fill="black"/>
<path d="M152.297 137.595C152.832 135.733 155.121 133.161 155.621 133.851C155.896 134.23 155.092 135.552 154.163 136.75C153.301 137.861 152.813 138.366 152.397 138.218C152.268 138.172 152.174 138.022 152.297 137.595ZM150.99 138.962C151.394 139.795 152.863 140.065 154.112 138.877C154.829 138.109 155.498 137.286 156.115 136.419C156.673 135.634 157.549 134.349 157.204 133.316C156.909 132.438 155.867 132.044 155.071 132.315C153.183 132.957 150.137 137.197 150.991 138.963L150.99 138.962Z" fill="white"/>
<path d="M152.099 137.538C151.926 138.135 152.129 138.345 152.329 138.417C152.472 138.467 152.612 138.471 152.759 138.424C153.169 138.294 153.632 137.781 154.33 136.881C155.214 135.743 156.185 134.271 155.793 133.729C155.061 132.707 152.629 135.702 152.099 137.538ZM154 136.621C153.27 137.561 152.761 138.124 152.468 138.019C152.468 138.019 152.419 137.944 152.502 137.655C152.958 136.077 154.555 134.2 155.285 133.969C155.374 133.941 155.433 133.945 155.454 133.975C155.548 134.105 155.316 134.922 154 136.621Z" fill="black"/>
<path d="M157.402 133.251C157.075 132.271 155.914 131.801 155.004 132.116C153.03 132.787 149.871 137.136 150.801 139.055C151.278 140.037 152.92 140.307 154.265 139.021C154.985 138.247 155.667 137.413 156.285 136.542C156.775 135.853 157.793 134.42 157.402 133.251V133.251ZM155.945 136.297C155.336 137.153 154.67 137.973 153.969 138.725C153.367 139.297 152.656 139.56 152.017 139.443C149.316 138.959 152.925 133.267 155.137 132.515C155.866 132.277 156.756 132.643 157.004 133.385C157.328 134.351 156.394 135.666 155.945 136.297Z" fill="black"/>
<path d="M188.332 177.435C187.941 177.559 187.426 177.556 187.066 177.326C186.715 177.102 186.493 176.702 186.367 176.062C186.141 174.907 186.04 174.965 184.848 174.992C184.191 175.008 183.894 174.395 183.631 173.852C183.11 172.773 182.877 172.781 182.254 172.88C181.34 173.023 181.037 172.806 180.517 171.89C179.962 170.914 179.835 170.981 178.823 171.228C178.55 171.295 178.457 170.881 178.725 170.818C179.834 170.556 180.194 170.469 180.882 171.681C181.375 172.548 181.568 172.562 182.188 172.464C183.011 172.335 183.407 172.425 184.009 173.666C184.285 174.234 184.477 174.578 184.839 174.569C186.138 174.54 186.5 174.551 186.782 175.979C186.958 176.871 187.323 177.255 188.219 177.029C188.478 176.964 188.591 177.352 188.333 177.434L188.332 177.435Z" fill="black"/>
<path d="M197.236 162.396C196.176 162.618 195.522 162.309 195.269 161.023C195.044 159.87 194.944 159.924 193.75 159.953C193.093 159.968 192.796 159.355 192.533 158.812C192.012 157.734 191.778 157.742 191.156 157.84C190.314 157.972 189.979 157.832 189.419 156.85C188.856 155.865 188.728 155.944 187.725 156.188C187.455 156.254 187.357 155.844 187.626 155.778C188.734 155.51 189.096 155.43 189.784 156.642C190.276 157.508 190.473 157.521 191.091 157.425C191.915 157.295 192.311 157.386 192.913 158.629C193.188 159.196 193.38 159.54 193.743 159.532C195.042 159.502 195.404 159.513 195.685 160.941C195.862 161.843 196.235 162.216 197.122 161.992C197.382 161.926 197.495 162.314 197.236 162.396Z" fill="black"/>
<path d="M155.803 147.785C154.253 147.059 152.461 145.571 152.505 143.978C152.531 143.027 153.284 141.691 154.78 141.659C155.464 141.644 156.304 141.947 157.304 142.591C158.772 143.536 160.245 144.861 159.318 146.964C158.855 148.013 157.751 148.697 155.803 147.785Z" fill="black"/>
<path d="M157.543 146C157.494 145.73 157.174 145.546 156.939 145.646C156.754 145.725 156.596 145.722 156.47 145.638C156.145 145.421 156.273 144.823 156.225 144.483C156.063 144.573 155.546 145.028 155.176 144.856C154.927 144.74 154.902 144.444 154.878 144.182C154.841 143.767 154.833 143.696 154.497 143.829C154.297 143.908 154.133 144.112 153.986 144.291C153.809 144.507 153.487 144.239 153.661 144.026C153.831 143.817 154.041 143.558 154.343 143.438C155.468 142.993 155.237 144.351 155.357 144.48C155.357 144.48 155.376 144.482 155.43 144.465C155.813 144.343 156.109 143.905 156.432 144.072C156.802 144.262 156.572 145.059 156.697 145.282C156.786 145.266 157.085 145.082 157.495 145.304C157.736 145.435 157.907 145.666 157.955 145.922C158.005 146.196 157.593 146.272 157.543 145.999L157.543 146Z" fill="white"/>
<path d="M185.187 166.865C183.674 166.021 181.962 164.433 182.104 162.938C182.189 162.045 183.028 160.865 184.536 160.992C185.223 161.05 186.052 161.424 187.018 162.134C188.437 163.178 189.834 164.579 188.771 166.46C188.241 167.399 187.089 167.927 185.187 166.865L185.187 166.865Z" fill="black"/>
<path d="M187.445 165.959C187.545 165.687 187.299 165.384 186.994 165.443C186.179 165.601 185.996 165.318 186.078 164.759C186.24 163.647 185.143 165.026 184.645 164.491C184.437 164.268 184.499 163.919 184.558 163.583C184.591 163.398 184.647 163.089 184.573 163.032C184.404 162.903 183.793 163.252 183.427 163.688C183.247 163.903 182.93 163.628 183.107 163.418C183.434 163.032 184.319 162.307 184.828 162.698C185.105 162.911 185.035 163.308 184.973 163.659C184.939 163.85 184.887 164.136 184.952 164.205C185.148 164.257 186.013 163.509 186.425 164.172C186.632 164.504 186.429 164.952 186.478 165.056C186.478 165.056 186.545 165.103 186.915 165.032C187.529 164.914 188.06 165.522 187.839 166.111C187.742 166.37 187.348 166.218 187.445 165.959Z" fill="white"/>
<path d="M161.039 156.21C162.633 160.493 167.284 163.389 172.195 163.044C181.824 162.367 184.816 149.373 175.704 144.321C166.539 139.24 158.134 148.409 161.039 156.21Z" fill="white"/>
<path d="M174.615 162.8C169.299 164.483 162.84 161.647 160.842 156.284C157.84 148.223 166.526 138.997 175.803 144.138C184.248 148.819 182.485 160.309 174.615 162.8ZM161.236 156.139C163.74 162.862 173.262 165.216 178.28 160.072C182.219 156.034 182.229 148.179 175.603 144.507C166.734 139.593 158.349 148.385 161.236 156.139Z" fill="black"/>
<path d="M170.332 149.648C170.352 149.876 170.199 150.078 169.99 150.103C169.78 150.127 169.595 149.963 169.574 149.735C169.553 149.507 169.707 149.304 169.916 149.28C170.127 149.256 170.312 149.419 170.332 149.647V149.648Z" fill="black"/>
<path d="M171.56 149.225C171.474 149.252 171.376 149.221 171.322 149.141C170.883 148.485 170.144 148.467 170.111 148.467C169.836 148.466 169.839 148.042 170.114 148.045C171.111 148.058 172.076 149.063 171.56 149.225Z" fill="black"/>
<path d="M177.448 158.875C176.282 156.164 178.32 152.078 178.301 149.988C178.288 148.415 177.075 147.183 174.594 146.228C173.483 145.801 172.831 145.121 171.304 144.921C170.754 144.849 170.484 145.107 170.352 145.336C170.155 145.681 170.179 146.13 170.322 146.315C170.491 146.533 170.162 146.794 169.99 146.573C169.721 146.226 169.722 145.591 169.987 145.126C170.257 144.651 170.756 144.425 171.357 144.504C172.96 144.713 173.679 145.427 174.741 145.835C177.402 146.861 178.703 148.216 178.718 149.983C178.735 152.1 176.753 156.179 177.83 158.706C177.938 158.962 177.553 159.124 177.447 158.875L177.448 158.875Z" fill="black"/>
<path d="M170.108 161.659C169.416 159.334 170.02 157.636 170.851 155.285C173.262 148.467 172.431 147.274 173.011 147.344C173.125 147.358 173.208 147.463 173.194 147.577C172.286 155.31 169.311 157.507 170.51 161.536C170.59 161.806 170.184 161.919 170.107 161.658L170.108 161.659Z" fill="black"/>
<path d="M173.627 161.491C170.726 158.238 174.634 152.801 174.705 148.928C174.71 148.648 175.128 148.659 175.123 148.935C175.051 152.859 171.265 158.165 173.941 161.213C174.123 161.42 173.815 161.7 173.627 161.491Z" fill="black"/>
<path d="M175.786 160.352C173.68 157.822 175.741 154.496 176.382 149.848C176.42 149.57 176.835 149.631 176.797 149.905C176.166 154.482 174.189 157.743 176.11 160.085C176.285 160.299 175.966 160.568 175.786 160.352Z" fill="black"/>
<path d="M171.91 146.256C171.136 146.5 169.592 147.211 169.074 147.776C168.596 148.3 168.602 148.563 168.426 148.841C168.255 149.052 166.795 149.14 166.532 149.889C166.286 150.595 166.945 151.069 167.426 151.388C167.214 151.577 167.073 151.637 166.893 151.714C166.176 152.013 166.135 152.098 166.435 152.769C166.482 152.878 166.56 153.05 166.573 153.129C166.391 153.249 165.735 153.127 165.593 153.553C165.445 154.002 165.868 154.107 165.844 154.287C165.778 154.834 165.089 155.197 165.325 155.754C165.621 156.459 166.541 156.785 167.539 156.889C167.028 157.95 166.293 158.889 165.298 159.756C165.088 159.939 165.359 160.254 165.574 160.074C166.743 159.093 167.425 158.101 167.987 156.922C168.545 156.944 169.102 156.906 169.566 156.834C169.834 156.79 169.773 156.375 169.498 156.418C168.156 156.627 166.092 156.51 165.707 155.589C165.612 155.36 166.186 154.921 166.257 154.334C166.307 153.913 165.946 153.813 165.987 153.687C166.083 153.578 166.752 153.683 166.952 153.317C167.103 153.042 166.766 152.574 166.685 152.279C167.167 152.001 167.34 152.094 167.906 151.503C167.994 151.413 167.981 151.255 167.873 151.182C167.434 150.883 166.755 150.511 166.925 150.028C167.113 149.497 168.508 149.495 168.776 149.069C169.002 148.712 168.946 148.534 169.381 148.061C169.828 147.573 171.256 146.902 172.033 146.656C172.298 146.572 172.172 146.173 171.91 146.256Z" fill="black"/>
<path d="M230.618 174.471C234.482 166.197 243.478 162.25 250.712 165.656C257.947 169.061 260.679 178.529 256.815 186.804C252.951 195.077 243.955 199.024 236.72 195.618C229.486 192.213 226.754 182.745 230.618 174.471Z" fill="#F1C40F"/>
<path d="M242.036 193.198C234.105 193.198 229.823 184.102 233.745 175.851C236.702 169.629 243.503 166.146 249.11 168.846C254.51 171.446 256.408 178.819 253.337 185.28C251.164 189.853 246.786 193.198 242.036 193.198ZM245.046 168.337C240.475 168.337 236.226 171.571 234.11 176.026C229.546 185.633 236.424 195.389 245.437 192.193C248.621 191.064 251.368 188.481 252.971 185.104C256.791 177.066 252.633 168.337 245.046 168.337Z" fill="black"/>
<path d="M260.227 175.909C258.673 170.245 255.252 167.529 250.937 165.451C243.41 161.832 234.303 166.053 230.409 174.243C226.429 182.624 229.16 192.314 236.498 195.845C241.433 198.224 246.077 198.74 251.114 196.293C258.363 192.774 262.49 184.157 260.227 175.909ZM230.935 174.495C233.671 168.733 239.228 164.741 245.2 164.741C255.522 164.741 261.472 176.328 256.499 186.8C252.74 194.713 243.959 198.787 236.748 195.317C229.699 191.925 227.092 182.584 230.935 174.495Z" fill="black"/>
<path d="M258.739 176.217L259.76 176.761C259.801 176.784 259.848 176.745 259.838 176.7C259.785 176.452 259.718 176.206 259.648 175.961L259.621 175.927L258.645 175.408C258.604 175.385 258.558 175.421 258.569 175.466C258.625 175.697 258.698 176.084 258.712 176.179C258.714 176.194 258.726 176.208 258.739 176.217Z" fill="white"/>
<path d="M259.994 177.564L258.921 176.995C258.883 176.975 258.838 177.006 258.843 177.049C258.87 177.274 258.897 177.499 258.917 177.724C258.917 177.742 258.929 177.757 258.947 177.766L260.051 178.353C260.09 178.374 260.136 178.342 260.129 178.299C260.095 178.066 260.058 177.834 260.022 177.603C260.02 177.586 260.007 177.571 259.994 177.564Z" fill="white"/>
<path d="M260.19 179.111L259.048 178.502C259.013 178.481 258.968 178.511 258.97 178.551C258.98 178.765 258.983 178.981 258.983 179.194C258.983 179.215 258.994 179.233 259.013 179.241L260.182 179.864C260.217 179.884 260.262 179.854 260.26 179.814C260.25 179.594 260.237 179.373 260.219 179.153C260.219 179.134 260.208 179.12 260.19 179.111Z" fill="white"/>
<path d="M260.246 180.577C259.06 179.961 258.975 179.864 258.969 179.986C258.959 180.19 258.949 180.397 258.934 180.602C258.934 180.622 258.943 180.643 258.963 180.654C260.158 181.306 260.257 181.379 260.26 181.256C260.265 181.045 260.274 180.836 260.276 180.625C260.276 180.604 260.265 180.587 260.247 180.578L260.246 180.577Z" fill="white"/>
<path d="M260.179 181.979C258.92 181.308 258.876 181.249 258.862 181.359C258.783 181.976 258.761 181.981 258.81 182.009C260.036 182.675 260.129 182.747 260.142 182.636C260.209 182.096 260.233 182.005 260.178 181.98L260.179 181.979Z" fill="white"/>
<path d="M260.003 183.328C258.676 182.603 258.671 182.586 258.653 182.687C258.618 182.879 258.577 183.07 258.532 183.261C258.528 183.285 258.539 183.309 258.56 183.319C259.837 184.017 259.901 184.069 259.921 183.966C260.032 183.404 260.058 183.357 260.004 183.327L260.003 183.328Z" fill="white"/>
<path d="M252.963 192.957L253.942 193.764C253.962 193.779 253.991 193.779 254.009 193.764C254.155 193.64 254.304 193.52 254.445 193.393C254.471 193.37 254.47 193.332 254.445 193.309L253.447 192.487C253.391 192.437 253.368 192.508 252.963 192.875C252.939 192.897 252.941 192.936 252.963 192.956V192.957Z" fill="white"/>
<path d="M251.981 193.789L252.899 194.548C252.95 194.594 253.003 194.522 253.439 194.209C253.467 194.188 253.468 194.146 253.439 194.123L252.493 193.345C252.473 193.33 252.444 193.33 252.426 193.345C252.026 193.691 251.894 193.722 251.981 193.788V193.789Z" fill="white"/>
<path d="M250.915 194.557L251.768 195.261C251.786 195.275 251.81 195.277 251.829 195.265C251.999 195.164 252.174 195.064 252.341 194.957C252.373 194.937 252.375 194.892 252.348 194.87L251.466 194.141C251.448 194.126 251.421 194.126 251.401 194.141C250.988 194.448 250.822 194.485 250.915 194.557Z" fill="white"/>
<path d="M250.543 195.893C250.559 195.906 250.581 195.908 250.599 195.9C250.702 195.851 250.97 195.726 251.156 195.628C251.259 195.575 251.158 195.503 250.353 194.869C250.335 194.854 250.31 194.853 250.292 194.865C250.121 194.969 249.947 195.068 249.77 195.164C249.669 195.219 249.794 195.264 250.542 195.894L250.543 195.893Z" fill="white"/>
<path d="M248.448 195.812L249.206 196.436C249.219 196.447 249.239 196.451 249.257 196.445C249.46 196.371 249.666 196.298 249.866 196.216C249.905 196.201 249.911 196.151 249.88 196.124L249.147 195.522C249.132 195.509 249.109 195.506 249.088 195.515C248.877 195.614 248.663 195.717 248.448 195.812Z" fill="white"/>
<path d="M247.153 196.392L247.74 196.874C247.753 196.885 247.771 196.889 247.786 196.885C248.009 196.826 248.233 196.767 248.456 196.705C248.499 196.692 248.508 196.64 248.474 196.61L247.84 196.088C247.825 196.077 247.805 196.072 247.786 196.079C247.583 196.156 247.377 196.23 247.17 196.3C247.13 196.313 247.122 196.365 247.153 196.392Z" fill="white"/>
<path d="M239.205 189.234C238.681 189.023 239.064 188.454 239.574 187.177C237.114 185.893 236.549 183.597 237.197 181.881C237.276 181.67 237.531 181.517 237.743 181.602C238.645 181.965 238.8 181.981 238.871 182.198C238.985 182.542 238.238 184.695 240.978 185.797C242.443 186.386 244.04 186.413 244.745 184.654C246.107 181.256 238.266 180.194 240.356 174.967C241.084 173.148 242.887 171.856 245.417 172.567C246.252 170.48 246.044 170.637 247.21 171.105C247.73 171.314 247.345 171.91 246.842 173.162C249.821 174.884 249.308 178.85 248.347 178.463C247.386 178.077 247.355 178.097 247.227 177.919C246.952 177.536 247.566 176.99 246.931 175.808C246.293 174.619 244.52 174.013 243.381 174.309C242.263 174.6 241.708 176.04 241.914 176.91C242.401 178.963 246.438 180.507 246.793 183.213C247.062 185.268 245.255 188.991 240.998 187.772C240.176 189.827 240.386 189.709 239.205 189.234Z" fill="black"/>
<path d="M48.9263 176.354C56.5245 173.875 60.4036 164.819 57.5892 156.128C54.7759 147.438 46.3348 142.404 38.7366 144.884C31.1384 147.364 27.2593 156.419 30.0737 165.11C32.887 173.8 41.3281 178.834 48.9263 176.354Z" fill="#F1C40F"/>
<path d="M45.1617 173.352C39.9858 173.352 35.4623 169.275 33.7198 164.015C30.255 153.558 38.6556 144.442 47.5151 148.89C50.6324 150.455 53.1104 153.445 54.32 157.094C57.028 165.269 52.4235 173.352 45.1617 173.352ZM34.1007 163.887C36.1877 170.187 42.2693 174.408 47.972 172.493C53.4427 170.657 56.1173 163.805 53.9371 157.222C52.7609 153.672 50.3538 150.768 47.3338 149.252C38.8207 144.98 30.7352 153.728 34.1007 163.887Z" fill="black"/>
<path d="M57.8303 155.911C54.9562 147.231 46.3955 141.996 38.5441 144.634C23.6921 149.622 23.2504 167.87 34.5626 175.222C39.2644 178.282 43.9125 178.342 49.1238 176.589C56.8426 173.998 60.748 164.721 57.8303 155.911ZM48.9415 176.038C41.3291 178.596 33.1372 173.422 30.3917 165.13C27.5753 156.626 31.3167 147.683 38.7285 145.192C46.3469 142.632 54.5357 147.814 57.2782 156.1C60.0946 164.604 56.3532 173.547 48.9415 176.038Z" fill="black"/>
<path d="M29.4739 154.348L28.392 154.76C28.3494 154.776 28.3069 154.736 28.3221 154.69C28.4072 154.451 28.5034 154.213 28.6017 153.98L28.6331 153.951L29.6674 153.555C29.71 153.54 29.7525 153.579 29.7363 153.624C29.7009 153.726 29.5732 154.079 29.5033 154.315C29.4983 154.33 29.4881 154.344 29.4719 154.348H29.4739Z" fill="white"/>
<path d="M28.0637 155.526L29.1964 155.097C29.2369 155.082 29.2774 155.119 29.2683 155.16C29.2156 155.379 29.165 155.599 29.1133 155.821C29.1093 155.84 29.0981 155.853 29.0799 155.86L27.9108 156.305C27.8702 156.321 27.8277 156.283 27.8388 156.24C27.8986 156.013 27.9645 155.787 28.0313 155.562C28.0364 155.547 28.0496 155.532 28.0627 155.528L28.0637 155.526Z" fill="white"/>
<path d="M27.6777 157.035L28.8843 156.576C28.9228 156.561 28.9623 156.594 28.9562 156.634C28.9207 156.846 28.8873 157.056 28.862 157.27C28.86 157.29 28.8468 157.305 28.8285 157.312L27.5926 157.784C27.5541 157.8 27.5146 157.766 27.5206 157.726C27.5561 157.509 27.5936 157.289 27.6442 157.074C27.6483 157.056 27.6594 157.042 27.6777 157.035Z" fill="white"/>
<path d="M27.4406 158.487C28.6959 158.013 28.7921 157.937 28.7799 158.058C28.7587 158.262 28.7445 158.469 28.7394 158.674C28.7394 158.695 28.7263 158.714 28.706 158.721C27.4376 159.178 27.3363 159.283 27.3444 159.16C27.3586 158.95 27.3829 158.741 27.4072 158.532C27.4092 158.512 27.4224 158.494 27.4406 158.487Z" fill="white"/>
<path d="M27.3353 159.888C28.6341 159.38 28.7263 159.321 28.7192 159.438C28.7192 159.827 28.7223 159.751 28.7263 160.036C28.7263 160.059 28.7131 160.079 28.6929 160.088L27.3647 160.594C27.2553 160.634 27.2907 160.454 27.2999 159.938C27.2999 159.915 27.313 159.897 27.3353 159.888Z" fill="white"/>
<path d="M27.3426 161.244C28.7021 160.711 28.7528 160.675 28.7599 160.781C28.8004 161.389 28.8308 161.397 28.7751 161.42C27.3669 161.97 27.3547 161.992 27.3446 161.89C27.3243 161.694 27.3112 161.496 27.3061 161.299C27.3061 161.276 27.3193 161.254 27.3416 161.245L27.3426 161.244Z" fill="white"/>
<path d="M33.1352 171.68L32.0694 172.356C32.0472 172.369 32.0208 172.367 32.0026 172.347C31.8729 172.205 31.7412 172.067 31.6125 171.924C31.5903 171.899 31.5973 171.861 31.6237 171.843L32.7168 171.151C32.7391 171.137 32.7705 171.142 32.7857 171.162C33.1372 171.607 33.2102 171.629 33.1352 171.679V171.68Z" fill="white"/>
<path d="M34.0146 172.626L33.0066 173.262C32.9863 173.276 32.959 173.274 32.9418 173.258C32.7959 173.129 32.652 172.997 32.5142 172.861C32.4899 172.836 32.494 172.795 32.5233 172.775L33.5577 172.121C33.6155 172.086 33.6145 172.136 34.0237 172.544C34.0481 172.569 34.044 172.609 34.0146 172.628V172.626Z" fill="white"/>
<path d="M34.975 173.523L34.0409 174.112C34.0227 174.123 33.9984 174.123 33.9801 174.11C33.8211 173.991 33.6641 173.865 33.508 173.741C33.4797 173.719 33.4817 173.674 33.5121 173.654L34.4796 173.043C34.4999 173.029 34.5262 173.032 34.5444 173.05C34.9284 173.42 35.0753 173.466 34.974 173.524L34.975 173.523Z" fill="white"/>
<path d="M36.0277 174.353L35.1787 174.895C35.1605 174.906 35.1382 174.906 35.121 174.895C34.9964 174.818 34.7178 174.638 34.6013 174.555C34.5698 174.533 34.5698 174.486 34.6013 174.466L35.4897 173.901C35.51 173.89 35.5323 173.89 35.5505 173.903C35.7086 174.025 35.8686 174.146 36.0297 174.263C36.0611 174.286 36.0591 174.332 36.0277 174.353Z" fill="white"/>
<path d="M37.2666 175.072L36.4389 175.598C36.4237 175.607 36.4035 175.609 36.3852 175.6C36.1907 175.503 35.9993 175.403 35.8098 175.297C35.7744 175.276 35.7713 175.224 35.8078 175.204L36.6071 174.699C36.6253 174.687 36.6476 174.687 36.6649 174.699C36.8624 174.826 37.063 174.953 37.2666 175.072Z" fill="white"/>
<path d="M38.4793 175.813L37.841 176.213C37.8279 176.222 37.8096 176.224 37.7945 176.217C37.2828 176.008 37.0144 175.94 37.1451 175.862L37.837 175.424C37.8522 175.413 37.8725 175.413 37.8907 175.424C38.0832 175.528 38.2777 175.625 38.4732 175.719C38.5117 175.737 38.5158 175.791 38.4803 175.813H38.4793Z" fill="white"/>
<path d="M46.7197 169.872C46.1797 170.04 46.1199 169.355 45.7167 168.042C43.0006 168.602 41.1214 167.172 40.5469 165.43C40.476 165.216 40.5763 164.938 40.7972 164.869C41.7262 164.579 41.8569 164.495 42.0493 164.619C42.3523 164.815 43.1242 166.959 45.9437 166.083C47.4501 165.615 48.7084 164.627 48.1512 162.817C47.0753 159.317 40.32 163.447 38.6666 158.067C38.0912 156.194 38.6798 154.049 41.094 153.005C40.4335 150.855 40.3707 151.11 41.5712 150.736C42.1061 150.57 42.18 151.275 42.5762 152.566C45.968 152.022 48.058 155.426 47.0702 155.734C46.0723 156.045 46.0693 156.074 45.8586 156.016C45.4067 155.892 45.5384 155.081 44.3045 154.562C43.0624 154.04 41.3057 154.689 40.6057 155.641C39.9198 156.574 40.3909 158.044 41.0981 158.589C42.7656 159.873 46.8676 158.523 48.8411 160.4C50.3405 161.827 51.2705 165.861 47.1979 167.606C47.8493 169.722 47.9364 169.496 46.7207 169.874L46.7197 169.872Z" fill="black"/>
<path d="M191.064 115.918C184.008 108.172 170.468 89.0601 170.468 89.0601C166.805 91.3296 146.599 108.5 146.599 108.5C148.996 113.552 156.58 121.815 160.481 126.388C163.389 129.797 171.699 138.306 183.618 156.553C186.382 160.786 188.495 164.891 193.644 169.868C197.411 161.673 208.319 155.235 214.627 146.298C207.255 137.593 200.136 125.875 191.064 115.918Z" fill="#81F8F8"/>
<path d="M214.626 146.298C209.685 153.588 198.104 161.432 193.69 169.828C188.541 164.849 186.381 160.787 183.617 156.553C171.7 138.306 163.388 129.796 160.48 126.388C156.579 121.814 148.993 113.552 146.598 108.5C146.598 108.5 166.805 91.3296 170.468 89.0601C170.468 89.0601 184.007 108.172 191.064 115.918C200.135 125.874 207.254 137.593 214.626 146.298ZM211.182 146.327C196.931 128.845 197.372 126.47 189.204 117.661C183.236 111.224 173.705 97.9259 170.072 92.7738C166.437 95.6856 156.375 103.799 150.451 109.122C152.996 113.75 158.755 120.252 164.3 126.425C168.947 131.6 175.651 139.055 185.98 154.781C188.91 159.241 190.177 161.657 193.28 165.135C197.562 158.83 204.103 154.671 211.182 146.327Z" fill="white"/>
<path d="M214.796 146.419C214.85 146.342 214.844 146.238 214.783 146.165C207.363 137.403 200.337 125.789 191.216 115.778C184.248 108.132 170.77 89.1318 170.635 88.9414C170.57 88.8506 170.448 88.8264 170.354 88.885C166.72 91.1363 147.284 107.642 146.458 108.343C146.386 108.404 146.364 108.508 146.405 108.593C148.42 112.839 154.035 119.292 158.134 124.004C166.527 133.627 172.846 140.446 183.44 156.668C186.171 160.84 188.363 164.973 193.543 169.98C193.644 170.078 193.805 170.053 193.871 169.928C198.267 161.566 209.824 153.751 214.795 146.419H214.796ZM193.636 169.483C189.517 165.457 187.314 161.974 185.18 158.606C174.59 141.915 166.963 133.501 158.455 123.725C154.418 119.086 148.906 112.752 146.857 108.555C148.537 107.129 166.566 91.8488 170.411 89.3449C171.747 91.2241 184.269 108.773 190.908 116.061C199.958 125.99 206.988 137.574 214.362 146.312C209.412 153.507 198.146 161.172 193.636 169.483Z" fill="black"/>
<path d="M189.356 117.516C183.691 111.258 174.376 98.5132 170.24 92.6493C170.171 92.5511 170.034 92.5299 169.939 92.6053C165.99 95.7684 156.172 103.693 150.308 108.962C150.236 109.028 150.218 109.134 150.265 109.221C152.746 113.729 158.245 119.996 164.143 126.563C168.648 131.583 175.46 139.166 185.804 154.894C188.795 159.452 190.033 161.809 193.123 165.274C193.164 165.318 193.22 165.344 193.28 165.344H193.293C193.358 165.341 193.416 165.307 193.453 165.253C197.702 158.994 204.273 154.791 211.341 146.46C211.572 146.189 211.322 146.473 202.448 134.776C197.277 127.965 196.086 124.605 189.356 117.516ZM193.259 164.792C187.652 158.431 182.36 146.216 164.454 126.282C158.638 119.806 153.211 113.624 150.713 109.165C156.498 103.98 166.005 96.2978 170.029 93.0733C174.231 99.0237 183.428 111.591 189.051 117.801C197.315 126.507 195.945 127.935 210.908 146.32C203.982 154.45 197.536 158.621 193.259 164.792Z" fill="black"/>
<path d="M162.329 116.552C161.202 116.55 160.801 115.885 160.932 114.742C161.063 113.598 160.984 113.629 159.876 113.36C158.778 113.094 159.339 111.258 158.662 110.828C158.522 110.74 158.331 110.721 158.132 110.702C157.904 110.681 157.648 110.656 157.425 110.518C156.674 110.054 156.952 108.763 156.42 108.387C156.282 108.291 156.025 108.29 155.486 108.282C155.209 108.278 155.215 107.859 155.493 107.859C155.89 107.859 156.375 107.839 156.663 108.044C157.382 108.557 157.092 109.816 157.645 110.16C157.934 110.339 158.483 110.216 158.887 110.472C159.762 111.028 159.272 112.779 159.975 112.949C161.174 113.239 161.518 113.334 161.35 114.79C161.248 115.677 161.457 116.13 162.332 116.131C162.606 116.131 162.608 116.552 162.33 116.552L162.329 116.552Z" fill="black"/>
<path d="M164.258 103.705C163.826 103.807 163.615 103.52 163.459 103.103C163.324 102.742 163.142 102.58 163.415 102.284C163.688 101.987 168.23 99.2287 168.121 99.1328C168.032 99.0544 167.326 99.1555 166.778 99.2734C166.336 99.3686 166.297 99.165 166.227 98.9819C166.078 98.5916 165.983 97.9258 166.387 97.7926C167.319 97.4828 169.247 97.2697 169.553 97.2345C169.859 97.1986 170.068 97.1906 170.296 97.4073C170.931 98.0101 171.15 98.5161 171.173 98.7344C171.185 98.8398 171.031 98.9709 170.813 99.121C170.581 99.2814 164.692 103.602 164.258 103.705Z" fill="white"/>
<path d="M171.377 98.7109C171.347 98.4231 171.082 97.8694 170.437 97.2542C170.145 96.976 169.863 96.9825 169.526 97.0243C168.695 97.1268 167.19 97.3048 166.319 97.5926C165.991 97.7024 165.691 98.1309 166.044 99.0932C166.28 99.7384 166.749 99.4623 167.488 99.3583C163.284 102.19 162.752 102.038 163.18 102.987C163.329 103.311 163.487 103.937 164.086 103.937C164.401 103.937 164.426 104.015 170.403 99.6732C170.997 99.2396 171.411 99.0265 171.376 98.7102L171.377 98.7109ZM164.205 103.502C163.816 103.591 163.739 103.207 163.561 102.813C163.46 102.592 163.445 102.559 163.566 102.428C163.688 102.303 164.828 101.577 165.742 100.992C168.318 99.3473 168.319 99.3187 168.333 99.1547C168.366 98.6962 167.195 98.9672 166.737 99.0653C166.501 99.1173 166.491 99.0902 166.438 98.946C166.227 98.366 166.302 98.0408 166.453 97.9925C167.281 97.72 168.788 97.5391 169.577 97.4439C169.867 97.4088 169.993 97.4117 170.151 97.5618C170.722 98.106 170.925 98.5476 170.958 98.7307C170.863 98.8559 164.659 103.346 164.205 103.503V103.502Z" fill="black"/>
<path d="M171.872 100.95C172.703 100.927 173.569 101.605 173.586 102.526C173.605 103.607 172.396 104.57 171.637 105.15C170.797 105.792 169.921 106.376 169.017 106.893C168.593 107.136 168.144 107.371 167.675 107.389C166.931 107.417 166.254 106.822 166.142 106.063C166.06 105.508 166.254 104.917 166.572 104.433C167.5 103.021 170.198 100.995 171.872 100.95ZM168.988 105.353C169.802 104.85 171.337 103.801 171.972 103.083C172.25 102.767 172.239 102.529 172.099 102.392C171.813 102.113 171.337 102.327 170.967 102.494C169.457 103.175 167.111 105.17 167.548 105.781C167.807 106.145 168.552 105.621 168.988 105.353Z" fill="white"/>
<path d="M171.867 100.74C170.057 100.789 167.302 102.945 166.399 104.319C165.3 105.985 166.252 107.619 167.624 107.601C168.182 107.594 168.616 107.369 169.124 107.077C170.033 106.554 170.921 105.963 171.766 105.317C172.432 104.809 173.819 103.749 173.797 102.524C173.78 101.51 172.845 100.714 171.867 100.74ZM171.511 104.982C170.824 105.508 168.573 107.144 167.668 107.178C167.042 107.2 166.448 106.69 166.351 106.032C166.284 105.576 166.43 105.036 166.749 104.549C167.608 103.243 170.249 101.205 171.878 101.16C172.628 101.148 173.362 101.751 173.377 102.529C173.394 103.543 172.122 104.514 171.511 104.981V104.982Z" fill="black"/>
<path d="M172.246 102.24C171.856 101.863 171.271 102.127 170.882 102.302C170.016 102.692 168.664 103.61 167.861 104.54C167.622 104.817 167.064 105.465 167.377 105.903C167.744 106.42 168.56 105.867 169.099 105.531C169.936 105.008 171.475 103.964 172.131 103.222C172.613 102.674 172.34 102.333 172.245 102.241L172.246 102.24ZM168.877 105.172C168.63 105.325 167.853 105.843 167.718 105.659C167.697 105.631 167.624 105.457 168.177 104.816C168.942 103.93 170.23 103.058 171.053 102.688C171.311 102.573 171.759 102.354 171.953 102.543C172.334 102.914 169.384 104.855 168.877 105.172Z" fill="black"/>
<path d="M170.737 109.298C171.805 107.684 174.758 105.923 175.029 106.732C175.177 107.177 174.015 108.195 172.77 109.056C171.616 109.855 170.999 110.19 170.647 109.924C170.538 109.841 170.492 109.67 170.737 109.299L170.737 109.298ZM169.081 110.208C169.216 111.124 170.537 111.825 172.083 111.069C172.996 110.553 173.881 109.97 174.73 109.329C175.497 108.75 176.717 107.788 176.697 106.699C176.679 105.771 175.804 105.082 174.964 105.099C172.97 105.141 168.795 108.267 169.081 110.208Z" fill="white"/>
<path d="M170.565 109.186C170.221 109.702 170.352 109.964 170.521 110.094C170.642 110.185 170.774 110.23 170.929 110.23C171.359 110.23 171.954 109.881 172.889 109.233C174.072 108.415 175.44 107.304 175.229 106.669C174.836 105.474 171.62 107.594 170.565 109.186ZM172.652 108.885C171.676 109.562 171.021 109.945 170.773 109.756C170.773 109.756 170.748 109.67 170.915 109.419C171.822 108.051 173.907 106.743 174.673 106.743C174.766 106.743 174.821 106.766 174.833 106.8C174.882 106.952 174.417 107.663 172.653 108.885H172.652Z" fill="black"/>
<path d="M176.907 106.697C176.889 105.664 175.922 104.865 174.959 104.891C172.876 104.934 168.56 108.129 168.873 110.24C169.034 111.321 170.519 112.074 172.186 111.254C173.105 110.733 174.005 110.144 174.856 109.499C175.53 108.991 176.93 107.931 176.907 106.697ZM174.605 109.162C173.768 109.795 172.886 110.377 171.993 110.881C171.248 111.245 170.49 111.281 169.916 110.976C167.485 109.7 172.633 105.361 174.967 105.311C175.734 105.304 176.473 105.922 176.487 106.705C176.507 107.724 175.221 108.696 174.603 109.162L174.605 109.162Z" fill="black"/>
<path d="M193.172 158.174C192.763 158.174 192.272 158.017 191.997 157.689C191.73 157.369 191.638 156.92 191.711 156.272C191.841 155.101 191.727 155.126 190.582 154.793C189.951 154.609 189.851 153.935 189.763 153.338C189.589 152.152 189.365 152.089 188.741 151.995C187.826 151.855 187.603 151.557 187.381 150.526C187.144 149.428 187.003 149.454 185.964 149.384C185.683 149.365 185.718 148.942 185.993 148.963C187.129 149.048 187.498 149.073 187.792 150.438C188.002 151.414 188.182 151.484 188.803 151.579C189.627 151.704 189.978 151.909 190.18 153.275C190.272 153.899 190.352 154.285 190.7 154.386C191.948 154.75 192.29 154.871 192.13 156.318C192.03 157.221 192.264 157.699 193.186 157.753C193.453 157.769 193.445 158.174 193.172 158.174Z" fill="black"/>
<path d="M206.168 146.52C205.09 146.412 204.559 145.92 204.704 144.616C204.834 143.449 204.723 143.471 203.575 143.137C202.945 142.953 202.845 142.278 202.756 141.682C202.582 140.496 202.357 140.433 201.734 140.338C200.891 140.21 200.614 139.974 200.374 138.869C200.133 137.759 199.987 137.796 198.957 137.727C198.68 137.708 198.708 137.287 198.986 137.306C200.122 137.383 200.491 137.416 200.785 138.78C200.996 139.755 201.179 139.827 201.798 139.921C202.622 140.046 202.972 140.252 203.175 141.619C203.268 142.244 203.348 142.63 203.696 142.731C204.944 143.095 205.286 143.215 205.126 144.662C205.025 145.576 205.268 146.044 206.182 146.098C206.449 146.114 206.441 146.519 206.169 146.519L206.168 146.52Z" fill="black"/>
<path d="M171.029 120.076C169.768 118.915 168.504 116.955 169.023 115.45C169.333 114.551 170.452 113.504 171.888 113.925C172.544 114.117 173.255 114.66 174.016 115.575C175.132 116.919 176.141 118.629 174.627 120.353C173.871 121.215 172.613 121.534 171.029 120.076Z" fill="black"/>
<path d="M173.223 118.899C173.257 118.626 173.007 118.355 172.753 118.38C172.553 118.399 172.403 118.349 172.308 118.231C172.063 117.926 172.365 117.394 172.421 117.056C172.239 117.092 171.609 117.37 171.309 117.094C171.105 116.908 171.17 116.618 171.226 116.361C171.315 115.955 171.328 115.885 170.968 115.909C170.754 115.925 170.536 116.07 170.342 116.196C170.108 116.349 169.882 115.996 170.112 115.844C170.336 115.696 170.615 115.513 170.939 115.49C172.145 115.406 171.517 116.632 171.593 116.79C171.593 116.79 171.611 116.798 171.667 116.798C172.07 116.798 172.483 116.469 172.741 116.725C173.037 117.018 172.579 117.709 172.632 117.96C172.721 117.971 173.061 117.886 173.386 118.222C173.576 118.419 173.671 118.692 173.639 118.951C173.606 119.227 173.189 119.175 173.223 118.899Z" fill="white"/>
<path d="M193.338 147.144C192.148 145.882 190.991 143.85 191.574 142.468C191.923 141.643 193.077 140.771 194.476 141.346C195.114 141.608 195.793 142.216 196.501 143.185C197.542 144.609 198.454 146.367 196.876 147.841C196.089 148.575 194.833 148.73 193.338 147.144Z" fill="black"/>
<path d="M195.763 146.961C195.941 146.733 195.796 146.369 195.488 146.333C194.663 146.238 194.574 145.912 194.819 145.403C195.306 144.391 193.847 145.376 193.532 144.716C193.401 144.441 193.564 144.127 193.722 143.824C193.809 143.657 193.954 143.379 193.901 143.302C193.779 143.127 193.092 143.277 192.611 143.582C192.376 143.732 192.156 143.374 192.388 143.228C192.816 142.957 193.876 142.534 194.245 143.061C194.445 143.347 194.258 143.704 194.094 144.021C194.005 144.192 193.87 144.45 193.911 144.536C194.083 144.644 195.131 144.192 195.326 144.949C195.424 145.328 195.097 145.695 195.112 145.808C195.112 145.808 195.162 145.873 195.536 145.917C196.157 145.989 196.48 146.73 196.094 147.225C195.924 147.442 195.594 147.179 195.763 146.961Z" fill="white"/>
<path d="M173.499 129.692C173.738 134.259 177.305 138.424 182.092 139.578C191.477 141.839 198.223 130.35 191.045 122.781C183.826 115.168 173.064 121.374 173.498 129.693L173.499 129.692Z" fill="white"/>
<path d="M184.473 140.076C178.899 140.076 173.588 135.421 173.29 129.703C172.84 121.109 183.887 114.931 191.196 122.636C197.849 129.65 192.725 140.076 184.473 140.076ZM173.708 129.683C174.083 136.852 182.459 141.971 188.786 138.579C193.752 135.918 196.114 128.429 190.894 122.927C183.908 115.562 173.277 121.417 173.708 129.683Z" fill="black"/>
<path d="M184.327 126.239C184.279 126.463 184.071 126.61 183.865 126.569C183.657 126.529 183.529 126.317 183.578 126.093C183.626 125.87 183.834 125.723 184.041 125.763C184.249 125.803 184.377 126.016 184.327 126.239Z" fill="black"/>
<path d="M185.626 126.207C185.535 126.207 185.451 126.148 185.424 126.055C185.202 125.297 184.502 125.056 184.472 125.046C184.209 124.962 184.339 124.559 184.601 124.645C185.548 124.958 186.166 126.207 185.626 126.207Z" fill="black"/>
<path d="M188.35 137.188C188.05 134.25 191.218 130.968 191.826 128.97C192.284 127.465 191.496 125.924 189.416 124.265C188.485 123.521 188.066 122.676 186.67 122.025C186.167 121.789 185.832 121.954 185.638 122.133C185.347 122.402 185.235 122.837 185.316 123.057C185.411 123.316 185.02 123.466 184.923 123.203C184.771 122.792 184.961 122.186 185.353 121.822C185.753 121.452 186.296 121.387 186.846 121.643C188.313 122.327 188.785 123.224 189.676 123.935C191.907 125.716 192.742 127.402 192.226 129.092C191.609 131.116 188.497 134.408 188.767 137.144C188.795 137.421 188.378 137.458 188.351 137.189L188.35 137.188Z" fill="black"/>
<path d="M180.517 137.627C180.554 135.2 181.639 133.763 183.135 131.772C187.476 125.998 187.041 124.608 187.573 124.851C187.678 124.898 187.725 125.024 187.678 125.129C184.497 132.23 181.001 133.427 180.938 137.632C180.933 137.914 180.513 137.899 180.517 137.627Z" fill="black"/>
<path d="M183.923 138.528C182.13 134.549 187.486 130.544 188.713 126.872C188.802 126.607 189.198 126.743 189.11 127.005C187.867 130.726 182.667 134.644 184.306 138.357C184.418 138.61 184.04 138.784 183.924 138.527L183.923 138.528Z" fill="black"/>
<path d="M186.324 138.095C185.073 135.046 188.034 132.496 190.038 128.256C190.158 128.003 190.535 128.186 190.417 128.436C188.444 132.61 185.581 135.123 186.712 137.937C186.815 138.194 186.43 138.355 186.323 138.094L186.324 138.095Z" fill="black"/>
<path d="M186.848 123.48C186.036 123.48 184.352 123.691 183.688 124.074C183.075 124.429 183.001 124.682 182.751 124.895C182.526 125.044 181.106 124.687 180.631 125.322C180.184 125.921 180.671 126.571 181.034 127.021C180.776 127.138 180.623 127.153 180.428 127.172C179.655 127.24 179.591 127.308 179.675 128.039C179.688 128.157 179.711 128.346 179.699 128.425C179.49 128.484 178.901 128.17 178.639 128.533C178.362 128.917 178.735 129.145 178.658 129.309C178.431 129.811 177.666 129.949 177.723 130.551C177.794 131.314 178.574 131.902 179.495 132.302C178.69 133.16 177.709 133.833 176.5 134.36C176.245 134.472 176.409 134.854 176.668 134.747C178.076 134.164 179.025 133.424 179.914 132.469C180.439 132.658 180.982 132.791 181.446 132.861C181.715 132.901 181.781 132.486 181.506 132.444C180.163 132.238 178.23 131.503 178.138 130.51C178.117 130.263 178.795 130.017 179.04 129.478C179.213 129.092 178.898 128.888 178.976 128.779C179.1 128.705 179.707 129.007 180.008 128.718C180.233 128.501 180.052 127.953 180.064 127.648C180.607 127.528 180.744 127.669 181.46 127.276C181.572 127.216 181.606 127.062 181.524 126.96C181.195 126.542 180.659 125.982 180.966 125.573C181.304 125.123 182.634 125.542 183.019 125.217C183.341 124.945 183.341 124.758 183.898 124.438C184.47 124.108 186.033 123.899 186.848 123.899C187.127 123.899 187.126 123.481 186.85 123.481L186.848 123.48Z" fill="black"/>
<path d="M222.61 95.4404C214.458 102.049 194.577 114.489 194.577 114.489C196.619 118.278 212.526 139.444 212.526 139.444C217.709 137.336 226.41 130.23 231.206 126.593C234.783 123.881 243.771 116.063 262.692 105.194C267.082 102.673 271.304 100.796 276.58 95.9354C268.633 91.7047 262.87 80.44 254.337 73.6287C245.209 80.4988 233.091 86.9436 222.61 95.4404Z" fill="#81F8F8"/>
<path d="M254.336 73.6285C261.31 78.9803 268.434 90.9977 276.542 95.8863C271.264 100.747 267.082 102.673 262.692 105.194C243.771 116.061 234.781 123.881 231.206 126.592C226.408 130.229 217.709 137.338 212.525 139.444C212.525 139.444 196.619 118.277 194.576 114.488C194.576 114.488 214.458 102.049 222.61 95.4401C233.089 86.9433 245.208 80.4985 254.336 73.6285ZM254.157 77.0714C235.859 90.314 233.516 89.7379 224.236 97.397C217.455 102.993 203.615 111.759 198.257 115.095C200.941 118.893 208.426 129.408 213.378 135.63C218.148 133.35 224.982 127.966 231.474 122.779C236.916 118.429 244.758 112.157 261.067 102.732C265.693 100.058 268.179 98.93 271.836 96.0279C265.806 91.391 262.053 84.6193 254.157 77.0714Z" fill="white"/>
<path d="M254.599 72.9798C254.525 72.9221 254.421 72.9213 254.345 72.9784C245.157 79.8933 233.147 86.2515 222.611 94.7941C214.563 101.321 194.797 113.704 194.599 113.829C194.505 113.888 194.473 114.009 194.526 114.106C196.552 117.865 211.841 138.224 212.491 139.089C212.548 139.165 212.649 139.192 212.737 139.156C217.094 137.384 223.87 132.142 228.818 128.314C238.922 120.478 246.107 114.553 262.928 104.892C267.253 102.4 271.508 100.446 276.816 95.5556C276.919 95.4606 276.904 95.2981 276.784 95.2254C268.709 90.357 261.611 78.3653 254.599 72.9812L254.599 72.9798ZM276.326 95.434C272.061 99.3201 268.454 101.323 264.965 103.263C247.677 112.893 238.824 120.034 228.559 127.979C223.688 131.748 217.037 136.894 212.727 138.702C211.406 136.943 197.253 118.06 194.988 114.076C196.943 112.848 215.205 101.336 222.875 95.1177C233.325 86.6412 245.304 80.2776 254.466 73.4073C261.343 78.7631 268.308 90.4555 276.326 95.434Z" fill="black"/>
<path d="M221.906 105.503C215.322 110.807 202.046 119.388 195.947 123.186C195.845 123.249 195.816 123.385 195.885 123.484C198.802 127.609 206.113 137.87 211.014 144.028C211.076 144.104 211.181 144.129 211.27 144.086C215.916 141.864 222.5 136.727 229.406 131.209C234.685 126.993 242.661 120.619 258.974 111.18C263.701 108.451 266.127 107.349 269.77 104.458C269.816 104.421 269.845 104.365 269.849 104.305L269.85 104.292C269.851 104.228 269.82 104.168 269.769 104.128C263.782 99.526 259.987 92.7212 252.104 85.1858C251.847 84.9393 252.116 85.2054 239.912 93.4056C232.807 98.1841 229.383 99.1821 221.906 105.503ZM269.298 104.295C262.614 109.535 250.11 114.127 229.145 130.882C222.334 136.324 215.84 141.394 211.241 143.635C206.419 137.561 199.331 127.625 196.358 123.421C202.547 119.562 215.637 111.088 222.172 105.824C231.355 98.0625 232.697 99.5131 251.939 85.6107C259.629 92.9926 263.4 99.6702 269.298 104.295Z" fill="black"/>
<path d="M200.838 152.465C200.768 153.591 200.08 153.954 198.948 153.758C197.815 153.562 197.841 153.642 197.506 154.735C197.174 155.816 195.376 155.151 194.907 155.803C194.811 155.938 194.781 156.127 194.75 156.326C194.715 156.552 194.674 156.806 194.523 157.021C194.015 157.745 192.744 157.394 192.337 157.904C192.233 158.036 192.216 158.293 192.176 158.831C192.155 159.108 191.738 159.078 191.755 158.801C191.779 158.403 191.787 157.918 192.009 157.641C192.564 156.952 193.803 157.314 194.179 156.781C194.376 156.503 194.286 155.947 194.566 155.558C195.173 154.716 196.89 155.304 197.102 154.612C197.464 153.431 197.579 153.093 199.021 153.343C199.9 153.496 200.364 153.312 200.419 152.439C200.435 152.165 200.855 152.186 200.839 152.464L200.838 152.465Z" fill="black"/>
<path d="M210.38 152.925C210.456 153.362 210.157 153.557 209.731 153.689C209.363 153.803 209.19 153.976 208.912 153.686C208.632 153.396 206.155 148.702 206.053 148.805C205.969 148.889 206.027 149.6 206.112 150.155C206.18 150.602 205.975 150.629 205.788 150.689C205.39 150.815 204.72 150.872 204.611 150.462C204.359 149.512 204.262 147.574 204.246 147.266C204.229 146.958 204.233 146.749 204.463 146.533C205.103 145.934 205.621 145.744 205.84 145.733C205.946 145.727 206.067 145.888 206.204 146.114C206.35 146.355 210.304 152.485 210.38 152.925Z" fill="white"/>
<path d="M205.966 145.035C205.677 145.049 205.109 145.282 204.457 145.891C204.161 146.167 204.151 146.45 204.172 146.789C204.224 147.625 204.311 149.139 204.545 150.025C204.635 150.359 205.044 150.683 206.025 150.386C206.683 150.186 206.436 149.702 206.377 148.958C208.947 153.319 208.764 153.841 209.736 153.468C210.068 153.338 210.702 153.216 210.739 152.617C210.758 152.303 210.837 152.281 206.867 146.063C206.471 145.445 206.283 145.019 205.966 145.036L205.966 145.035ZM210.312 152.474C210.377 152.867 209.989 152.923 209.586 153.077C209.36 153.166 209.325 153.179 209.202 153.05C209.085 152.922 208.429 151.742 207.901 150.795C206.416 148.128 206.388 148.125 206.225 148.102C205.77 148.043 205.969 149.228 206.039 149.692C206.077 149.93 206.049 149.939 205.902 149.983C205.311 150.161 204.991 150.068 204.952 149.914C204.73 149.071 204.641 147.555 204.594 146.761C204.576 146.469 204.587 146.344 204.746 146.195C205.323 145.655 205.776 145.478 205.961 145.454C206.08 145.557 210.184 152.011 210.313 152.474L210.312 152.474Z" fill="black"/>
<path d="M204.905 152.446C204.933 151.614 205.661 150.788 206.581 150.823C207.661 150.866 208.547 152.128 209.081 152.92C209.67 153.796 210.199 154.704 210.661 155.637C210.877 156.074 211.085 156.536 211.074 157.006C211.057 157.751 210.423 158.393 209.659 158.462C209.1 158.512 208.523 158.284 208.059 157.939C206.707 156.932 204.849 154.121 204.905 152.446ZM209.122 155.579C208.67 154.737 207.716 153.143 207.039 152.468C206.741 152.172 206.503 152.169 206.357 152.301C206.061 152.571 206.247 153.059 206.39 153.438C206.979 154.986 208.826 157.443 209.463 157.042C209.841 156.803 209.364 156.029 209.122 155.579Z" fill="white"/>
<path d="M204.839 151.964C204.779 153.776 206.763 156.651 208.078 157.632C209.674 158.824 211.362 157.967 211.427 156.594C211.453 156.037 211.255 155.591 210.994 155.066C210.527 154.128 209.992 153.207 209.399 152.326C208.932 151.632 207.958 150.186 206.735 150.138C205.723 150.097 204.872 150.986 204.839 151.964ZM209.049 152.561C209.532 153.279 211.028 155.62 211.008 156.526C210.991 157.153 210.447 157.718 209.785 157.777C209.326 157.818 208.795 157.642 208.33 157.295C207.079 156.362 205.206 153.608 205.259 151.977C205.293 151.227 205.938 150.529 206.715 150.558C207.727 150.599 208.619 151.925 209.048 152.561L209.049 152.561Z" fill="black"/>
<path d="M206.359 151.671C205.959 152.04 206.186 152.639 206.338 153.038C206.675 153.925 207.508 155.328 208.388 156.184C208.65 156.438 209.262 157.032 209.718 156.745C210.256 156.407 209.754 155.56 209.451 155.003C208.98 154.137 208.032 152.54 207.33 151.842C206.814 151.33 206.457 151.583 206.359 151.672L206.359 151.671ZM209.079 155.205C209.217 155.46 209.686 156.266 209.495 156.39C209.466 156.409 209.288 156.472 208.682 155.883C207.845 155.069 207.053 153.732 206.733 152.888C206.634 152.625 206.443 152.165 206.643 151.982C207.036 151.622 208.794 154.679 209.079 155.205Z" fill="black"/>
<path d="M209.44 161.82C207.894 160.661 206.316 157.61 207.139 157.386C207.592 157.262 208.537 158.482 209.321 159.774C210.048 160.974 210.344 161.608 210.058 161.945C209.969 162.05 209.795 162.085 209.44 161.819L209.44 161.82ZM210.247 163.526C211.169 163.443 211.948 162.164 211.287 160.576C210.827 159.634 210.299 158.717 209.712 157.832C209.18 157.033 208.295 155.759 207.206 155.717C206.281 155.682 205.54 156.517 205.506 157.358C205.428 159.352 208.293 163.701 210.247 163.526Z" fill="white"/>
<path d="M209.454 161.503C209.948 161.876 210.217 161.76 210.357 161.598C210.455 161.483 210.508 161.353 210.517 161.199C210.543 160.769 210.231 160.154 209.642 159.183C208.896 157.954 207.871 156.525 207.226 156.7C206.009 157.024 207.93 160.358 209.454 161.503ZM209.28 159.4C209.896 160.414 210.239 161.091 210.035 161.328C210.035 161.328 209.948 161.347 209.707 161.166C208.397 160.182 207.22 158.025 207.266 157.259C207.271 157.166 207.297 157.113 207.332 157.103C207.487 157.062 208.167 157.568 209.28 159.399L209.28 159.4Z" fill="black"/>
<path d="M207.355 155.025C206.323 154.984 205.468 155.904 205.435 156.868C205.353 158.951 208.279 163.445 210.404 163.253C211.491 163.153 212.332 161.713 211.615 160.001C211.15 159.053 210.617 158.121 210.026 157.233C209.559 156.531 208.586 155.072 207.355 155.025ZM209.675 157.465C210.255 158.337 210.782 159.251 211.231 160.173C211.549 160.937 211.539 161.697 211.201 162.253C209.781 164.609 205.764 159.219 205.855 156.884C205.895 156.117 206.555 155.414 207.337 155.445C208.355 155.483 209.246 156.823 209.674 157.466L209.675 157.465Z" fill="black"/>
<path d="M208.416 202.899C208.391 203.309 208.205 203.79 207.861 204.046C207.526 204.294 207.072 204.36 206.431 204.251C205.271 204.054 205.289 204.169 204.887 205.295C204.666 205.915 203.987 205.976 203.386 206.03C202.193 206.137 202.116 206.357 201.985 206.975C201.79 207.881 201.479 208.087 200.438 208.25C199.328 208.424 199.345 208.567 199.213 209.601C199.177 209.88 198.757 209.821 198.794 209.548C198.948 208.418 198.996 208.05 200.374 207.834C201.361 207.68 201.442 207.504 201.573 206.889C201.748 206.073 201.974 205.735 203.348 205.61C203.977 205.553 204.367 205.495 204.489 205.153C204.927 203.927 205.068 203.593 206.501 203.835C207.397 203.986 207.887 203.78 207.997 202.861C208.029 202.596 208.433 202.627 208.416 202.899Z" fill="black"/>
<path d="M225.394 198.952C225.222 200.023 224.699 200.525 223.407 200.306C222.251 200.11 222.266 200.222 221.863 201.349C221.642 201.969 220.963 202.031 220.362 202.085C219.169 202.192 219.093 202.412 218.96 203.029C218.782 203.865 218.53 204.128 217.413 204.305C216.291 204.483 216.32 204.63 216.188 205.656C216.153 205.932 215.734 205.879 215.77 205.603C215.916 204.472 215.971 204.105 217.349 203.889C218.334 203.734 218.418 203.555 218.548 202.942C218.723 202.126 218.95 201.788 220.326 201.663C220.954 201.606 221.344 201.548 221.466 201.206C221.904 199.98 222.045 199.645 223.479 199.887C224.384 200.04 224.866 199.823 224.974 198.913C225.007 198.648 225.41 198.679 225.394 198.95L225.394 198.952Z" fill="black"/>
<path d="M207.184 169.057C205.95 170.25 203.919 171.401 202.448 170.797C201.571 170.437 200.594 169.259 201.1 167.848C201.332 167.203 201.916 166.524 202.876 165.816C204.283 164.777 206.049 163.866 207.678 165.478C208.492 166.282 208.734 167.557 207.184 169.057Z" fill="black"/>
<path d="M204.604 169.803C204.334 169.754 204.048 169.988 204.058 170.244C204.065 170.445 204.006 170.592 203.883 170.68C203.564 170.907 203.051 170.575 202.717 170.5C202.742 170.684 202.981 171.329 202.688 171.614C202.491 171.806 202.205 171.725 201.952 171.654C201.552 171.542 201.483 171.525 201.486 171.887C201.488 172.102 201.62 172.327 201.734 172.528C201.872 172.771 201.506 172.977 201.369 172.738C201.235 172.506 201.069 172.217 201.066 171.892C201.054 170.682 202.239 171.379 202.402 171.312C202.402 171.312 202.411 171.295 202.414 171.238C202.439 170.836 202.136 170.405 202.407 170.161C202.717 169.882 203.378 170.38 203.632 170.341C203.648 170.253 203.584 169.908 203.939 169.602C204.147 169.423 204.424 169.344 204.681 169.391C204.954 169.44 204.877 169.853 204.604 169.803Z" fill="white"/>
<path d="M213.554 204.082C212.223 205.199 210.127 206.24 208.784 205.578C207.982 205.183 207.181 203.98 207.84 202.615C208.14 201.992 208.787 201.349 209.796 200.697C211.279 199.738 213.088 198.926 214.463 200.586C215.148 201.415 215.227 202.678 213.554 204.082Z" fill="black"/>
<path d="M211.794 204.291C211.577 204.101 211.205 204.224 211.151 204.53C211.007 205.349 210.676 205.42 210.184 205.146C209.203 204.601 210.098 206.115 209.42 206.392C209.138 206.508 208.835 206.327 208.542 206.151C208.38 206.055 208.112 205.894 208.032 205.943C207.85 206.055 207.958 206.75 208.233 207.247C208.369 207.491 207.998 207.691 207.866 207.451C207.623 207.008 207.265 205.924 207.812 205.586C208.11 205.402 208.455 205.609 208.761 205.791C208.926 205.889 209.175 206.039 209.263 206.004C209.382 205.838 208.994 204.765 209.761 204.613C210.145 204.537 210.491 204.885 210.605 204.876C210.605 204.876 210.673 204.83 210.739 204.459C210.849 203.842 211.607 203.561 212.077 203.976C212.284 204.158 212.002 204.472 211.794 204.291Z" fill="white"/>
<path d="M212.537 178.44C217.106 178.462 221.476 175.134 222.916 170.418C225.739 161.169 214.686 153.776 206.703 160.516C198.673 167.295 204.213 178.401 212.537 178.441L212.537 178.44Z" fill="white"/>
<path d="M223.69 167.588C223.353 173.157 218.389 178.198 212.668 178.171C204.069 178.13 198.574 166.741 206.701 159.878C214.099 153.63 224.188 159.343 223.69 167.588ZM212.674 177.751C219.846 177.786 225.458 169.709 222.458 163.194C220.103 158.081 212.776 155.294 206.973 160.196C199.205 166.757 204.402 177.711 212.674 177.751Z" fill="black"/>
<path d="M208.494 187.632C208.714 187.693 208.848 187.909 208.796 188.113C208.743 188.318 208.523 188.433 208.303 188.372C208.084 188.311 207.949 188.095 208.002 187.891C208.055 187.686 208.274 187.569 208.494 187.632Z" fill="black"/>
<path d="M210.82 186.538C210.815 186.629 210.75 186.709 210.656 186.731C209.887 186.91 209.604 187.595 209.593 187.625C209.493 187.883 209.098 187.73 209.2 187.473C209.569 186.545 210.853 185.998 210.82 186.538Z" fill="black"/>
<path d="M227.023 182.668C224.074 182.8 220.992 179.448 219.036 178.727C217.563 178.184 215.978 178.883 214.197 180.867C213.399 181.755 212.531 182.126 211.797 183.483C211.532 183.972 211.675 184.316 211.842 184.52C212.094 184.826 212.521 184.963 212.745 184.895C213.009 184.814 213.134 185.214 212.866 185.296C212.447 185.424 211.855 185.199 211.515 184.787C211.17 184.367 211.138 183.82 211.427 183.285C212.198 181.859 213.121 181.438 213.884 180.589C215.795 178.461 217.527 177.723 219.182 178.334C221.163 179.066 224.259 182.363 227.004 182.249C227.282 182.237 227.294 182.655 227.024 182.667L227.023 182.668Z" fill="black"/>
<path d="M218.507 186.802C216.09 186.626 214.721 185.461 212.826 183.853C207.328 179.187 205.916 179.542 206.19 179.024C206.244 178.922 206.373 178.882 206.474 178.935C213.365 182.518 214.348 186.079 218.538 186.381C218.819 186.402 218.779 186.821 218.507 186.802Z" fill="black"/>
<path d="M219.286 189.52C215.208 191.085 211.537 185.506 207.948 184.07C207.689 183.966 207.849 183.579 208.105 183.681C211.741 185.136 215.335 190.554 219.138 189.127C219.397 189.03 219.548 189.418 219.285 189.519L219.286 189.52Z" fill="black"/>
<path d="M218.935 191.904C215.818 192.98 213.454 189.876 209.346 187.633C209.1 187.499 209.306 187.132 209.548 187.265C213.592 189.474 215.926 192.476 218.801 191.507C219.064 191.418 219.201 191.812 218.934 191.904L218.935 191.904Z" fill="black"/>
<path d="M203.382 172.426C203.333 173.237 203.442 174.932 203.783 175.617C204.101 176.249 204.349 176.337 204.546 176.6C204.681 176.833 204.24 178.231 204.843 178.742C205.414 179.223 206.092 178.773 206.563 178.436C206.664 178.701 206.669 178.855 206.676 179.05C206.698 179.826 206.762 179.895 207.497 179.852C207.615 179.845 207.804 179.834 207.882 179.85C207.929 180.062 207.58 180.633 207.926 180.916C208.292 181.214 208.543 180.854 208.701 180.94C209.188 181.195 209.28 181.968 209.884 181.945C210.649 181.918 211.283 181.172 211.738 180.275C212.545 181.127 213.157 182.147 213.61 183.384C213.705 183.645 214.096 183.503 214.005 183.238C213.509 181.798 212.828 180.808 211.929 179.866C212.15 179.352 212.315 178.816 212.413 178.357C212.47 178.09 212.059 178.001 212 178.273C211.714 179.603 210.864 181.493 209.868 181.528C209.62 181.535 209.416 180.843 208.894 180.569C208.518 180.373 208.296 180.676 208.192 180.593C208.126 180.465 208.463 179.876 208.193 179.558C207.99 179.321 207.433 179.47 207.129 179.441C207.043 178.892 207.192 178.763 206.843 178.025C206.79 177.91 206.639 177.867 206.532 177.943C206.095 178.249 205.504 178.752 205.114 178.421C204.686 178.058 205.184 176.753 204.883 176.35C204.632 176.013 204.445 176.002 204.16 175.428C203.865 174.837 203.751 173.264 203.801 172.449C203.817 172.171 203.399 172.149 203.383 172.424L203.382 172.426Z" fill="black"/>
<path d="M382.068 118.159L355.202 195.308L277.636 180.558L308.896 106.515L382.068 118.159Z" fill="#F0F0F0"/>
<path d="M382.068 118.159L308.896 106.516L312.432 71.9354L387.636 82.7172L382.068 118.159Z" fill="white"/>
<path d="M315.251 101.608L317.605 78.5804L380.07 87.6473L376.329 111.453L315.251 101.608Z" fill="#00D1BC"/>
<path d="M329.938 84.4555C329.862 83.772 328.962 83.6245 328.664 84.2195C328.185 85.1797 328.386 84.3467 327.779 88.5648C327.676 89.2839 327.854 89.8352 328.288 90.4954C328.467 90.7679 328.834 90.7995 329.06 90.6072C329.997 84.128 329.949 84.5572 329.937 84.4545L329.938 84.4555Z" fill="black"/>
<path d="M327.483 92.3191C327.094 92.6476 327.217 92.61 326.561 96.9817C326.529 97.1872 326.567 97.2991 326.679 97.9256C326.798 98.5868 327.706 98.6895 327.967 98.0629C328.009 97.9612 327.951 98.2643 328.869 91.9122C328.69 91.6406 328.324 91.6081 328.096 91.7993L327.483 92.3191Z" fill="black"/>
<path d="M332.732 102.046C332.901 102.306 333.256 102.356 333.494 102.156C333.85 101.857 333.945 101.809 333.977 101.576L334.379 98.7973C334.419 98.5146 334.224 98.2532 333.944 98.2125L333.418 98.1362C333.136 98.0955 332.876 98.2918 332.836 98.5726C332.36 101.874 332.303 101.386 332.732 102.046Z" fill="black"/>
<path d="M348.232 86.4827C347.618 87.7134 347.607 87.7073 347.591 87.809C346.86 92.5276 346.903 92.2692 347.02 92.4442L347.665 93.4288C347.793 93.6241 348.062 93.6627 348.243 93.5122C348.404 93.3769 348.34 93.797 349.231 87.3686C349.26 87.157 349.137 86.6739 348.863 86.386C348.676 86.1907 348.352 86.2396 348.232 86.4827Z" fill="black"/>
<path d="M340.708 99.2478L339.739 99.4991C339.371 99.5957 339.193 100.018 339.385 100.346C339.562 100.647 339.868 100.855 340.086 100.885L345.572 101.686C345.959 101.742 346.288 101.4 346.22 101.014L346.107 100.384C346.063 100.139 345.87 99.9507 345.624 99.9161C340.64 99.2112 340.874 99.2021 340.709 99.2458L340.708 99.2478Z" fill="black"/>
<path d="M341.339 92.6588C341.106 92.8571 341.057 93.1958 341.225 93.4521C341.467 93.8214 341.549 93.9841 341.843 94.0278C347.103 94.7988 346.437 94.8538 347.081 94.3086C347.314 94.1113 347.363 93.7715 347.195 93.5152C346.953 93.146 346.871 92.9832 346.577 92.9395C341.316 92.1685 341.979 92.1156 341.339 92.6588Z" fill="black"/>
<path d="M341.397 94.5171L340.752 93.5325C340.624 93.3372 340.354 93.2996 340.174 93.4491C340.013 93.5824 340.104 93.2731 339.329 98.6244C339.288 98.901 339.543 99.1299 339.812 99.0607L340.631 98.8471C340.783 98.8065 340.896 98.6803 340.918 98.5237C341.497 94.4907 341.513 94.691 341.397 94.5171Z" fill="black"/>
<path d="M347.408 87.3127L347.684 86.7614C347.863 86.4043 347.641 85.9751 347.245 85.9182C342.127 85.1817 342.313 85.1838 342.182 85.2082C341.938 85.254 341.73 85.3587 341.557 85.5164C341.273 85.7768 341.328 86.2447 341.659 86.445C342.492 86.9506 342.556 87.0116 342.722 87.036L346.802 87.629C347.05 87.6646 347.294 87.5364 347.409 87.3116L347.408 87.3127Z" fill="black"/>
<path d="M351.595 92.849L352.132 89.115C352.179 88.7895 351.957 88.7275 351.223 88.285C350.984 88.1406 350.677 88.285 350.637 88.5637C349.87 93.8712 349.868 93.5895 349.985 93.7685C350.114 93.9638 350.384 94.0024 350.563 93.8519C351.531 93.0351 351.567 93.0453 351.595 92.849Z" fill="black"/>
<path d="M356.989 88.8435L357.452 87.924C357.57 87.686 357.422 87.3981 357.159 87.3594C351.737 86.5722 351.962 86.5895 351.858 86.6068C351.103 86.7329 350.641 87.451 351.109 87.7327C352.024 88.2851 352.208 88.4183 352.327 88.4346L356.584 89.055C356.75 89.0795 356.913 88.994 356.989 88.8435Z" fill="black"/>
<path d="M350.569 99.9284C351.147 95.8954 351.163 96.0958 351.048 95.9218L350.403 94.9372C350.275 94.7419 350.004 94.7043 349.825 94.8538C349.664 94.9881 349.754 94.6779 348.978 100.029C348.938 100.306 349.193 100.535 349.461 100.465L350.281 100.252C350.433 100.211 350.546 100.086 350.569 99.9284Z" fill="black"/>
<path d="M357.882 87.8904C357.268 89.1202 357.255 89.1151 357.24 89.2168C356.509 93.9354 356.552 93.677 356.669 93.852L357.316 94.8366C357.444 95.0319 357.715 95.0705 357.894 94.92C358.055 94.7837 357.991 95.2048 358.881 88.7764C358.911 88.5648 358.788 88.0817 358.515 87.7938C358.328 87.5985 358.003 87.6473 357.882 87.8904Z" fill="black"/>
<path d="M350.394 100.639L349.181 100.959C348.49 101.139 349.193 102.231 349.703 102.287L354.893 103.043C355.157 103.082 355.379 102.85 355.331 102.586L355.15 101.572C355.121 101.406 354.989 101.277 354.823 101.253C350.261 100.58 350.507 100.61 350.394 100.639Z" fill="black"/>
<path d="M356.123 96.9257C355.44 101.691 355.484 101.309 355.496 101.415L355.733 102.744C355.779 103.009 356.077 103.15 356.31 103.015C356.673 102.807 356.914 102.36 356.939 102.179C357.839 95.7428 357.848 96.1832 357.731 96.0062C357.603 95.8109 357.333 95.7703 357.154 95.9228C356.188 96.7437 356.15 96.7294 356.122 96.9257H356.123Z" fill="black"/>
<path d="M360.215 101.334C360.795 97.3011 360.812 97.5015 360.697 97.3276L360.049 96.343C359.922 96.1477 359.651 96.107 359.472 96.2596C359.31 96.3979 359.403 96.0704 358.625 101.435C358.584 101.711 358.84 101.94 359.108 101.871L359.928 101.658C360.08 101.617 360.193 101.492 360.215 101.334Z" fill="black"/>
<path d="M366.637 90.2501L367.101 89.3306C367.22 89.0926 367.072 88.8048 366.808 88.7661C361.386 87.9788 361.611 87.9961 361.507 88.0134C360.745 88.1406 360.298 88.8617 360.757 89.1394C361.672 89.6928 361.857 89.825 361.975 89.8413L366.232 90.4617C366.398 90.4861 366.561 90.4007 366.637 90.2501Z" fill="black"/>
<path d="M361.244 94.2567L361.781 90.5228C361.827 90.1983 361.607 90.1363 360.872 89.6928C360.633 89.5483 360.326 89.6928 360.285 89.9715C359.518 95.279 359.516 94.9972 359.634 95.1763C359.763 95.3715 360.033 95.4102 360.211 95.2597C361.18 94.4429 361.215 94.4531 361.244 94.2567Z" fill="black"/>
<path d="M360.043 102.044L358.829 102.363C358.14 102.545 358.841 103.636 359.351 103.692L364.541 104.448C364.806 104.486 365.028 104.254 364.98 103.991L364.799 102.977C364.769 102.811 364.638 102.682 364.471 102.657C359.909 101.985 360.155 102.015 360.042 102.044H360.043Z" fill="black"/>
<path d="M367.531 89.295C366.918 90.5258 366.906 90.5197 366.891 90.6214C366.154 95.3389 366.203 95.0816 366.319 95.2566L366.965 96.2412C367.092 96.4365 367.362 96.4741 367.542 96.3246C367.704 96.1893 367.64 96.6094 368.53 90.181C368.559 89.9704 368.437 89.4852 368.163 89.1984C367.977 89.0031 367.652 89.0529 367.531 89.295Z" fill="black"/>
<path d="M365.771 98.3305C365.088 103.096 365.133 102.713 365.144 102.82L365.381 104.149C365.429 104.414 365.726 104.554 365.959 104.42C366.321 104.212 366.562 103.765 366.588 103.584C367.46 97.353 367.5 97.591 367.38 97.411C367.251 97.2157 366.982 97.175 366.803 97.3275C365.837 98.1484 365.799 98.1352 365.77 98.3305H365.771Z" fill="black"/>
<path d="M380.479 87.3442C380.284 87.0716 380.492 87.2038 317.676 78.0749C317.389 78.0332 317.122 78.2417 317.095 78.5285L314.743 101.559C314.717 101.828 314.905 102.073 315.17 102.115L376.327 111.966C376.596 111.961 376.792 111.773 376.831 111.533C380.77 87.4307 380.676 87.6087 380.48 87.3452L380.479 87.3442ZM375.904 110.864L316.754 101.331L319.167 79.324L379.483 88.0796L375.904 110.864Z" fill="black"/>
<path d="M391.431 88.3451C387.794 81.996 388.07 82.3124 387.765 82.2218L312.506 71.4288C312.212 71.3851 311.95 71.6058 311.925 71.8825L308.399 106.385L277.167 180.356C277.042 180.656 277.017 180.38 279.491 185.733C279.559 185.88 279.694 185.988 279.855 186.019L358.472 201.3C358.761 201.27 358.895 201.12 358.954 200.955L386.505 121.666L391.494 88.6767C391.512 88.5638 391.491 88.4468 391.433 88.3451H391.431ZM387.05 83.1525L381.64 117.573L309.448 106.088L312.882 72.5182L387.05 83.1525ZM381.382 118.569L354.866 194.719L278.353 180.171L309.212 107.083L381.382 118.569Z" fill="black"/>
<path d="M354.114 175.603C352.456 172.544 352.596 172.692 352.381 172.635L292.96 161.585C292.797 161.554 292.636 161.639 292.568 161.792L288.431 171.143C288.294 171.381 288.318 171.284 289.843 174.489C289.968 174.75 289.817 174.632 350.156 186.107C350.285 186.145 350.494 186.062 350.562 185.873C354.232 175.642 354.232 175.82 354.113 175.601L354.114 175.603ZM322.123 167.735L318.868 176.687L304.843 174.02L308.27 165.16L322.123 167.735ZM338.051 170.695L334.815 179.72L319.581 176.823L322.836 167.868L338.051 170.695ZM348.563 182.334L335.528 179.855L338.765 170.828L351.76 173.243L348.563 182.334ZM293.106 162.344L307.555 165.028L304.129 173.885L289.251 171.056L293.106 162.344Z" fill="black"/>
<path d="M359.723 159.264C358.232 156.608 358.27 156.573 358.049 156.515L299.253 146.439C299.09 146.412 298.925 146.5 298.861 146.654C294.639 156.736 294.646 156.557 294.76 156.787C295.93 159.64 295.829 159.541 296.086 159.588L355.965 170.577C356.09 170.601 356.256 170.482 356.305 170.332C359.84 159.301 359.842 159.479 359.722 159.264H359.723ZM327.892 152.074L324.453 161.573L310.956 159.132L314.523 149.783L327.892 152.074ZM343.989 154.832L340.415 164.461L325.17 161.703L328.611 152.197L343.99 154.832H343.989ZM357.496 157.147L354.38 166.987L341.132 164.591L344.708 154.956L357.496 157.147ZM299.412 147.194L313.802 149.66L310.237 159.003L295.584 156.352L299.412 147.194Z" fill="black"/>
<path d="M365.068 144.459C363.403 141.682 363.47 141.696 363.217 141.675L305.267 131.869C305.103 131.843 304.942 131.93 304.877 132.085C300.867 141.672 301.067 141.067 301.174 141.284C302.345 144.137 302.246 144.043 302.504 144.087C343.513 151.121 302.891 144.206 361.57 154.46C361.72 154.46 361.861 154.363 361.91 154.215C365.162 144.496 365.203 144.683 365.068 144.458V144.459ZM333.121 137.312L330.141 145.664L316.774 143.374L320.093 135.107L333.121 137.312ZM349.169 140.028L346.131 148.403L330.86 145.788L333.841 137.434L349.169 140.028ZM362.715 142.32L359.876 150.758L346.85 148.527L349.888 140.15L362.716 142.32H362.715ZM305.428 132.627L319.37 134.986L316.051 143.252L302 140.845L305.428 132.627Z" fill="black"/>
<path d="M370.786 129.299L369.36 126.289C369.232 126.024 369.334 125.957 312.001 116.417C311.836 116.39 311.672 116.481 311.609 116.635C307.66 126.386 307.643 126.195 307.768 126.429C308.894 129.176 308.828 129.178 309.093 129.222L367.08 139.375C367.23 139.375 367.369 139.28 367.421 139.135C370.879 129.332 370.884 129.507 370.786 129.299ZM339.369 121.782L336.146 130.613L322.661 128.344L325.728 119.47L339.369 121.782ZM368.553 126.727L365.426 135.539L352.669 133.393L355.904 124.583L368.553 126.726V126.727ZM351.951 133.272L336.865 130.734L340.069 121.952C340.107 121.85 340.082 121.903 355.185 124.462L351.951 133.272ZM312.167 117.172L325.01 119.349L321.944 128.224L308.587 125.977L312.167 117.172Z" fill="black"/>
<path d="M358.274 31.0581C355.804 30.6207 353.449 32.2634 353.014 34.731C352.58 37.1996 351.834 53.1832 354.306 53.6216C356.776 54.0599 361.527 38.7864 361.962 36.3178C362.397 33.8491 360.743 31.4954 358.274 31.0581Z" fill="#573BD1"/>
<path d="M354.254 53.9074C353.802 53.8199 352.414 53.5819 352.28 44.9402C352.213 40.6173 352.5 35.975 352.728 34.6802C353.475 30.4366 358.996 29.2598 361.444 32.7577C362.186 33.8166 362.472 35.0982 362.248 36.3686C361.816 38.8261 357.053 54.4495 354.254 53.9074ZM357.481 31.2829C355.459 31.2829 353.664 32.7282 353.303 34.7829C353.079 36.0553 352.798 40.6437 352.864 44.9331C352.959 50.9485 353.697 53.2168 354.358 53.3337C356.441 53.704 361.19 39.0356 361.677 36.2679C362.135 33.6681 360.131 31.2819 357.481 31.2819V31.2829Z" fill="black"/>
<path d="M349.127 59.4061C349.642 57.1897 351.848 55.8115 354.056 56.3282C356.263 56.8449 357.636 59.0603 357.121 61.2766C356.607 63.493 354.4 64.8712 352.193 64.3545C349.985 63.8378 348.612 61.6225 349.127 59.4061Z" fill="#573BD1"/>
<path d="M353.127 64.7522C350.395 64.7522 348.322 62.2734 348.796 59.5729C349.216 57.1765 351.503 55.5714 353.888 55.9935C356.274 56.4167 357.873 58.7093 357.453 61.1057C357.077 63.2438 355.218 64.7522 353.127 64.7522ZM353.123 56.5102C351.309 56.5102 349.696 57.8183 349.37 59.6736C349.005 61.7527 350.391 63.7432 352.462 64.1094C354.536 64.4756 356.516 63.0841 356.88 61.005C357.291 58.6686 355.495 56.5102 353.123 56.5102Z" fill="black"/>
<path d="M342.681 67.046L336.122 41.61L328.412 45.9919L342.681 67.046Z" fill="#F1C40F"/>
<path d="M342.679 67.3358C342.436 67.3358 342.482 67.467 328.173 46.1587C328.079 46.0183 328.121 45.8241 328.27 45.7386C336.646 40.9132 336.043 41.2601 336.234 41.3394C336.442 41.4259 336.309 41.3211 342.961 66.9707C343.009 67.1558 342.867 67.3358 342.679 67.3358ZM328.832 46.0905L341.978 65.4897L335.935 42.0504L328.832 46.0905Z" fill="black"/>
<path d="M360.123 70.1166L374.915 48.4421L380.677 55.1981L360.123 70.1166Z" fill="#F1C40F"/>
<path d="M360.121 70.4086C359.89 70.4086 359.75 70.1452 359.881 69.9499C374.619 47.9631 374.669 48.1645 374.897 48.1503C375.104 48.1371 374.656 47.6977 380.896 55.0069C381.009 55.1391 380.978 55.3365 380.844 55.4341C360.175 70.4625 360.269 70.4086 360.121 70.4086ZM374.94 48.9213L361.311 68.8931L380.249 55.1463L374.941 48.9213H374.94Z" fill="black"/>
<g clip-path="url(#clip0_1_1199)">
<path fill-rule="evenodd" clip-rule="evenodd" d="M116.538 55.0882L121.204 57.6984L139.448 36.0932C139.448 36.0932 148.005 64.0799 153.998 65.3257C157.814 66.1187 173.775 46.075 173.775 46.075C173.775 46.075 187.531 75.0858 192.866 75.2906C197.194 75.4569 214.458 54.3722 214.458 54.3722L242.649 80.9513C242.649 80.9513 222.905 79.8734 225.208 81.5165C227.512 83.1596 255.441 96.5847 257.484 94.9924C259.527 93.4001 252.881 66.5715 251.6 64.2924C250.32 62.0148 246.194 77.7498 246.194 77.7498C246.194 77.7498 221.477 45.958 216.438 44.4211C210.67 42.6625 193.525 65.3934 193.525 65.3934C193.525 65.3934 179.117 36.1517 173.84 35.5188C170.032 35.063 154.693 55.8181 154.693 55.8181C154.693 55.8181 144.599 23.8939 140.787 24.2912C134.373 24.961 116.537 55.0867 116.537 55.0867L116.538 55.0882Z" fill="#573BD1"/>
<path d="M252.27 63.915C252.022 63.4762 251.597 63.2452 251.174 63.3068C250.685 63.3699 249.231 63.5593 245.85 76.062C240.835 69.659 221.383 45.1263 216.664 43.6865C211.096 42.0018 197.335 59.1875 193.665 63.9489C190.714 58.0587 179.034 35.3678 173.934 34.7565C170.231 34.3145 158.886 48.9515 154.972 54.1627C153.596 49.8709 145.039 23.0745 140.711 23.5273C134.103 24.2172 117.727 51.5771 115.882 54.6955C115.776 54.8741 115.747 55.0881 115.801 55.2883C115.916 55.7164 115.721 55.4824 120.833 58.3713C121.152 58.5515 121.552 58.4775 121.792 58.1973L139.134 37.6577C141.059 43.7189 148.163 64.8991 153.843 66.0802C157.535 66.8317 169.087 53.1232 173.612 47.5102C175.965 52.3964 187.548 76.062 192.904 76.062C197.234 76.062 210.702 60.1345 214.532 55.4962L240.601 80.0751C224.888 79.3051 224.498 80.4231 224.31 80.9713C224.254 81.1315 224.124 81.6858 224.768 82.1463C225.351 82.562 255.146 97.7842 257.959 95.6022C260.735 93.4401 253.157 65.4873 252.274 63.915H252.27ZM257.001 94.361C254.241 94.7798 232.34 84.7272 226.69 81.5241C229.437 81.2469 236.328 81.2731 242.608 81.7197C243.338 81.772 243.683 80.8681 243.174 80.3907L214.983 53.8115C214.654 53.502 214.142 53.5452 213.865 53.8839C207.312 61.887 195.869 74.5513 192.933 74.5221C188.571 74.4789 176.364 49.7446 174.466 45.7438C174.229 45.2418 173.538 45.1387 173.175 45.5945C165.472 55.2668 156.205 65.0099 154.153 64.571C150.113 63.7318 143.439 46.5184 140.182 35.8667C140.008 35.2893 139.26 35.1307 138.864 35.5957L121.029 56.7189L117.604 54.8017C124.743 42.8365 136.528 25.5123 140.86 25.0595C142.959 25.2397 149.297 41.2888 153.964 56.0521C154.153 56.6496 154.937 56.7805 155.311 56.277C162.721 46.252 171.658 36.0408 173.752 36.2841C177.295 36.7076 187.339 54.5738 192.839 65.7352C193.099 66.2588 193.807 66.3019 194.139 65.8584C200.643 57.2364 212.397 43.9837 216.219 45.1587C219.745 46.2336 235.716 65.5212 245.591 78.2241C245.991 78.7338 246.781 78.5521 246.938 77.9469C248.295 72.7712 250.172 66.9148 251.186 65.2163C252.99 69.6944 258.079 91.8509 257.002 94.3595L257.001 94.361Z" fill="black"/>
<path fill-rule="evenodd" clip-rule="evenodd" d="M4.52923 54.0595C0.950911 52.1361 0.915634 45.1911 4.45254 38.5601C7.93883 32.0247 13.597 28.2256 17.1891 29.9534C17.3578 30.0351 17.1983 29.9596 22.769 33.8125C22.769 33.8125 24.9393 38.7726 21.1279 46.7248C16.6968 55.9706 10.9374 56.0337 10.9374 56.0337C4.33597 54.0595 4.94488 54.2813 4.53076 54.058L4.52923 54.0595Z" fill="#F1C40F"/>
<path fill-rule="evenodd" clip-rule="evenodd" d="M117.726 84.4054C120.488 81.4195 127.187 83.1504 132.675 88.2691C138.085 93.3154 140.306 99.7754 137.729 102.825C137.597 102.98 137.251 103.237 132.593 107.261C132.593 107.261 127.263 108.106 120.571 102.386C112.79 95.7331 114.193 90.1247 114.193 90.1247C117.773 84.216 117.407 84.7503 117.726 84.4054Z" fill="#F1C40F"/>
<path d="M23.4715 33.5046C23.3549 33.2366 23.6218 33.4707 18.7168 30.0767C12.4942 24.3435 1.00308 37.3944 1.05523 48.08C1.07057 51.26 2.22857 54.3968 5.28694 55.1714C5.36056 55.2268 5.44492 55.2715 5.53848 55.2977C11.0862 56.8715 10.7825 56.8053 10.9389 56.8037C11.1936 56.8037 17.2351 56.6251 21.8196 47.059C25.7384 38.8836 23.5681 33.7186 23.473 33.503L23.4715 33.5046ZM2.58901 48.0723C2.54914 39.7444 9.98493 30.3061 15.2842 30.3061C16.5158 30.3061 16.9314 30.7096 17.7229 31.2578C20.088 33.5446 19.7398 39.555 16.7458 45.1695C11.7273 54.5724 2.63043 57.298 2.58901 48.0723ZM11.0202 55.2576L9.31927 54.7741C16.3333 52.0007 22.4086 40.2972 20.4745 33.1612L22.134 34.31C24.5298 41.5292 17.7965 54.577 11.0202 55.2576Z" fill="black"/>
<path d="M138.968 96.1659C136.955 90.1802 130.464 84.1252 124.37 82.5498C121.315 81.7614 117.994 82.0755 116.462 84.8582C116.291 84.9937 116.503 84.6749 113.534 89.7336C113.497 89.7968 113.468 89.866 113.449 89.9384C111.747 96.7973 122.695 108.077 131.789 108.077C132.336 108.077 132.66 108.031 132.714 108.022C133.011 107.976 132.714 108.173 137.231 104.272C139.89 102.554 139.993 99.2088 138.968 96.1659ZM121.584 83.7063C127.301 83.7063 135.304 90.0816 137.516 96.6587C138.323 99.0563 138.2 101.043 137.18 102.284L136.324 103.023C131.83 105.752 120.698 99.2396 117.825 90.7007C116.509 86.7877 117.658 83.7063 121.584 83.7063ZM132.278 106.517C124.606 106.982 113.862 97.0837 114.923 90.4019L115.831 88.8589C116.736 96.4369 126.471 105.264 133.816 105.19L132.278 106.517Z" fill="black"/>
<path d="M281.504 42.3746C290.609 29.0326 289.566 12.4198 279.173 5.27147C268.78 -1.87688 252.974 3.14484 243.87 16.4868C234.765 29.8303 235.81 46.4415 246.203 53.5898C256.594 60.7382 272.4 55.7181 281.504 42.3746Z" fill="#F1C40F"/>
<path d="M286.357 9.39691L280.147 5.02351C268.648 -3.48922 252.005 3.20485 243.238 16.054C233.91 29.7255 235.045 46.8511 245.769 54.2289C246.499 54.7309 252.603 58.4976 252.603 58.4976C264.305 64.2122 278.776 57.0962 286.567 45.6777C295.032 33.2751 294.98 17.711 286.357 9.39846V9.39691ZM244.502 16.9241C252.706 4.90339 268.049 -1.44574 278.741 5.90897C283.566 9.22906 286.46 14.7836 286.885 21.55C287.774 35.6974 277.567 50.6578 264.105 54.9342C257.665 56.9792 251.464 56.2785 246.634 52.9569C236.609 46.0596 235.652 29.8949 244.5 16.9241H244.502Z" fill="black"/>
<path fill-rule="evenodd" clip-rule="evenodd" d="M277.805 39.8275C270.243 50.9088 257.343 55.2376 248.997 49.4967C240.651 43.7559 240.016 30.1198 247.576 19.0384C255.137 7.9571 268.032 3.62834 276.378 9.3692C284.725 15.1101 285.366 28.7477 277.805 39.8275Z" fill="#00D1BC"/>
<path d="M257.439 52.7906C241.815 52.7906 236.548 33.8372 246.944 18.6026C254.729 7.18869 268.13 2.76294 276.813 8.73324C285.494 14.7051 286.221 28.8494 278.434 40.2633C273 48.2278 264.831 52.7906 257.439 52.7906ZM267.91 7.60295C261.028 7.60295 253.35 11.9394 248.207 19.4727C240.897 30.186 241.447 43.3693 249.43 48.8607C257.416 54.3537 269.858 50.1035 277.168 39.3917C286.978 25.0165 282.109 7.6014 267.91 7.6014V7.60295Z" fill="black"/>
<path d="M269.967 32.559L257.921 34.5516L254.283 25.7679C253.968 25.0148 252.866 25.2073 252.809 26.0096L251.494 44.6382C251.464 45.0847 251.818 45.462 252.26 45.462C252.608 45.462 252.344 45.5621 270.504 33.968C271.216 33.5137 270.766 32.4065 269.967 32.559Z" fill="white"/>
<path d="M271.653 29.0357C271.409 24.0756 270.947 14.5111 270.947 13.8165C270.947 13.199 270.257 12.8341 269.749 13.1806L256.06 22.5433C255.749 22.7558 255.639 23.1639 255.798 23.5073L259.297 30.9791C259.442 31.2901 259.775 31.4611 260.099 31.4133L270.995 29.8364C271.388 29.7795 271.67 29.433 271.651 29.0357H271.653Z" fill="white"/>
<path d="M269.871 26.5918L266.133 21.9674L269.139 16.9903C269.358 16.6269 269.242 16.1542 268.881 15.9324C268.522 15.7168 268.05 15.8277 267.826 16.1911L264.594 21.5408L258.946 22.143C257.944 22.2492 258.088 23.7753 259.107 23.6736L263.594 23.1963L260.292 28.6646C259.763 29.5423 261.084 30.32 261.604 29.4638L265.286 23.3672C268.923 27.87 268.769 27.8484 269.272 27.8484C269.912 27.8484 270.277 27.0985 269.869 26.5934L269.871 26.5918Z" fill="#011627"/>
<path d="M253.209 41.4028L255.976 36.4227C256.183 36.05 256.651 35.9176 257.019 36.1255C257.389 36.3318 257.522 36.8015 257.315 37.1726L254.548 42.1528C254.057 43.0336 252.715 42.2913 253.209 41.4028Z" fill="#011627"/>
<path fill-rule="evenodd" clip-rule="evenodd" d="M47.4384 91.8505C33.0453 76.7006 30.7263 55.3341 42.041 43.6861L34.8828 50.6943C25.9071 62.7011 28.7998 82.3353 42.2772 96.5196C55.8788 110.836 75.5098 114.601 87.8598 105.861L93.1466 101.102C80.8027 109.957 61.086 106.215 47.4384 91.8505Z" fill="#00D1BC"/>
<path fill-rule="evenodd" clip-rule="evenodd" d="M47.4384 91.8505C62.0968 107.279 83.7216 110.457 95.7388 98.948C107.756 87.4386 105.615 65.6009 90.9565 50.1723C76.2981 34.7437 54.6718 31.5653 42.6546 43.0748C30.6374 54.5842 32.7785 76.4219 47.4384 91.8505Z" fill="#F1C40F"/>
<path d="M104.115 75.9553C100.992 44.0927 60.6872 23.2713 41.429 43.2118L34.2709 50.2323C24.9746 62.6673 28.1771 82.7957 41.722 97.0509C50.5121 106.304 61.882 111.297 72.3087 111.297C80.0926 111.297 85.5345 109.789 96.2664 99.5055C102.253 93.7723 105.043 85.409 104.115 75.9553ZM87.418 105.231C75.2075 113.87 56.046 109.894 42.8309 95.9883C29.7999 82.2706 26.6464 62.9968 35.4181 51.2456L36.866 49.8289C31.0085 62.156 34.6497 79.5049 46.8816 92.3833C59.8114 105.995 76.5557 109.124 87.941 104.761L87.418 105.231ZM95.2096 98.3921C83.5176 109.589 62.3376 106.418 47.9905 91.3192C33.915 76.5005 31.4211 55.4666 42.5471 44.2651C61.905 24.7773 99.679 46.4364 102.589 76.1062C103.467 85.0779 100.846 92.9916 95.2096 98.3921Z" fill="black"/>
<path d="M92.3875 95.4154C102.54 85.6923 100.389 66.882 87.5831 53.403C74.7767 39.924 56.1648 36.8796 46.0119 46.6027C35.8591 56.3258 38.0101 75.1361 50.8163 88.6151C63.6226 102.094 82.2346 105.139 92.3875 95.4154Z" fill="white"/>
<path d="M88.1374 52.8733C81.8305 46.2331 73.9407 41.8551 65.9267 40.5431C57.8375 39.2203 50.572 41.1729 45.4844 46.0468C35.0409 56.0487 37.1866 75.3825 50.2637 89.1479C56.5706 95.7881 64.4604 100.166 72.4744 101.478C79.9025 102.695 87.4272 101.232 92.9167 95.9744C103.36 85.9726 101.214 66.6372 88.1374 52.8733ZM91.8599 94.861C87.1282 99.393 80.3304 101.206 72.7213 99.9597C65.0325 98.7016 57.451 94.4853 51.3711 88.0869C32.8828 68.6268 38.8431 41.6827 61.0907 41.6827C70.7197 41.6827 80.1909 46.7413 87.0285 53.939C99.5227 67.09 101.688 85.4474 91.8583 94.8626L91.8599 94.861Z" fill="black"/>
<path fill-rule="evenodd" clip-rule="evenodd" d="M49.0458 66.4972L51.6211 70.1776L55.2592 68.4975L66.1598 85.4845L62.9634 88.1732L65.669 91.9399L70.9222 88.8539L74.3149 92.1324L77.9346 90.1074L75.5726 84.6268L77.6724 83.2578L80.9455 88.2209L84.3336 85.8987L81.8657 80.2641C81.8657 80.2641 91.6267 73.6532 88.849 67.6352C85.9609 61.38 77.3395 62.538 77.3395 62.538C77.3395 62.538 79.5651 59.0516 78.0497 56.3244C74.5481 50.0168 65.6567 54.6982 65.6567 54.6982L61.6121 49.8906L58.4265 52.396L61.4434 56.9711L58.9878 58.8098L55.0782 53.8928L52.2959 56.3968L55.5 61.5386L49.0443 66.4956L49.0458 66.4972ZM62.0124 63.3033L66.3193 69.634C66.3193 69.634 73.752 65.8088 71.6446 61.6418C69.5356 57.4732 62.014 63.3049 62.014 63.3049L62.0124 63.3033ZM72.7014 80.6429L68.4773 72.5937C68.4773 72.5937 76.1294 66.9268 79.0436 70.6365C81.9578 74.3462 72.7014 80.6445 72.7014 80.6445V80.6429Z" fill="#F1C40F"/>
<path fill-rule="evenodd" clip-rule="evenodd" d="M108.141 9.82806L110.797 21.4422L121.637 24.288L110.797 27.1338L108.141 38.7479L105.484 27.1338L94.6452 24.288L105.484 21.4422L108.141 9.82806Z" fill="url(#paint0_linear_1_1199)"/>
<path d="M107.394 38.922L104.84 27.7621L94.4504 25.0349C93.6896 24.8347 93.6896 23.7445 94.4504 23.5443L104.84 20.8155L107.394 9.65565C107.575 8.86104 108.708 8.86104 108.889 9.65565L111.443 20.8155L121.833 23.5443C122.594 23.7445 122.594 24.8347 121.833 25.0349L111.443 27.7621L108.889 38.922C108.708 39.7166 107.575 39.7166 107.394 38.922ZM97.6744 24.2896L105.679 26.3901C105.955 26.4624 106.167 26.6826 106.231 26.9629L108.141 35.3093L110.051 26.9629C110.115 26.6826 110.328 26.4624 110.603 26.3901L118.607 24.2896L110.603 22.1876C110.327 22.1152 110.115 21.895 110.051 21.6148L108.141 13.2683L106.231 21.6148C106.167 21.895 105.954 22.1152 105.679 22.1876L97.6744 24.2896Z" fill="black"/>
</g>
<defs>
<linearGradient id="paint0_linear_1_1199" x1="96.9231" y1="39.4378" x2="123.599" y2="14.3349" gradientUnits="userSpaceOnUse">
<stop offset="0.08" stop-color="#9945FF"/>
<stop offset="0.3" stop-color="#8752F3"/>
<stop offset="0.5" stop-color="#5497D5"/>
<stop offset="0.6" stop-color="#43B4CA"/>
<stop offset="0.72" stop-color="#28E0B9"/>
<stop offset="0.97" stop-color="#19FB9B"/>
</linearGradient>
<clipPath id="clip0_1_1199">
<rect width="292.953" height="111.039" fill="white" transform="translate(0.5 0.699951)"/>
</clipPath>
</defs>
</svg>
