<svg width="372" height="183" viewBox="0 0 372 183" fill="none" xmlns="http://www.w3.org/2000/svg">
<g clip-path="url(#clip0_1_1810)">
<path opacity="0.8" d="M163.292 49.1717C101.432 49.1702 101.607 49.2944 101.426 48.9548C96.8395 40.3406 103.907 32.9853 111.445 34.297C110.836 21.8996 127.875 18.1429 130.471 32.8116C135.331 24.8749 145.498 28.8968 144.846 35.9807C148.77 34.2644 154.859 36.897 153.529 42.336C159.726 40.8445 163.435 44.1406 163.692 48.7438C163.706 48.981 163.519 49.1717 163.292 49.1717ZM102.018 48.3688L162.866 48.3626C162.395 44.3469 158.979 41.5391 153.063 43.2942C152.755 43.3856 152.473 43.0802 152.578 42.7732C154.514 37.1172 147.675 34.9776 144.558 37.0474C144.259 37.2459 143.874 36.9777 143.948 36.6288C145.412 29.6999 134.874 25.3866 130.61 34.2287C130.438 34.5838 129.902 34.5032 129.855 34.0985C128.04 18.7522 111.187 22.7834 112.276 34.7652C112.3 35.0381 112.052 35.2536 111.788 35.1931C108.308 34.4039 104.544 35.7327 102.412 38.539C101.206 40.1266 99.5697 43.4988 102.018 48.3688Z" fill="black" fill-opacity="0.88" stroke="black" stroke-opacity="0.88" stroke-width="0.672566"/>
<path opacity="0.6" d="M329.885 28.0812L287.899 28.078C287.815 28.078 287.74 28.0272 287.706 27.9486C284.712 20.7987 290.052 15.0175 295.359 16.0219C295.415 5.15707 311.228 5.61387 310.314 16.2479C312.438 13.5693 317.498 14.7694 318.162 18.4721C320.88 17.0501 325.118 19.335 323.87 22.9558C327.42 22.8027 329.9 24.3548 330.096 27.8553C330.103 27.9797 330.005 28.0812 329.885 28.0812ZM288.038 27.6506L329.658 27.6523C329.415 24.9622 327.624 23.1236 323.57 23.3946C323.406 23.4052 323.303 23.2407 323.361 23.0998C323.954 21.6795 323.683 20.3451 322.6 19.4266C321.333 18.3534 319.362 18.1627 318.112 18.9928C317.981 19.0795 317.801 18.9944 317.787 18.8339C317.437 14.9667 311.601 13.8133 310.163 17.3342C310.068 17.5659 309.716 17.4676 309.761 17.2147C310.325 14.0564 309.465 11.4482 307.352 9.87486C305.168 8.24823 302.021 8.03539 299.52 9.34438C298.088 10.0943 295.739 11.9918 295.781 16.2798C295.783 16.4206 295.657 16.5205 295.524 16.491C290.355 15.3556 285.266 20.9125 288.039 27.6514L288.038 27.6506Z" fill="black" fill-opacity="0.88" stroke="black" stroke-opacity="0.88" stroke-width="0.355115"/>
<path d="M110.543 153.595C113.594 153.595 116.066 156.095 116.066 159.179C116.066 162.262 113.594 164.762 110.543 164.762C107.492 164.762 105.02 162.262 105.02 159.179C105.02 156.095 107.492 153.595 110.543 153.595Z" fill="white"/>
<path d="M110.543 165.225C107.245 165.225 104.56 162.512 104.56 159.177C104.56 155.842 107.244 153.129 110.543 153.129C113.842 153.129 116.526 155.842 116.526 159.177C116.526 162.512 113.842 165.225 110.543 165.225ZM110.543 154.059C107.751 154.059 105.48 156.354 105.48 159.177C105.48 162 107.75 164.295 110.543 164.295C113.336 164.295 115.606 162 115.606 159.177C115.606 156.354 113.336 154.059 110.543 154.059Z" fill="black" fill-opacity="0.88"/>
<path d="M140.885 153.595C143.936 153.595 146.408 156.095 146.408 159.179C146.408 162.262 143.936 164.762 140.885 164.762C137.834 164.762 135.362 162.262 135.362 159.179C135.362 156.095 137.834 153.595 140.885 153.595Z" fill="white"/>
<path d="M140.885 165.225C137.587 165.225 134.901 162.512 134.901 159.177C134.901 155.842 137.585 153.129 140.885 153.129C144.184 153.129 146.868 155.842 146.868 159.177C146.868 162.512 144.184 165.225 140.885 165.225ZM140.885 154.059C138.093 154.059 135.822 156.354 135.822 159.177C135.822 162 138.092 164.295 140.885 164.295C143.678 164.295 145.948 162 145.948 159.177C145.948 156.354 143.678 154.059 140.885 154.059Z" fill="black" fill-opacity="0.88"/>
<path d="M160.791 153.595C163.841 153.595 166.314 156.095 166.314 159.179C166.314 162.262 163.841 164.762 160.791 164.762C157.74 164.762 155.267 162.262 155.267 159.179C155.267 156.095 157.74 153.595 160.791 153.595Z" fill="white"/>
<path d="M160.791 165.225C157.491 165.225 154.807 162.512 154.807 159.177C154.807 155.842 157.491 153.129 160.791 153.129C164.09 153.129 166.774 155.842 166.774 159.177C166.774 162.512 164.09 165.225 160.791 165.225ZM160.791 154.059C157.999 154.059 155.728 156.354 155.728 159.177C155.728 162 157.998 164.295 160.791 164.295C163.584 164.295 165.854 162 165.854 159.177C165.854 156.354 163.584 154.059 160.791 154.059Z" fill="black" fill-opacity="0.88"/>
<path d="M195.229 153.595C198.28 153.595 200.753 156.095 200.753 159.179C200.753 162.262 198.28 164.762 195.229 164.762C192.178 164.762 189.706 162.262 189.706 159.179C189.706 156.095 192.178 153.595 195.229 153.595Z" fill="white"/>
<path d="M195.229 165.225C191.932 165.225 189.246 162.512 189.246 159.177C189.246 155.842 191.93 153.129 195.229 153.129C198.529 153.129 201.213 155.842 201.213 159.177C201.213 162.512 198.529 165.225 195.229 165.225ZM195.229 154.059C192.438 154.059 190.166 156.354 190.166 159.177C190.166 162 192.436 164.295 195.229 164.295C198.022 164.295 200.292 162 200.292 159.177C200.292 156.354 198.022 154.059 195.229 154.059Z" fill="black" fill-opacity="0.88"/>
<path d="M215.171 153.595C218.221 153.595 220.694 156.095 220.694 159.179C220.694 162.262 218.221 164.762 215.171 164.762C212.12 164.762 209.647 162.262 209.647 159.179C209.647 156.095 212.12 153.595 215.171 153.595Z" fill="white"/>
<path d="M215.17 165.225C211.871 165.225 209.187 162.512 209.187 159.177C209.187 155.842 211.871 153.129 215.17 153.129C218.47 153.129 221.154 155.842 221.154 159.177C221.154 162.512 218.47 165.225 215.17 165.225ZM215.17 154.059C212.379 154.059 210.107 156.354 210.107 159.177C210.107 162 212.377 164.295 215.17 164.295C217.964 164.295 220.234 162 220.234 159.177C220.234 156.354 217.964 154.059 215.17 154.059Z" fill="black" fill-opacity="0.88"/>
<path d="M249.609 153.595C252.66 153.595 255.132 156.095 255.132 159.179C255.132 162.262 252.66 164.762 249.609 164.762C246.558 164.762 244.086 162.262 244.086 159.179C244.086 156.095 246.558 153.595 249.609 153.595Z" fill="white"/>
<path d="M249.609 165.225C246.31 165.225 243.626 162.512 243.626 159.177C243.626 155.842 246.31 153.129 249.609 153.129C252.908 153.129 255.593 155.842 255.593 159.177C255.593 162.512 252.908 165.225 249.609 165.225ZM249.609 154.059C246.818 154.059 244.546 156.354 244.546 159.177C244.546 162 246.816 164.295 249.609 164.295C252.402 164.295 254.672 162 254.672 159.177C254.672 156.354 252.402 154.059 249.609 154.059Z" fill="black" fill-opacity="0.88"/>
<path d="M269.55 153.595C272.601 153.595 275.073 156.095 275.073 159.179C275.073 162.262 272.601 164.762 269.55 164.762C266.499 164.762 264.027 162.262 264.027 159.179C264.027 156.095 266.499 153.595 269.55 153.595Z" fill="white"/>
<path d="M269.55 165.225C266.253 165.225 263.567 162.512 263.567 159.177C263.567 155.842 266.253 153.129 269.55 153.129C272.848 153.129 275.534 155.842 275.534 159.177C275.534 162.512 272.85 165.225 269.55 165.225ZM269.55 154.059C266.759 154.059 264.487 156.354 264.487 159.177C264.487 162 266.757 164.295 269.55 164.295C272.343 164.295 274.613 162 274.613 159.177C274.613 156.354 272.343 154.059 269.55 154.059Z" fill="black" fill-opacity="0.88"/>
<path d="M303.992 153.595C307.043 153.595 309.515 156.095 309.515 159.179C309.515 162.262 307.043 164.762 303.992 164.762C300.941 164.762 298.469 162.262 298.469 159.179C298.469 156.095 300.941 153.595 303.992 153.595Z" fill="white"/>
<path d="M303.992 165.225C300.694 165.225 298.009 162.512 298.009 159.177C298.009 155.842 300.693 153.129 303.992 153.129C307.291 153.129 309.975 155.842 309.975 159.177C309.975 162.512 307.291 165.225 303.992 165.225ZM303.992 154.059C301.2 154.059 298.929 156.354 298.929 159.177C298.929 162 301.199 164.295 303.992 164.295C306.785 164.295 309.055 162 309.055 159.177C309.055 156.354 306.785 154.059 303.992 154.059Z" fill="black" fill-opacity="0.88"/>
<path d="M323.93 153.595C326.981 153.595 329.453 156.095 329.453 159.179C329.453 162.262 326.981 164.762 323.93 164.762C320.879 164.762 318.407 162.262 318.407 159.179C318.407 156.095 320.879 153.595 323.93 153.595Z" fill="white"/>
<path d="M323.93 165.225C320.632 165.225 317.947 162.512 317.947 159.177C317.947 155.842 320.631 153.129 323.93 153.129C327.229 153.129 329.914 155.842 329.914 159.177C329.914 162.512 327.229 165.225 323.93 165.225ZM323.93 154.059C321.139 154.059 318.867 156.354 318.867 159.177C318.867 162 321.137 164.295 323.93 164.295C326.723 164.295 328.993 162 328.993 159.177C328.993 156.354 326.723 154.059 323.93 154.059Z" fill="black" fill-opacity="0.88"/>
<path d="M358.372 153.595C361.423 153.595 363.895 156.095 363.895 159.179C363.895 162.262 361.423 164.762 358.372 164.762C355.321 164.762 352.849 162.262 352.849 159.179C352.849 156.095 355.321 153.595 358.372 153.595Z" fill="white"/>
<path d="M358.372 165.225C355.073 165.225 352.388 162.512 352.388 159.177C352.388 155.842 355.073 153.129 358.372 153.129C361.671 153.129 364.355 155.842 364.355 159.177C364.355 162.512 361.671 165.225 358.372 165.225ZM358.372 154.059C355.58 154.059 353.309 156.354 353.309 159.177C353.309 162 355.579 164.295 358.372 164.295C361.165 164.295 363.435 162 363.435 159.177C363.435 156.354 361.165 154.059 358.372 154.059Z" fill="black" fill-opacity="0.88"/>
<path d="M332.125 126.9H138.698V158.645H332.125V126.9Z" fill="black" fill-opacity="0.88"/>
<path d="M149.198 160.069C149.198 160.602 148.769 161.036 148.241 161.036H103.912C98.4504 161.036 94.0254 156.02 94.0254 149.83V142.652C94.0254 136.927 96.9366 131.716 101.503 129.266L117.003 120.945C119.651 119.521 122.548 118.786 125.478 118.786H146.52C147.996 118.786 149.195 120.145 149.195 121.816V160.069H149.198Z" fill="white"/>
<path d="M152.619 160.072C152.619 160.605 153.048 161.036 153.576 161.036H202.438C202.966 161.036 203.392 160.605 203.392 160.072V121.49C203.392 119.999 202.196 118.786 200.717 118.786H155.294C153.818 118.786 152.619 119.996 152.619 121.49V160.072Z" fill="white"/>
<path d="M202.446 161.504H153.58C152.801 161.504 152.166 160.862 152.166 160.075V121.494C152.166 119.748 153.571 118.324 155.301 118.324H200.725C202.452 118.324 203.86 119.745 203.86 121.494V160.075C203.86 160.862 203.225 161.504 202.446 161.504ZM155.298 119.255C154.077 119.255 153.086 120.259 153.086 121.494V160.075C153.086 160.351 153.307 160.574 153.58 160.574H202.443C202.716 160.574 202.937 160.351 202.937 160.075V121.494C202.937 120.259 201.943 119.255 200.722 119.255H155.298Z" fill="black" fill-opacity="0.88"/>
<path d="M206.998 160.072C206.998 160.605 207.428 161.036 207.955 161.036H256.818C257.346 161.036 257.772 160.605 257.772 160.072V121.49C257.772 119.999 256.576 118.786 255.097 118.786H209.673C208.198 118.786 206.998 119.996 206.998 121.49V160.072Z" fill="white"/>
<path d="M256.823 161.504H207.96C207.181 161.504 206.546 160.862 206.546 160.075V121.494C206.546 119.748 207.951 118.324 209.681 118.324H255.105C256.832 118.324 258.24 119.745 258.24 121.494V160.075C258.24 160.862 257.605 161.504 256.823 161.504ZM209.681 119.255C208.46 119.255 207.466 120.259 207.466 121.494V160.075C207.466 160.351 207.687 160.574 207.96 160.574H256.823C257.096 160.574 257.32 160.351 257.32 160.075V121.494C257.32 120.259 256.326 119.255 255.105 119.255H209.681Z" fill="black" fill-opacity="0.88"/>
<path d="M261.383 160.072C261.383 160.605 261.812 161.036 262.34 161.036H311.202C311.73 161.036 312.156 160.605 312.156 160.072V121.49C312.156 119.999 310.96 118.786 309.482 118.786H264.058C262.582 118.786 261.383 119.996 261.383 121.49V160.072Z" fill="white"/>
<path d="M305.46 124.371H268.087C267.437 124.371 266.909 124.904 266.909 125.562V141.849C266.909 142.507 267.437 143.04 268.087 143.04H305.46C306.11 143.04 306.638 142.507 306.638 141.849V125.562C306.638 124.904 306.11 124.371 305.46 124.371Z" fill="#9A89E3"/>
<path d="M311.206 161.504H262.34C261.561 161.504 260.926 160.862 260.926 160.075V121.494C260.926 119.748 262.331 118.324 264.061 118.324H309.485C311.212 118.324 312.62 119.745 312.62 121.494V160.075C312.62 160.862 311.985 161.504 311.206 161.504ZM264.058 119.255C262.837 119.255 261.846 120.259 261.846 121.494V160.075C261.846 160.351 262.067 160.574 262.34 160.574H311.202C311.476 160.574 311.696 160.351 311.696 160.075V121.494C311.696 120.259 310.702 119.255 309.482 119.255H264.058Z" fill="black" fill-opacity="0.88"/>
<path d="M315.763 160.072C315.763 160.605 316.192 161.036 316.72 161.036H365.582C366.11 161.036 366.536 160.605 366.536 160.072V121.49C366.536 119.999 365.34 118.786 363.862 118.786H318.438C316.962 118.786 315.763 119.996 315.763 121.49V160.072Z" fill="white"/>
<path d="M359.84 124.371H322.467C321.816 124.371 321.289 124.904 321.289 125.562V141.849C321.289 142.507 321.816 143.04 322.467 143.04H359.84C360.49 143.04 361.018 142.507 361.018 141.849V125.562C361.018 124.904 360.49 124.371 359.84 124.371Z" fill="#9A89E3"/>
<path d="M365.579 161.504H316.72C315.94 161.504 315.302 160.862 315.302 160.075V121.494C315.302 119.748 316.707 118.324 318.438 118.324H363.861C365.589 118.324 366.997 119.745 366.997 121.494V160.075C366.997 160.862 366.362 161.504 365.579 161.504ZM318.441 119.255C317.22 119.255 316.226 120.259 316.226 121.494V160.075C316.226 160.351 316.447 160.574 316.723 160.574H365.585C365.858 160.574 366.082 160.351 366.082 160.075V121.494C366.082 120.259 365.088 119.255 363.868 119.255H318.441Z" fill="black" fill-opacity="0.88"/>
<path d="M129.506 141.846C129.506 142.504 128.978 143.037 128.328 143.037H103.912C100.11 143.037 98.3016 137.302 104.09 134.198C123.501 123.79 120.87 124.37 128.328 124.37C128.978 124.37 129.506 124.903 129.506 125.56V141.846Z" fill="url(#paint0_linear_1_1810)"/>
<path d="M128.327 143.499L103.912 143.505C99.6298 143.505 97.6558 137.124 103.875 133.789C123.229 123.408 120.732 123.905 128.327 123.905C129.232 123.905 129.966 124.649 129.966 125.56V141.843C129.966 142.758 129.229 143.499 128.327 143.499ZM119.807 126.291L104.306 134.612C99.0024 137.455 100.545 142.577 103.914 142.577H128.329C128.725 142.577 129.047 142.251 129.047 141.851V125.568C129.047 125.168 128.725 124.843 128.329 124.843C125.021 124.843 122.908 124.63 119.809 126.291H119.807Z" fill="black" fill-opacity="0.88"/>
<path d="M136.2 143.04H142.497C143.147 143.04 143.675 142.507 143.675 141.849V125.562C143.675 124.904 143.147 124.371 142.497 124.371H136.2C135.55 124.371 135.023 124.904 135.023 125.562V141.849C135.023 142.507 135.55 143.04 136.2 143.04Z" fill="url(#paint1_linear_1_1810)"/>
<path d="M142.494 143.505H136.2C135.296 143.505 134.562 142.761 134.562 141.849V125.567C134.562 124.652 135.299 123.911 136.2 123.911H142.494C143.399 123.911 144.132 124.655 144.132 125.567V141.849C144.132 142.764 143.396 143.505 142.494 143.505ZM136.2 124.836C135.805 124.836 135.483 125.162 135.483 125.562V141.845C135.483 142.245 135.805 142.57 136.2 142.57H142.494C142.889 142.57 143.212 142.245 143.212 141.845V125.562C143.212 125.162 142.889 124.836 142.494 124.836H136.2Z" fill="black" fill-opacity="0.88"/>
<path d="M196.696 124.371H159.323C158.672 124.371 158.145 124.904 158.145 125.562V141.849C158.145 142.507 158.672 143.04 159.323 143.04H196.696C197.346 143.04 197.874 142.507 197.874 141.849V125.562C197.874 124.904 197.346 124.371 196.696 124.371Z" fill="#9A89E3"/>
<path d="M251.075 124.371H213.703C213.052 124.371 212.525 124.904 212.525 125.562V141.849C212.525 142.507 213.052 143.04 213.703 143.04H251.075C251.726 143.04 252.253 142.507 252.253 141.849V125.562C252.253 124.904 251.726 124.371 251.075 124.371Z" fill="#9A89E3"/>
<path d="M251.074 123.906H213.704C212.802 123.906 212.066 124.647 212.066 125.562V141.848C212.066 142.759 212.799 143.503 213.704 143.503H251.074C251.976 143.503 252.712 142.762 252.712 141.848V125.562C252.712 124.65 251.979 123.906 251.074 123.906ZM232.848 124.833H242.379V142.572H232.848V124.833ZM231.927 142.572H222.401V124.833H231.927V142.572ZM212.986 141.846V125.56C212.986 125.16 213.308 124.835 213.704 124.835H221.479V142.573H213.704C213.308 142.573 212.986 142.246 212.986 141.846ZM251.792 141.846C251.792 142.246 251.47 142.572 251.074 142.572H243.299V124.833H251.074C251.47 124.833 251.792 125.159 251.792 125.559V141.844V141.846Z" fill="black" fill-opacity="0.88"/>
<path d="M305.457 123.906H268.087C267.185 123.906 266.449 124.647 266.449 125.562V141.848C266.449 142.759 267.182 143.503 268.087 143.503H305.457C306.359 143.503 307.095 142.762 307.095 141.848V125.562C307.095 124.65 306.362 123.906 305.457 123.906ZM287.231 124.833H296.76V142.572H287.231V124.833ZM286.31 142.572H276.782V124.833H286.31V142.572ZM267.369 141.846V125.56C267.369 125.16 267.691 124.835 268.087 124.835H275.862V142.573H268.087C267.691 142.573 267.369 142.246 267.369 141.846ZM306.175 141.846C306.175 142.246 305.853 142.572 305.457 142.572H297.682V124.833H305.457C305.853 124.833 306.175 125.159 306.175 125.559V141.844V141.846Z" fill="black" fill-opacity="0.88"/>
<path d="M359.838 123.906H322.468C321.566 123.906 320.83 124.647 320.83 125.562V141.848C320.83 142.759 321.563 143.503 322.468 143.503H359.838C360.74 143.503 361.476 142.762 361.476 141.848V125.562C361.476 124.65 360.743 123.906 359.838 123.906ZM341.612 124.833H351.143V142.572H341.612V124.833ZM340.692 142.572H331.165V124.833H340.692V142.572ZM321.751 141.846V125.56C321.751 125.16 322.073 124.835 322.468 124.835H330.243V142.573H322.468C322.073 142.573 321.751 142.246 321.751 141.846ZM360.556 141.846C360.556 142.246 360.234 142.572 359.838 142.572H352.063V124.833H359.838C360.234 124.833 360.556 125.159 360.556 125.559V141.844V141.846Z" fill="black" fill-opacity="0.88"/>
<path d="M196.696 123.906H159.326C158.424 123.906 157.688 124.647 157.688 125.562V141.848C157.688 142.759 158.421 143.503 159.326 143.503H196.696C197.597 143.503 198.334 142.762 198.334 141.848V125.562C198.334 124.65 197.601 123.906 196.696 123.906ZM178.469 124.833H188V142.572H178.469V124.833ZM177.549 142.572H168.022V124.833H177.549V142.572ZM158.608 141.846V125.56C158.608 125.16 158.93 124.835 159.326 124.835H167.101V142.573H159.326C158.93 142.573 158.608 142.246 158.608 141.846ZM197.413 141.846C197.413 142.246 197.091 142.572 196.696 142.572H188.921V124.833H196.696C197.091 124.833 197.413 125.159 197.413 125.559V141.844V141.846Z" fill="black" fill-opacity="0.88"/>
<path d="M146.521 118.32H125.479C122.49 118.32 119.483 119.086 116.787 120.534L101.286 128.855C96.5973 131.373 93.5665 136.789 93.5665 142.654V145.761H92.545C91.9745 145.761 91.5082 146.229 91.5082 146.809V151.127C91.5082 151.704 91.9714 152.175 92.545 152.175H93.7767C94.7414 157.492 98.918 161.501 103.914 161.501H148.242C149.022 161.501 149.66 160.853 149.66 160.065V121.813C149.66 119.887 148.252 118.317 146.525 118.317L146.521 118.32ZM148.733 160.076C148.733 160.352 148.512 160.576 148.239 160.576H103.909C98.7109 160.576 94.4837 155.755 94.4837 149.834V142.657C94.4837 137.133 97.3213 132.037 101.716 129.68L117.216 121.359C119.781 119.982 122.638 119.253 125.476 119.253L146.518 119.259C147.739 119.259 148.733 120.41 148.733 121.824V160.076Z" fill="black" fill-opacity="0.88"/>
<path d="M85.603 164.924C85.0355 164.924 84.5753 165.39 84.5753 165.963V174.536C84.5753 175.109 85.0355 175.574 85.603 175.574H123.157C127.996 175.574 131.917 179.539 131.917 184.429V289.636C131.917 290.209 132.377 290.675 132.944 290.675H136.25C136.817 290.675 137.277 290.209 137.277 289.636V184.431C137.277 179.539 141.199 175.576 146.037 175.576H186.95C191.789 175.576 195.709 179.54 195.709 184.431V289.637C195.709 290.211 196.17 290.676 196.737 290.676H200.041C200.608 290.676 201.069 290.211 201.069 289.637V184.431C201.069 179.539 204.99 175.576 209.828 175.576H250.741C255.58 175.576 259.501 179.54 259.501 184.431V289.637C259.501 290.211 259.961 290.676 260.528 290.676H263.832C264.4 290.676 264.86 290.211 264.86 289.637V184.431C264.86 179.539 268.782 175.576 273.619 175.576H314.532C319.372 175.576 323.292 179.54 323.292 184.431V289.637C323.292 290.211 323.752 290.676 324.32 290.676H327.625C328.193 290.676 328.653 290.211 328.653 289.637V184.431C328.653 179.539 332.573 175.576 337.412 175.576H374.966C375.534 175.576 375.994 175.111 375.994 174.537V165.965C375.994 165.391 375.534 164.926 374.966 164.926L85.603 164.924Z" fill="black" fill-opacity="0.88"/>
<path d="M155.941 83.1872L150.88 88.3046L155.945 93.4224L161.006 88.305L155.941 83.1872Z" fill="#F1C40F"/>
<path d="M155.949 93.8832C155.672 93.8832 156.056 94.1871 150.557 88.6287C150.376 88.4473 150.378 88.1528 150.557 87.9714L155.62 82.8533C155.801 82.6704 156.093 82.6704 156.271 82.8533L161.334 87.9714C161.515 88.1512 161.515 88.4489 161.334 88.6287C155.927 94.0491 156.226 93.8832 155.949 93.8832ZM151.533 88.3L155.945 92.7607L160.355 88.3L155.942 83.8425L151.533 88.3Z" fill="black" fill-opacity="0.88"/>
<path d="M190.125 83.1843L185.064 88.3009L190.128 93.4197L195.189 88.303L190.125 83.1843Z" fill="#F1C40F"/>
<path d="M190.126 93.883C189.853 93.883 190.251 94.2009 184.738 88.6286C184.557 88.4456 184.557 88.1511 184.738 87.9712L189.801 82.8532C189.973 82.6795 190.28 82.6795 190.452 82.8532L195.515 87.9712C195.696 88.1542 195.694 88.4487 195.515 88.6286C190.108 94.0474 190.404 93.883 190.126 93.883ZM185.714 88.2999L190.126 92.7605L194.536 88.2999L190.123 83.8393L185.714 88.2999Z" fill="black" fill-opacity="0.88"/>
<path d="M173.036 83.4362L168.224 88.297L173.035 93.1629L177.846 88.3021L173.036 83.4362Z" fill="#F1C40F"/>
<path d="M173.035 93.629C172.764 93.629 173.113 93.9003 167.899 88.6288C167.719 88.4474 167.719 88.1528 167.899 87.9714L172.71 83.1077C172.882 82.934 173.189 82.934 173.36 83.1077L178.172 87.9714C178.353 88.1543 178.353 88.4489 178.172 88.6288C172.972 93.8383 173.308 93.629 173.035 93.629ZM168.874 88.3001L173.035 92.5064L177.196 88.3001L173.035 84.0937L168.874 88.3001Z" fill="black" fill-opacity="0.88"/>
<path d="M186.517 97.0647L181.456 91.9467L173.035 100.459L164.616 91.9467L159.553 97.0647L173.035 110.693L186.517 97.0647Z" fill="#F1C40F"/>
<path d="M159.228 97.3934C159.047 97.2105 159.047 96.9159 159.228 96.7361L164.291 91.618C164.472 91.4351 164.763 91.4351 164.941 91.618L173.035 99.7997L181.129 91.618C181.31 91.4351 181.601 91.4366 181.779 91.618C187.14 97.0834 186.977 96.7841 186.977 97.0648C186.977 97.364 187.059 97.1609 173.36 111.019C172.868 111.518 173.023 111.338 159.228 97.3934ZM160.206 97.0648L173.035 110.036L185.867 97.0678L181.454 92.6072L173.36 100.789C173.179 100.972 172.888 100.972 172.71 100.789L164.616 92.6072L160.206 97.0648Z" fill="black" fill-opacity="0.88"/>
<path d="M186.514 79.5354L181.456 84.6519L173.035 76.1415L164.616 84.6488L159.553 79.5354L173.035 65.907L186.514 79.5354Z" fill="#F1C40F"/>
<path d="M181.456 85.117C181.183 85.117 181.824 85.6829 173.037 76.7989L164.943 84.9805C164.762 85.1635 164.47 85.1635 164.292 84.9805L159.229 79.8625C159.048 79.6796 159.048 79.385 159.229 79.2051L172.708 65.5768C172.88 65.4031 173.187 65.4031 173.359 65.5768L186.841 79.2051C187.022 79.3881 187.022 79.6827 186.841 79.8625C181.434 85.2829 181.733 85.117 181.456 85.117ZM173.033 75.6732C173.306 75.6732 172.667 75.1104 181.456 83.9945L185.865 79.5338L173.033 66.5628L160.205 79.5338L164.614 83.9914C173.285 75.2267 172.756 75.6732 173.033 75.6732Z" fill="black" fill-opacity="0.88"/>
<path d="M245.522 92.0803L230.926 96.2493C230.638 96.3299 230.349 96.1253 230.331 95.8245L229.726 86.5885L236.692 84.6009C236.906 84.5388 237.047 84.3373 237.032 84.114L236.514 76.2982C236.494 76.0021 236.21 75.7866 235.922 75.8734L229.156 77.7867L228.499 67.7119C228.481 67.4111 228.193 67.2064 227.904 67.2871L220.019 69.5383C219.807 69.6003 219.663 69.8019 219.678 70.0252L220.35 80.2736L213.361 82.2488C213.158 82.3078 213.017 82.4938 213.017 82.7078L213.06 90.7253C213.06 91.0338 213.355 91.2633 213.655 91.178L220.927 89.1002L222.105 107.121C222.123 107.422 222.412 107.626 222.7 107.546L246.295 100.809C246.506 100.747 246.651 100.546 246.635 100.322L246.117 92.5065C246.098 92.2058 245.807 91.9997 245.522 92.0803Z" fill="#F1C40F"/>
<path d="M247.1 100.285L246.582 92.4694C246.536 91.8693 245.965 91.4662 245.401 91.629L230.796 95.7888L230.216 86.9312L236.822 85.0458C237.248 84.9249 237.524 84.528 237.494 84.0815L236.975 76.2657C236.937 75.6719 236.369 75.2625 235.797 75.4253L229.578 77.1835L228.958 67.684C228.92 67.0855 228.344 66.6809 227.78 66.8437L219.895 69.0949C219.474 69.2127 219.192 69.6189 219.22 70.0593L219.864 79.9325L213.233 81.8054C212.831 81.917 212.555 82.2923 212.555 82.714L212.598 90.7313C212.605 91.3546 213.198 91.798 213.779 91.6275L220.505 89.708L221.646 107.155C221.679 107.657 222.094 108.033 222.57 108.033C222.758 108.033 222.59 108.089 246.427 101.256C246.847 101.135 247.129 100.729 247.102 100.288L247.1 100.285ZM222.562 107.09C221.36 88.7111 221.468 88.9173 221.191 88.7188C220.933 88.539 221.424 88.4754 213.52 90.7189L213.483 82.6954L220.473 80.7201C220.682 80.6612 220.823 80.4627 220.807 80.2426L220.145 69.9848L228.039 67.7429L228.696 77.813C228.716 78.1185 229.006 78.3092 229.279 78.2316L236.057 76.3277L236.569 84.1497L229.607 86.1373C229.398 86.1963 229.257 86.3947 229.272 86.6149L229.877 95.8509C229.915 96.4431 230.483 96.854 231.055 96.6912L245.651 92.5298L246.169 100.356L222.562 107.087V107.09Z" fill="black" fill-opacity="0.88"/>
<path d="M296.033 85.9497C292.381 88.756 284.205 93.1763 284.205 93.1763C284.205 93.1763 275.69 88.9048 271.658 86.5419L283.735 63.2016L296.033 85.9497Z" fill="#F1C40F"/>
<path d="M295.791 89.5436C291.995 92.4367 284.395 96.7454 284.327 96.4911C284.257 96.2275 275.344 91.9468 271.459 89.6707L284.333 110.628L295.791 89.5436Z" fill="#F1C40F"/>
<path d="M296.092 89.1994C295.457 88.6428 295.682 89.8429 284.435 95.9919C284.435 95.9919 273.775 90.4894 271.713 89.2862C271.279 88.9948 270.799 89.5142 271.072 89.9281L283.944 110.876C284.114 111.157 284.553 111.194 284.735 110.861L296.193 89.7762C296.297 89.5839 296.257 89.3421 296.092 89.1994ZM272.784 90.9514C272.784 90.9514 283.091 96.2756 283.749 96.6555L283.858 108.978L272.784 90.9514ZM284.778 108.845L284.674 96.7423C284.674 96.7423 292.36 92.5282 294.415 91.1111L284.778 108.845Z" fill="black" fill-opacity="0.88"/>
<path d="M296.435 85.7264L284.137 62.9799C283.97 62.6744 283.503 62.6434 283.324 62.9861L271.25 86.3264C271.136 86.5466 271.213 86.8195 271.428 86.9435C275.425 89.2847 283.913 93.5468 283.999 93.5903C284.125 93.6569 284.286 93.6583 284.419 93.5839C284.757 93.4009 292.67 89.1172 296.309 86.3202C296.49 86.1807 296.546 85.928 296.435 85.7264ZM294.791 84.6225L284.477 78.1184C284.39 70.836 284.327 67.1056 284.278 65.1769L294.791 84.6225ZM283.352 64.9489C283.407 67.1521 283.474 71.5244 283.553 78.0331L272.893 85.159L283.352 64.9489ZM272.541 86.514L283.566 79.1417L283.709 92.4026C281.72 91.3964 275.972 88.4707 272.541 86.514ZM284.491 79.2254L295.211 85.9869C292.078 88.2645 286.516 91.3762 284.634 92.4119L284.491 79.2254Z" fill="black" fill-opacity="0.88"/>
<path d="M355.332 88.2195C354.544 84.5139 352.323 82.0503 348.609 81.5324C350.858 79.675 351.965 77.509 351.192 73.8779C350.171 69.0762 346.378 66.0342 339.348 67.4513L336.116 68.1521L335.172 63.7132L330.372 64.7549L331.317 69.194L328.315 69.8452L327.371 65.4063L322.562 66.4513L323.507 70.89L319.889 71.6747L321.113 77.4408L324.697 76.6623L329.303 98.3237L325.719 99.102L326.943 104.868C328.222 104.589 329.418 104.332 330.546 104.09L331.46 108.389L336.259 107.347L335.345 103.051C336.443 102.815 337.44 102.604 338.345 102.406L339.256 106.693L344.065 105.648L343.154 101.361C347.533 100.387 348.292 100.124 349.864 99.4166C354.34 97.4041 356.283 92.7018 355.329 88.2195H355.332ZM331.257 75.2421C338.264 73.7211 340.252 73.1228 342.39 73.3662C343.669 73.6019 344.474 74.5012 344.801 76.0423C345.097 77.4408 344.859 78.5089 344.089 79.2469C342.534 80.7353 340.742 80.8392 332.813 82.5618L331.257 75.2421ZM347.034 93.8614C345.661 94.9575 344.135 95.1048 335.859 96.9002L333.978 88.052C341.555 86.4055 343.646 85.7417 345.463 86.1479C348.789 86.889 349.456 91.9264 347.034 93.8614Z" fill="#F1C40F"/>
<path d="M331.466 108.854C331.245 108.854 331.066 108.685 331.024 108.488L330.208 104.642L327.055 105.324C326.806 105.377 326.561 105.219 326.509 104.967L325.285 99.2013C325.234 98.9563 325.386 98.7036 325.637 98.6493L328.771 97.9702L324.358 77.2176C321.037 77.9416 321.108 77.9835 320.878 77.8347C320.648 77.6843 320.749 78.0176 319.451 71.7771C319.401 71.5321 319.553 71.2778 319.804 71.2251L322.97 70.5367L322.123 66.5536C322.071 66.3025 322.228 66.0544 322.476 66.0017L327.285 64.9567C327.533 64.904 327.779 65.0621 327.831 65.3133L328.677 69.2964L330.776 68.8405L329.929 64.8575C329.878 64.6078 330.033 64.3582 330.282 64.3055L335.081 63.2636C335.333 63.2109 335.575 63.369 335.627 63.6202L336.474 67.6033L339.253 66.9986C345.93 65.6528 350.441 68.1273 351.643 73.7818C352.313 76.9323 351.708 79.2192 349.619 81.2503C357.588 83.1651 358.588 96.0074 350.06 99.8447C348.491 100.55 347.674 100.831 343.709 101.718L344.525 105.553C344.575 105.806 344.417 106.053 344.172 106.105L339.363 107.15C339.115 107.203 338.87 107.045 338.817 106.794L338.001 102.96C337.348 103.102 336.649 103.251 335.9 103.409L336.716 107.25C336.768 107.501 336.612 107.749 336.363 107.802C331.914 108.757 331.621 108.853 331.466 108.853V108.854ZM330.558 103.615C330.769 103.615 330.96 103.774 331.006 103.991L331.822 107.834L335.722 106.988L334.906 103.147C334.854 102.887 335.021 102.646 335.262 102.595C338.52 101.905 338.383 101.871 338.606 102.015C338.828 102.16 338.745 102.026 339.621 106.141L343.528 105.291L342.712 101.457C342.66 101.206 342.816 100.961 343.061 100.905C347.327 99.9455 348.126 99.6897 349.683 98.9889C353.76 97.1532 355.857 92.8724 354.887 88.3141C354.108 84.6473 351.915 82.4565 348.545 81.9898C348.148 81.9356 348.005 81.4255 348.318 81.1681C350.712 79.2006 351.412 77.1106 350.744 73.9725C349.665 68.8855 345.543 66.6746 339.44 67.9056L336.216 68.6064C335.965 68.6591 335.722 68.501 335.67 68.2498L334.823 64.2667L330.923 65.1133L331.77 69.0964C331.822 69.3475 331.665 69.5956 331.417 69.6483L328.417 70.2995C328.168 70.3522 327.923 70.1941 327.871 69.9429L327.024 65.9598L323.117 66.8095C324.022 71.0654 324.047 70.9088 323.9 71.143C323.755 71.3724 323.804 71.3026 320.444 72.0329L321.478 76.8873L324.61 76.2051C324.861 76.1524 325.104 76.3152 325.156 76.5617C329.783 98.5501 329.858 98.3175 329.697 98.5734C329.556 98.7982 329.607 98.7315 326.277 99.454L327.308 104.308C330.102 103.701 330.438 103.615 330.558 103.615ZM335.866 97.3687C335.655 97.3687 335.461 97.2198 335.415 97.0028L333.535 88.1544C333.484 87.9079 333.636 87.6567 333.888 87.6024C341.535 85.959 343.64 85.269 345.566 85.6985C349.289 86.5264 350.036 92.0646 347.327 94.2306C346.56 94.8445 345.45 95.3004 343.936 95.6291C336.185 97.3128 336.021 97.3687 335.866 97.3687ZM334.526 88.4118L336.216 96.3516C343.726 94.719 345.465 94.5236 346.75 93.4988C348.882 91.7979 348.296 87.2567 345.367 86.604C343.742 86.2427 342.084 86.7714 334.526 88.4118ZM332.82 83.0302C332.587 83.0302 332.411 82.8596 332.369 82.6643L330.814 75.3446C330.762 75.0935 330.918 74.8454 331.167 74.7927C337.248 73.4872 339.997 72.6624 342.48 72.9136C343.492 73.1027 344.799 73.7818 345.259 75.9509C345.591 77.5137 345.307 78.737 344.416 79.5929C343.583 80.3913 342.403 80.9634 340.899 81.289C333.148 82.9697 332.975 83.0302 332.82 83.0302ZM331.805 75.602L333.17 82.0131C340.733 80.3696 342.361 80.2719 343.778 78.9122C344.43 78.2874 344.62 77.3835 344.354 76.1431C343.557 72.4221 340.451 73.7229 331.805 75.602Z" fill="black" fill-opacity="0.88"/>
</g>
<path d="M13.4635 85.3941C15.662 94.4384 24.6302 99.9658 33.4936 97.7407C42.3569 95.5157 47.7593 86.3792 45.5609 77.3349C43.3624 68.2906 34.3949 62.7631 25.5308 64.9882C16.6675 67.2133 11.265 76.349 13.4635 85.3941Z" fill="#00D1BC"/>
<path d="M34.3745 63.0927L42.5061 68.1046C42.7666 68.2653 43.1043 68.1802 43.2607 67.915L44.7079 65.4676C45.5818 63.9901 45.113 62.0642 43.6627 61.1701L39.846 58.8175C38.3958 57.9234 36.5084 58.3979 35.6345 59.8754L34.1872 62.3228C34.0302 62.5881 34.1142 62.9328 34.3745 63.0927Z" fill="#00D1BC"/>
<path d="M30.9993 95.677C23.2505 96.5003 16.3026 90.7597 15.4807 82.8548C14.6588 74.9499 20.274 67.8744 28.0229 67.0511C35.7718 66.2279 42.7196 71.9686 43.5415 79.8735C44.3634 87.7784 38.7482 94.8538 30.9993 95.677Z" fill="white"/>
<path d="M19.0355 80.4575L28.0325 81.0061C28.0149 81.0824 27.9707 81.3097 28.0026 81.5393L19.0062 80.9906C18.6628 80.972 18.6862 80.4388 19.0347 80.4576L19.0355 80.4575Z" fill="#573BD1"/>
<path d="M26.947 70.8192C27.1809 70.7601 27.4172 70.9055 27.4756 71.1442L29.5232 79.5665C30.8144 79.576 31.6527 80.9572 31.1055 82.1365L36.5412 86.7395C36.7276 86.8968 36.7532 87.1785 36.5991 87.3668C36.4416 87.557 36.1674 87.5802 35.9841 87.4247L30.5483 82.821C29.5252 83.5788 28.0986 83.0172 27.8007 81.7945C27.6015 80.9804 27.9836 80.1574 28.677 79.7793L26.6294 71.3577C26.571 71.119 26.7131 70.8783 26.947 70.8192ZM28.2742 81.675C28.4451 82.3707 29.1369 82.799 29.8187 82.626C30.4994 82.4554 30.9171 81.75 30.7484 81.054C30.5733 80.3386 29.8596 79.9313 29.2039 80.1029C28.5233 80.2735 28.1056 80.979 28.2742 81.675Z" fill="black"/>
<path d="M29.4054 80.8677C30.031 80.7156 30.2771 81.6996 29.6211 81.8616C29.4034 81.9153 29.0931 81.78 29.0256 81.4745C28.9664 81.2069 29.1266 80.93 29.4046 80.867L29.4054 80.8677Z" fill="black"/>
<path d="M17.2153 73.7879C21.3041 66.868 30.1202 64.6517 36.9177 68.8412C40.2932 70.9229 42.5725 74.2182 43.4431 77.868C45.5323 86.5487 39.6717 95.0117 30.996 95.9335C19.2515 97.1813 11.1209 84.0944 17.2153 73.7879ZM25.4397 94.8801L26.0142 92.8463C26.1019 92.5318 26.5719 92.6657 26.4832 92.9848L25.9082 95.0201C28.077 95.6235 30.3666 95.6773 32.611 95.1552L32.1123 93.1029C32.0367 92.7827 32.5088 92.6633 32.5872 92.9825L33.086 95.0355C35.3128 94.4349 37.315 93.3035 38.9589 91.7427L37.5178 90.2142C37.2961 89.9772 37.6434 89.6328 37.8696 89.8708L39.3091 91.3981C40.903 89.7719 42.1035 87.7438 42.7703 85.5461L40.7766 84.9562C40.4681 84.8661 40.5985 84.387 40.9116 84.4781L42.906 85.0687C43.4934 82.8571 43.5417 80.5211 43.0255 78.2303C42.9942 78.238 41.0116 78.7375 40.9798 78.7409C40.6788 78.7729 40.6018 78.327 40.8954 78.2518L42.9073 77.747C42.3142 75.4747 41.2012 73.4304 39.6678 71.7509C38.044 73.343 38.1468 73.2718 38.0292 73.285C37.7953 73.3091 37.6688 73.0196 37.8345 72.8583L39.3292 71.393C37.7316 69.7627 35.7403 68.536 33.5835 67.8518L33.0091 69.8855C32.9192 70.2003 32.452 70.0653 32.5401 69.7478L33.1152 67.7132C30.9345 67.1074 28.6483 67.0592 26.4109 67.5783L26.9094 69.6284C26.9887 69.9482 26.5151 70.0678 26.4359 69.7486L25.9373 67.6971C23.7113 68.2976 21.709 69.429 20.0659 70.9897L21.507 72.5183C21.7287 72.756 21.3825 73.0965 21.1552 72.8616L19.7157 71.3344C18.1217 72.9598 16.9214 74.9894 16.2544 77.1863L18.2496 77.7761C18.5055 77.8509 18.4744 78.2331 18.2082 78.2622C18.1266 78.2708 18.2811 78.3036 16.1187 77.6638C15.5314 79.8754 15.4832 82.2121 15.9994 84.5029L18.0071 83.9993C18.3191 83.9192 18.4408 84.4021 18.1259 84.4825L16.1175 84.9862C16.7105 87.2577 17.8235 89.3013 19.3561 90.9802L20.8494 89.5151C21.0814 89.2902 21.421 89.6442 21.1889 89.875L19.6964 91.3401C21.2931 92.969 23.2853 94.1971 25.4406 94.8815L25.4397 94.8801Z" fill="black"/>
<path d="M6.84087 70.4206L9.14026 66.5323C10.0141 65.0548 11.9016 64.5811 13.3518 65.4744L15.7548 66.9551C16.0152 67.1158 16.0985 67.4606 15.9421 67.7251L11.0437 76.0092C10.8866 76.2745 10.5495 76.3587 10.2891 76.1988L7.88682 74.718C6.43654 73.8239 5.96847 71.8979 6.84231 70.4205L6.84087 70.4206Z" fill="#00D1BC"/>
<path d="M6.6252 70.2909L8.92546 66.404C9.86665 64.8092 11.907 64.2969 13.4727 65.2621L15.8765 66.7434C16.2424 66.9711 16.3788 67.462 16.1469 67.8567L14.4006 70.8107L15.1078 71.2463C18.0024 67.3632 21.3752 65.7759 25.4736 64.7464C29.2697 63.7914 33.1883 64.2051 36.6761 65.8997L37.1496 65.099L34.2507 63.3128C33.8756 63.081 33.7551 62.5816 33.981 62.1995L35.4281 59.7507C36.3848 58.1297 38.4299 57.6556 39.9753 58.6088L43.7914 60.9622C45.3599 61.9271 45.8643 64.0056 44.9197 65.6022L43.4725 68.0511C43.2451 68.4326 42.7587 68.555 42.383 68.3247L39.481 66.5367L39.0348 67.2913C46.8004 72.7485 48.7486 83.8428 42.877 91.7441L45.336 95.5252C45.4306 95.6692 45.353 95.8636 45.1915 95.9038C45.1602 95.9116 44.1526 96.166 44.1209 96.1694C43.9816 96.1842 44.2133 96.3211 40.9639 93.9082C36.5044 98.1541 30.0329 99.324 24.9429 98.271C23.3863 101.498 23.4999 101.349 23.3421 101.39C23.3137 101.397 22.3018 101.652 22.273 101.655C22.1178 101.672 21.9902 101.539 22.0046 101.383L22.384 97.5222C13.1098 93.9717 8.90006 82.6808 13.6439 73.583L12.9991 73.1855L11.2514 76.1412C11.1173 76.3669 10.892 76.5018 10.653 76.5271C10.3059 76.564 10.3918 76.5549 7.75651 74.9321C6.19172 73.9683 5.68489 71.8871 6.62824 70.2921L6.6252 70.2909ZM42.6276 67.8982C42.774 67.9868 42.9618 67.9393 43.0487 67.7924L44.4965 65.3435C45.2968 63.9937 44.8822 62.2168 43.5357 61.3877L39.7204 59.0341C38.3995 58.2194 36.6544 58.6311 35.8402 60.0084L34.3931 62.4573C34.3072 62.6063 34.3534 62.798 34.4976 62.8869L42.6291 67.898L42.6276 67.8982ZM13.699 85.3355C15.8631 94.2316 24.7109 99.6892 33.4327 97.4985C37.6564 96.4393 41.2196 93.7642 43.4642 89.9666C48.1086 82.1092 45.629 71.9052 37.9175 67.1502C34.1468 64.8254 29.7593 64.1846 25.5875 65.2308C16.8693 67.4211 11.537 76.4384 13.6997 85.3347L13.699 85.3355ZM8.00354 74.5076L10.4073 75.989C10.5515 76.0771 10.7415 76.0301 10.8276 75.8833C15.8227 67.405 15.8068 67.5615 15.7608 67.3647C15.7129 67.177 15.8377 67.3037 13.2181 65.6911C11.8834 64.8696 10.146 65.3066 9.34155 66.665L7.04129 70.5519C6.23824 71.9102 6.6701 73.6845 8.00354 74.5076Z" fill="black"/>
<path d="M7.49331 38.4071L19.6414 48.2413L15.6359 48.9572L23.2786 57.0293L8.13575 46.7755L12.7187 45.7102L7.49331 38.4071Z" fill="#F1C40F"/>
<path d="M23.3044 57.2774C23.5058 57.256 23.5965 57.0059 23.4553 56.8549L16.1324 49.1211L19.6844 48.4861C19.8928 48.4483 19.9581 48.1779 19.7949 48.0463L7.64739 38.2114C7.42663 38.0323 7.13139 38.3161 7.29832 38.5529L12.3058 45.5501L8.0827 46.5318C7.87261 46.5817 7.82379 46.863 8.00115 46.9827C23.2906 57.2573 23.1665 57.292 23.3044 57.2774ZM19.0638 48.0897L15.5928 48.7109C15.3981 48.7472 15.326 48.9871 15.4604 49.1292L21.544 55.5557L8.746 46.8894L12.7739 45.953C12.9497 45.9105 13.0143 45.7034 12.9156 45.562L8.75157 39.7422L19.0638 48.0897Z" fill="black"/>
<path d="M29.8038 57.2837L31.4714 46.7924L29.0306 48.2257L28.9245 42.1453L26.0002 52.7827L28.9016 51.2737L29.8038 57.2837Z" fill="#F1C40F"/>
<path d="M30.0451 57.3243L31.7126 46.8323C31.7456 46.6226 31.5234 46.472 31.3488 46.5754L29.2664 47.7994L29.1677 42.141C29.1628 41.8549 28.7621 41.8052 28.6889 42.0773L25.7646 52.7147C25.7066 52.9219 25.9224 53.1022 26.1121 53.0039L28.7122 51.6497L29.5652 57.3195C29.6052 57.5922 29.9992 57.6054 30.0451 57.3243ZM31.1492 47.2666L29.8119 55.6846L29.1442 51.2353C29.1197 51.0697 28.9407 50.9696 28.7916 51.0509L26.3879 52.3016L28.7111 43.8489C28.7928 48.5227 28.7372 48.3388 28.9113 48.4409C29.0878 48.545 29.0462 48.5032 31.1492 47.2666Z" fill="black"/>
<defs>
<linearGradient id="paint0_linear_1_1810" x1="102.837" y1="143.482" x2="118.464" y2="118.907" gradientUnits="userSpaceOnUse">
<stop offset="0.08" stop-color="#9945FF"/>
<stop offset="0.3" stop-color="#8752F3"/>
<stop offset="0.5" stop-color="#5497D5"/>
<stop offset="0.6" stop-color="#43B4CA"/>
<stop offset="0.72" stop-color="#28E0B9"/>
<stop offset="0.97" stop-color="#19FB9B"/>
</linearGradient>
<linearGradient id="paint1_linear_1_1810" x1="142.945" y1="123.926" x2="129.711" y2="130.11" gradientUnits="userSpaceOnUse">
<stop offset="0.08" stop-color="#9945FF"/>
<stop offset="0.3" stop-color="#8752F3"/>
<stop offset="0.5" stop-color="#5497D5"/>
<stop offset="0.6" stop-color="#43B4CA"/>
<stop offset="0.72" stop-color="#28E0B9"/>
<stop offset="0.97" stop-color="#19FB9B"/>
</linearGradient>
<clipPath id="clip0_1_1810">
<rect width="291.425" height="289.933" fill="white" transform="translate(84.5753)"/>
</clipPath>
</defs>
</svg>
