<svg xmlns="http://www.w3.org/2000/svg" width="115.014" height="105.355" viewBox="0 0 115.014 105.355">
    <path data-name="hand drow down" d="M0 3.03C10.147.28 44.147-5.834 44.876 14.676c.206 5.809-6.3 15.225-13.2 11.941-9.2-4.38.339-15.887 6.6-17.248C54.769 5.784 69.7 22.795 73.84 37.01c3.476 11.938.665 25.026-3.593 36.339-2 5.307-6 8.93-8.213 13.931-3.421 7.737 4.96-.73 9.166-2.58 8.594-3.78-5.55 1.923-8.506 3.243-4.877 2.179-6.973-11.077-8.579-15.921" transform="rotate(73 42.43 62.53)" style="fill:none;stroke:#573bd1;stroke-linecap:round;stroke-width:5px"/>
</svg>
