<svg xmlns="http://www.w3.org/2000/svg" width="81" height="82" viewBox="0 0 81 82">
    <g data-name="Group 2388">
        <g data-name="Group 2387">
            <path data-name="Path 5198" d="M44.309 9.7a27.768 27.768 0 0 0-10.2 1.395c1.905 1.873 2.5 3.9 3.175 6.575a2.742 2.742 0 0 1 .716-.638 11.521 11.521 0 0 1 3.175-1.992c.476-.2.516-.159.516.359V34.4c0 .638 0 .638-.6.638-3.215 0-6.39-.239-9.565-.319-.4 0-.833-.04-1.23-.08a14.92 14.92 0 0 1-19.884-3.028A36.355 36.355 0 0 0 7.2 46.6c-.079 20.321 16.63 37.216 36.872 37.1a35.666 35.666 0 0 0 20.123-5.937l-4.089-19.571 16.828 5.459a36.36 36.36 0 0 0 4.128-16.735A37.043 37.043 0 0 0 44.309 9.7zM13.867 57.754A36.494 36.494 0 0 1 12.28 51.3c-.2-1.514-.278-2.988-.357-4.343a34.366 34.366 0 0 1 1.349-9.324c.119-.359.238-.478.635-.4 2.262.558 4.564.916 6.866 1.275.794.12 1.627.239 2.421.319.437.04.516.2.476.6-.119 1-.238 1.952-.318 2.949a57.036 57.036 0 0 0-.079 7.371 56.23 56.23 0 0 0 .6 5.738c.2 1.235.2 1.275-1.072 1.434a81.339 81.339 0 0 0-8.176 1.355.635.635 0 0 1-.758-.52zm14.606 17.173A32.834 32.834 0 0 1 18 65.563c-.6-.8-1.072-1.634-1.627-2.47-.238-.4 0-.438.278-.478 2.1-.438 4.247-.717 6.35-1 .556-.08 1.151-.12 1.707-.2.278-.04.476.04.516.359a42.229 42.229 0 0 0 2.176 6.18 38.651 38.651 0 0 0 3.016 5.658 30.023 30.023 0 0 0 2.1 2.909c.079.08.119.2.2.279a20.253 20.253 0 0 1-4.243-1.873zm13.257 3.108c0 .558 0 .6-.516.4a11.855 11.855 0 0 1-4.445-3.227 29.171 29.171 0 0 1-5.715-9.922c-.476-1.235-.833-2.47-1.191-3.745-.159-.558-.119-.558.437-.6 2.977-.239 5.953-.319 8.93-.4.635 0 1.23-.04 1.826-.08.675 0 .675 0 .675.677v16.897zm-.6-22.313c-2.342-.04-4.683.08-7.065.2-1.667.08-3.294.159-4.961.279-.357.04-.476-.08-.516-.4-.238-2.072-.476-4.144-.6-6.216a55.526 55.526 0 0 1 .04-6.3c.079-1.156.2-2.351.278-3.506.04-.4.159-.518.6-.478 3.215.2 6.39.438 9.6.438.913 0 1.826.08 2.7.08.4 0 .476.159.476.518v14.827c.087.436-.072.558-.548.558zm5.358-30.761v-9.523c0-.6 0-.6.6-.4a11.963 11.963 0 0 1 4.723 3.467 28.829 28.829 0 0 1 5.16 9.125 45.023 45.023 0 0 1 1.865 6.375c.119.558.119.6-.437.638-2.54.2-5.08.279-7.62.4-1.23.04-2.5.04-3.731.08-.437 0-.556-.12-.556-.558zM58.4 61.34a36.517 36.517 0 0 1-5.12 11.754 14.856 14.856 0 0 1-5.4 5.021c-.318.159-.635.239-.913.4-.4.2-.476.04-.476-.319V61.18c0-.677 0-.677.635-.677 2.937.08 5.874.2 8.851.279.714.04 1.389.12 2.1.159.282 0 .402.12.323.399zm1.667-11.316a54.288 54.288 0 0 1-.556 5.7c-.079.4-.2.558-.635.518-1.31-.12-2.62-.159-3.89-.239a133.947 133.947 0 0 0-8.017-.239c-.437 0-.476-.2-.476-.558V40.5c0-.638 0-.6.6-.638 2.58-.08 5.16-.12 7.739-.2 1.469-.04 2.977-.2 4.445-.319.318-.04.437.04.476.359.2 1.833.357 3.626.4 5.5-.007 1.598-.007 3.188-.087 4.822zm3.572-16.5a59.345 59.345 0 0 0-1.826-6.933 38.028 38.028 0 0 0-4.366-9.045c-.04-.08-.079-.12-.2-.319a31.878 31.878 0 0 1 14.17 12.316c.476.757.913 1.554 1.349 2.311.278.478.238.518-.278.677-1.667.438-3.334.757-5.041 1.036-1.032.159-2.024.319-3.056.438-.435.08-.634.001-.753-.477zm10.8 24.306-.119.239c-.079.4-.278.438-.675.319a57.832 57.832 0 0 0-8.176-1.514c-.119 0-.278-.04-.4-.04-.953-.159-.873 0-.754-1.036.318-2.231.437-4.463.556-6.734a67.988 67.988 0 0 0-.318-9.842c-.04-.478.2-.518.516-.558 1.786-.239 3.572-.478 5.358-.837a33.38 33.38 0 0 0 4.048-1c.278-.08.4-.04.476.239a30.168 30.168 0 0 1 1.31 6.734c.079.956.119 1.913.2 2.869a34.238 34.238 0 0 1-2.027 11.164z" transform="translate(-6.396 -6.085)" style="stroke:#fff;stroke-width:1.5px;fill:#00cfb7"/>
            <path data-name="Path 5198 - Outline" d="M43.113 7.7a37.384 37.384 0 0 1 21.06 6.582 38.112 38.112 0 0 1 13.6 16.739 37.578 37.578 0 0 1 2.891 14.7 36.591 36.591 0 0 1-1.106 8.9 38.007 38.007 0 0 1-3.112 8.2l-.31.6-16.165-5.243 3.919 18.754-.452.3A36.467 36.467 0 0 1 43.266 83.3h-.605a36.614 36.614 0 0 1-14.51-2.995A37.635 37.635 0 0 1 21.8 76.8 38.325 38.325 0 0 1 8.144 60.1a37.536 37.536 0 0 1 .342-30.01l.53-1.176.81 1a14.133 14.133 0 0 0 18.833 2.868l.237-.158.283.028c.365.037.785.076 1.152.076h.02c1.273.032 2.564.09 3.812.146 1.812.082 3.684.166 5.537.172V14.837a10.822 10.822 0 0 0-2.375 1.593l-.016.014-.017.013a6.74 6.74 0 0 1-.369.276l-.082.089-.168.184-.993 1.08-.36-1.424c-.669-2.645-1.236-4.506-2.962-6.2l-.929-.913 1.233-.413A28.472 28.472 0 0 1 43.113 7.7zm32.232 53.789a35.746 35.746 0 0 0 3.736-15.77A36.255 36.255 0 0 0 43.112 9.294a27.894 27.894 0 0 0-8.783.986 10.194 10.194 0 0 1 1.357 2.279 18.24 18.24 0 0 1 .84 2.457 12.231 12.231 0 0 1 3.147-1.916 1.722 1.722 0 0 1 .663-.172.917.917 0 0 1 .894.686 2.112 2.112 0 0 1 .057.581v19.01a1.459 1.459 0 0 1-.289 1.1 1.339 1.339 0 0 1-1.1.332c-1.953 0-3.912-.088-5.807-.174a193.302 193.302 0 0 0-3.771-.145c-.338 0-.691-.026-1.019-.057a15.543 15.543 0 0 1-8.023 2.481c.266.033.532.064.793.09a1.255 1.255 0 0 1 .943.438 1.339 1.339 0 0 1 .247 1.032v.016l-.035.289c-.108.9-.209 1.745-.28 2.628a55.9 55.9 0 0 0-.078 7.271v.005a55.922 55.922 0 0 0 .587 5.651 7.411 7.411 0 0 1 .1.813 1.375 1.375 0 0 1-.241.91c-.345.463-.907.534-1.619.623a81.206 81.206 0 0 0-8.1 1.34l-.051.012-.052.005c-.065.007-.13.01-.192.01a1.407 1.407 0 0 1-1.4-1.077 37 37 0 0 1-1.618-6.586v-.011c-.191-1.458-.275-2.9-.349-4.171l-.015-.263v-.033a34.927 34.927 0 0 1 1.384-9.54l.006-.018a1.59 1.59 0 0 1 .34-.617 1.13 1.13 0 0 1 .845-.35 1.817 1.817 0 0 1 .359.039l.034.008c.834.206 1.68.385 2.531.547a15.634 15.634 0 0 1-5.982-3.922A35.436 35.436 0 0 0 6.788 45.4a36.016 36.016 0 0 0 10.583 25.652 35.443 35.443 0 0 0 25.29 10.654h.605a34.934 34.934 0 0 0 18.847-5.515l-4.252-20.345a2 2 0 0 1-.251-.008c-.843-.077-1.7-.121-2.534-.164-.438-.022-.891-.046-1.332-.073-2.669-.16-5.276-.238-7.972-.238a1.193 1.193 0 0 1-1.057-.491 1.486 1.486 0 0 1-.213-.864V39.3a1.5 1.5 0 0 1 .233-1.023 1.235 1.235 0 0 1 1.008-.4l.1-.006h.028c1.293-.04 2.607-.07 3.877-.1s2.577-.06 3.865-.1c1.095-.03 2.237-.129 3.342-.226.343-.03.7-.061 1.046-.089a1.82 1.82 0 0 1 .213-.013 1.08 1.08 0 0 1 .822.337 1.3 1.3 0 0 1 .309.73v.013c.174 1.609.358 3.53.4 5.569v.017c0 1.576 0 3.205-.08 4.858a55.284 55.284 0 0 1-.564 5.781l-.007.039a1.59 1.59 0 0 1-.346.774 1.179 1.179 0 0 1-.816.386zm-53.7-23.1a49.85 49.85 0 0 1-2.2-.3c-2.2-.342-4.467-.7-6.684-1.228a33.635 33.635 0 0 0-1.253 8.875l.012.2c.076 1.3.155 2.652.338 4.051a35.393 35.393 0 0 0 1.54 6.269c2.686-.623 5.433-.983 8.091-1.331.122-.015.306-.038.455-.063-.017-.136-.045-.305-.069-.454v-.012a58.39 58.39 0 0 1-.522-13.292c.073-.914.176-1.777.286-2.69zm36.51 5.62c-.039-1.819-.195-3.553-.352-5.044l-.716.062c-1.128.1-2.294.2-3.436.231-1.293.04-2.605.07-3.874.1-1.21.028-2.459.057-3.691.094V53.77c2.615.006 5.154.085 7.749.24.433.027.882.05 1.317.073.783.04 1.591.082 2.4.151a53.427 53.427 0 0 0 .522-5.439v-.006c.085-1.612.085-3.22.085-4.775zM45.448 12.921a2.172 2.172 0 0 1 .695.16l.033.012a11.487 11.487 0 0 1 2.762 1.54 14.7 14.7 0 0 1 2.277 2.147 24.79 24.79 0 0 1 3.094 4.463 36.564 36.564 0 0 1 2.211 4.9 45.555 45.555 0 0 1 1.9 6.486v.006a1.327 1.327 0 0 1-.112 1.167 1.3 1.3 0 0 1-1.042.433c-1.918.15-3.862.234-5.741.315-.624.027-1.269.055-1.9.085h-.012c-.622.02-1.261.03-1.879.04s-1.244.02-1.853.04h-.026a1.216 1.216 0 0 1-1.35-1.355V14.236a2.562 2.562 0 0 1 .04-.581.91.91 0 0 1 .903-.734zM56.8 32.676a43.386 43.386 0 0 0-1.764-5.96v-.007a27.672 27.672 0 0 0-5.013-8.878 11.353 11.353 0 0 0-3.926-3.044v18.331c.538-.015 1.084-.024 1.615-.032.61-.01 1.24-.02 1.847-.039.635-.03 1.279-.058 1.9-.085 1.75-.076 3.56-.154 5.341-.286zm-2.734-18.425 2.316 1.049a32.346 32.346 0 0 1 4.595 2.491 33.927 33.927 0 0 1 5.508 4.51A32.394 32.394 0 0 1 70.9 27.92c.358.57.693 1.158 1.016 1.727.114.2.232.408.347.607a1.289 1.289 0 0 1 .214 1.143 1.272 1.272 0 0 1-.945.7l-.032.003c-1.5.394-3.078.719-5.115 1.052h-.007l-.363.056c-.916.142-1.783.277-2.7.383a2.136 2.136 0 0 1-.365.035 1.224 1.224 0 0 1-.873-.339 1.592 1.592 0 0 1-.4-.77l-.008-.034a58.147 58.147 0 0 0-1.8-6.836A36.886 36.886 0 0 0 55.6 16.8l-.031-.045-.021-.043-.023-.035c-.032-.048-.08-.12-.149-.236zm16.6 16.42-.133-.234a43.64 43.64 0 0 0-.982-1.669 31.271 31.271 0 0 0-9.449-9.639c-.606-.4-1.225-.773-1.892-1.139a42.694 42.694 0 0 1 3.157 7.143v.011a59.523 59.523 0 0 1 1.818 6.863c.866-.1 1.7-.232 2.581-.368l.361-.056a56.096 56.096 0 0 0 4.544-.912zM73.49 34.8a1.047 1.047 0 0 1 1.032.844 30.988 30.988 0 0 1 1.341 6.9c.04.485.071.973.1 1.446s.059.948.1 1.418v.092a37.459 37.459 0 0 1-.563 5.8 33.68 33.68 0 0 1-1.51 5.608l-.015.042-.1.2a1.267 1.267 0 0 1-.31.574 1.083 1.083 0 0 1-.8.327 1.858 1.858 0 0 1-.532-.089 56.622 56.622 0 0 0-8.019-1.486 2.462 2.462 0 0 1-.255-.027c-.03 0-.074-.011-.092-.012h-.06l-.065-.011c-.109-.018-.205-.032-.29-.045a1.3 1.3 0 0 1-1.029-.5 1.528 1.528 0 0 1-.124-1.115c.009-.074.02-.158.03-.251v-.021c.316-2.22.434-4.479.549-6.664v-.007a67.727 67.727 0 0 0-.316-9.727 1.227 1.227 0 0 1 .423-1.137 1.491 1.491 0 0 1 .782-.279c1.743-.233 3.545-.475 5.305-.828a32.319 32.319 0 0 0 3.954-.971l.033-.01a1.514 1.514 0 0 1 .431-.071zm.985 10.7c-.039-.473-.068-.949-.1-1.409s-.059-.948-.1-1.418v-.01a29.024 29.024 0 0 0-1.152-6.142 37.577 37.577 0 0 1-3.736.89c-1.746.351-3.508.591-5.217.82a67.549 67.549 0 0 1 .3 9.683c-.116 2.215-.236 4.506-.561 6.791l-.015.13.06.01c.086 0 .166.016.233.026.03 0 .074.011.092.012h.04l.046.005a58.446 58.446 0 0 1 8.121 1.491l.029-.059a33.252 33.252 0 0 0 1.96-10.82zm-46.909-8.2c.064 0 .13 0 .2.009l1.428.09c2.659.17 5.409.346 8.119.346.479 0 .955.021 1.415.041s.871.038 1.285.038a1.223 1.223 0 0 1 1 .415 1.362 1.362 0 0 1 .27.9V53.9a1.585 1.585 0 0 1 .011.408 1.1 1.1 0 0 1-.244.589 1.4 1.4 0 0 1-1.116.423h-.013c-.3-.005-.613-.008-.928-.008-1.98 0-3.931.1-6 .2h-.088c-1.751.084-3.33.162-4.932.277a1.847 1.847 0 0 1-.192.01 1.133 1.133 0 0 1-.866-.354 1.338 1.338 0 0 1-.316-.75v.005c-.236-2.049-.479-4.167-.6-6.262a55.893 55.893 0 0 1 .04-6.388v-.01c.04-.584.091-1.185.14-1.766s.1-1.169.138-1.741v-.024a1.406 1.406 0 0 1 .315-.824 1.178 1.178 0 0 1 .934-.385zM39.7 39.419c-.347-.006-.7-.022-1.037-.037-.443-.02-.9-.04-1.345-.04-2.761 0-5.536-.177-8.22-.349l-1.21-.077c-.036.5-.079 1-.12 1.489-.048.573-.1 1.166-.138 1.736a54.331 54.331 0 0 0-.039 6.2c.111 1.939.333 3.92.554 5.845 1.524-.105 3.031-.18 4.689-.26h.086c1.994-.1 4.056-.2 6.076-.2h.7zm.132 19.052h.026a1.211 1.211 0 0 1 1.469 1.475v16.9a2.586 2.586 0 0 1-.037.563.9.9 0 0 1-.9.742 1.816 1.816 0 0 1-.657-.163 12.618 12.618 0 0 1-4.745-3.432 24.552 24.552 0 0 1-3.459-4.83 38.787 38.787 0 0 1-2.416-5.35c-.489-1.27-.853-2.528-1.213-3.813a1.284 1.284 0 0 1 .059-1.16 1 1 0 0 1 .659-.4 3.6 3.6 0 0 1 .418-.045h.005c3-.241 6.034-.322 8.971-.4h.021c.609 0 1.174-.038 1.773-.078zm-.093 17.785v-16.18c-.542.036-1.1.07-1.7.07-2.792.075-5.674.152-8.508.367.315 1.115.642 2.209 1.059 3.291v.009a28.245 28.245 0 0 0 5.554 9.659v.005a11.442 11.442 0 0 0 3.594 2.78zm6.193-17.746h.021c1.447.039 2.92.089 4.344.137 1.474.05 3 .1 4.509.142h.023c.369.021.728.051 1.076.081s.671.058 1.01.077a1.055 1.055 0 0 1 1.058 1.406 46.934 46.934 0 0 1-2.074 6.2 31.142 31.142 0 0 1-3.162 5.8 19.058 19.058 0 0 1-2.489 2.974 13.352 13.352 0 0 1-3.2 2.3c-.179.09-.349.156-.5.214a2.9 2.9 0 0 0-.374.164l-.019.011-.02.01a1.388 1.388 0 0 1-.631.171.956.956 0 0 1-.89-.591A1.544 1.544 0 0 1 44.5 77V59.986a1.511 1.511 0 0 1 .3-1.139 1.39 1.39 0 0 1 1.131-.335zm8.82 1.872a665.593 665.593 0 0 1-4.509-.142c-1.362-.046-2.769-.094-4.153-.132v16.208c.083-.033.163-.067.238-.1a13.9 13.9 0 0 0 5.1-4.763A34.861 34.861 0 0 0 56.286 60.5l-.517-.043c-.348-.025-.676-.057-1.017-.073zm-31.128-.965a1.143 1.143 0 0 1 1.172 1 41.594 41.594 0 0 0 2.13 6.014 37.294 37.294 0 0 0 2.953 5.541l.008.012a29.048 29.048 0 0 0 2.03 2.811 1.5 1.5 0 0 1 .185.258l.021.034a.351.351 0 0 0-.041-.048l-.782 1.335a20.7 20.7 0 0 1-4.414-1.943A33.531 33.531 0 0 1 21 70.215a34.518 34.518 0 0 1-4.844-5.371c-.4-.538-.751-1.093-1.09-1.629-.181-.287-.368-.584-.561-.874l-.02-.032a1.111 1.111 0 0 1-.119-1.086 1.13 1.13 0 0 1 .941-.588c2.06-.428 4.159-.706 6.19-.975l.191-.025c.292-.042.591-.073.88-.1s.56-.058.823-.1a1.665 1.665 0 0 1 .233-.016zm4.929 13.437a38.824 38.824 0 0 1-3.077-5.768v-.005a43.478 43.478 0 0 1-2.153-6.029c-.2.024-.4.045-.591.065-.288.03-.56.058-.823.1H21.9l-.2.026c-1.8.239-3.662.485-5.477.836l.181.286c.337.535.656 1.04 1.021 1.529l.006.007a32.144 32.144 0 0 0 10.231 9.139c.553.31 1.068.58 1.556.816q-.34-.49-.665-1z" transform="translate(-5.199 -4.888)" style="fill:none"/>
            <path data-name="Path 5199" d="M43.891 83.6h-.516a36.554 36.554 0 0 1-26.04-10.919 37.3 37.3 0 0 1-7.78-41.722l.278-.6.4.518A14.42 14.42 0 0 0 21.5 36.256a14.142 14.142 0 0 0 8.058-2.471l.119-.08.278.04a9.7 9.7 0 0 0 1.072.08c1.191.04 2.382.08 3.533.159 1.985.08 4.009.2 6.034.159h.2V14.9a11.468 11.468 0 0 0-3.057 1.913 3.1 3.1 0 0 1-.4.319c-.04.04-.04.04-.278.319l-.516.558-.159-.757c-.635-2.59-1.231-4.543-3.057-6.376l-.437-.438.6-.2A28.061 28.061 0 0 1 43.812 8.8a37.48 37.48 0 0 1 37.194 37.578 37.589 37.589 0 0 1-4.168 16.936l-.159.279-16.553-5.3 3.811 18.251 4.049-3.586.357.558-.238.12a31.594 31.594 0 0 1-4.005 3.306v.279l-.675.677A34.431 34.431 0 0 1 43.891 83.6zm-.318-.8a35.382 35.382 0 0 0 19.689-5.738L59.094 57.1l17.148 5.539a36.448 36.448 0 0 0-6.669-42.16A36.162 36.162 0 0 0 43.772 9.6a27.329 27.329 0 0 0-9.447 1.2 12.493 12.493 0 0 1 2.7 5.659 2.926 2.926 0 0 0 .238-.2 12.282 12.282 0 0 1 3.295-2.072c.278-.12.556-.239.794-.04.238.159.238.478.238.8v18.998c0 .837-.159 1.036-.992 1.036-2.064 0-4.089-.08-6.073-.159-1.151-.04-2.342-.12-3.533-.159a9.721 9.721 0 0 1-1.111-.08 15.266 15.266 0 0 1-19.847-2.67A35.326 35.326 0 0 0 7.094 46.1a36.486 36.486 0 0 0 10.8 26.021A35.831 35.831 0 0 0 43.574 82.8zm2.58-4.344a1.223 1.223 0 0 1-.318-.08.839.839 0 0 1-.278-.717V60.643c0-.438 0-.677.2-.877a1.1 1.1 0 0 1 .834-.2h.119c2.9.08 5.8.2 8.693.279.4 0 .834.04 1.231.08.278.04.6.04.873.08a.794.794 0 0 1 .6.279.983.983 0 0 1 .079.638A36.95 36.95 0 0 1 53.021 72.8a15.166 15.166 0 0 1-5.521 5.138 1.99 1.99 0 0 1-.516.2 2.123 2.123 0 0 0-.437.2.656.656 0 0 1-.393.118zm.2-18.131v17.214c.119-.04.278-.12.4-.159a2.124 2.124 0 0 0 .437-.2 14.586 14.586 0 0 0 5.24-4.862 36.235 36.235 0 0 0 5.041-11.556 5.9 5.9 0 0 1-.834-.08c-.4-.04-.794-.08-1.191-.08-2.9-.12-5.8-.2-8.693-.279h-.4zm-5.28 18.051a1.7 1.7 0 0 1-.556-.159 12.448 12.448 0 0 1-4.6-3.307 29.9 29.9 0 0 1-5.8-10.082 50.923 50.923 0 0 1-1.191-3.786c-.079-.319-.159-.6 0-.8.159-.239.4-.239.754-.279 3.1-.279 6.232-.319 8.971-.4a7 7 0 0 0 .913-.04c.318 0 .635-.04.913-.04.4 0 .675 0 .873.2s.2.478.2.877v16.9c0 .359 0 .638-.238.8-.041.116-.16.116-.239.116zM29.68 60.8c0 .04 0 .04.04.08.318 1.116.715 2.431 1.191 3.706a28.914 28.914 0 0 0 5.637 9.8 12.093 12.093 0 0 0 4.287 3.114V60.325h-.278a7 7 0 0 0-.913.04c-.318 0-.635.04-.913.04-2.7.04-5.835.12-8.892.4zm3.453 16.179-1.072-.319a23.147 23.147 0 0 1-4.361-1.91 32.686 32.686 0 0 1-10.6-9.484c-.357-.478-.675-1.036-1.032-1.514-.2-.319-.4-.638-.635-.956a.71.71 0 0 1-.119-.677.809.809 0 0 1 .635-.4c1.945-.4 3.93-.677 5.875-.956l.556-.08.953-.12c.238-.04.516-.04.754-.08a.768.768 0 0 1 .953.638 40.827 40.827 0 0 0 2.144 6.137 39.572 39.572 0 0 0 2.977 5.619 25.553 25.553 0 0 0 2.1 2.869.834.834 0 0 1 .159.239zM16.224 62.437c.2.279.357.558.556.837.318.478.635 1 .992 1.474a32.478 32.478 0 0 0 10.36 9.245 22.219 22.219 0 0 0 2.977 1.435c-.516-.677-.992-1.395-1.548-2.192A37.246 37.246 0 0 1 26.5 67.5a45.65 45.65 0 0 1-2.183-6.256c0-.04 0-.04-.04-.08H24.2c-.238.04-.516.04-.754.08-.318.04-.635.08-.913.12l-.556.08c-1.903.356-3.848.594-5.753.993zm57.2-4.1c-.119 0-.278-.04-.4-.04a57.011 57.011 0 0 0-8.137-1.514 7817.8 7817.8 0 0 0-.4-.08.983.983 0 0 0-.318-.04.983.983 0 0 1-.715-.279c-.159-.2-.119-.478-.079-.877l.04-.279c.318-2.232.437-4.5.556-6.695a66.9 66.9 0 0 0-.318-9.763.841.841 0 0 1 .834-1 80.337 80.337 0 0 0 5.359-.837 36.549 36.549 0 0 0 4.009-.956.667.667 0 0 1 .953.478 31.533 31.533 0 0 1 1.31 6.854c.04.638.079 1.275.119 1.953l.079.917A35 35 0 0 1 74.3 57.416a.3.3 0 0 1-.079.159l-.04.04a1.1 1.1 0 0 1-.357.6.885.885 0 0 1-.4.117zM64.1 55.862a.3.3 0 0 1 .159.04c.079 0 .2.04.357.04a.43.43 0 0 1 .2.04.3.3 0 0 1 .2.04 59.272 59.272 0 0 1 8.217 1.514.3.3 0 0 0 .159.04.124.124 0 0 1 .04-.08.305.305 0 0 1 .079-.2c0-.04.04-.04.04-.08a34.566 34.566 0 0 0 1.985-10.958l-.04-.877-.119-1.913a31.788 31.788 0 0 0-1.27-6.615 40.6 40.6 0 0 1-4.089 1c-1.707.319-3.453.6-5.4.837a.238.238 0 0 0-.159.04v.08a68.538 68.538 0 0 1 .318 9.883c-.119 2.232-.238 4.5-.556 6.734l-.04.279c-.046-.006-.081.076-.081.156zm-50.258 2.231c-.437 0-.715-.239-.913-.757A34.949 34.949 0 0 1 11.3 50.8c-.2-1.474-.278-2.989-.357-4.383a34.955 34.955 0 0 1 1.35-9.484.875.875 0 0 1 1.111-.677 64.086 64.086 0 0 0 6.828 1.235l.4.04c.635.08 1.31.2 1.985.239a.911.911 0 0 1 .675.319.839.839 0 0 1 .159.717l-.04.478c-.079.8-.2 1.634-.238 2.431a62.657 62.657 0 0 0-.079 7.292 49.854 49.854 0 0 0 .6 5.7v.08c.079.677.159 1.036-.079 1.355s-.635.359-1.35.438c-2.66.359-5.4.717-8.137 1.355-.048.158-.167.158-.286.158zm-.159-1c.079.239.079.239.318.2a66.6 66.6 0 0 1 8.217-1.355 2.449 2.449 0 0 0 .794-.159c0-.08-.04-.4-.079-.757v-.08c-.318-2.232-.516-4.1-.6-5.778a64.746 64.746 0 0 1 .079-7.412c.079-.837.159-1.674.238-2.471l.04-.478v-.12h-.119c-.675-.04-1.35-.159-2.024-.239l-.4-.04a64.223 64.223 0 0 1-6.907-1.275c-.079 0-.119-.04-.119 0a.234.234 0 0 0-.04.159 33.454 33.454 0 0 0-1.31 9.245A40 40 0 0 0 12.1 50.8a38.523 38.523 0 0 0 1.588 6.3zm44.776-1H58.3a61.31 61.31 0 0 0-2.739-.159 11.173 11.173 0 0 1-1.151-.08 147.682 147.682 0 0 0-7.979-.239.836.836 0 0 1-.635-.239.985.985 0 0 1-.238-.717V39.922c0-.837.159-1 .953-1.036l1.826-.04c1.945-.04 3.969-.08 5.954-.159 1.231-.04 2.461-.159 3.692-.239l.754-.08a.758.758 0 0 1 .913.717c.238 2.112.357 3.865.4 5.539.04 1.913 0 3.427-.04 4.862-.079 1.714-.278 3.626-.556 5.738-.161.598-.439.876-.995.876zm-12.107-1.307h.079c2.461 0 5.081.08 8.018.239.4.04.754.04 1.151.08.913.04 1.866.08 2.779.159h.2a.63.63 0 0 1 .04-.159 54.271 54.271 0 0 0 .556-5.659c.079-1.435.079-2.949.04-4.822-.04-1.634-.159-3.387-.357-5.459h-.04l-.754.08c-1.231.08-2.461.2-3.692.239-1.985.08-4.009.12-5.954.159l-1.786.04h-.2v14.943c-.08.08-.08.12-.08.16zm-17.823 1.275a.771.771 0 0 1-.829-.761c-.278-2.232-.516-4.224-.6-6.256a56.291 56.291 0 0 1 .04-6.336c.04-.757.119-1.554.2-2.311.04-.4.079-.8.119-1.235a.847.847 0 0 1 1.032-.877h.2c3.1.2 6.272.438 9.408.438.437 0 .873 0 1.31.04.476 0 .953.04 1.429.04a1.007 1.007 0 0 1 .635.2.949.949 0 0 1 .238.677v14.787a1.081 1.081 0 0 1-.238.757.954.954 0 0 1-.754.239c-1.985-.04-3.969.04-5.915.12l-1.111.04c-1.667.08-3.374.159-4.962.279-.122.159-.162.159-.202.159zm-.04-.8h.079c1.588-.12 3.295-.239 4.962-.279l1.111-.04c1.945-.08 3.969-.159 5.954-.12h.2V39.683h-.04c-.476 0-.992 0-1.469-.04-.437 0-.834-.04-1.27-.04-3.176 0-6.351-.2-9.447-.438h-.318v.12c-.04.4-.079.8-.119 1.235-.079.757-.119 1.514-.2 2.271a66.013 66.013 0 0 0-.04 6.256c.079 1.992.318 3.985.6 6.177zm17.943-20.32a.854.854 0 0 1-.632-.241.922.922 0 0 1-.238-.757V14.857c0-.4 0-.677.238-.837s.516-.08.873.08a12.4 12.4 0 0 1 4.882 3.586 29.522 29.522 0 0 1 5.24 9.245 52.374 52.374 0 0 1 1.905 6.416c.079.319.159.6-.04.837-.159.239-.437.239-.754.279-1.866.159-3.771.239-5.637.319-.675.04-1.35.04-2.024.08s-1.35.04-1.985.04c-.6 0-1.151 0-1.747.04zm-.079-.8h.119c.6-.04 1.191-.04 1.786-.04.635 0 1.31 0 1.945-.04.675-.04 1.35-.04 2.024-.08 1.826-.08 3.731-.159 5.6-.319h.119c0-.04-.04-.08-.04-.12a45.177 45.177 0 0 0-1.866-6.336 29.221 29.221 0 0 0-5.083-9.006 11.459 11.459 0 0 0-4.565-3.347h-.04v19.291zm17.306-.241a.915.915 0 0 1-.953-.837 47.874 47.874 0 0 0-1.826-6.854 36.576 36.576 0 0 0-4.327-8.926c-.04-.04-.04-.08-.079-.159l-.715-1.235 1.111.518a33 33 0 0 1 4.565 2.471 32.661 32.661 0 0 1 9.8 10 25.859 25.859 0 0 1 1.31 2.271l.04.08a.957.957 0 0 1 .159.8c-.119.279-.437.359-.675.438a42.082 42.082 0 0 1-5.081 1.036 7.3 7.3 0 0 0-.913.159c-.715.12-1.429.239-2.183.319a.291.291 0 0 0-.233-.081zm-.079-.8h.278c.715-.08 1.429-.2 2.144-.319a7.3 7.3 0 0 0 .913-.159 40.567 40.567 0 0 0 5-1.036H72a.139.139 0 0 1-.04-.08l-.04-.08c-.4-.757-.834-1.514-1.27-2.232a32.448 32.448 0 0 0-9.566-9.763 30.891 30.891 0 0 0-3.215-1.833 36.431 36.431 0 0 1 3.85 8.289 55.614 55.614 0 0 1 1.866 6.974c-.04.2 0 .239 0 .239z" transform="translate(-5.858 -5.546)" style="fill:none"/>
        </g>
    </g>
    <g data-name="Group 2389">
        <path data-name="Path 5200" d="M15.825 29.962a14.653 14.653 0 1 1 14.259-18.234 15.283 15.283 0 0 1 .441 3.574 14.661 14.661 0 0 1-14.7 14.66zm0-28.56a13.849 13.849 0 1 0 13.9 13.82 13.606 13.606 0 0 0-.4-3.374 13.7 13.7 0 0 0-13.5-10.446z"/>
        <path data-name="Path 5200 - Outline" d="M21.8 32.265a15.28 15.28 0 0 1-11.87-5.642A14.784 14.784 0 0 1 7.383 22.1 15.284 15.284 0 0 1 21.8 1.7a15.19 15.19 0 0 1 10.791 4.474 15.332 15.332 0 0 1 4.054 7.108 15.88 15.88 0 0 1 .46 3.718A15.263 15.263 0 0 1 21.8 32.265zm0-28.557a13.246 13.246 0 1 0 13.3 13.214 13.064 13.064 0 0 0-.382-3.223v-.007a13.515 13.515 0 0 0-3.5-6.183A13.458 13.458 0 0 0 21.8 3.708z" transform="translate(-5.977 -1.7)" style="fill:#00cfb7"/>
    </g>
    <g data-name="Group 2394">
        <g data-name="Group 2393">
            <g data-name="Group 2392">
                <g data-name="Group 2391">
                    <g data-name="Group 2390">
                        <path data-name="Path 5201 - Outline" d="m155.907 157.334-8.767-10.778-5.041 4.187-4.799-22.959 22.758 7.307-4.892 4.329 8.958 10.685zm-7.856-12.453 8.032 9.6 5.163-4.582-8.958-10.685 3.7-3.263-16.078-5.181 3.432 16.373 3.836-3.352z" transform="translate(-83.129 -75.334)" style="fill:#00cfb7"/>
                    </g>
                </g>
            </g>
        </g>
    </g>
    <g data-name="Group 2397">
        <g data-name="Group 2396">
            <g data-name="Group 2395">
                <path data-name="Path 5202" d="M40.352 19.939c.361-2.45-1.486-3.775-4.057-4.659l.843-3.334-2.008-.522-.8 3.253c-.522-.12-1.084-.241-1.607-.4l.8-3.253-2.007-.524-.843 3.334a12.018 12.018 0 0 1-1.285-.321l-2.771-.683-.523 2.17 1.486.361a1.062 1.062 0 0 1 .924 1.165l-.964 3.816-1.325 5.3a.72.72 0 0 1-.924.482c.04.04-1.486-.361-1.486-.361l-1 2.33 2.651.643 1.444.364-.843 3.374 2.008.522.843-3.334c.562.161 1.084.281 1.607.4l-.843 3.294 2.008.522.84-3.378c3.454.643 6.065.4 7.149-2.731.884-2.53-.04-3.976-1.848-4.9a3.154 3.154 0 0 0 2.53-2.932zm-4.619 6.507c-.643 2.53-4.86 1.165-6.226.8l1.125-4.458c1.325.361 5.744 1.044 5.1 3.655zm.6-6.507c-.562 2.289-4.1 1.125-5.221.843l1-4.057c1.131.282 4.826.804 4.223 3.214z" transform="translate(-15.73 -6.564)" style="fill:#573bd1"/>
                <path data-name="Path 5203" d="m30.96 33.8-2.812-.683.843-3.294a6.42 6.42 0 0 0-.843-.2l-.843 3.334-2.812-.683.843-3.374-.161-.04c-.281-.08-.6-.161-.884-.241l-3.091-.764 1.325-3.055.321.08c.161.04.281.08.442.12l1.044.241a.336.336 0 0 0 .442-.2l2.249-9.037c0-.4-.2-.6-.643-.723l-.843-.321-.6-.12-.4-.08.723-2.932 3.575.884c.161.04.361.08.522.12L30.2 9.5l2.812.683-.8 3.253c.281.08.562.12.843.2l.8-3.253 2.812.683-.847 3.374c2.008.723 4.418 2.048 3.976 4.98a3.68 3.68 0 0 1-2.048 3.012c1.647 1.165 2.048 2.771 1.285 4.94-1.245 3.494-4.3 3.575-7.23 3.053zm-1.807-1.285 1.245.321.843-3.334.361.08c3.936.723 5.784.04 6.667-2.45.723-2.089.2-3.454-1.647-4.418l-.964-.482 1.044-.241a2.879 2.879 0 0 0 2.289-2.651c.281-1.928-.884-3.213-3.775-4.217l-.36-.123.8-3.294-1.245-.321-.8 3.253-.4-.08c-.522-.12-1.084-.241-1.607-.361l-.4-.08.8-3.253-1.245-.321-.8 3.213-.4-.08c-.442-.12-.884-.2-1.285-.321l-.361-.08-2.013-.522-.361 1.406a7.612 7.612 0 0 1 1.084.281 1.49 1.49 0 0 1 1.245 1.607v.08l-2.33 9.117a1.128 1.128 0 0 1-1.406.723c-.2-.04-.562-.12-1.165-.281l-.643 1.566 2.169.522c.321.08.6.161.884.241l.924.241-.843 3.374 1.245.321.843-3.334.4.12c.562.161 1.084.281 1.607.4l.4.08zm3.093-4.78a13.677 13.677 0 0 1-3.454-.6 1.768 1.768 0 0 0-.4-.08l-.4-.08 1.325-5.221.4.08a4.168 4.168 0 0 0 .482.12c1.406.321 3.816.843 4.659 2.289a2.167 2.167 0 0 1 .241 1.727 2.178 2.178 0 0 1-1 1.366 3.7 3.7 0 0 1-1.854.399zm-3.213-1.366c1.165.321 3.575.924 4.739.241a1.47 1.47 0 0 0 .643-.884 1.344 1.344 0 0 0-.161-1.125c-.683-1.125-2.972-1.647-4.177-1.888a.148.148 0 0 1-.12-.04zm4.137-5.262a11.052 11.052 0 0 1-2.812-.482 1.242 1.242 0 0 0-.321-.08l-.4-.08 1.2-4.82.4.08c.12.04.241.04.4.08 1.165.241 3.133.683 3.9 1.928a2.027 2.027 0 0 1 .241 1.687 2.077 2.077 0 0 1-.964 1.325 3.208 3.208 0 0 1-1.645.363zm-2.53-1.245c.924.241 2.812.723 3.775.161a1.2 1.2 0 0 0 .562-.8 1.307 1.307 0 0 0-.12-1.044c-.6-.924-2.41-1.325-3.374-1.566h-.04z" transform="translate(-14.773 -5.966)" style="fill:none"/>
            </g>
        </g>
    </g>
</svg>
