<svg width="38" height="38" viewBox="0 0 38 38" fill="none" xmlns="http://www.w3.org/2000/svg">
<path d="M19 21.975C17.4062 21.975 16.025 20.7 16.025 19C16.025 17.4062 17.3 16.025 19 16.025C20.5938 16.025 21.975 17.3 21.975 19C21.975 20.5937 20.5938 21.975 19 21.975Z" fill="white"/>
<path fill-rule="evenodd" clip-rule="evenodd" d="M22.6125 11.775H15.3875C14.5375 11.8812 14.1125 11.9875 13.7938 12.0937C13.3688 12.2 13.05 12.4125 12.7313 12.7312C12.479 12.9835 12.3599 13.2357 12.2158 13.5406C12.1779 13.6209 12.1381 13.7051 12.0938 13.7937C12.0773 13.8431 12.0583 13.8949 12.038 13.9505C11.9268 14.2542 11.775 14.669 11.775 15.3875V22.6125C11.8813 23.4625 11.9875 23.8875 12.0938 24.2062C12.2 24.6312 12.4125 24.95 12.7313 25.2687C12.9835 25.521 13.2357 25.6401 13.5406 25.7842C13.621 25.8222 13.705 25.8619 13.7938 25.9062C13.8431 25.9227 13.8949 25.9417 13.9505 25.962C14.2542 26.0732 14.669 26.225 15.3875 26.225H22.6125C23.4625 26.1187 23.8875 26.0125 24.2062 25.9062C24.6312 25.8 24.95 25.5875 25.2687 25.2687C25.521 25.0165 25.6401 24.7643 25.7842 24.4594C25.8222 24.379 25.8619 24.2949 25.9062 24.2062C25.9227 24.1569 25.9417 24.1051 25.962 24.0495C26.0732 23.7458 26.225 23.331 26.225 22.6125V15.3875C26.1187 14.5375 26.0125 14.1125 25.9062 13.7937C25.8 13.3687 25.5875 13.05 25.2687 12.7312C25.0165 12.479 24.7643 12.3599 24.4594 12.2158C24.3792 12.1779 24.2948 12.138 24.2062 12.0937C24.1569 12.0773 24.1051 12.0583 24.0495 12.038C23.7458 11.9268 23.331 11.775 22.6125 11.775ZM19 14.4312C16.45 14.4312 14.4312 16.45 14.4312 19C14.4312 21.55 16.45 23.5687 19 23.5687C21.55 23.5687 23.5687 21.55 23.5687 19C23.5687 16.45 21.55 14.4312 19 14.4312ZM24.7375 14.325C24.7375 14.9118 24.2618 15.3875 23.675 15.3875C23.0882 15.3875 22.6125 14.9118 22.6125 14.325C22.6125 13.7382 23.0882 13.2625 23.675 13.2625C24.2618 13.2625 24.7375 13.7382 24.7375 14.325Z" fill="white"/>
<path fill-rule="evenodd" clip-rule="evenodd" d="M2 7.3125C2 4.37849 4.37849 2 7.3125 2H30.6875C33.6215 2 36 4.37849 36 7.3125V30.6875C36 33.6215 33.6215 36 30.6875 36H7.3125C4.37849 36 2 33.6215 2 30.6875V7.3125ZM15.3875 10.1812H22.6125C23.5687 10.2875 24.2062 10.3937 24.7375 10.6062C25.375 10.925 25.8 11.1375 26.3312 11.6687C26.8625 12.2 27.1813 12.7312 27.3938 13.2625C27.6063 13.7937 27.8187 14.4312 27.8187 15.3875V22.6125C27.7125 23.5687 27.6063 24.2062 27.3938 24.7375C27.075 25.375 26.8625 25.8 26.3312 26.3312C25.8 26.8625 25.2687 27.1812 24.7375 27.3937C24.2062 27.6062 23.5687 27.8187 22.6125 27.8187H15.3875C14.4313 27.7125 13.7938 27.6062 13.2625 27.3937C12.625 27.075 12.2 26.8625 11.6688 26.3312C11.1375 25.8 10.8188 25.2687 10.6063 24.7375C10.3938 24.2062 10.1812 23.5687 10.1812 22.6125V15.3875C10.2875 14.4312 10.3938 13.7937 10.6063 13.2625C10.925 12.625 11.1375 12.2 11.6688 11.6687C12.2 11.1375 12.7313 10.8187 13.2625 10.6062C13.7938 10.3937 14.4313 10.1812 15.3875 10.1812Z" fill="white"/>
<path d="M15.3408 11.025H15.3875H22.6125C23.4588 11.025 23.9693 11.21 24.3073 11.3337C24.3652 11.3549 24.4064 11.3699 24.4434 11.3822L24.494 11.3991L24.5417 11.4229C24.6217 11.4629 24.6987 11.4994 24.7798 11.5377C24.7884 11.5417 24.797 11.5458 24.8057 11.5499C25.1004 11.689 25.454 11.8559 25.7991 12.2009C26.1791 12.5809 26.4762 13.0065 26.6265 13.5829C26.7495 13.958 26.8615 14.4325 26.9692 15.2945L26.975 15.3408V15.3875V22.6125C26.975 23.4588 26.79 23.9693 26.6663 24.3073L26.6663 24.3073C26.6451 24.3652 26.6301 24.4064 26.6178 24.4434L26.6009 24.494L26.5771 24.5417C26.537 24.6218 26.5007 24.6986 26.4623 24.7798C26.4623 24.7798 26.4623 24.7798 26.4623 24.7798L15.3408 11.025ZM15.3408 11.025L15.2945 11.0308M15.3408 11.025L15.2945 11.0308M15.2945 11.0308C14.4325 11.1385 13.958 11.2505 13.5829 11.3735M15.2945 11.0308L13.5829 11.3735M11.3991 13.506L11.4229 13.4583C11.463 13.3783 11.4993 13.3013 11.5377 13.2202L11.3991 13.506ZM11.3991 13.506L11.3822 13.5566M11.3991 13.506L11.3822 13.5566M11.3822 13.5566C11.3699 13.5936 11.3549 13.6348 11.3337 13.6927L12.038 13.9505M11.3822 13.5566L12.038 13.9505M12.038 13.9505L11.3337 13.6927C11.21 14.0307 11.025 14.5412 11.025 15.3875V22.6125V22.6592M12.038 13.9505L11.025 22.6592M11.025 22.6592L11.0308 22.7055M11.025 22.6592L11.0308 22.7055M11.0308 22.7055C11.1385 23.5675 11.2505 24.042 11.3735 24.4171C11.5238 24.9935 11.8209 25.4191 12.2009 25.7991C12.546 26.1441 12.8996 26.311 13.1944 26.4501C13.203 26.4542 13.2116 26.4583 13.2202 26.4623C13.3014 26.5007 13.3782 26.537 13.4583 26.5771L13.506 26.6009M11.0308 22.7055L13.506 26.6009M13.506 26.6009L13.5566 26.6178M13.506 26.6009L13.5566 26.6178M13.5566 26.6178C13.5936 26.6301 13.6348 26.6451 13.6927 26.6663L13.6927 26.6663M13.5566 26.6178L13.6927 26.6663M13.6927 26.6663C14.0307 26.79 14.5412 26.975 15.3875 26.975H22.6125H22.6592M13.6927 26.6663L22.6592 26.975M22.6592 26.975L22.7055 26.9692M22.6592 26.975L22.7055 26.9692M22.7055 26.9692C23.5675 26.8615 24.042 26.7495 24.4171 26.6265L22.7055 26.9692ZM13.5829 11.3735C13.0065 11.5238 12.5809 11.8209 12.2009 12.2009C11.8559 12.546 11.689 12.8996 11.5499 13.1943C11.5458 13.203 11.5417 13.2116 11.5377 13.2202L13.5829 11.3735ZM15.275 19C15.275 21.1316 17.0096 22.725 19 22.725C21.008 22.725 22.725 21.008 22.725 19C22.725 16.8684 20.9904 15.275 19 15.275C16.8684 15.275 15.275 17.0096 15.275 19ZM15.1812 19C15.1812 16.8642 16.8642 15.1812 19 15.1812C21.1358 15.1812 22.8187 16.8642 22.8187 19C22.8187 21.1358 21.1358 22.8187 19 22.8187C16.8642 22.8187 15.1812 21.1358 15.1812 19ZM23.9875 14.325C23.9875 14.4976 23.8476 14.6375 23.675 14.6375C23.5024 14.6375 23.3625 14.4976 23.3625 14.325C23.3625 14.1524 23.5024 14.0125 23.675 14.0125C23.8476 14.0125 23.9875 14.1524 23.9875 14.325ZM7.3125 1.25C3.96427 1.25 1.25 3.96427 1.25 7.3125V30.6875C1.25 34.0357 3.96427 36.75 7.3125 36.75H30.6875C34.0357 36.75 36.75 34.0357 36.75 30.6875V7.3125C36.75 3.96427 34.0357 1.25 30.6875 1.25H7.3125ZM15.3875 10.9312H22.5707C23.4816 11.0335 24.0147 11.13 24.4316 11.2918C25.0437 11.598 25.3691 11.7673 25.8009 12.1991C26.2557 12.6538 26.5201 13.0978 26.6974 13.541C26.8896 14.0215 27.0687 14.5603 27.0687 15.3875V22.5707C26.9665 23.4816 26.87 24.0147 26.7082 24.4316C26.402 25.0437 26.2327 25.3691 25.8009 25.8009C25.3462 26.2557 24.9022 26.5201 24.459 26.6974C23.9785 26.8896 23.4397 27.0687 22.6125 27.0687H15.4293C14.5184 26.9665 13.9853 26.87 13.5684 26.7082C12.9563 26.402 12.6309 26.2327 12.1991 25.8009C11.7443 25.3462 11.4799 24.9022 11.3026 24.459C11.1104 23.9785 10.9312 23.4397 10.9312 22.6125V15.4293C11.0335 14.5184 11.13 13.9853 11.2918 13.5684C11.598 12.9563 11.7673 12.6309 12.1991 12.1991C12.6538 11.7443 13.0978 11.4799 13.541 11.3026C14.0215 11.1104 14.5603 10.9312 15.3875 10.9312Z" stroke="#011627" stroke-opacity="0.6" stroke-width="1.5"/>
</svg>
