<svg xmlns="http://www.w3.org/2000/svg" width="55.201" height="62.5" viewBox="0 0 55.201 62.5">
  <g id="icon_bito-05" transform="translate(-16.35 -3.25)">
    <g id="Group_2367" data-name="Group 2367" transform="translate(17.1 4)">
      <path id="Path_5181" data-name="Path 5181" d="M17.1,20.7V48.3a2.831,2.831,0,0,0,1.463,2.509L42.5,64.619a2.937,2.937,0,0,0,2.893,0L69.339,50.806A2.934,2.934,0,0,0,70.8,48.3V20.7a2.831,2.831,0,0,0-1.463-2.509L45.4,4.381a2.937,2.937,0,0,0-2.893,0L18.563,18.162A2.918,2.918,0,0,0,17.1,20.7Z" transform="translate(-17.1 -4)" fill="#fff"/>
      <path id="Path_5181_-_Outline" data-name="Path 5181 - Outline" d="M43.951,3.25a3.674,3.674,0,0,1,1.818.48L69.707,17.541A3.559,3.559,0,0,1,71.551,20.7V48.3a3.7,3.7,0,0,1-1.841,3.16L45.772,65.269a3.686,3.686,0,0,1-3.64,0L18.194,51.459A3.559,3.559,0,0,1,16.35,48.3V20.7a3.662,3.662,0,0,1,1.834-3.188l0,0L42.13,3.731A3.676,3.676,0,0,1,43.951,3.25Zm0,61a2.171,2.171,0,0,0,1.075-.282L68.964,50.156A2.176,2.176,0,0,0,70.051,48.3V20.7a2.078,2.078,0,0,0-1.075-1.852l-.013-.007L45.023,5.031a2.187,2.187,0,0,0-2.147,0L18.939,18.811A2.176,2.176,0,0,0,17.85,20.7V48.3a2.078,2.078,0,0,0,1.075,1.852l.013.007L42.879,63.969A2.168,2.168,0,0,0,43.951,64.25Z" transform="translate(-17.1 -4)" fill="#573bd1"/>
      <path id="noun-integrations-4432154_1_" data-name="noun-integrations-4432154 (1)" d="M147.211,102.966a3.62,3.62,0,0,0-2.67,1.168,3.838,3.838,0,0,0,.279,5.469l-5.233,9.247h0a3.464,3.464,0,0,0-1.883-.176,3.514,3.514,0,0,0-1.7.842l-4.81-4.062a3.823,3.823,0,0,0-1.136-4.959,3.6,3.6,0,0,0-3.434-.389,3.757,3.757,0,0,0-2.236,2.706,3.855,3.855,0,0,0,.93,3.419l-5.226,7.381a3.643,3.643,0,0,0-3.517.326,3.889,3.889,0,0,0,0,6.391,3.642,3.642,0,0,0,3.517.331,3.811,3.811,0,0,0,2.208-2.832,3.9,3.9,0,0,0-1.082-3.454l5.193-7.334a3.5,3.5,0,0,0,2.044.351,3.544,3.544,0,0,0,1.891-.871l4.81,4.062a3.834,3.834,0,0,0,1.209,5.018,3.6,3.6,0,0,0,3.532.264A3.775,3.775,0,0,0,142,122.947a3.84,3.84,0,0,0-1.257-3.4l5.233-9.247a3.555,3.555,0,0,0,1.232.234,3.666,3.666,0,0,0,3.189-1.892,3.873,3.873,0,0,0,0-3.783,3.665,3.665,0,0,0-3.189-1.892Zm-28.544,26.54a2.308,2.308,0,0,1-1.654-.7,2.45,2.45,0,0,1,0-3.4,2.3,2.3,0,0,1,3.309,0,2.449,2.449,0,0,1,0,3.4,2.311,2.311,0,0,1-1.653.7Zm6.972-15.869h0a2.437,2.437,0,0,1,.686-1.7,2.3,2.3,0,0,1,3.308,0,2.45,2.45,0,0,1,0,3.4,2.294,2.294,0,0,1-3.308,0A2.441,2.441,0,0,1,125.639,113.637ZM138.354,124.8h0a2.308,2.308,0,0,1-1.654-.7,2.45,2.45,0,0,1,0-3.4,2.3,2.3,0,0,1,3.308,0,2.449,2.449,0,0,1,0,3.4,2.313,2.313,0,0,1-1.654.705Zm8.856-15.65a2.308,2.308,0,0,1-1.654-.7,2.45,2.45,0,0,1,0-3.4,2.3,2.3,0,0,1,3.308,0,2.449,2.449,0,0,1,0,3.4,2.313,2.313,0,0,1-1.654.705Z" transform="translate(-105.893 -86.966)" fill="#00d1bc"/>
      <path id="noun-integrations-4432154_1_-_Outline" data-name="noun-integrations-4432154 (1) - Outline" d="M147.211,102.966h-.017a3.62,3.62,0,0,0-2.654,1.168,3.838,3.838,0,0,0,.279,5.469l-5.233,9.247a3.464,3.464,0,0,0-1.883-.176,3.514,3.514,0,0,0-1.7.842l-4.81-4.062a3.823,3.823,0,0,0-1.136-4.959,3.6,3.6,0,0,0-3.434-.389,3.757,3.757,0,0,0-2.236,2.706,3.855,3.855,0,0,0,.93,3.419l-5.226,7.381a3.643,3.643,0,0,0-3.517.326,3.889,3.889,0,0,0,0,6.391,3.642,3.642,0,0,0,3.517.331,3.811,3.811,0,0,0,2.208-2.832,3.9,3.9,0,0,0-1.082-3.454l5.193-7.334a3.5,3.5,0,0,0,2.044.351,3.544,3.544,0,0,0,1.891-.871l4.81,4.062a3.834,3.834,0,0,0,1.209,5.018,3.6,3.6,0,0,0,3.532.264A3.775,3.775,0,0,0,142,122.947a3.84,3.84,0,0,0-1.257-3.4l5.233-9.247a3.555,3.555,0,0,0,1.232.234,3.666,3.666,0,0,0,3.189-1.892,3.873,3.873,0,0,0,0-3.783,3.665,3.665,0,0,0-3.189-1.892m0,6.188a2.308,2.308,0,0,1-1.654-.7,2.45,2.45,0,0,1,0-3.4,2.3,2.3,0,0,1,3.308,0,2.449,2.449,0,0,1,0,3.4,2.313,2.313,0,0,1-1.654.705h0m-19.232,6.888a2.313,2.313,0,0,1-1.654-.705,2.441,2.441,0,0,1-.686-1.7h0a2.437,2.437,0,0,1,.686-1.7,2.307,2.307,0,0,1,1.653-.7h0a2.308,2.308,0,0,1,1.654.7,2.45,2.45,0,0,1,0,3.4,2.307,2.307,0,0,1-1.654.7m10.376,8.763h0a2.308,2.308,0,0,1-1.654-.7,2.45,2.45,0,0,1,0-3.4,2.3,2.3,0,0,1,3.308,0,2.449,2.449,0,0,1,0,3.4,2.313,2.313,0,0,1-1.654.705m-19.687,4.7a2.308,2.308,0,0,1-1.654-.7,2.45,2.45,0,0,1,0-3.4,2.3,2.3,0,0,1,3.309,0,2.449,2.449,0,0,1,0,3.4,2.311,2.311,0,0,1-1.653.7h0m28.544-27.14a4.276,4.276,0,0,1,3.712,2.2,4.488,4.488,0,0,1,0,4.371,4.276,4.276,0,0,1-3.712,2.2H147.2a4.14,4.14,0,0,1-.942-.118l-4.769,8.426a4.431,4.431,0,0,1,1.1,3.587,4.356,4.356,0,0,1-2.455,3.38,4.2,4.2,0,0,1-4.119-.308,4.436,4.436,0,0,1-1.618-5.358l-4.084-3.449a4.1,4.1,0,0,1-3.711.489l-4.637,6.548a4.5,4.5,0,0,1,.907,3.6,4.4,4.4,0,0,1-2.558,3.276,4.241,4.241,0,0,1-4.095-.384,4.489,4.489,0,0,1,0-7.384,4.244,4.244,0,0,1,3.63-.552l4.7-6.631a4.459,4.459,0,0,1-.762-3.572,4.352,4.352,0,0,1,2.6-3.136A4.2,4.2,0,0,1,130.4,110a4.424,4.424,0,0,1,1.533,5.291l4.083,3.449a4.081,4.081,0,0,1,2.322-.727,4.051,4.051,0,0,1,.968.117l4.769-8.426a4.442,4.442,0,0,1,.03-5.982,4.252,4.252,0,0,1,2.62-1.333l.006-.027Zm0,6.188a1.7,1.7,0,0,0,1.225-.524,1.849,1.849,0,0,0,0-2.562,1.7,1.7,0,0,0-2.448,0,1.85,1.85,0,0,0,0,2.562A1.7,1.7,0,0,0,147.209,108.554Zm-19.23,6.888a1.7,1.7,0,0,0,1.223-.523,1.85,1.85,0,0,0,0-2.562,1.7,1.7,0,0,0-2.448,0,1.85,1.85,0,0,0-.516,1.281,1.829,1.829,0,0,0,.516,1.281A1.7,1.7,0,0,0,127.979,115.442Zm10.374,8.763h0a1.7,1.7,0,0,0,1.225-.524,1.849,1.849,0,0,0,0-2.562,1.7,1.7,0,0,0-2.449,0,1.851,1.851,0,0,0,0,2.562A1.7,1.7,0,0,0,138.353,124.2Zm-19.687,4.7a1.7,1.7,0,0,0,1.224-.523,1.849,1.849,0,0,0,0-2.561,1.7,1.7,0,0,0-2.449,0,1.85,1.85,0,0,0,0,2.562A1.7,1.7,0,0,0,118.667,128.906Z" transform="translate(-105.893 -86.966)" fill="#00d1bc"/>
    </g>
  </g>
</svg>
