<svg width="38" height="38" viewBox="0 0 38 38" fill="none" xmlns="http://www.w3.org/2000/svg">
<path fill-rule="evenodd" clip-rule="evenodd" d="M2 7.3125C2 4.37849 4.37849 2 7.3125 2H30.6875C33.6215 2 36 4.37849 36 7.3125V30.6875C36 33.6215 33.6215 36 30.6875 36H7.3125C4.37849 36 2 33.6215 2 30.6875V7.3125ZM10.7125 16.1313V27.5H14.325V16.1313H10.7125ZM10.5 12.5188C10.5 13.6875 11.35 14.5375 12.5188 14.5375C13.6875 14.5375 14.5375 13.6875 14.5375 12.5188C14.5375 11.35 13.6875 10.5 12.5188 10.5C11.4563 10.5 10.5 11.35 10.5 12.5188ZM23.8875 27.5H27.2875V20.4875C27.2875 16.9812 25.1625 15.8125 23.1437 15.8125C21.3375 15.8125 20.0625 16.9812 19.7437 17.725V16.1313H16.3438V27.5H19.9562V21.4438C19.9562 19.85 21.0187 19 22.0812 19C23.1437 19 23.8875 19.5312 23.8875 21.3375V27.5Z" fill="white"/>
<path d="M17.0938 16.8813H18.9937V17.725L20.4331 18.0204C20.5208 17.8159 20.8037 17.4423 21.2987 17.1161C21.7772 16.8007 22.4061 16.5625 23.1437 16.5625C24.0171 16.5625 24.8514 16.8152 25.4612 17.3838C26.059 17.941 26.5375 18.8914 26.5375 20.4875V26.75H24.6375V21.3375C24.6375 20.3536 24.4386 19.5502 23.9434 18.9931C23.4293 18.4148 22.7313 18.25 22.0812 18.25C20.5815 18.25 19.2062 19.4592 19.2062 21.4438V26.75H17.0938V16.8813ZM7.3125 1.25C3.96427 1.25 1.25 3.96427 1.25 7.3125V30.6875C1.25 34.0357 3.96427 36.75 7.3125 36.75H30.6875C34.0357 36.75 36.75 34.0357 36.75 30.6875V7.3125C36.75 3.96427 34.0357 1.25 30.6875 1.25H7.3125ZM13.575 26.75H11.4625V16.8813H13.575V26.75ZM12.5188 13.7875C11.7642 13.7875 11.25 13.2733 11.25 12.5188C11.25 11.7897 11.8445 11.25 12.5188 11.25C13.2733 11.25 13.7875 11.7642 13.7875 12.5188C13.7875 13.2733 13.2733 13.7875 12.5188 13.7875Z" stroke="#011627" stroke-opacity="0.6" stroke-width="1.5"/>
</svg>
