<svg width="181" height="32" viewBox="0 0 181 32" fill="none" xmlns="http://www.w3.org/2000/svg">
<path d="M15.293 24.9394L1.88535 19.1576L3.50042 18.4519C3.76533 18.3414 4.05587 18.3414 4.32077 18.4519L15.293 23.2219L29.1193 17.185C29.4269 16.9725 29.5466 16.7004 29.5466 16.2497C29.5466 16.2497 29.538 9.9153 29.538 9.88979C29.5466 9.04803 29.3757 8.33381 28.9997 7.74713C28.9997 7.74713 28.9997 7.73863 28.9911 7.73863C28.6066 7.14345 28.0255 6.67581 27.1966 6.3272C27.1881 6.3272 17.4977 2.13541 16.3611 1.64226C15.6775 1.34467 14.9084 1.35317 14.2248 1.64226L2.09899 6.92238C1.44954 7.21147 1.03082 7.84916 1.03082 8.55488V12.6191L15.2844 6.41222L28.6664 12.177L27.1282 12.8487C26.8719 12.9592 26.5728 12.9592 26.3164 12.8487L20.0014 10.1279L15.293 8.11275L1.50936 14.0816H1.50082C1.21027 14.2686 1.065 14.4897 1.03082 14.8383V22.2186C1.03082 23.2814 1.66318 24.2422 2.64589 24.6673L9.30269 27.5327L14.2163 29.6499C14.8999 29.939 15.669 29.939 16.3526 29.6499L28.4699 24.3867C28.7091 24.2847 28.9228 24.1232 29.0937 23.9361C29.3757 23.6215 29.5466 23.2049 29.5466 22.7628V19.4552C29.5466 19.1746 29.5466 18.9196 29.5466 18.724L15.293 24.9394ZM9.99487 15.6291L13.2848 14.1921L14.729 13.5629L14.7461 13.5544L15.293 13.3163L16.156 13.6905L16.1731 13.699L20.6851 15.6461L17.8138 16.8959L16.2928 17.5592L16.2757 17.5676L15.2844 18.0013L14.7119 17.7547L11.6954 16.4538L11.4134 16.3348L9.88378 15.6716L9.99487 15.6291Z" fill="#00D1BC"/>
<path d="M39.3921 7.40796V24.4878H35.6299V7.40796H39.3921ZM42.577 17.5467H38.1893V14.4065H42.3845C43.0677 14.4065 43.5873 14.2437 43.9433 13.9182C44.2993 13.5927 44.4725 13.1236 44.4725 12.5108C44.4725 11.9077 44.2993 11.4577 43.9433 11.1514C43.5873 10.845 43.0677 10.6918 42.3845 10.6918H38.4395V7.41753H42.779C44.511 7.41753 45.8677 7.83879 46.8491 8.69086C47.8306 9.53336 48.3213 10.6918 48.3213 12.1566C48.3213 13.1523 48.0711 14.0044 47.5804 14.6937C47.0897 15.383 46.368 15.8809 45.4251 16.1681V15.8426C46.4258 16.0628 47.1955 16.5032 47.7343 17.1829C48.2635 17.8626 48.533 18.7339 48.533 19.787C48.533 20.7827 48.3117 21.6443 47.869 22.3528C47.4264 23.0613 46.7818 23.5974 45.9158 23.9612C45.0594 24.325 44.0106 24.5069 42.7694 24.5069H38.4299V21.2327H42.5577C43.2505 21.2327 43.7797 21.0795 44.1357 20.7635C44.4917 20.4476 44.6649 19.9785 44.6649 19.3466C44.6649 18.7626 44.4821 18.3222 44.1165 18.0158C43.7797 17.6903 43.2505 17.5467 42.577 17.5467Z" fill="#573BD1"/>
<path d="M55.1721 7.40796V24.4878H51.4099V7.40796H55.1721Z" fill="#573BD1"/>
<path d="M57.7701 10.8737V7.40796H71.2698V10.8737H57.7701ZM66.4011 9.21743V24.4973H62.6389V9.21743H66.4011Z" fill="#573BD1"/>
<path d="M89.7341 15.9286C89.7341 17.6711 89.3781 19.2029 88.6661 20.5337C87.9541 21.8644 86.963 22.908 85.6929 23.6452C84.4228 24.392 82.9603 24.7653 81.286 24.7653C79.6311 24.7653 78.1781 24.392 76.9177 23.6452C75.6572 22.8984 74.6757 21.8644 73.9733 20.5432C73.2709 19.222 72.9149 17.6902 72.9149 15.9478C72.9149 14.2053 73.2709 12.6735 73.983 11.3427C74.695 10.012 75.6764 8.97799 76.9369 8.23123C78.1974 7.48446 79.6503 7.11108 81.3053 7.11108C82.9795 7.11108 84.4421 7.48446 85.7025 8.23123C86.963 8.97799 87.9445 10.012 88.6565 11.3332C89.3781 12.6639 89.7341 14.1862 89.7341 15.9286ZM85.7699 15.9286C85.7699 14.8372 85.5967 13.899 85.2407 13.1235C84.8847 12.348 84.3747 11.7544 83.7204 11.3332C83.0661 10.9215 82.2675 10.7109 81.3438 10.7109C80.4201 10.7109 79.6214 10.9215 78.9575 11.3332C78.2936 11.7448 77.7836 12.348 77.4276 13.1235C77.0716 13.899 76.8984 14.8372 76.8984 15.9286C76.8984 17.0201 77.0716 17.9583 77.4276 18.7434C77.7836 19.5284 78.2936 20.1316 78.9575 20.5432C79.6214 20.9549 80.4201 21.1655 81.3438 21.1655C82.2675 21.1655 83.0661 20.9549 83.7204 20.5337C84.3747 20.1124 84.8847 19.5093 85.2407 18.7242C85.5871 17.9391 85.7699 17.0105 85.7699 15.9286Z" fill="#573BD1"/>
<path d="M100.126 24.7654C98.4134 24.7654 96.922 24.4111 95.6711 23.6931C94.4202 22.975 93.4484 21.9602 92.7749 20.6486C92.0917 19.337 91.7549 17.7764 91.7549 15.9765C91.7549 14.1958 92.111 12.6352 92.823 11.314C93.535 9.99284 94.5357 8.96844 95.8154 8.23125C97.0951 7.50363 98.5866 7.13025 100.29 7.13025C101.723 7.13025 103.003 7.38874 104.129 7.90573C105.255 8.42272 106.169 9.15034 106.881 10.0886C107.593 11.0268 108.035 12.1374 108.199 13.4107H104.235C103.984 12.5491 103.513 11.8885 102.811 11.4289C102.108 10.9694 101.233 10.7396 100.203 10.7396C99.2793 10.7396 98.4711 10.9502 97.7976 11.3619C97.124 11.7736 96.614 12.3767 96.258 13.1522C95.902 13.9277 95.7288 14.866 95.7288 15.9574C95.7288 17.0201 95.9116 17.9392 96.2773 18.7242C96.6429 19.5093 97.1625 20.1124 97.836 20.5337C98.5096 20.9549 99.2986 21.1656 100.213 21.1656C101.261 21.1656 102.156 20.9262 102.888 20.438C103.619 19.9497 104.11 19.2891 104.341 18.437H108.237C108.035 19.7008 107.564 20.8113 106.833 21.7592C106.101 22.7165 105.158 23.4537 104.013 23.9707C102.859 24.5069 101.56 24.7654 100.126 24.7654Z" fill="#573BD1"/>
<path d="M114.828 24.4878H111.066V7.40796H117.705C119.793 7.40796 121.41 7.88665 122.545 8.85362C123.681 9.811 124.248 11.1801 124.248 12.9512C124.248 14.0618 124.008 15.0096 123.536 15.7947C123.065 16.5797 122.353 17.2212 121.391 17.7095L124.402 24.4973H120.294L117.715 18.5232H114.819V24.4878H114.828ZM114.828 10.7397V15.2394H117.686C118.504 15.2394 119.139 15.0383 119.601 14.6362C120.053 14.2341 120.284 13.6789 120.284 12.9512C120.284 12.2236 120.063 11.6779 119.62 11.3045C119.178 10.9312 118.543 10.7397 117.705 10.7397H114.828Z" fill="#573BD1"/>
<path d="M138.287 24.4878H127.385V7.40796H138.287V10.8737H130.099L131.138 9.90674V14.2246H137.469V17.4988H131.138V21.9986L130.099 21.0316H138.287V24.4878Z" fill="#573BD1"/>
<path d="M148.448 24.4878H141.722V7.40796H148.217C149.9 7.40796 151.382 7.77177 152.662 8.48981C153.942 9.21742 154.942 10.2227 155.664 11.5152C156.395 12.8076 156.751 14.3012 156.751 15.9957C156.751 17.6616 156.395 19.1264 155.693 20.3997C154.991 21.673 154.019 22.6783 152.768 23.3963C151.527 24.1335 150.083 24.4878 148.448 24.4878ZM145.474 9.12169V22.8315L143.685 21.0316H148.072C149.063 21.0316 149.91 20.8305 150.613 20.4284C151.315 20.0263 151.854 19.4519 152.229 18.6956C152.604 17.9392 152.787 17.0393 152.787 15.9957C152.787 14.9235 152.595 13.9948 152.2 13.2385C151.806 12.4725 151.238 11.8885 150.507 11.4864C149.775 11.0748 148.89 10.8737 147.851 10.8737H143.694L145.474 9.12169Z" fill="#573BD1"/>
<path d="M163.477 7.40796V24.4878H159.715V7.40796H163.477Z" fill="#573BD1"/>
<path d="M166.075 10.8737V7.40796H179.575V10.8737H166.075ZM174.706 9.21743V24.4973H170.944V9.21743H174.706Z" fill="#573BD1"/>
</svg>
