<svg width="32" height="32" viewBox="0 0 32 32" fill="none" xmlns="http://www.w3.org/2000/svg">
<path d="M23.4134 23.96H8.58669C3.28002 23.96 1.66669 22.3467 1.66669 17.04V8.58669C1.66669 3.28002 3.28002 1.66669 8.58669 1.66669H23.4C28.7067 1.66669 30.32 3.28002 30.32 8.58669V17.0267C30.3334 22.3467 28.72 23.96 23.4134 23.96ZM8.58669 3.66669C4.40002 3.66669 3.66669 4.40002 3.66669 8.58669V17.0267C3.66669 21.2134 4.40002 21.9467 8.58669 21.9467H23.4C27.5867 21.9467 28.32 21.2134 28.32 17.0267V8.58669C28.32 4.40002 27.5867 3.66669 23.4 3.66669H8.58669Z" fill="#573BD1"/>
<path d="M16 30.3333C15.4533 30.3333 15 29.88 15 29.3333V22.96C15 22.4133 15.4533 21.96 16 21.96C16.5467 21.96 17 22.4133 17 22.96V29.3333C17 29.88 16.5467 30.3333 16 30.3333Z" fill="#573BD1"/>
<path d="M29.3334 18.3333H2.66669C2.12002 18.3333 1.66669 17.88 1.66669 17.3333C1.66669 16.7866 2.12002 16.3333 2.66669 16.3333H29.3334C29.88 16.3333 30.3334 16.7866 30.3334 17.3333C30.3334 17.88 29.88 18.3333 29.3334 18.3333Z" fill="#573BD1"/>
<path d="M22 30.3333H10C9.45333 30.3333 9 29.88 9 29.3333C9 28.7866 9.45333 28.3333 10 28.3333H22C22.5467 28.3333 23 28.7866 23 29.3333C23 29.88 22.5467 30.3333 22 30.3333Z" fill="#573BD1"/>
</svg>
