<svg xmlns="http://www.w3.org/2000/svg" width="78" height="77.999" viewBox="0 0 78 77.999">
    <g data-name="most of currencies">
        <path data-name="Path 148" d="M172.082 77.717a41.036 41.036 0 0 0 1.729-11.223 38.945 38.945 0 0 0-38.75-39h-.053a39 39 0 0 0-.054 78H135.06a41.552 41.552 0 0 0 14.439-2.681 17.681 17.681 0 0 0 6.838 1.373 17.989 17.989 0 0 0 15.747-26.467zm-43.01-47.131A38.016 38.016 0 0 0 115.944 47.9h-12.058a36.3 36.3 0 0 1 25.187-17.313zm-26.588 19.906h12.521a51.016 51.016 0 0 0-2.516 14.7H98.821a36.31 36.31 0 0 1 3.663-14.7zm-3.663 17.3h13.667a50.928 50.928 0 0 0 2.5 14.728l-12.5-.024a36.3 36.3 0 0 1-3.664-14.7zm5.067 17.3 12.04.022a37.884 37.884 0 0 0 13.11 17.28 36.3 36.3 0 0 1-25.15-17.3zm29.831 17.1c-6.519-3.3-11.757-9.414-15.006-17.07l15.006.029zm0-19.637-16.009-.031a48.17 48.17 0 0 1-2.64-14.734h18.65zm0-17.359h-18.648a48.3 48.3 0 0 1 2.651-14.7h16zm0-17.3h-14.992c3.249-7.658 8.482-13.774 14.992-17.1zM171.2 65.2h-13.67a51.014 51.014 0 0 0-2.515-14.7h12.522a36.3 36.3 0 0 1 3.663 14.7zm0 2.594a38.656 38.656 0 0 1-1.027 7.05 17.852 17.852 0 0 0-7.167-5.286 17.626 17.626 0 0 0-5.4-1.231 91.464 91.464 0 0 1-.02-.533zM166.132 47.9h-12.059a38.027 38.027 0 0 0-13.129-17.313A36.3 36.3 0 0 1 166.132 47.9zM136.3 30.8c6.508 3.323 11.741 9.438 14.991 17.1H136.3zm0 19.691h16a48.3 48.3 0 0 1 2.651 14.7H136.3zm0 17.3H155v.04l.02.495a17.9 17.9 0 0 0-16.177 14.239h-2.55V67.79zm0 17.365h2.2c-.02.355-.032.71-.032 1.065a17.928 17.928 0 0 0 4.143 11.48 29.92 29.92 0 0 1-6.312 4.472zm4.578 17.265a33.9 33.9 0 0 0 3.536-2.858 17.913 17.913 0 0 0 1.989 1.58 39.077 39.077 0 0 1-5.525 1.278zm15.461-.831a15.343 15.343 0 0 1-15.288-15.364 15.68 15.68 0 0 1 .117-1.911 15.326 15.326 0 0 1 15.172-13.457 15.145 15.145 0 0 1 5.7 1.1 15.381 15.381 0 0 1-5.7 29.627z" transform="translate(-96.206 -27.494)" style="fill:#00cfb7"/>
    </g>
</svg>
