<svg xmlns="http://www.w3.org/2000/svg" width="55.201" height="62.5" viewBox="0 0 55.201 62.5">
  <g id="icon_bito-05" transform="translate(-16.35 -3.25)">
    <g id="Group_2367" data-name="Group 2367" transform="translate(17.1 4)">
      <path id="Path_5181" data-name="Path 5181" d="M17.1,20.7V48.3a2.831,2.831,0,0,0,1.463,2.509L42.5,64.619a2.937,2.937,0,0,0,2.893,0L69.339,50.806A2.934,2.934,0,0,0,70.8,48.3V20.7a2.831,2.831,0,0,0-1.463-2.509L45.4,4.381a2.937,2.937,0,0,0-2.893,0L18.563,18.162A2.918,2.918,0,0,0,17.1,20.7Z" transform="translate(-17.1 -4)" fill="#fff"/>
      <path id="Path_5181_-_Outline" data-name="Path 5181 - Outline" d="M43.951,3.25a3.674,3.674,0,0,1,1.818.48L69.707,17.541A3.559,3.559,0,0,1,71.551,20.7V48.3a3.7,3.7,0,0,1-1.841,3.16L45.772,65.269a3.686,3.686,0,0,1-3.64,0L18.194,51.459A3.559,3.559,0,0,1,16.35,48.3V20.7a3.662,3.662,0,0,1,1.834-3.188l0,0L42.13,3.731A3.676,3.676,0,0,1,43.951,3.25Zm0,61a2.171,2.171,0,0,0,1.075-.282L68.964,50.156A2.176,2.176,0,0,0,70.051,48.3V20.7a2.078,2.078,0,0,0-1.075-1.852l-.013-.007L45.023,5.031a2.187,2.187,0,0,0-2.147,0L18.939,18.811A2.176,2.176,0,0,0,17.85,20.7V48.3a2.078,2.078,0,0,0,1.075,1.852l.013.007L42.879,63.969A2.168,2.168,0,0,0,43.951,64.25Z" transform="translate(-17.1 -4)" fill="#573bd1"/>
      <g id="noun-no-fee-3021832" transform="translate(-65.979 -32.479)">
        <path id="Path_149" data-name="Path 149" d="M133.756,56.378a7.387,7.387,0,1,0-2.164,5.215A7.378,7.378,0,0,0,133.756,56.378Zm-13.02,0a5.649,5.649,0,1,1,1.654,3.988,5.642,5.642,0,0,1-1.654-3.988Z" transform="translate(-43.321 0)" fill="#00d1bc"/>
        <path id="Path_149_-_Outline" data-name="Path 149 - Outline" d="M126.378,49a7.378,7.378,0,1,0,5.217,2.161A7.378,7.378,0,0,0,126.378,49m0,13.02a5.649,5.649,0,0,1-5.642-5.642h0a5.642,5.642,0,1,1,5.642,5.642m0-13.32a7.678,7.678,0,1,1-5.429,2.249A7.628,7.628,0,0,1,126.378,48.7Zm0,13.02a5.349,5.349,0,1,0-3.776-1.567,5.307,5.307,0,0,0,3.776,1.567Z" transform="translate(-43.321 0)" fill="#00d1bc"/>
        <path id="Path_150" data-name="Path 150" d="M350.378,273a7.387,7.387,0,1,0,5.215,2.163A7.378,7.378,0,0,0,350.378,273Zm0,13.02a5.649,5.649,0,1,1,3.988-1.654A5.642,5.642,0,0,1,350.378,286.02Z" transform="translate(-248.077 -211.419)" fill="#00d1bc"/>
        <path id="Path_151" data-name="Path 151" d="M220.734,63.141a.869.869,0,0,0-1.2.251l-16.513,25.2h0a.869.869,0,1,0,1.454.952l16.513-25.2a.869.869,0,0,0-.251-1.2Z" transform="translate(-119.322 -13.131)" fill="#00d1bc"/>
        <path id="Path_151_-_Outline" data-name="Path 151 - Outline" d="M220.258,63a.869.869,0,0,0-.727.393l-16.513,25.2h0a.869.869,0,1,0,1.454.952l16.513-25.2a.869.869,0,0,0-.251-1.2h0a.869.869,0,0,0-.476-.142m0-.4h0a1.269,1.269,0,0,1,1.062,1.964L204.808,89.757a1.269,1.269,0,0,1-2.315-.432,1.259,1.259,0,0,1-.021-.336h-.194l.406-.619,16.513-25.2a1.269,1.269,0,0,1,1.062-.574Z" transform="translate(-119.322 -13.131)" fill="#00d1bc"/>
        <path id="Path_152" data-name="Path 152" d="M412.573,336.255a.868.868,0,0,0-1.227,0l-1.99,1.99-1.99-1.99a.868.868,0,0,0-1.228,1.227l1.99,1.99-1.99,1.99a.868.868,0,1,0,1.228,1.227l1.99-1.99,1.99,1.99a.868.868,0,0,0,1.227-1.227l-1.99-1.99,1.99-1.99A.868.868,0,0,0,412.573,336.255Z" transform="translate(-307.054 -270.511)" fill="#00d1bc"/>
      </g>
    </g>
  </g>
</svg>
