<svg xmlns="http://www.w3.org/2000/svg" width="68" height="80" viewBox="0 0 68 80">
  <g id="security" transform="translate(-113.655 -1.464)" opacity="0.9">
    <path id="Path_143" data-name="Path 143" d="M147.716,81.464A4.291,4.291,0,0,1,145.7,81c-9.321-5-19-10.873-26.576-19.962a22.844,22.844,0,0,1-5.468-15.217c0-5.794.037-10.334.07-14.961.041-4.809.081-9.714.081-16.228,0-2.872,1.027-4.6,3.427-5.784C137.4-1,157.934-1,178.211,8.854a5.479,5.479,0,0,1,3.343,5.5c0,4.517.03,11.8.057,18.487.024,5.67.044,10.914.044,13.668a21.318,21.318,0,0,1-4.786,13.782c-7.489,9.392-17.508,15.515-27.215,20.736a4.262,4.262,0,0,1-1.937.436ZM147.68,4.783a65.81,65.81,0,0,0-28.967,7.074c-1.232.6-1.551,1.173-1.551,2.771,0,6.524-.04,11.44-.077,16.258-.037,4.621-.07,9.151-.07,14.935A19.359,19.359,0,0,0,121.7,58.889c7.21,8.649,16.56,14.318,25.589,19.16a2.918,2.918,0,0,0,.782.013c9.375-5.04,19.048-10.941,26.16-19.861a17.836,17.836,0,0,0,4.058-11.695c0-2.754-.02-7.992-.044-13.655-.028-6.689-.055-13.981-.055-18.5a2.225,2.225,0,0,0-1.453-2.49,66.343,66.343,0,0,0-29.063-7.084Z" transform="translate(0 0)" fill="#00cfb7"/>
    <path id="Path_144" data-name="Path 144" d="M273.154,201.508a4.723,4.723,0,0,1-2.278-.54c-2.316-1.335-4.542-2.791-6.693-4.2l-2.229-1.453a1.549,1.549,0,0,1-.255-2.4l26.393-26.349a1.554,1.554,0,0,1,2.651,1.1c0,2.868-.037,5.644-.071,8.453-.037,2.853-.071,5.737-.071,8.77a10.467,10.467,0,0,1-3.688,7.376c-4.4,3.62-7.544,5.907-11.477,8.64a4.114,4.114,0,0,1-2.282.608Zm-7.907-7.755.634.416c2.117,1.384,4.306,2.819,6.541,4.107a4.758,4.758,0,0,0,1.267.05c3.84-2.664,6.923-4.914,11.247-8.469a7.462,7.462,0,0,0,2.552-4.979c0-3.049.037-5.945.071-8.81.022-1.552.044-3.095.056-4.65Z" transform="translate(-124.949 -139.41)" fill="#573bd1"/>
    <path id="Path_145" data-name="Path 145" d="M219.624,134.415a1.581,1.581,0,0,1-.593-.118,1.552,1.552,0,0,1-.959-1.434V110.3a4.922,4.922,0,0,1,2.387-3.927,32.791,32.791,0,0,1,27.059-1.506,1.548,1.548,0,0,1,.55,2.549c-4.418,4.417-9.1,8.891-13.618,13.221-4.551,4.353-9.254,8.854-13.725,13.32a1.567,1.567,0,0,1-1.1.453Zm16.025-28.678a30.735,30.735,0,0,0-13.8,3.418,2.207,2.207,0,0,0-.667,1.152v18.831c3.675-3.617,7.447-7.227,11.123-10.741,3.908-3.738,7.932-7.587,11.794-11.406a29.851,29.851,0,0,0-8.444-1.254Z" transform="translate(-88.338 -85.847)" fill="#573bd1"/>
  </g>
</svg>
