<svg xmlns="http://www.w3.org/2000/svg" width="259" height="262" viewBox="0 0 259 262">
    <defs>
        <clipPath id="09h1vdm3ga">
            <path data-name="Rectangle 722" style="fill:#fff" d="M0 0h259v262H0z"/>
        </clipPath>
    </defs>
    <g style="clip-path:url(#09h1vdm3ga)">
        <path data-name="Path 5408" d="M147.6 28a50.6 50.6 0 0 1-5.7-.2c-4.9-.4-8.7-5.2-8.8-10C133 10.7 137.4 5.9 146 6" style="stroke-width:1.5px;stroke-linecap:round;stroke-linejoin:round;stroke:#fff;fill:none;stroke-miterlimit:10"/>
        <path data-name="Path 5409" d="M145.9 9.7c-5.8-.1-8.7 3.1-8.6 7.9.1 3.2 2.6 6.4 5.9 6.7 1.8.1 5.4.2 8.6.2" style="stroke-width:1.5px;stroke-linecap:round;stroke-linejoin:round;stroke:#fff;fill:none;stroke-miterlimit:10"/>
        <path data-name="Path 5410" d="M146.9 13c-3.3 0-5 1.7-4.9 4.3a3.76 3.76 0 0 0 3.4 3.6c1.4.1 6.6.2 8.3.1" style="stroke-width:1.5px;stroke-linecap:round;stroke-linejoin:round;stroke:#fff;fill:none;stroke-miterlimit:10"/>
        <path data-name="Path 5411" d="M117.4 175.2c-11-27.6-21.7-54.6-32.8-82.3 6 1 11.5 1.9 16.9 2.9 14.4 2.7 28.7 5.4 43.1 8.1a6.413 6.413 0 0 1 3.1 1.1c5.1 4.7 10.1 9.5 15.4 14.6-15.2 18.5-30.3 36.9-45.7 55.6zm-.8-13.2a2.2 2.2 0 0 0 .8-.1c.1-.4.3-.8.4-1.2 1.3-10.7 2.4-21.4 3.8-32.1a4.151 4.151 0 0 0-1.7-4.3c-8.2-6.7-16.3-13.4-24.4-20.2a22.012 22.012 0 0 0-2.4-1.5c7.9 20.4 15.7 39.9 23.5 59.4zm38.6-39.3c-9.2 1.6-17.3 3.3-25.5 4.5-3.6.5-4.3 2.4-4.6 5.4-.5 5-1.2 9.9-1.8 14.9-.6 4.9-1.1 9.8-1.6 14.7.2.1.5.2.7.3 10.8-13 21.5-26 32.8-39.8zm-13.7-15.2c-15.5-2.8-29.8-5.4-44.2-8.1-.1.3-.2.5-.3.8 8.9 7.3 17.7 14.7 26.7 22.1 5.9-4.9 11.5-9.6 17.8-14.8zm4.5 1.6c-5.4 4.5-10.6 8.9-15.8 13.2a4.348 4.348 0 0 1 .4.7c8.1-1.5 16.3-3 25.2-4.6-3.6-3.5-6.6-6.3-9.8-9.3z" style="stroke:#fff;fill:#fff"/>
        <path data-name="Path 5412" d="M64.1 38.2c-2.3-5.9-4.6-11.6-7-17.5 1.3.2 2.4.4 3.6.6 3.1.6 6.1 1.1 9.2 1.7a1.854 1.854 0 0 1 .7.2c1.1 1 2.1 2 3.3 3.1-3.3 4-6.5 8-9.8 11.9zm-.1-2.8h.2c0-.1.1-.2.1-.3.3-2.3.5-4.6.8-6.8a.807.807 0 0 0-.4-.9c-1.7-1.4-3.5-2.9-5.2-4.3a2.186 2.186 0 0 0-.5-.3c1.7 4.3 3.3 8.5 5 12.6zm8.2-8.3c-2 .4-3.7.7-5.4 1-.8.1-.9.5-1 1.1-.1 1.1-.3 2.1-.4 3.2-.1 1-.2 2.1-.3 3.1.1 0 .1 0 .2.1 2.2-2.8 4.5-5.6 6.9-8.5zm-2.9-3.3c-3.3-.6-6.4-1.2-9.4-1.7 0 .1 0 .1-.1.2 1.9 1.6 3.8 3.1 5.7 4.7 1.2-1.1 2.4-2.1 3.8-3.2zm.9.4c-1.1 1-2.3 1.9-3.4 2.8l.1.1c1.7-.3 3.5-.6 5.4-1-.7-.7-1.4-1.3-2.1-1.9z" style="stroke-width:.5px;stroke:#fff;fill:#fff"/>
        <path data-name="Path 5413" d="M104.2 250.7a107.33 107.33 0 0 1-18.7-5l.7-1.9a116.008 116.008 0 0 0 18.4 4.9zm57.5-3.9-.6-1.9a122.389 122.389 0 0 0 17.5-7.4l.9 1.8a126.481 126.481 0 0 1-17.8 7.5zm-124-33.3A118.768 118.768 0 0 1 26 198l1.7-1.1a121.286 121.286 0 0 0 11.5 15.2zm184.7-12.7-1.7-1.1a108.271 108.271 0 0 0 9.3-16.6l1.8.8a99.725 99.725 0 0 1-9.4 16.9zm16.1-35.1-1.9-.5a118.289 118.289 0 0 0 3.4-18.7v-.2l2 .2v.2a135.21 135.21 0 0 1-3.5 19zM8.1 143.3c-.2-2.6-.3-5.3-.3-7.9a108.825 108.825 0 0 1 .6-11.4l2 .2a104.923 104.923 0 0 0-.5 11.2q0 3.9.3 7.8zm223.3-53a123.93 123.93 0 0 0-8.9-16.9l1.7-1.1a111.563 111.563 0 0 1 9 17.1zM29.5 70.9l-1.7-1.1a125.058 125.058 0 0 1 12.1-15.1l1.5 1.4a100.182 100.182 0 0 0-11.9 14.8zm151.9-36.4a122.608 122.608 0 0 0-17.3-7.9l.7-1.9a121.593 121.593 0 0 1 17.6 8zm-92.2-8.8-.6-1.9a122.424 122.424 0 0 1 18.8-4.5l.3 2a105.99 105.99 0 0 0-18.5 4.4z" style="stroke:#fff;fill:#fff"/>
        <path data-name="Path 5414" d="M76.607 233.129A14.8 14.8 0 1 0 58.842 244.2a14.8 14.8 0 0 0 17.765-11.071z" style="stroke-width:2px;stroke:#fff;fill:none;stroke-miterlimit:10"/>
        <path data-name="Path 5415" d="m67.9 228.7-6.3 3.1-6.3-2.8 3-5.6 3-5.6 3.3 5.4z" style="stroke-width:1.5px;stroke:#fff;fill:none;stroke-miterlimit:10"/>
        <path data-name="Path 5416" d="m55.3 231.3 6.4 2.8 6.2-3.2-3 5.6-3 5.6-3.3-5.4z" style="stroke-width:1.5px;stroke:#fff;fill:none;stroke-miterlimit:10"/>
        <path data-name="Path 5417" d="M228.4 58.5a14.176 14.176 0 1 1-10.3-17.2 14.17 14.17 0 0 1 10.3 17.2z" style="stroke-width:2px;stroke:#fff;fill:none;stroke-miterlimit:10"/>
        <path data-name="Path 5418" d="M220 51c-.3-1.9-2-2.4-4.1-2.4l-.2-2.6-1.6.1.2 2.6c-.4 0-.8.1-1.3.1l-.2-2.6-1.6.1.2 2.6c-.3 0-.7.1-1 .1l-2.2.1.1 1.7 1.2-.1a.956.956 0 0 1 1 .6l.2 3 .3 4.2c0 .2-.1.5-.6.6l-1.2.1-.2 1.9 2.1-.1a3.75 3.75 0 0 0 1.1-.1l.2 2.7 1.6-.1-.2-2.6a5.7 5.7 0 0 0 1.3-.1l.2 2.6 1.6-.1-.2-2.6c2.7-.3 4.5-1.1 4.6-3.7a2.663 2.663 0 0 0-2.5-3.1A2.578 2.578 0 0 0 220 51zm-1.8 5.9c.1 2-3.3 2-4.4 2.1l-.2-3.5c1.1-.2 4.4-.7 4.6 1.4zm-1.1-5c.1 1.8-2.7 1.8-3.6 1.8l-.2-3.2c.9 0 3.7-.4 3.8 1.4z" style="stroke-width:1.5px;stroke:#fff;fill:none;stroke-miterlimit:10"/>
        <path data-name="Path 5419" d="M152.2 250.2a14.176 14.176 0 1 1-10.3-17.2 14.17 14.17 0 0 1 10.3 17.2z" style="stroke-width:2px;stroke:#fff;fill:none;stroke-miterlimit:10"/>
        <path data-name="Path 5420" d="M144.7 244.8c.3-1.9-1.2-2.9-3.1-3.6l.6-2.6-1.6-.4-.6 2.5-1.2-.3.6-2.5-1.6-.4-.6 2.6a3.553 3.553 0 0 0-1-.2l-2.1-.5-.4 1.7s1.2.3 1.1.3a.888.888 0 0 1 .7.9l-.7 2.9-1 4.1a.6.6 0 0 1-.7.4l-1.1-.3-.8 1.8 2 .5c.4.1.7.2 1.1.3l-.6 2.6 1.6.4.6-2.6 1.2.3-.6 2.5 1.6.4.6-2.6c2.6.5 4.6.3 5.5-2.1a2.761 2.761 0 0 0-1.4-3.8 2.728 2.728 0 0 0 1.9-2.3zm-3.5 4.9c-.5 1.9-3.7.9-4.8.6l.9-3.4c1 .3 4.4.8 3.9 2.8zm.4-5c-.4 1.8-3.1.9-4 .6l.8-3.1c.9.3 3.7.7 3.2 2.5z" style="stroke-width:1.5px;stroke:#fff;fill:none;stroke-miterlimit:10"/>
        <path data-name="Path 5421" d="M79.1 32.4a14.176 14.176 0 1 1-10.3-17.2 14.17 14.17 0 0 1 10.3 17.2z" style="stroke-width:2px;stroke:#fff;fill:none;stroke-miterlimit:10"/>
        <path data-name="Path 5422" d="M154.6 18.9a14.088 14.088 0 0 1-2.8 5.6 14.323 14.323 0 0 1-4.5 3.6 13.942 13.942 0 0 1-9.9 1.1 14.176 14.176 0 1 1 17.2-10.3z" style="stroke-width:2px;stroke:#fff;fill:none;stroke-miterlimit:10"/>
        <path data-name="Path 5423" d="M29.4 172.4a14.176 14.176 0 1 1-10.3-17.2 14.17 14.17 0 0 1 10.3 17.2z" style="stroke-width:2px;stroke:#fff;fill:none;stroke-miterlimit:10"/>
        <path data-name="Path 5424" d="M207.7 198.3A15.7 15.7 0 1 1 192 214a15.663 15.663 0 0 1 15.7-15.7z" style="stroke-width:2px;stroke:#fff;fill:none;stroke-miterlimit:10"/>
        <path data-name="Path 5425" d="M209.6 216v7.6h-3.9v-7.5c-4.3-.2-7.6-1.1-7.6-2.1s3.3-1.9 7.6-2.1v-2.3h-5.3V206h14.5v3.6h-5.3v2.3c4.3.2 7.6 1 7.6 2s-3.3 1.9-7.6 2.1zm0 0a5.388 5.388 0 0 1-1.8.1h-2v-.1c-3.8-.2-7.6-.7-7.6-2 0-1.2 3.8-2 7.6-2.1v4.5m3.8 0v-4.7c3.8.2 7.6 1.5 7.6 2.3s-3.7 2.1-7.5 2.2" style="stroke-width:1.5px;stroke:#fff;fill:none;stroke-miterlimit:10"/>
        <path data-name="Path 5426" d="M15.4 105.3A14.4 14.4 0 1 0 1 90.9a14.34 14.34 0 0 0 14.4 14.4z" style="stroke-width:2px;stroke:#fff;fill:none;stroke-miterlimit:10"/>
        <path data-name="Path 5427" d="M20.7 94.6c0-2.9-1.8-3.9-5.3-4.4-2.5-.3-3-1-3-2.2s.8-1.9 2.5-1.9a2.565 2.565 0 0 1 2.8 1.8.548.548 0 0 0 .6.4h1.3a.645.645 0 0 0 .6-.6v-.1a4.059 4.059 0 0 0-3.8-3.4v-2a.842.842 0 0 0-.7-.7h-1.3a.842.842 0 0 0-.7.7v1.9c-2.5.3-4.1 2-4.1 4.1 0 2.8 1.7 3.9 5.2 4.3 2.3.4 3.1.9 3.1 2.3s-1.2 2.3-2.8 2.3c-2.2 0-2.9-.9-3.2-2.2a.634.634 0 0 0-.6-.5H9.9a.645.645 0 0 0-.6.6v.1c.3 2.1 1.7 3.6 4.4 4v2a.842.842 0 0 0 .7.7h1.3a.842.842 0 0 0 .7-.7v-2c2.6-.5 4.3-2.2 4.3-4.5z" style="stroke-width:1.5px;stroke:#fff;fill:none;stroke-miterlimit:10"/>
        <path data-name="Path 5428" d="m239.5 117.5-2.4 9-1.9.7-.7 2.6 2-.7-1.3 5.3H249l.8-3.4h-8.4l1.1-4 2.3-1 .6-2.5-2.2.8 1.8-6.7z" style="fill-rule:evenodd;stroke:#fff;fill:none;stroke-miterlimit:10"/>
        <path data-name="Path 5429" d="M242.1 110.7a15.2 15.2 0 1 1-15.2 15.2 15.193 15.193 0 0 1 15.2-15.2z" style="fill-rule:evenodd;stroke-width:2px;stroke:#fff;fill:none;stroke-miterlimit:10"/>
        <path data-name="Path 5430" d="m239.5 117.5-2.4 9-1.9.7-.7 2.6 2-.7-1.3 5.3H249l.8-3.4h-8.4l1.1-4 2.3-1 .6-2.5-2.2.8 1.8-6.7z" style="fill-rule:evenodd;stroke-width:1.5px;stroke:#fff;fill:none;stroke-miterlimit:10"/>
        <path data-name="Path 5431" d="M8 163.9s10.3-6.7 13.7-3.4c2.4 2.4 1.9 4.1 1.9 4.1s-7-1.9-7-.6c0 1.9-1.1 12.3-1.1 12.3l-1.8-11.2a1.49 1.49 0 0 0-1.2-1.2c-1.6-.2-5.2.1-4.5 0z" style="stroke-width:1.5px;stroke:#fff;fill:none;stroke-miterlimit:10"/>
    </g>
</svg>
