<svg width="38" height="38" viewBox="0 0 38 38" fill="none" xmlns="http://www.w3.org/2000/svg">
<path d="M18.1448 22.9266C15.0415 22.9266 12.5082 20.3933 12.5082 17.29C12.5082 14.1866 15.0415 11.6533 18.1448 11.6533C21.2482 11.6533 23.7815 14.1866 23.7815 17.29C23.7815 20.3933 21.2482 22.9266 18.1448 22.9266ZM18.1448 14.0442C16.3557 14.0442 14.8832 15.5008 14.8832 17.3058C14.8832 19.1108 16.3398 20.5675 18.1448 20.5675C19.9498 20.5675 21.4065 19.1108 21.4065 17.3058C21.4065 15.5008 19.9498 14.0442 18.1448 14.0442Z" fill="#573BD1"/>
<path d="M26.3625 33.1708C25.7134 33.1708 25.175 32.6325 25.175 31.9833C25.175 28.9433 22.0242 26.4733 18.145 26.4733C14.2659 26.4733 11.115 28.9433 11.115 31.9833C11.115 32.6325 10.5767 33.1708 9.92753 33.1708C9.27837 33.1708 8.74003 32.6325 8.74003 31.9833C8.74003 27.645 12.9517 24.0983 18.145 24.0983C23.3384 24.0983 27.55 27.6292 27.55 31.9833C27.55 32.6325 27.0117 33.1708 26.3625 33.1708Z" fill="#573BD1"/>
<path d="M18.2083 36.0208C9.2625 36.0208 1.97917 28.7375 1.97917 19.7917C1.97917 10.8458 9.2625 3.5625 18.2083 3.5625C20.4092 3.5625 22.5308 3.98998 24.5258 4.82915C25.0958 5.06665 25.3808 5.69995 25.1908 6.28579C25.0167 6.80829 24.9375 7.3625 24.9375 7.91667C24.9375 8.85083 25.1908 9.76914 25.6817 10.5608C25.935 11.0041 26.2675 11.4 26.6475 11.7325C28.025 12.9833 30.0675 13.3792 31.6667 12.8092C32.2525 12.5875 32.9175 12.8883 33.155 13.4742C34.01 15.485 34.4375 17.6225 34.4375 19.8075C34.4375 28.7375 27.1542 36.0208 18.2083 36.0208ZM18.2083 5.9375C10.5767 5.9375 4.35417 12.1442 4.35417 19.7917C4.35417 27.4392 10.5767 33.6458 18.2083 33.6458C25.84 33.6458 32.0625 27.4392 32.0625 19.7917C32.0625 18.2717 31.8092 16.7675 31.3342 15.3267C29.1492 15.7067 26.7583 15.0259 25.08 13.49C24.5258 13.015 24.035 12.4292 23.655 11.78C22.9583 10.64 22.5783 9.29417 22.5783 7.91667C22.5783 7.48917 22.61 7.07754 22.6892 6.66587C21.2483 6.17503 19.7442 5.9375 18.2083 5.9375Z" fill="#573BD1"/>
<path d="M30.0833 15.4375C28.215 15.4375 26.4417 14.7409 25.0642 13.49C24.51 13.015 24.0192 12.4292 23.6392 11.78C22.9425 10.64 22.5625 9.29416 22.5625 7.91666C22.5625 7.10916 22.6892 6.31751 22.9425 5.55751C23.2908 4.48084 23.8925 3.48333 24.7 2.67583C26.125 1.21917 28.0408 0.395828 30.0992 0.395828C32.2525 0.395828 34.295 1.31419 35.6883 2.89752C36.9233 4.27502 37.62 6.04833 37.62 7.91666C37.62 8.51833 37.5408 9.11999 37.3825 9.68999C37.2242 10.4025 36.9233 11.1467 36.5117 11.7958C35.5933 13.3475 34.1367 14.5033 32.4267 15.0417C31.7142 15.3108 30.9225 15.4375 30.0833 15.4375ZM30.0833 2.77083C28.6742 2.77083 27.36 3.32496 26.3942 4.32246C25.84 4.89246 25.4442 5.54162 25.2067 6.28578C25.0325 6.80828 24.9533 7.36249 24.9533 7.91666C24.9533 8.85083 25.2067 9.76913 25.6975 10.5608C25.9508 11.0041 26.2833 11.4 26.6633 11.7325C28.0408 12.9833 30.0833 13.3792 31.6825 12.8092C32.8858 12.4292 33.8675 11.6375 34.5008 10.5767C34.7858 10.1175 34.9758 9.62669 35.0867 9.13586C35.1975 8.72419 35.245 8.32833 35.245 7.91666C35.245 6.64999 34.77 5.43086 33.915 4.48086C32.9492 3.38836 31.5558 2.77083 30.0833 2.77083Z" fill="#573BD1"/>
<path d="M32.4425 9.07246H27.7083C27.0592 9.07246 26.5208 8.53413 26.5208 7.88496C26.5208 7.2358 27.0592 6.69746 27.7083 6.69746H32.4425C33.0917 6.69746 33.63 7.2358 33.63 7.88496C33.63 8.53413 33.1075 9.07246 32.4425 9.07246Z" fill="#573BD1"/>
<path d="M30.0833 11.495C29.4342 11.495 28.8958 10.9567 28.8958 10.3075V5.57336C28.8958 4.9242 29.4342 4.38586 30.0833 4.38586C30.7325 4.38586 31.2708 4.9242 31.2708 5.57336V10.3075C31.2708 10.9725 30.7325 11.495 30.0833 11.495Z" fill="#573BD1"/>
</svg>
