<svg width="24" height="24" viewBox="0 0 24 24" fill="none" xmlns="http://www.w3.org/2000/svg">
<path d="M12.8823 1.44705V2.11529C12.8823 2.50823 13.0564 2.87999 13.3588 3.13176L14.6153 4.17882C15.1353 4.61293 15.2447 5.36705 14.8694 5.93176L14.2694 6.83293C13.9427 7.32259 13.462 7.68937 12.9035 7.87529L12.7353 7.93176C12.5454 7.99523 12.3728 8.1016 12.2307 8.24262C12.0887 8.38363 11.981 8.55549 11.9162 8.74485C11.8513 8.93422 11.831 9.13598 11.8567 9.33448C11.8825 9.53298 11.9536 9.72287 12.0647 9.8894C12.4988 10.5423 12.2635 11.4271 11.5623 11.7776L8.47057 13.3235L8.96821 14.5694C9.06858 14.8224 9.07376 15.1033 8.9828 15.3599C8.89184 15.6165 8.71092 15.8313 8.47358 15.9647C8.23624 16.098 7.9586 16.1407 7.69216 16.0849C7.42572 16.0291 7.18857 15.8785 7.02468 15.6612L6.22586 14.5953C6.09048 14.4149 5.91123 14.272 5.70513 14.1804C5.49904 14.0887 5.27294 14.0512 5.04829 14.0715C4.82364 14.0918 4.6079 14.1691 4.42154 14.2962C4.23519 14.4233 4.0844 14.5959 3.98351 14.7976L3.17645 16.4118L2.45645 16.5918M12.8823 1.44705C11.0224 1.29097 9.15425 1.6305 7.4672 2.42899C5.78016 3.22748 4.33416 4.45773 3.27574 5.99509C2.21731 7.53244 1.58408 9.32226 1.4402 11.1832C1.29632 13.0441 1.64691 14.91 2.45645 16.5918M12.8823 1.44705C14.7267 1.60087 16.4985 2.23661 18.0211 3.28865C19.5438 4.3407 20.7641 5.77348 21.5604 7.44415C22.3567 9.11483 22.7012 10.9651 22.5595 12.8104C22.4178 14.6557 21.7949 16.4316 20.7529 17.9612L20.5447 17.3388C20.3689 16.8118 20.0317 16.3534 19.5809 16.0287C19.1301 15.7039 18.5885 15.5293 18.0329 15.5294H17.2941L16.9129 15.1482C16.7214 14.9564 16.4871 14.8129 16.2293 14.7295C15.9714 14.6461 15.6974 14.6252 15.4299 14.6685C15.1624 14.7119 14.909 14.8182 14.6907 14.9787C14.4723 15.1392 14.2952 15.3493 14.1741 15.5918L14.1317 15.6776C14.0162 15.909 13.8538 16.1138 13.655 16.279C13.4561 16.4443 13.225 16.5664 12.9764 16.6376L11.8117 16.9694C11.1647 17.1541 10.76 17.7953 10.8706 18.46L10.9564 18.9753C11.0506 19.5329 11.5329 19.9412 12.0976 19.9412C13.0929 19.9412 13.9776 20.5788 14.2917 21.5235L14.5447 22.28M2.45645 16.5918C3.51104 18.7845 5.28864 20.5471 7.49021 21.583C9.69177 22.619 12.183 22.8651 14.5447 22.28M14.5447 22.28C17.074 21.6525 19.2837 20.1155 20.7517 17.9623M16.4117 8.47058C16.4117 9.5247 15.9494 10.4706 15.2164 11.1176" stroke="#00D1BC" stroke-width="1.76471" stroke-linecap="round" stroke-linejoin="round"/>
</svg>
