<svg width="21" height="22" viewBox="0 0 21 22" fill="none" xmlns="http://www.w3.org/2000/svg">
<path d="M16.59 20.75C17.71 20.75 18.42 20.37 18.87 19.92C19.75 19.04 20.37 17.17 18.39 13.2L17.52 11.47C17.41 11.24 17.41 10.76 17.52 10.53L18.39 8.80002C20.38 4.83002 19.75 2.95002 18.87 2.08002C18 1.20002 16.12 0.570022 12.16 2.56002L3.6 6.84002C1.47 7.90002 0.299997 9.38002 0.299997 11C0.299997 12.62 1.47 14.1 3.59 15.16L12.15 19.44C14.09 20.41 15.53 20.75 16.59 20.75ZM16.59 2.75002C17.13 2.75002 17.55 2.88002 17.81 3.14002C18.54 3.86002 18.25 5.73002 17.05 8.12002L16.18 9.86002C15.86 10.51 15.86 11.49 16.18 12.14L17.05 13.87C18.25 16.27 18.54 18.13 17.81 18.85C17.09 19.58 15.22 19.29 12.82 18.09L4.26 13.81C2.69 13.03 1.8 12 1.8 10.99C1.8 9.98002 2.7 8.95002 4.27 8.17002L12.83 3.90002C14.35 3.14002 15.66 2.75002 16.59 2.75002Z" fill="white" stroke="white" stroke-width="0.6"/>
</svg>
