<svg xmlns="http://www.w3.org/2000/svg" width="81" height="82" viewBox="0 0 81 82">
  <g id="icon_bito-08" transform="translate(-5.199 -0.7)">
    <g id="Group_2388" data-name="Group 2388" transform="translate(5.199 3.512)">
      <g id="Group_2387" data-name="Group 2387">
        <path id="Path_5198" data-name="Path 5198" d="M44.309,9.7a27.768,27.768,0,0,0-10.2,1.395c1.905,1.873,2.5,3.9,3.175,6.575A2.742,2.742,0,0,1,38,17.032a11.521,11.521,0,0,1,3.175-1.992c.476-.2.516-.159.516.359V34.4c0,.638,0,.638-.6.638-3.215,0-6.39-.239-9.565-.319-.4,0-.833-.04-1.23-.08a14.92,14.92,0,0,1-19.884-3.028A36.355,36.355,0,0,0,7.2,46.6c-.079,20.321,16.63,37.216,36.872,37.1a35.666,35.666,0,0,0,20.123-5.937L60.106,58.192l16.828,5.459a36.36,36.36,0,0,0,4.128-16.735A37.043,37.043,0,0,0,44.309,9.7ZM13.867,57.754A36.494,36.494,0,0,1,12.28,51.3c-.2-1.514-.278-2.988-.357-4.343a34.366,34.366,0,0,1,1.349-9.324c.119-.359.238-.478.635-.4,2.262.558,4.564.916,6.866,1.275.794.12,1.627.239,2.421.319.437.04.516.2.476.6-.119,1-.238,1.952-.318,2.949a57.036,57.036,0,0,0-.079,7.371,56.23,56.23,0,0,0,.6,5.738c.2,1.235.2,1.275-1.072,1.434a81.339,81.339,0,0,0-8.176,1.355A.635.635,0,0,1,13.867,57.754ZM28.473,74.927A32.834,32.834,0,0,1,18,65.563c-.6-.8-1.072-1.634-1.627-2.47-.238-.4,0-.438.278-.478,2.1-.438,4.247-.717,6.35-1,.556-.08,1.151-.12,1.707-.2.278-.04.476.04.516.359A42.229,42.229,0,0,0,27.4,67.954a38.651,38.651,0,0,0,3.016,5.658,30.023,30.023,0,0,0,2.1,2.909c.079.08.119.2.2.279A20.253,20.253,0,0,1,28.473,74.927ZM41.73,78.035c0,.558,0,.6-.516.4a11.855,11.855,0,0,1-4.445-3.227,29.171,29.171,0,0,1-5.715-9.922c-.476-1.235-.833-2.47-1.191-3.745-.159-.558-.119-.558.437-.6,2.977-.239,5.953-.319,8.93-.4.635,0,1.23-.04,1.826-.08.675,0,.675,0,.675.677V78.035Zm-.6-22.313c-2.342-.04-4.683.08-7.065.2-1.667.08-3.294.159-4.961.279-.357.04-.476-.08-.516-.4-.238-2.072-.476-4.144-.6-6.216a55.526,55.526,0,0,1,.04-6.3c.079-1.156.2-2.351.278-3.506.04-.4.159-.518.6-.478,3.215.2,6.39.438,9.6.438.913,0,1.826.08,2.7.08.4,0,.476.159.476.518V55.164C41.769,55.6,41.61,55.722,41.134,55.722Zm5.358-30.761V15.438c0-.6,0-.6.6-.4a11.963,11.963,0,0,1,4.723,3.467,28.829,28.829,0,0,1,5.16,9.125,45.023,45.023,0,0,1,1.865,6.375c.119.558.119.6-.437.638-2.54.2-5.08.279-7.62.4-1.23.04-2.5.04-3.731.08-.437,0-.556-.12-.556-.558ZM58.4,61.34a36.517,36.517,0,0,1-5.12,11.754,14.856,14.856,0,0,1-5.4,5.021c-.318.159-.635.239-.913.4-.4.2-.476.04-.476-.319V61.18c0-.677,0-.677.635-.677,2.937.08,5.874.2,8.851.279.714.04,1.389.12,2.1.159C58.359,60.941,58.479,61.061,58.4,61.34Zm1.667-11.316a54.288,54.288,0,0,1-.556,5.7c-.079.4-.2.558-.635.518-1.31-.12-2.62-.159-3.89-.239-2.659-.159-5.318-.239-8.017-.239-.437,0-.476-.2-.476-.558V40.5c0-.638,0-.6.6-.638,2.58-.08,5.16-.12,7.739-.2,1.469-.04,2.977-.2,4.445-.319.318-.04.437.04.476.359.2,1.833.357,3.626.4,5.5C60.146,46.8,60.146,48.39,60.066,50.024Zm3.572-16.5a59.345,59.345,0,0,0-1.826-6.933,38.028,38.028,0,0,0-4.366-9.045c-.04-.08-.079-.12-.2-.319A31.878,31.878,0,0,1,71.417,29.543c.476.757.913,1.554,1.349,2.311.278.478.238.518-.278.677-1.667.438-3.334.757-5.041,1.036-1.032.159-2.024.319-3.056.438C63.956,34.085,63.757,34.006,63.638,33.528Zm10.8,24.306-.119.239c-.079.4-.278.438-.675.319a57.832,57.832,0,0,0-8.176-1.514c-.119,0-.278-.04-.4-.04-.953-.159-.873,0-.754-1.036.318-2.231.437-4.463.556-6.734a67.988,67.988,0,0,0-.318-9.842c-.04-.478.2-.518.516-.558,1.786-.239,3.572-.478,5.358-.837a33.38,33.38,0,0,0,4.048-1c.278-.08.4-.04.476.239a30.168,30.168,0,0,1,1.31,6.734c.079.956.119,1.913.2,2.869A34.238,34.238,0,0,1,74.434,57.833Z" transform="translate(-6.396 -8.897)" fill="#00cfb7"/>
        <path id="Path_5198_-_Outline" data-name="Path 5198 - Outline" d="M44.309,8.95h0a37.136,37.136,0,0,1,14.613,3.032A37.823,37.823,0,0,1,81.812,46.92a36.526,36.526,0,0,1-1.1,8.89A37.953,37.953,0,0,1,77.6,64l-.292.565L61.1,59.3l3.928,18.8-.425.281a36.47,36.47,0,0,1-20.145,6.063l-.393,0A36.443,36.443,0,0,1,29.4,81.468a38.193,38.193,0,0,1-20-20.161,37.671,37.671,0,0,1,.327-30l.5-1.111.766.948A14.17,14.17,0,0,0,29.882,34.02l.224-.15.268.027c.366.037.787.076,1.155.076h.019c1.272.032,2.563.09,3.811.146,1.827.082,3.714.167,5.581.172V15.966A10.851,10.851,0,0,0,38.494,17.6l-.03.025c-.209.164-.308.234-.367.275l-.007,0L38,17.993l-.168.183L36.9,19.2l-.34-1.345c-.67-2.652-1.24-4.519-2.974-6.223l-.873-.858,1.16-.388A28.429,28.429,0,0,1,44.309,8.95ZM76.555,62.739a36.163,36.163,0,0,0-6.777-41.565A35.827,35.827,0,0,0,44.309,10.45a27.837,27.837,0,0,0-8.859,1.008A12.672,12.672,0,0,1,37.7,16.3a12.2,12.2,0,0,1,3.186-1.952,1.688,1.688,0,0,1,.647-.168.874.874,0,0,1,.852.653,2,2,0,0,1,.055.567V34.4a1.4,1.4,0,0,1-.276,1.07,1.307,1.307,0,0,1-1.069.318c-1.952,0-3.91-.088-5.8-.174-1.238-.056-2.518-.114-3.772-.145-.341,0-.7-.027-1.03-.058A15.61,15.61,0,0,1,22,37.9h-.189c.484.068.975.13,1.451.178A1.161,1.161,0,0,1,24.417,39.5l0,.015-.035.289c-.108.9-.209,1.745-.28,2.63a55.938,55.938,0,0,0-.078,7.276v.005a55.966,55.966,0,0,0,.587,5.656c.121.752.2,1.249-.129,1.688s-.861.513-1.59.6a81.2,81.2,0,0,0-8.1,1.34l-.048.011-.049,0c-.064.006-.127.01-.188.01a1.365,1.365,0,0,1-1.355-1.045,36.946,36.946,0,0,1-1.616-6.576V51.4c-.191-1.456-.275-2.9-.349-4.167l-.015-.261v-.031a34.876,34.876,0,0,1,1.382-9.525l.005-.017A1.168,1.168,0,0,1,13.7,36.46a1.777,1.777,0,0,1,.351.038l.032.007c1.041.257,2.1.472,3.165.665A15.58,15.58,0,0,1,10.632,33,35.48,35.48,0,0,0,7.95,46.6,36.055,36.055,0,0,0,18.6,72.33,35.479,35.479,0,0,0,43.858,82.944h.222l.383,0a34.963,34.963,0,0,0,18.892-5.538L59.107,57.08ZM22.9,39.55c-.75-.081-1.516-.192-2.239-.3-2.212-.345-4.494-.7-6.721-1.237a33.62,33.62,0,0,0-1.267,8.93l.012.2c.076,1.3.155,2.654.338,4.054a35.484,35.484,0,0,0,1.554,6.315c2.7-.628,5.454-.989,8.123-1.338.136-.017.345-.043.5-.071-.017-.144-.048-.335-.074-.5l0-.011a58.336,58.336,0,0,1-.521-13.278c.073-.913.176-1.775.286-2.688ZM46.644,14.17a2.144,2.144,0,0,1,.682.158l.031.011a12.739,12.739,0,0,1,5.02,3.674,29.149,29.149,0,0,1,5.3,9.352,45.5,45.5,0,0,1,1.9,6.478v.006a1.287,1.287,0,0,1-.105,1.129,1.249,1.249,0,0,1-1.01.413c-1.917.15-3.86.234-5.738.315-.624.027-1.269.055-1.9.085H50.8c-.621.02-1.26.03-1.878.04s-1.244.02-1.853.04h-.024a1.168,1.168,0,0,1-1.306-1.308V15.438a2.529,2.529,0,0,1,.038-.57A.867.867,0,0,1,46.644,14.17Zm11.4,19.748A43.533,43.533,0,0,0,56.27,27.9l0-.007A27.713,27.713,0,0,0,51.247,19l0,0a11.356,11.356,0,0,0-4-3.082V34.365c.552-.016,1.114-.025,1.659-.033.61-.01,1.24-.02,1.848-.039.635-.03,1.279-.058,1.9-.085C54.422,34.131,56.25,34.053,58.048,33.918ZM55.373,15.555l2.185.992a32.3,32.3,0,0,1,4.588,2.487,32.8,32.8,0,0,1,9.908,10.112c.356.566.691,1.155,1.015,1.724q.174.307.347.608a1.053,1.053,0,0,1-.706,1.769l-.031.009c-1.5.394-3.075.718-5.11,1.051h-.006l-.363.056c-.916.142-1.782.277-2.7.383a2.1,2.1,0,0,1-.36.035,1.217,1.217,0,0,1-1.231-1.074l-.007-.032a58.189,58.189,0,0,0-1.8-6.84,36.928,36.928,0,0,0-4.275-8.864L56.8,17.93l-.021-.043-.025-.038c-.032-.048-.079-.119-.148-.234ZM71.929,31.9l-.164-.288c-.316-.555-.642-1.129-.983-1.67a31.314,31.314,0,0,0-9.462-9.655c-.649-.428-1.312-.826-2.033-1.216a42.319,42.319,0,0,1,3.234,7.276l0,.011a59.516,59.516,0,0,1,1.824,6.9c.881-.1,1.727-.234,2.622-.373l.361-.056C69.148,32.53,70.586,32.241,71.929,31.9Zm2.749,4.147a1,1,0,0,1,.99.811,30.933,30.933,0,0,1,1.339,6.891c.04.484.071.973.1,1.445s.059.949.1,1.419l0,.039v.039a34.777,34.777,0,0,1-2.07,11.4l-.014.039-.1.2a1.077,1.077,0,0,1-1.068.872,1.819,1.819,0,0,1-.521-.087,56.652,56.652,0,0,0-8.025-1.487,2.415,2.415,0,0,1-.252-.026c-.031,0-.078-.011-.1-.012H65l-.061-.01c-.111-.019-.208-.033-.291-.045a1.262,1.262,0,0,1-1-.484,1.492,1.492,0,0,1-.116-1.082c.009-.075.02-.158.03-.251l0-.02c.316-2.221.435-4.482.549-6.668v-.006a67.767,67.767,0,0,0-.316-9.733,1.181,1.181,0,0,1,.405-1.095,1.455,1.455,0,0,1,.762-.271c1.744-.233,3.546-.475,5.306-.828a32.344,32.344,0,0,0,3.958-.972l.031-.01A1.474,1.474,0,0,1,74.679,36.049ZM75.707,46.7c-.039-.473-.068-.95-.1-1.411s-.059-.948-.1-1.419v-.01a29.108,29.108,0,0,0-1.167-6.2,37.148,37.148,0,0,1-3.772.9c-1.758.353-3.534.594-5.255.825a67.754,67.754,0,0,1,.3,9.719c-.116,2.214-.236,4.5-.561,6.787q-.011.094-.021.176l.105.017c.085,0,.165.016.231.025.031,0,.078.011.1.012h.039l.043.005a58.341,58.341,0,0,1,8.146,1.5l.047-.094A33.3,33.3,0,0,0,75.707,46.7ZM28.766,38.548c.063,0,.128,0,.2.009l1.428.09c2.659.17,5.409.346,8.12.346.478,0,.953.021,1.412.041s.871.038,1.286.038a1.14,1.14,0,0,1,1.226,1.268V55.1a1.2,1.2,0,0,1-.224.966,1.325,1.325,0,0,1-1.082.405h-.013c-.3-.005-.613-.008-.929-.008-1.981,0-3.932.1-6,.2l-.089,0c-1.751.084-3.33.162-4.932.277a1.807,1.807,0,0,1-.188.01,1.1,1.1,0,0,1-1.139-1.063v-.007c-.235-2.048-.479-4.165-.6-6.259a55.837,55.837,0,0,1,.04-6.381v-.009c.04-.584.091-1.184.14-1.765s.1-1.17.138-1.742l0-.023A1.134,1.134,0,0,1,28.766,38.548ZM40.94,40.571c-.36-.006-.724-.022-1.079-.038-.443-.02-.9-.04-1.346-.04-2.759,0-5.533-.177-8.216-.349l-1.252-.079c-.037.51-.081,1.03-.124,1.534-.048.574-.1,1.167-.138,1.737a54.37,54.37,0,0,0-.039,6.206c.112,1.955.337,3.952.559,5.891,1.537-.107,3.055-.182,4.729-.262l.087,0c1.993-.1,4.054-.2,6.072-.2.252,0,.5,0,.747,0Zm18.466-1.985a1.057,1.057,0,0,1,1.087,1.025v.012c.174,1.608.358,3.527.4,5.564V45.2c0,1.576,0,3.2-.08,4.856a55.23,55.23,0,0,1-.563,5.773l-.006.036A1.206,1.206,0,0,1,59,57c-.06,0-.122,0-.189-.009-.844-.077-1.7-.121-2.535-.164-.438-.023-.892-.046-1.334-.074-2.667-.16-5.275-.238-7.97-.238a1.153,1.153,0,0,1-1.022-.472,1.442,1.442,0,0,1-.2-.836V40.5a1.468,1.468,0,0,1,.222-.993,1.2,1.2,0,0,1,.977-.387l.123-.007c1.293-.04,2.605-.07,3.875-.1s2.577-.06,3.864-.1c1.1-.03,2.241-.13,3.346-.226.35-.031.7-.061,1.047-.089A1.779,1.779,0,0,1,59.406,38.586ZM59.4,45.21c-.039-1.839-.2-3.591-.357-5.093l-.758.065c-1.127.1-2.293.2-3.433.231-1.29.04-2.6.07-3.873.1-1.224.028-2.487.058-3.732.1v14.4c2.629.005,5.18.084,7.788.24.435.027.884.05,1.319.073.8.041,1.617.083,2.439.154a53.539,53.539,0,0,0,.529-5.486v-.005C59.4,48.375,59.4,46.766,59.4,45.21Zm-18.341,14.5a1.168,1.168,0,0,1,1.425,1.427V78.035a2.554,2.554,0,0,1-.036.552.861.861,0,0,1-.858.705,1.784,1.784,0,0,1-.642-.16,12.573,12.573,0,0,1-4.728-3.42A29.715,29.715,0,0,1,30.351,65.55c-.488-1.268-.852-2.525-1.211-3.808a1.242,1.242,0,0,1,.054-1.12,1.227,1.227,0,0,1,1.043-.428h.005c3-.24,6.031-.322,8.966-.4h.02c.61,0,1.176-.038,1.775-.078ZM40.98,77.52V61.22c-.556.037-1.13.073-1.74.073-2.81.075-5.711.153-8.563.371.321,1.137.652,2.249,1.076,3.351l0,.008A28.286,28.286,0,0,0,37.318,74.7l0,0A11.421,11.421,0,0,0,40.98,77.52Zm6.148-17.767h.02c1.447.039,2.919.089,4.342.137,1.474.05,3,.1,4.508.142h.022c.368.021.727.051,1.074.081.33.028.672.058,1.012.077a1.053,1.053,0,0,1,.873.4,1.038,1.038,0,0,1,.143.946,36.986,36.986,0,0,1-5.228,11.985,15.564,15.564,0,0,1-5.672,5.259l0,0c-.177.089-.346.154-.5.212a2.92,2.92,0,0,0-.38.166l-.037.02a1.348,1.348,0,0,1-.613.167c-.159,0-.95-.056-.95-1.156V61.18a1.454,1.454,0,0,1,.282-1.106A1.358,1.358,0,0,1,47.127,59.753Zm8.82,1.778c-1.512-.041-3.035-.092-4.508-.142-1.377-.047-2.8-.095-4.2-.133V77.575c.106-.041.207-.082.3-.129a13.936,13.936,0,0,0,5.119-4.777,34.972,34.972,0,0,0,4.875-11.012c-.194-.015-.384-.031-.571-.047C56.633,61.58,56.289,61.551,55.947,61.531ZM24.826,60.66a1.1,1.1,0,0,1,1.129.967,41.633,41.633,0,0,0,2.133,6.023A37.333,37.333,0,0,0,31.043,73.2l.008.012a29.091,29.091,0,0,0,2.034,2.816,1.46,1.46,0,0,1,.18.251c.007.012.014.024.022.036a.312.312,0,0,0-.035-.041l-.741,1.25a20.65,20.65,0,0,1-4.4-1.939,33.673,33.673,0,0,1-10.715-9.572c-.4-.537-.75-1.091-1.088-1.626-.181-.288-.369-.585-.561-.875l-.019-.03a1.064,1.064,0,0,1-.116-1.041,1.093,1.093,0,0,1,.908-.561c2.058-.428,4.157-.706,6.187-.975l.191-.025c.291-.042.589-.073.878-.1s.561-.058.824-.1A1.623,1.623,0,0,1,24.826,60.66ZM29.79,74.022a38.772,38.772,0,0,1-3.073-5.761l0-.005A43.377,43.377,0,0,1,24.554,62.2c-.21.026-.421.048-.627.069-.288.03-.561.058-.824.1l-.2.027c-1.826.242-3.708.491-5.545.849l.218.345c.338.536.657,1.042,1.023,1.532l.005.007a32.181,32.181,0,0,0,10.241,9.152c.612.344,1.177.638,1.711.89Q30.162,74.606,29.79,74.022Z" transform="translate(-6.396 -8.897)" fill="#fff"/>
        <path id="Path_5198_-_Outline-2" data-name="Path 5198 - Outline" d="M43.113,7.7h0a37.384,37.384,0,0,1,21.06,6.582,38.112,38.112,0,0,1,13.6,16.739,37.578,37.578,0,0,1,2.891,14.7,36.591,36.591,0,0,1-1.106,8.9,38.007,38.007,0,0,1-3.112,8.2l-.31.6L59.971,58.178,63.89,76.932l-.452.3A36.467,36.467,0,0,1,43.266,83.3l-.393,0h-.212a36.614,36.614,0,0,1-14.51-2.995A37.635,37.635,0,0,1,21.8,76.8,38.325,38.325,0,0,1,8.144,60.1a37.536,37.536,0,0,1,.342-30.01l.53-1.176.81,1a14.133,14.133,0,0,0,18.833,2.868l.237-.158.283.028c.365.037.785.076,1.152.076h.02c1.273.032,2.564.09,3.812.146,1.812.082,3.684.166,5.537.172V14.837a10.822,10.822,0,0,0-2.375,1.593l-.016.014-.017.013c-.21.165-.309.235-.369.276l0,0-.082.089-.168.184-.993,1.08-.36-1.424c-.669-2.645-1.236-4.506-2.962-6.2l-.929-.913,1.233-.413A28.472,28.472,0,0,1,43.113,7.7ZM75.345,61.489a35.746,35.746,0,0,0,3.736-15.77v0A36.255,36.255,0,0,0,43.112,9.294a27.894,27.894,0,0,0-8.783.986,10.194,10.194,0,0,1,1.357,2.279,18.24,18.24,0,0,1,.84,2.457A12.231,12.231,0,0,1,39.673,13.1a1.722,1.722,0,0,1,.663-.172.917.917,0,0,1,.894.686,2.112,2.112,0,0,1,.057.581v19.01a1.459,1.459,0,0,1-.289,1.1,1.339,1.339,0,0,1-1.1.332c-1.953,0-3.912-.088-5.807-.174-1.238-.056-2.518-.113-3.771-.145-.338,0-.691-.026-1.019-.057a15.543,15.543,0,0,1-8.023,2.481c.266.033.532.064.793.09a1.255,1.255,0,0,1,.943.438,1.339,1.339,0,0,1,.247,1.032l0,.016-.035.289c-.108.9-.209,1.745-.28,2.628a55.9,55.9,0,0,0-.078,7.271v.005a55.922,55.922,0,0,0,.587,5.651,7.411,7.411,0,0,1,.1.813,1.375,1.375,0,0,1-.241.91c-.345.463-.907.534-1.619.623a81.206,81.206,0,0,0-8.1,1.34l-.051.012-.052.005c-.065.007-.13.01-.192.01a1.407,1.407,0,0,1-1.4-1.077,37,37,0,0,1-1.618-6.586v-.011c-.191-1.458-.275-2.9-.349-4.171l-.015-.263v-.033a34.927,34.927,0,0,1,1.384-9.54l.006-.018a1.59,1.59,0,0,1,.34-.617,1.13,1.13,0,0,1,.845-.35,1.817,1.817,0,0,1,.359.039l.034.008c.834.206,1.68.385,2.531.547a15.634,15.634,0,0,1-5.982-3.922A35.436,35.436,0,0,0,6.788,45.4v0A36.016,36.016,0,0,0,17.371,71.052,35.443,35.443,0,0,0,42.661,81.706h.222l.383,0a34.934,34.934,0,0,0,18.847-5.515L57.861,55.846a2,2,0,0,1-.251-.008c-.843-.077-1.7-.121-2.534-.164-.438-.022-.891-.046-1.332-.073h0c-2.669-.16-5.276-.238-7.972-.238a1.193,1.193,0,0,1-1.057-.491,1.486,1.486,0,0,1-.213-.864V39.3a1.5,1.5,0,0,1,.233-1.023,1.235,1.235,0,0,1,1.008-.4l.1-.006h.028c1.293-.04,2.607-.07,3.877-.1s2.577-.06,3.865-.1h0c1.095-.03,2.237-.129,3.342-.226.343-.03.7-.061,1.046-.089a1.82,1.82,0,0,1,.213-.013,1.08,1.08,0,0,1,.822.337,1.3,1.3,0,0,1,.309.73v.013c.174,1.609.358,3.53.4,5.569v.017c0,1.576,0,3.205-.08,4.858a55.284,55.284,0,0,1-.564,5.781l-.007.039a1.59,1.59,0,0,1-.346.774,1.179,1.179,0,0,1-.816.386Zm-53.7-23.1c-.736-.081-1.488-.189-2.2-.3h0c-2.2-.342-4.467-.7-6.684-1.228a33.635,33.635,0,0,0-1.253,8.875l.012.2c.076,1.3.155,2.652.338,4.051a35.393,35.393,0,0,0,1.54,6.269c2.686-.623,5.433-.983,8.091-1.331h0c.122-.015.306-.038.455-.063-.017-.136-.045-.305-.069-.454l0-.012a58.39,58.39,0,0,1-.522-13.292c.073-.914.176-1.777.286-2.69Zm36.51,5.62c-.039-1.819-.195-3.553-.352-5.044l-.716.062c-1.128.1-2.294.2-3.436.231-1.293.04-2.605.07-3.874.1-1.21.028-2.459.057-3.691.094V53.77c2.615.006,5.154.085,7.749.24h0c.433.027.882.05,1.317.073.783.04,1.591.082,2.4.151a53.427,53.427,0,0,0,.522-5.439v-.006C58.159,47.177,58.159,45.569,58.159,44.014ZM45.448,12.921a2.172,2.172,0,0,1,.695.16l.033.012a11.487,11.487,0,0,1,2.762,1.54,14.7,14.7,0,0,1,2.277,2.147,24.79,24.79,0,0,1,3.094,4.463,36.564,36.564,0,0,1,2.211,4.9,45.555,45.555,0,0,1,1.9,6.486v.006a1.327,1.327,0,0,1-.112,1.167,1.3,1.3,0,0,1-1.042.433c-1.918.15-3.862.234-5.741.315-.624.027-1.269.055-1.9.085h-.012c-.622.02-1.261.03-1.879.04s-1.244.02-1.853.04h-.026a1.216,1.216,0,0,1-1.35-1.355V14.236a2.562,2.562,0,0,1,.04-.581A.91.91,0,0,1,45.448,12.921ZM56.8,32.676a43.386,43.386,0,0,0-1.764-5.96l0-.007a27.672,27.672,0,0,0-5.013-8.878l0,0a11.353,11.353,0,0,0-3.926-3.044V33.118c.538-.015,1.084-.024,1.615-.032.61-.01,1.24-.02,1.847-.039.635-.03,1.279-.058,1.9-.085C53.209,32.886,55.019,32.808,56.8,32.676ZM54.066,14.251,56.382,15.3a32.346,32.346,0,0,1,4.595,2.491,33.927,33.927,0,0,1,5.508,4.51A32.394,32.394,0,0,1,70.9,27.92c.358.57.693,1.158,1.016,1.727.114.2.232.408.347.607a1.289,1.289,0,0,1,.214,1.143,1.272,1.272,0,0,1-.945.7L71.5,32.1c-1.5.394-3.078.719-5.115,1.052h-.007l-.363.056c-.916.142-1.783.277-2.7.383a2.136,2.136,0,0,1-.365.035,1.224,1.224,0,0,1-.873-.339,1.592,1.592,0,0,1-.4-.77l-.008-.034a58.147,58.147,0,0,0-1.8-6.836A36.886,36.886,0,0,0,55.6,16.8l-.031-.045-.021-.043-.023-.035c-.032-.048-.08-.12-.149-.236Zm16.6,16.42-.133-.234c-.315-.555-.642-1.128-.982-1.669l0,0a31.271,31.271,0,0,0-9.449-9.639c-.606-.4-1.225-.773-1.892-1.139a42.694,42.694,0,0,1,3.157,7.143l0,.011a59.523,59.523,0,0,1,1.818,6.863c.866-.1,1.7-.232,2.581-.368l.361-.056C67.924,31.289,69.345,31,70.671,30.671ZM73.49,34.8a1.047,1.047,0,0,1,1.032.844,30.988,30.988,0,0,1,1.341,6.9c.04.485.071.973.1,1.446s.059.948.1,1.418l0,.041V45.5A37.459,37.459,0,0,1,75.5,51.3a33.68,33.68,0,0,1-1.51,5.608l-.015.042-.1.2a1.267,1.267,0,0,1-.31.574,1.083,1.083,0,0,1-.8.327,1.858,1.858,0,0,1-.532-.089,56.622,56.622,0,0,0-8.019-1.486,2.462,2.462,0,0,1-.255-.027c-.03,0-.074-.011-.092-.012h-.06l-.065-.011c-.109-.018-.205-.032-.29-.045a1.3,1.3,0,0,1-1.029-.5,1.528,1.528,0,0,1-.124-1.115c.009-.074.02-.158.03-.251l0-.021c.316-2.22.434-4.479.549-6.664v-.007a67.727,67.727,0,0,0-.316-9.727,1.227,1.227,0,0,1,.423-1.137,1.491,1.491,0,0,1,.782-.279c1.743-.233,3.545-.475,5.305-.828a32.319,32.319,0,0,0,3.954-.971l.033-.01A1.514,1.514,0,0,1,73.49,34.8Zm.985,10.7c-.039-.473-.068-.949-.1-1.409s-.059-.948-.1-1.418v-.01a29.024,29.024,0,0,0-1.152-6.142,37.577,37.577,0,0,1-3.736.89c-1.746.351-3.508.591-5.217.82a67.549,67.549,0,0,1,.3,9.683c-.116,2.215-.236,4.506-.561,6.791q-.008.068-.015.13l.06.01c.086,0,.166.016.233.026.03,0,.074.011.092.012h.04l.046.005a58.446,58.446,0,0,1,8.121,1.491l.029-.059A33.252,33.252,0,0,0,74.475,45.5ZM27.566,37.3c.064,0,.13,0,.2.009l1.428.09c2.659.17,5.409.346,8.119.346.479,0,.955.021,1.415.041s.871.038,1.285.038a1.223,1.223,0,0,1,1,.415,1.362,1.362,0,0,1,.27.9V53.9a1.585,1.585,0,0,1,.011.408,1.1,1.1,0,0,1-.244.589,1.4,1.4,0,0,1-1.116.423h-.013c-.3-.005-.613-.008-.928-.008-1.98,0-3.931.1-6,.2l-.088,0c-1.751.084-3.33.162-4.932.277a1.847,1.847,0,0,1-.192.01,1.133,1.133,0,0,1-.866-.354,1.338,1.338,0,0,1-.316-.75V54.7c-.236-2.049-.479-4.167-.6-6.262a55.893,55.893,0,0,1,.04-6.388v-.01c.04-.584.091-1.185.14-1.766s.1-1.169.138-1.741l0-.024a1.406,1.406,0,0,1,.315-.824A1.178,1.178,0,0,1,27.566,37.3ZM39.7,39.419c-.347-.006-.7-.022-1.037-.037-.443-.02-.9-.04-1.345-.04-2.761,0-5.536-.177-8.22-.349l-1.21-.077c-.036.5-.079,1-.12,1.489-.048.573-.1,1.166-.138,1.736a54.331,54.331,0,0,0-.039,6.2c.111,1.939.333,3.92.554,5.845,1.524-.105,3.031-.18,4.689-.26l.086,0c1.994-.1,4.056-.2,6.076-.2.237,0,.473,0,.7,0Zm.132,19.052h.026a1.211,1.211,0,0,1,1.469,1.475v16.9a2.586,2.586,0,0,1-.037.563.9.9,0,0,1-.9.742,1.816,1.816,0,0,1-.657-.163,12.618,12.618,0,0,1-4.745-3.432,24.552,24.552,0,0,1-3.459-4.83,38.787,38.787,0,0,1-2.416-5.35c-.489-1.27-.853-2.528-1.213-3.813a1.284,1.284,0,0,1,.059-1.16,1,1,0,0,1,.659-.4,3.6,3.6,0,0,1,.418-.045h.005c3-.241,6.034-.322,8.971-.4h.021c.609,0,1.174-.038,1.773-.078Zm-.093,17.785V60.076c-.542.036-1.1.07-1.7.07-2.792.075-5.674.152-8.508.367.315,1.115.642,2.209,1.059,3.291l0,.009a28.245,28.245,0,0,0,5.554,9.659l0,.005A11.442,11.442,0,0,0,39.738,76.257Zm6.193-17.746h.021c1.447.039,2.92.089,4.344.137,1.474.05,3,.1,4.509.142h.023c.369.021.728.051,1.076.081s.671.058,1.01.077a1.055,1.055,0,0,1,1.058,1.406,46.934,46.934,0,0,1-2.074,6.2,31.142,31.142,0,0,1-3.162,5.8,19.058,19.058,0,0,1-2.489,2.974,13.352,13.352,0,0,1-3.2,2.3l0,0c-.179.09-.349.156-.5.214a2.9,2.9,0,0,0-.374.164l-.019.011-.02.01a1.388,1.388,0,0,1-.631.171.956.956,0,0,1-.89-.591A1.544,1.544,0,0,1,44.5,77V59.986a1.511,1.511,0,0,1,.3-1.139A1.39,1.39,0,0,1,45.931,58.512Zm8.82,1.872c-1.512-.041-3.035-.092-4.509-.142-1.362-.046-2.769-.094-4.153-.132V76.316c.083-.033.163-.067.238-.1a13.9,13.9,0,0,0,5.1-4.763l0,0A34.861,34.861,0,0,0,56.286,60.5l-.517-.043C55.421,60.432,55.093,60.4,54.752,60.384Zm-31.128-.965a1.143,1.143,0,0,1,1.172,1,41.594,41.594,0,0,0,2.13,6.014,37.294,37.294,0,0,0,2.953,5.541l.008.012a29.048,29.048,0,0,0,2.03,2.811,1.5,1.5,0,0,1,.185.258l.021.034a.351.351,0,0,0-.041-.048L31.3,76.374a20.7,20.7,0,0,1-4.414-1.943A33.531,33.531,0,0,1,21,70.215a34.518,34.518,0,0,1-4.844-5.371c-.4-.538-.751-1.093-1.09-1.629-.181-.287-.368-.584-.561-.874l-.02-.032a1.111,1.111,0,0,1-.119-1.086,1.13,1.13,0,0,1,.941-.588c2.06-.428,4.159-.706,6.19-.975l.191-.025c.292-.042.591-.073.88-.1s.56-.058.823-.1A1.665,1.665,0,0,1,23.624,59.419Zm4.929,13.437a38.824,38.824,0,0,1-3.077-5.768l0-.005a43.478,43.478,0,0,1-2.153-6.029c-.2.024-.4.045-.591.065-.288.03-.56.058-.823.1H21.9l-.2.026c-1.8.239-3.662.485-5.477.836l.181.286c.337.535.656,1.04,1.021,1.529l.006.007A32.144,32.144,0,0,0,27.662,73.04c.553.31,1.068.58,1.556.816Q28.878,73.366,28.553,72.856Z" transform="translate(-5.199 -7.7)" fill="none"/>
        <path id="Path_5199" data-name="Path 5199" d="M43.891,83.6h-.516a36.554,36.554,0,0,1-26.04-10.919,37.3,37.3,0,0,1-7.78-41.722l.278-.6.4.518A14.42,14.42,0,0,0,21.5,36.256a14.142,14.142,0,0,0,8.058-2.471l.119-.08.278.04a9.7,9.7,0,0,0,1.072.08c1.191.04,2.382.08,3.533.159,1.985.08,4.009.2,6.034.159h.2V14.9a11.468,11.468,0,0,0-3.057,1.913,3.1,3.1,0,0,1-.4.319c-.04.04-.04.04-.278.319l-.516.558-.159-.757c-.635-2.59-1.231-4.543-3.057-6.376l-.437-.438.6-.2A28.061,28.061,0,0,1,43.812,8.8h0A37.48,37.48,0,0,1,81.006,46.378a37.589,37.589,0,0,1-4.168,16.936l-.159.279-16.553-5.3,3.811,18.251,4.049-3.586.357.558-.238.12A31.594,31.594,0,0,1,64.1,76.942v.279l-.675.677A34.431,34.431,0,0,1,43.891,83.6Zm-.318-.8a35.382,35.382,0,0,0,19.689-5.738L59.094,57.1l17.148,5.539a36.448,36.448,0,0,0-6.669-42.16A36.162,36.162,0,0,0,43.772,9.6a27.329,27.329,0,0,0-9.447,1.2,12.493,12.493,0,0,1,2.7,5.659,2.926,2.926,0,0,0,.238-.2,12.282,12.282,0,0,1,3.295-2.072c.278-.12.556-.239.794-.04.238.159.238.478.238.8V33.945c0,.837-.159,1.036-.992,1.036-2.064,0-4.089-.08-6.073-.159-1.151-.04-2.342-.12-3.533-.159a9.721,9.721,0,0,1-1.111-.08h0a15.266,15.266,0,0,1-19.847-2.67A35.326,35.326,0,0,0,7.094,46.1a36.486,36.486,0,0,0,10.8,26.021A35.831,35.831,0,0,0,43.574,82.8Zm2.58-4.344a1.223,1.223,0,0,1-.318-.08.839.839,0,0,1-.278-.717V60.643c0-.438,0-.677.2-.877a1.1,1.1,0,0,1,.834-.2h.119c2.9.08,5.8.2,8.693.279.4,0,.834.04,1.231.08.278.04.6.04.873.08a.794.794,0,0,1,.6.279.983.983,0,0,1,.079.638A36.95,36.95,0,0,1,53.021,72.8,15.166,15.166,0,0,1,47.5,77.938a1.99,1.99,0,0,1-.516.2,2.123,2.123,0,0,0-.437.2A.656.656,0,0,1,46.154,78.456Zm.2-18.131V77.539c.119-.04.278-.12.4-.159a2.124,2.124,0,0,0,.437-.2,14.586,14.586,0,0,0,5.24-4.862,36.235,36.235,0,0,0,5.041-11.556,5.9,5.9,0,0,1-.834-.08c-.4-.04-.794-.08-1.191-.08-2.9-.12-5.8-.2-8.693-.279h-.4ZM41.073,78.376a1.7,1.7,0,0,1-.556-.159,12.448,12.448,0,0,1-4.6-3.307,29.9,29.9,0,0,1-5.8-10.082c-.476-1.315-.873-2.63-1.191-3.786-.079-.319-.159-.6,0-.8.159-.239.4-.239.754-.279,3.1-.279,6.232-.319,8.971-.4a7,7,0,0,0,.913-.04c.318,0,.635-.04.913-.04.4,0,.675,0,.873.2s.2.478.2.877v16.9c0,.359,0,.638-.238.8C41.271,78.376,41.152,78.376,41.073,78.376ZM29.68,60.8c0,.04,0,.04.04.08.318,1.116.715,2.431,1.191,3.706a28.914,28.914,0,0,0,5.637,9.8A12.093,12.093,0,0,0,40.835,77.5h0V60.325h-.278a7,7,0,0,0-.913.04c-.318,0-.635.04-.913.04-2.7.04-5.835.12-8.892.4Zm3.453,16.179-1.072-.319A23.147,23.147,0,0,1,27.7,74.75a32.686,32.686,0,0,1-10.6-9.484c-.357-.478-.675-1.036-1.032-1.514-.2-.319-.4-.638-.635-.956a.71.71,0,0,1-.119-.677.809.809,0,0,1,.635-.4c1.945-.4,3.93-.677,5.875-.956l.556-.08.953-.12c.238-.04.516-.04.754-.08a.768.768,0,0,1,.953.638,40.827,40.827,0,0,0,2.144,6.137,39.572,39.572,0,0,0,2.977,5.619,25.553,25.553,0,0,0,2.1,2.869.834.834,0,0,1,.159.239ZM16.224,62.437c.2.279.357.558.556.837.318.478.635,1,.992,1.474a32.478,32.478,0,0,0,10.36,9.245h0a22.219,22.219,0,0,0,2.977,1.435c-.516-.677-.992-1.395-1.548-2.192A37.246,37.246,0,0,1,26.5,67.5a45.65,45.65,0,0,1-2.183-6.256c0-.04,0-.04-.04-.08H24.2c-.238.04-.516.04-.754.08-.318.04-.635.08-.913.12l-.556.08C20.074,61.8,18.129,62.038,16.224,62.437Zm57.2-4.1c-.119,0-.278-.04-.4-.04a57.011,57.011,0,0,0-8.137-1.514,7817.8,7817.8,0,0,0-.4-.08.983.983,0,0,0-.318-.04.983.983,0,0,1-.715-.279c-.159-.2-.119-.478-.079-.877l.04-.279c.318-2.232.437-4.5.556-6.695a66.9,66.9,0,0,0-.318-9.763.841.841,0,0,1,.834-1c1.945-.239,3.692-.518,5.359-.837a36.549,36.549,0,0,0,4.009-.956.667.667,0,0,1,.953.478,31.533,31.533,0,0,1,1.31,6.854c.04.638.079,1.275.119,1.953l.079.917A35,35,0,0,1,74.3,57.416a.3.3,0,0,1-.079.159l-.04.04a1.1,1.1,0,0,1-.357.6A.885.885,0,0,1,73.424,58.332ZM64.1,55.862a.3.3,0,0,1,.159.04c.079,0,.2.04.357.04a.43.43,0,0,1,.2.04.3.3,0,0,1,.2.04,59.272,59.272,0,0,1,8.217,1.514.3.3,0,0,0,.159.04.124.124,0,0,1,.04-.08.305.305,0,0,1,.079-.2c0-.04.04-.04.04-.08h0a34.566,34.566,0,0,0,1.985-10.958l-.04-.877-.119-1.913a31.788,31.788,0,0,0-1.27-6.615,40.6,40.6,0,0,1-4.089,1c-1.707.319-3.453.6-5.4.837a.238.238,0,0,0-.159.04v.08a68.538,68.538,0,0,1,.318,9.883c-.119,2.232-.238,4.5-.556,6.734l-.04.279C64.135,55.7,64.1,55.782,64.1,55.862ZM13.842,58.093c-.437,0-.715-.239-.913-.757h0A34.949,34.949,0,0,1,11.3,50.8c-.2-1.474-.278-2.989-.357-4.383a34.955,34.955,0,0,1,1.35-9.484.875.875,0,0,1,1.111-.677,64.086,64.086,0,0,0,6.828,1.235l.4.04c.635.08,1.31.2,1.985.239a.911.911,0,0,1,.675.319.839.839,0,0,1,.159.717l-.04.478c-.079.8-.2,1.634-.238,2.431a62.657,62.657,0,0,0-.079,7.292,49.854,49.854,0,0,0,.6,5.7v.08c.079.677.159,1.036-.079,1.355s-.635.359-1.35.438c-2.66.359-5.4.717-8.137,1.355C14.08,58.093,13.961,58.093,13.842,58.093Zm-.159-1c.079.239.079.239.318.2a66.6,66.6,0,0,1,8.217-1.355,2.449,2.449,0,0,0,.794-.159c0-.08-.04-.4-.079-.757v-.08c-.318-2.232-.516-4.1-.6-5.778a64.746,64.746,0,0,1,.079-7.412c.079-.837.159-1.674.238-2.471l.04-.478v-.12h-.119c-.675-.04-1.35-.159-2.024-.239l-.4-.04a64.223,64.223,0,0,1-6.907-1.275c-.079,0-.119-.04-.119,0a.234.234,0,0,0-.04.159,33.454,33.454,0,0,0-1.31,9.245A40,40,0,0,0,12.1,50.8a38.523,38.523,0,0,0,1.588,6.3Zm44.776-1H58.3c-.913-.08-1.826-.12-2.739-.159a11.173,11.173,0,0,1-1.151-.08c-2.937-.159-5.557-.239-7.979-.239a.836.836,0,0,1-.635-.239.985.985,0,0,1-.238-.717V39.922c0-.837.159-1,.953-1.036l1.826-.04c1.945-.04,3.969-.08,5.954-.159,1.231-.04,2.461-.159,3.692-.239l.754-.08a.758.758,0,0,1,.913.717c.238,2.112.357,3.865.4,5.539.04,1.913,0,3.427-.04,4.862h0c-.079,1.714-.278,3.626-.556,5.738C59.293,55.822,59.015,56.1,58.459,56.1ZM46.352,54.786h.079c2.461,0,5.081.08,8.018.239.4.04.754.04,1.151.08.913.04,1.866.08,2.779.159h.2a.63.63,0,0,1,.04-.159,54.271,54.271,0,0,0,.556-5.659h0c.079-1.435.079-2.949.04-4.822-.04-1.634-.159-3.387-.357-5.459h-.04l-.754.08c-1.231.08-2.461.2-3.692.239-1.985.08-4.009.12-5.954.159l-1.786.04h-.2V54.626C46.352,54.706,46.352,54.746,46.352,54.786ZM28.529,56.061A.771.771,0,0,1,27.7,55.3c-.278-2.232-.516-4.224-.6-6.256a56.291,56.291,0,0,1,.04-6.336c.04-.757.119-1.554.2-2.311.04-.4.079-.8.119-1.235a.847.847,0,0,1,1.032-.877h.2c3.1.2,6.272.438,9.408.438.437,0,.873,0,1.31.04.476,0,.953.04,1.429.04a1.007,1.007,0,0,1,.635.2.949.949,0,0,1,.238.677V54.467a1.081,1.081,0,0,1-.238.757.954.954,0,0,1-.754.239h0c-1.985-.04-3.969.04-5.915.12l-1.111.04c-1.667.08-3.374.159-4.962.279C28.609,56.061,28.569,56.061,28.529,56.061Zm-.04-.8h.079c1.588-.12,3.295-.239,4.962-.279l1.111-.04c1.945-.08,3.969-.159,5.954-.12h.2V39.683h-.04c-.476,0-.992,0-1.469-.04-.437,0-.834-.04-1.27-.04-3.176,0-6.351-.2-9.447-.438h-.318v.12c-.04.4-.079.8-.119,1.235-.079.757-.119,1.514-.2,2.271-.119,2.112-.119,4.184-.04,6.256.079,1.992.318,3.985.6,6.177ZM46.432,34.941A.854.854,0,0,1,45.8,34.7a.922.922,0,0,1-.238-.757V14.857c0-.4,0-.677.238-.837s.516-.08.873.08a12.4,12.4,0,0,1,4.882,3.586,29.522,29.522,0,0,1,5.24,9.245A52.374,52.374,0,0,1,58.7,33.347c.079.319.159.6-.04.837-.159.239-.437.239-.754.279-1.866.159-3.771.239-5.637.319-.675.04-1.35.04-2.024.08s-1.35.04-1.985.04c-.6,0-1.151,0-1.747.04Zm-.079-.8h.119c.6-.04,1.191-.04,1.786-.04.635,0,1.31,0,1.945-.04.675-.04,1.35-.04,2.024-.08,1.826-.08,3.731-.159,5.6-.319h.119c0-.04-.04-.08-.04-.12a45.177,45.177,0,0,0-1.866-6.336A29.221,29.221,0,0,0,50.957,18.2a11.459,11.459,0,0,0-4.565-3.347h-.04V33.985C46.352,34.064,46.352,34.1,46.352,34.144ZM63.659,33.9a.915.915,0,0,1-.953-.837h0a47.874,47.874,0,0,0-1.826-6.854,36.576,36.576,0,0,0-4.327-8.926c-.04-.04-.04-.08-.079-.159l-.715-1.235,1.111.518a33,33,0,0,1,4.565,2.471,32.661,32.661,0,0,1,9.8,10,25.859,25.859,0,0,1,1.31,2.271l.04.08a.957.957,0,0,1,.159.8c-.119.279-.437.359-.675.438a42.082,42.082,0,0,1-5.081,1.036,7.3,7.3,0,0,0-.913.159c-.715.12-1.429.239-2.183.319A.291.291,0,0,0,63.659,33.9Zm-.079-.8h.278c.715-.08,1.429-.2,2.144-.319a7.3,7.3,0,0,0,.913-.159,40.567,40.567,0,0,0,5-1.036H72a.139.139,0,0,1-.04-.08l-.04-.08c-.4-.757-.834-1.514-1.27-2.232a32.448,32.448,0,0,0-9.566-9.763,30.891,30.891,0,0,0-3.215-1.833,36.431,36.431,0,0,1,3.85,8.289,55.614,55.614,0,0,1,1.866,6.974c-.04.2,0,.239,0,.239Z" transform="translate(-5.858 -8.358)" fill="none"/>
      </g>
    </g>
    <g id="Group_2389" data-name="Group 2389" transform="translate(5.722 0.7)">
      <path id="Path_5200" data-name="Path 5200" d="M22.7,32.56A14.653,14.653,0,1,1,36.959,14.326,15.283,15.283,0,0,1,37.4,17.9,14.661,14.661,0,0,1,22.7,32.56ZM22.7,4A13.849,13.849,0,1,0,36.6,17.82a13.606,13.606,0,0,0-.4-3.374A13.7,13.7,0,0,0,22.7,4Z" transform="translate(-7.398 -2.598)"/>
      <path id="Path_5200_-_Outline" data-name="Path 5200 - Outline" d="M21.8,32.265A15.28,15.28,0,0,1,9.93,26.623,14.784,14.784,0,0,1,7.383,22.1,15.284,15.284,0,0,1,21.8,1.7,15.19,15.19,0,0,1,32.591,6.174a15.332,15.332,0,0,1,4.054,7.108v0A15.88,15.88,0,0,1,37.105,17,15.263,15.263,0,0,1,21.8,32.265Zm0-28.557A13.246,13.246,0,1,0,35.1,16.922a13.064,13.064,0,0,0-.382-3.223l0-.007a13.515,13.515,0,0,0-3.5-6.183A13.458,13.458,0,0,0,21.8,3.708Z" transform="translate(-6.5 -1.7)" fill="#00cfb7"/>
    </g>
    <g id="Group_2394" data-name="Group 2394" transform="translate(59.375 53.15)">
      <g id="Group_2393" data-name="Group 2393">
        <g id="Group_2392" data-name="Group 2392">
          <g id="Group_2391" data-name="Group 2391">
            <g id="Group_2390" data-name="Group 2390">
              <path id="Path_5201_-_Outline" data-name="Path 5201 - Outline" d="M155.907,157.334l-8.767-10.778-5.041,4.187L137.3,127.784l22.758,7.307-4.892,4.329,8.958,10.685Zm-7.856-12.453,8.032,9.6,5.163-4.582-8.958-10.685,3.7-3.263-16.078-5.181,3.432,16.373,3.836-3.352Z" transform="translate(-137.305 -127.784)" fill="#00cfb7"/>
            </g>
          </g>
        </g>
      </g>
    </g>
    <g id="Group_2397" data-name="Group 2397" transform="translate(11.626 4.234)">
      <g id="Group_2396" data-name="Group 2396">
        <g id="Group_2395" data-name="Group 2395">
          <path id="Path_5202" data-name="Path 5202" d="M40.352,19.939c.361-2.45-1.486-3.775-4.057-4.659l.843-3.334-2.008-.522-.8,3.253c-.522-.12-1.084-.241-1.607-.4l.8-3.253L31.516,10.5l-.843,3.334a12.018,12.018,0,0,1-1.285-.321h0l-2.771-.683L26.094,15l1.486.361a1.062,1.062,0,0,1,.924,1.165l-.964,3.816-1.325,5.3a.72.72,0,0,1-.924.482c.04.04-1.486-.361-1.486-.361l-1,2.33,2.651.643L26.9,29.1l-.843,3.374,2.008.522.843-3.334c.562.161,1.084.281,1.607.4l-.843,3.294,2.008.522L32.52,30.5c3.454.643,6.065.4,7.149-2.731.884-2.53-.04-3.976-1.848-4.9a3.154,3.154,0,0,0,2.53-2.932Zm-4.619,6.507c-.643,2.53-4.86,1.165-6.226.8l1.125-4.458c1.325.361,5.744,1.044,5.1,3.655Zm.6-6.507c-.562,2.289-4.1,1.125-5.221.843l1-4.057C33.243,17.007,36.938,17.529,36.335,19.939Z" transform="translate(-22.157 -10.098)" fill="#573bd1"/>
          <path id="Path_5203" data-name="Path 5203" d="M30.96,33.8l-2.812-.683.843-3.294a6.42,6.42,0,0,0-.843-.2l-.843,3.334-2.812-.683.843-3.374-.161-.04c-.281-.08-.6-.161-.884-.241L21.2,27.855,22.525,24.8l.321.08c.161.04.281.08.442.12h0l1.044.241a.336.336,0,0,0,.442-.2l2.249-9.037c0-.4-.2-.6-.643-.723l-.843-.321h0l-.6-.12-.4-.08.723-2.932,3.575.884h0c.161.04.361.08.522.12L30.2,9.5l2.812.683-.8,3.253c.281.08.562.12.843.2l.8-3.253,2.812.683L35.82,14.44c2.008.723,4.418,2.048,3.976,4.98h0a3.68,3.68,0,0,1-2.048,3.012c1.647,1.165,2.048,2.771,1.285,4.94-1.245,3.494-4.3,3.575-7.23,3.053Zm-1.807-1.285,1.245.321.843-3.334.361.08c3.936.723,5.784.04,6.667-2.45.723-2.089.2-3.454-1.647-4.418l-.964-.482,1.044-.241a2.879,2.879,0,0,0,2.289-2.651h0c.281-1.928-.884-3.213-3.775-4.217L34.856,15l.8-3.294-1.245-.321-.8,3.253-.4-.08c-.522-.12-1.084-.241-1.607-.361l-.4-.08.8-3.253-1.245-.321-.8,3.213-.4-.08c-.442-.12-.884-.2-1.285-.321l-.361-.08h0L25.9,12.753l-.361,1.406a7.612,7.612,0,0,1,1.084.281h0a1.49,1.49,0,0,1,1.245,1.607v.08l-2.33,9.117a1.128,1.128,0,0,1-1.406.723h0c-.2-.04-.562-.12-1.165-.281l-.643,1.566,2.169.522c.321.08.6.161.884.241l.924.241-.843,3.374,1.245.321.843-3.334.4.12c.562.161,1.084.281,1.607.4l.4.08Zm3.093-4.78a13.677,13.677,0,0,1-3.454-.6,1.768,1.768,0,0,0-.4-.08l-.4-.08,1.325-5.221.4.08a4.168,4.168,0,0,0,.482.12c1.406.321,3.816.843,4.659,2.289a2.167,2.167,0,0,1,.241,1.727h0a2.178,2.178,0,0,1-1,1.366A3.7,3.7,0,0,1,32.245,27.735Zm-3.213-1.366h0c1.165.321,3.575.924,4.739.241a1.47,1.47,0,0,0,.643-.884,1.344,1.344,0,0,0-.161-1.125c-.683-1.125-2.972-1.647-4.177-1.888a.148.148,0,0,1-.12-.04Zm4.137-5.262a11.052,11.052,0,0,1-2.812-.482,1.242,1.242,0,0,0-.321-.08l-.4-.08,1.2-4.82.4.08c.12.04.241.04.4.08,1.165.241,3.133.683,3.9,1.928a2.027,2.027,0,0,1,.241,1.687h0a2.077,2.077,0,0,1-.964,1.325A3.208,3.208,0,0,1,33.169,21.108Zm-2.53-1.245c.924.241,2.812.723,3.775.161a1.2,1.2,0,0,0,.562-.8,1.307,1.307,0,0,0-.12-1.044c-.6-.924-2.41-1.325-3.374-1.566h-.04Z" transform="translate(-21.2 -9.5)" fill="none"/>
        </g>
      </g>
    </g>
  </g>
</svg>
